<svg version="1.1" xmlns="http://www.w3.org/2000/svg" viewBox="0 0 620 340" width="620" height="340">
  <!-- svg-source:excalidraw -->
  
  <defs>
    <style>
      @font-face {
        font-family: "Virgil";
        src: url("https://excalidraw.com/Virgil.woff2");
      }
      @font-face {
        font-family: "Cascadia";
        src: url("https://excalidraw.com/Cascadia.woff2");
      }
    </style>
  </defs>
  <rect x="0" y="0" width="620" height="340" fill="#fff0"></rect><g stroke-linecap="round" transform="translate(10 10) rotate(0 0.5 0.5)"><path d="M-0.06 -0.03 C0.4 -0.08, 0.7 0.04, 0.91 0.03 M0.05 -0.04 C0.42 -0.05, 0.75 0.03, 0.99 0.01 M1.08 -0.06 C1.09 0.27, 1.05 0.48, 1.09 0.92 M0.97 0.01 C0.95 0.33, 0.98 0.72, 1 0.99 M1.03 1.06 C0.65 1.06, 0.49 0.96, -0.03 0.97 M1 1.02 C0.74 0.96, 0.52 1.04, -0.04 0.98 M-0.04 1.01 C0 0.63, -0.06 0.15, 0.05 -0.03 M-0.04 0.95 C-0.04 0.73, -0.03 0.59, -0.05 -0.02" stroke="transparent" stroke-width="0.5" fill="none"></path></g><g stroke-linecap="round" transform="translate(90 30) rotate(0 260 150)"><path d="M-0.61 0.11 C165.92 0.28, 332.76 0.3, 519.42 0.2 M-0.3 -0.28 C155.27 0.16, 311.16 0.81, 520.3 0.18 M521.46 1.04 C520.11 68.59, 518.48 139.94, 521.02 300.19 M520.5 -0.54 C518.18 89.3, 518.01 178.06, 519.44 300.21 M520.54 300.4 C371.06 301.7, 223.21 302.2, -0.52 299.48 M520.24 299.73 C330.68 300.53, 142.38 300.66, -0.21 300.05 M-0.05 300.1 C1.96 208.03, 1.51 115.53, 0.88 -0.67 M-0.13 300.01 C-0.9 202.12, -1.19 105.83, 0.68 -0.62" stroke="#220033" stroke-width="0.5" fill="none"></path></g><g stroke-linecap="round" transform="translate(150 70) rotate(0 130 110)"><path d="M110.65 0.58 C124.2 -3.04, 141.06 -0.44, 155.48 2.08 C169.9 4.6, 184.65 9.3, 197.16 15.67 C209.67 22.05, 221.29 30.66, 230.54 40.35 C239.79 50.03, 247.63 61.63, 252.66 73.76 C257.7 85.9, 260.85 100.4, 260.74 113.14 C260.62 125.88, 257.57 138.69, 251.97 150.22 C246.38 161.75, 237.15 172.79, 227.17 182.31 C217.18 191.84, 204.84 201.27, 192.08 207.38 C179.33 213.49, 165.34 217.35, 150.62 218.96 C135.91 220.58, 118.46 219.42, 103.79 217.06 C89.11 214.7, 75.07 211.16, 62.58 204.8 C50.08 198.44, 38.24 188.7, 28.83 178.92 C19.42 169.13, 10.8 158.06, 6.11 146.07 C1.42 134.08, 0.25 119.59, 0.7 106.98 C1.15 94.37, 3.6 82.04, 8.81 70.4 C14.02 58.76, 22.33 46.54, 31.96 37.13 C41.58 27.71, 52.41 19.97, 66.59 13.91 C80.76 7.84, 107.22 2.55, 116.98 0.73 C126.74 -1.09, 124.82 1.32, 125.15 2.98 M129.95 -0.97 C144.27 -2.67, 162.17 2.78, 176.28 7.46 C190.4 12.15, 203.66 19.32, 214.62 27.13 C225.57 34.94, 234.73 43.41, 242.02 54.35 C249.32 65.29, 255.63 80.33, 258.39 92.78 C261.14 105.24, 261.23 116.94, 258.55 129.11 C255.86 141.27, 250.03 154.98, 242.29 165.77 C234.54 176.56, 223.52 185.85, 212.06 193.84 C200.6 201.84, 187.23 209.39, 173.54 213.74 C159.84 218.08, 144.65 220.13, 129.89 219.91 C115.14 219.68, 98.9 216.85, 85.03 212.38 C71.15 207.9, 57.92 200.97, 46.63 193.07 C35.35 185.17, 24.96 175.8, 17.32 164.97 C9.68 154.13, 3.31 140.52, 0.78 128.07 C-1.74 115.61, -0.46 102.59, 2.16 90.22 C4.79 77.85, 8.95 64.44, 16.54 53.84 C24.13 43.24, 36.27 34.72, 47.7 26.62 C59.14 18.51, 71.06 9.47, 85.14 5.23 C99.22 0.98, 124.73 1.7, 132.2 1.17 C139.68 0.64, 130.28 0.24, 129.99 2.04" stroke="#220033" stroke-width="0.5" fill="none"></path></g><g stroke-linecap="round" transform="translate(290 70) rotate(0 130 110)"><path d="M163.45 4.12 C177.48 5.47, 192.82 12.93, 205 20 C217.19 27.07, 228.25 36.27, 236.58 46.53 C244.91 56.8, 251.32 69.21, 255 81.59 C258.69 93.97, 259.78 108.14, 258.69 120.82 C257.6 133.5, 254.56 146.57, 248.45 157.67 C242.33 168.78, 232.68 178.84, 221.99 187.44 C211.31 196.05, 197.69 203.84, 184.32 209.32 C170.95 214.8, 156.49 219.36, 141.78 220.33 C127.08 221.3, 110.69 218.57, 96.09 215.14 C81.48 211.71, 66.17 206.79, 54.14 199.74 C42.11 192.69, 32.21 183.27, 23.89 172.84 C15.58 162.42, 8.05 149.22, 4.26 137.19 C0.47 125.15, -0.09 112.97, 1.15 100.63 C2.38 88.28, 5.43 74.61, 11.67 63.12 C17.92 51.63, 28.05 40.64, 38.62 31.68 C49.2 22.72, 61.64 14.59, 75.12 9.35 C88.6 4.11, 103.47 0.71, 119.51 0.23 C135.55 -0.25, 161.66 4.79, 171.37 6.48 C181.08 8.16, 178.61 8.73, 177.76 10.34 M111.27 1.98 C124.88 -1.13, 143.12 0.5, 157.92 2.81 C172.72 5.12, 187.83 9.2, 200.06 15.85 C212.3 22.49, 222.19 32.52, 231.32 42.71 C240.45 52.89, 250.22 65.04, 254.85 76.97 C259.49 88.9, 259.86 102.01, 259.14 114.29 C258.41 126.58, 256.11 139.11, 250.5 150.68 C244.89 162.26, 235.4 174.2, 225.46 183.76 C215.51 193.33, 203.8 202.15, 190.84 208.08 C177.87 214.01, 162.49 217.6, 147.67 219.33 C132.85 221.06, 116.51 221.08, 101.92 218.44 C87.34 215.8, 72.46 210.49, 60.14 203.49 C47.82 196.5, 37.02 186.42, 28 176.47 C18.98 166.51, 10.63 155.73, 6 143.75 C1.36 131.76, -0.34 116.98, 0.18 104.53 C0.7 92.09, 3.31 80.68, 9.11 69.08 C14.91 57.48, 25.17 44.09, 35 34.91 C44.84 25.74, 55.06 19.81, 68.12 14.01 C81.19 8.21, 106.02 1.97, 113.41 0.11 C120.79 -1.75, 112.17 0.75, 112.43 2.84" stroke="#220033" stroke-width="0.5" fill="none"></path></g><g transform="translate(183.33334350585938 54.5) rotate(0 4 8.333343505859375)" stroke="none"><path fill="#220033" d="M -0.91,0.60 Q -0.91,0.60 -1.44,0.13 -1.97,-0.34 -2.47,-0.69 -2.96,-1.04 -3.06,-1.19 -3.16,-1.35 -3.22,-1.53 -3.28,-1.70 -3.29,-1.88 -3.30,-2.07 -3.27,-2.25 -3.24,-2.43 -3.17,-2.60 -3.10,-2.77 -2.99,-2.92 -2.88,-3.07 -2.73,-3.19 -2.59,-3.30 -2.42,-3.38 -2.26,-3.46 -2.07,-3.50 -1.89,-3.53 -1.71,-3.53 -1.52,-3.52 -1.35,-3.47 -1.17,-3.41 -1.01,-3.32 -0.85,-3.23 -0.72,-3.10 -0.58,-2.97 -0.27,-1.22 0.04,0.53 0.11,1.71 0.17,2.90 -0.15,6.20 -0.48,9.50 -1.02,12.08 -1.56,14.66 -1.98,16.33 -2.40,18.00 -2.97,19.72 -3.54,21.43 -3.98,22.56 -4.42,23.69 -4.60,24.35 -4.78,25.00 -4.88,25.19 -4.98,25.37 -5.12,25.52 -5.26,25.68 -5.43,25.80 -5.61,25.91 -5.80,25.98 -6.00,26.05 -6.21,26.08 -6.42,26.10 -6.62,26.07 -6.83,26.04 -7.03,25.97 -7.22,25.89 -7.39,25.77 -7.56,25.65 -7.70,25.49 -7.83,25.33 -7.93,25.14 -8.02,24.95 -8.07,24.75 -8.12,24.55 -8.12,24.34 -8.11,24.13 -8.06,23.93 -8.01,23.72 -7.66,23.00 -7.32,22.28 -6.85,20.90 -6.38,19.52 -6.01,17.68 -5.64,15.84 -4.69,12.82 -3.73,9.79 -2.96,7.04 -2.18,4.29 -1.68,1.83 -1.17,-0.63 -0.54,-2.73 0.07,-4.83 0.32,-5.85 0.56,-6.86 1.21,-7.88 1.86,-8.91 2.94,-9.21 4.01,-9.52 4.70,-9.24 5.39,-8.96 6.45,-7.54 7.50,-6.13 8.35,-3.88 9.20,-1.63 9.92,0.82 10.64,3.28 11.51,6.01 12.38,8.74 13.13,10.83 13.87,12.93 14.39,14.41 14.90,15.90 13.81,17.95 12.71,20.01 12.61,19.97 12.51,19.93 12.43,19.87 12.35,19.80 12.29,19.71 12.23,19.62 12.21,19.52 12.18,19.41 12.19,19.31 12.20,19.20 12.24,19.10 12.29,19.01 12.36,18.93 12.43,18.85 12.52,18.80 12.62,18.75 12.72,18.73 12.82,18.71 12.93,18.72 13.03,18.74 13.13,18.78 13.22,18.83 13.30,18.91 13.37,18.98 13.42,19.08 13.47,19.17 13.48,19.28 13.49,19.39 13.47,19.49 13.45,19.59 13.40,19.69 13.35,19.78 13.27,19.85 13.19,19.92 13.09,19.96 12.99,20.00 12.89,20.01 12.78,20.02 12.68,19.99 12.57,19.96 12.49,19.91 12.40,19.85 12.33,19.77 12.26,19.68 12.23,19.58 12.19,19.48 12.19,19.38 12.19,19.27 12.22,19.17 12.25,19.07 12.31,18.98 12.38,18.90 12.46,18.83 12.55,18.77 12.65,18.74 12.75,18.71 12.86,18.72 12.97,18.72 12.97,18.72 12.97,18.72 12.27,17.89 11.57,17.05 11.06,15.58 10.55,14.11 9.79,11.95 9.03,9.80 8.15,7.03 7.27,4.26 6.59,1.92 5.91,-0.42 5.26,-2.28 4.62,-4.13 4.31,-5.07 4.00,-6.01 3.73,-4.91 3.46,-3.82 2.87,-1.86 2.29,0.09 1.75,2.67 1.21,5.25 0.42,8.06 -0.36,10.87 -1.27,13.71 -2.19,16.55 -2.62,18.60 -3.05,20.65 -3.55,22.10 -4.05,23.54 -4.41,24.27 -4.78,25.00 -4.88,25.19 -4.98,25.37 -5.12,25.52 -5.26,25.68 -5.43,25.80 -5.61,25.91 -5.80,25.98 -6.00,26.05 -6.21,26.08 -6.42,26.10 -6.62,26.07 -6.83,26.04 -7.03,25.97 -7.22,25.89 -7.39,25.77 -7.56,25.65 -7.70,25.49 -7.83,25.33 -7.93,25.14 -8.02,24.95 -8.07,24.75 -8.12,24.55 -8.12,24.34 -8.11,24.13 -8.06,23.93 -8.01,23.72 -7.82,23.07 -7.63,22.42 -7.21,21.38 -6.79,20.33 -6.23,18.74 -5.68,17.16 -5.26,15.55 -4.85,13.95 -4.31,11.53 -3.78,9.12 -3.39,6.08 -3.00,3.04 -3.04,1.93 -3.08,0.82 -3.02,-0.10 -2.96,-1.04 -3.06,-1.19 -3.16,-1.35 -3.22,-1.52 -3.28,-1.70 -3.29,-1.88 -3.30,-2.07 -3.27,-2.25 -3.24,-2.43 -3.17,-2.60 -3.10,-2.77 -2.99,-2.92 -2.88,-3.07 -2.73,-3.19 -2.59,-3.30 -2.42,-3.38 -2.26,-3.46 -2.07,-3.50 -1.89,-3.53 -1.71,-3.53 -1.52,-3.52 -1.35,-3.47 -1.17,-3.41 -1.01,-3.32 -0.85,-3.23 -0.72,-3.10 -0.58,-2.97 -0.69,-3.08 -0.80,-3.19 -0.17,-2.57 0.44,-1.95 0.67,-1.28 0.91,-0.60 0.97,-0.48 1.03,-0.37 1.05,-0.24 1.08,-0.11 1.08,0.01 1.08,0.14 1.05,0.27 1.01,0.40 0.95,0.52 0.89,0.63 0.80,0.73 0.71,0.83 0.60,0.90 0.49,0.97 0.36,1.02 0.24,1.06 0.11,1.08 -0.01,1.09 -0.14,1.07 -0.27,1.05 -0.40,1.01 -0.52,0.96 -0.63,0.88 -0.73,0.80 -0.82,0.70 -0.91,0.60 -0.91,0.60 L -0.91,0.60 Z"></path></g><g transform="translate(178.66668701171875 67.16665649414062) rotate(0 10.33331298828125 -2.3333282470703125)" stroke="none"><path fill="#220033" d="M -0.30,-0.92 Q -0.30,-0.92 0.73,-1.61 1.78,-2.30 4.40,-3.09 7.03,-3.87 9.73,-4.40 12.44,-4.93 16.06,-4.99 19.67,-5.05 19.78,-5.05 19.89,-5.05 19.99,-5.02 20.09,-4.99 20.17,-4.92 20.26,-4.86 20.32,-4.77 20.38,-4.68 20.41,-4.58 20.43,-4.48 20.43,-4.37 20.42,-4.27 20.38,-4.17 20.34,-4.07 20.28,-3.99 20.21,-3.91 20.12,-3.85 20.02,-3.80 19.92,-3.77 19.82,-3.75 19.71,-3.76 19.61,-3.77 19.51,-3.82 19.41,-3.86 19.34,-3.94 19.26,-4.01 19.21,-4.10 19.16,-4.20 19.14,-4.30 19.12,-4.41 19.14,-4.51 19.16,-4.62 19.21,-4.71 19.26,-4.80 19.34,-4.88 19.41,-4.95 19.51,-4.99 19.61,-5.04 19.71,-5.05 19.82,-5.06 19.92,-5.04 20.02,-5.02 20.11,-4.96 20.21,-4.91 20.27,-4.83 20.34,-4.75 20.38,-4.65 20.42,-4.55 20.43,-4.44 20.43,-4.34 20.41,-4.23 20.38,-4.13 20.32,-4.04 20.26,-3.96 20.17,-3.89 20.09,-3.83 19.99,-3.79 19.89,-3.76 19.89,-3.76 19.89,-3.76 16.49,-2.66 13.09,-1.57 10.52,-1.09 7.95,-0.60 5.38,0.08 2.81,0.77 1.56,0.84 0.30,0.92 0.19,0.94 0.07,0.96 -0.03,0.96 -0.15,0.95 -0.26,0.92 -0.38,0.89 -0.48,0.83 -0.58,0.77 -0.66,0.69 -0.75,0.61 -0.81,0.51 -0.87,0.41 -0.91,0.30 -0.95,0.19 -0.96,0.07 -0.97,-0.03 -0.95,-0.15 -0.93,-0.27 -0.88,-0.37 -0.84,-0.48 -0.77,-0.58 -0.70,-0.67 -0.61,-0.74 -0.51,-0.82 -0.41,-0.87 -0.30,-0.92 -0.30,-0.92 L -0.30,-0.92 Z"></path></g><g transform="translate(508.66668701171875 49.833343505859375) rotate(0 -8.33331298828125 10)" stroke="none"><path fill="#220033" d="M -0.77,0.58 Q -0.77,0.58 -1.56,-0.02 -2.34,-0.63 -2.75,-1.07 -3.15,-1.51 -3.85,-1.71 -4.55,-1.90 -5.35,-2.02 -6.15,-2.14 -7.32,-2.01 -8.49,-1.88 -9.47,-1.82 -10.46,-1.77 -11.76,-1.21 -13.07,-0.65 -13.72,-0.12 -14.37,0.40 -14.94,1.26 -15.50,2.13 -16.15,3.24 -16.79,4.35 -16.97,6.67 -17.16,8.98 -17.28,10.64 -17.40,12.29 -17.26,13.21 -17.13,14.13 -16.56,15.32 -15.99,16.50 -15.21,17.76 -14.42,19.02 -13.49,19.78 -12.56,20.53 -10.85,20.96 -9.13,21.40 -7.28,21.62 -5.42,21.85 -4.05,21.58 -2.69,21.31 -0.53,21.43 1.61,21.55 1.72,21.54 1.82,21.54 1.93,21.57 2.03,21.59 2.12,21.66 2.20,21.72 2.27,21.80 2.33,21.89 2.36,21.99 2.40,22.09 2.40,22.19 2.39,22.30 2.36,22.40 2.33,22.50 2.26,22.58 2.20,22.67 2.11,22.73 2.02,22.79 1.92,22.81 1.81,22.84 1.71,22.84 1.60,22.83 1.50,22.79 1.40,22.75 1.32,22.68 1.24,22.61 1.19,22.52 1.14,22.43 1.11,22.32 1.09,22.22 1.10,22.11 1.12,22.01 1.16,21.91 1.21,21.82 1.28,21.74 1.35,21.66 1.45,21.61 1.54,21.56 1.65,21.55 1.75,21.53 1.86,21.55 1.96,21.57 2.06,21.62 2.15,21.67 2.22,21.75 2.29,21.82 2.34,21.92 2.38,22.02 2.39,22.12 2.40,22.23 2.38,22.33 2.36,22.44 2.30,22.53 2.24,22.62 2.16,22.69 2.08,22.75 1.98,22.79 1.88,22.83 1.88,22.83 1.88,22.83 -0.10,23.83 -2.09,24.83 -3.96,25.11 -5.83,25.38 -7.99,25.10 -10.14,24.81 -12.45,24.04 -14.75,23.27 -16.07,22.09 -17.39,20.91 -18.30,19.42 -19.21,17.94 -19.90,16.27 -20.60,14.61 -20.74,13.32 -20.89,12.04 -20.75,10.32 -20.62,8.59 -20.21,5.66 -19.80,2.74 -19.04,1.43 -18.28,0.13 -17.35,-1.07 -16.43,-2.28 -15.36,-3.03 -14.30,-3.77 -12.49,-4.40 -10.67,-5.03 -9.72,-5.08 -8.77,-5.13 -7.19,-5.23 -5.61,-5.33 -4.45,-5.10 -3.29,-4.87 -2.09,-4.24 -0.88,-3.61 -0.41,-3.02 0.04,-2.43 0.41,-1.50 0.77,-0.58 0.83,-0.48 0.89,-0.38 0.92,-0.26 0.96,-0.15 0.96,-0.03 0.97,0.07 0.94,0.19 0.92,0.30 0.87,0.41 0.82,0.52 0.74,0.61 0.67,0.70 0.58,0.77 0.48,0.84 0.37,0.88 0.27,0.93 0.15,0.95 0.03,0.97 -0.07,0.96 -0.19,0.95 -0.30,0.91 -0.41,0.87 -0.51,0.81 -0.61,0.75 -0.69,0.66 -0.77,0.58 -0.77,0.58 L -0.77,0.58 Z"></path></g><g transform="translate(554.6666870117188 281.1666564941406) rotate(0 13.33331298828125 8)" stroke="none"><path fill="#220033" d="M -0.60,0.80 Q -0.60,0.80 -1.54,0.24 -2.48,-0.31 -2.81,-1.50 -3.15,-2.69 -2.82,-3.77 -2.49,-4.85 -1.54,-6.28 -0.59,-7.70 0.69,-8.78 1.98,-9.86 3.55,-10.72 5.11,-11.57 6.59,-12.14 8.07,-12.70 9.59,-12.97 11.10,-13.23 12.95,-12.91 14.79,-12.59 16.36,-11.34 17.92,-10.08 18.63,-8.64 19.33,-7.20 18.82,-5.17 18.30,-3.15 17.21,-1.51 16.11,0.12 14.79,1.28 13.47,2.44 12.36,3.31 11.25,4.18 10.81,4.33 10.37,4.49 10.19,4.59 10.01,4.69 9.81,4.75 9.61,4.81 9.40,4.82 9.20,4.82 8.99,4.78 8.79,4.74 8.60,4.65 8.41,4.56 8.25,4.43 8.09,4.29 7.97,4.13 7.84,3.96 7.76,3.77 7.68,3.58 7.65,3.37 7.62,3.17 7.64,2.96 7.65,2.75 7.72,2.56 7.79,2.36 7.90,2.19 8.01,2.01 8.16,1.87 8.31,1.72 8.96,1.46 9.61,1.20 11.26,1.30 12.91,1.40 15.94,2.26 18.96,3.12 22.17,5.52 25.38,7.93 26.92,9.38 28.45,10.82 29.09,12.50 29.72,14.18 29.73,15.45 29.74,16.71 28.68,18.83 27.62,20.95 25.72,22.86 23.81,24.78 21.54,26.04 19.26,27.31 17.06,28.04 14.86,28.78 12.70,28.72 10.54,28.65 8.48,27.76 6.42,26.87 4.51,25.24 2.60,23.60 1.18,21.86 -0.22,20.12 -0.32,17.59 -0.41,15.06 -0.42,14.95 -0.42,14.85 -0.40,14.75 -0.37,14.64 -0.32,14.55 -0.26,14.46 -0.18,14.40 -0.09,14.33 0.00,14.29 0.10,14.26 0.20,14.25 0.31,14.25 0.41,14.28 0.51,14.31 0.60,14.38 0.68,14.44 0.75,14.52 0.81,14.61 0.84,14.71 0.87,14.81 0.87,14.92 0.87,15.03 0.83,15.13 0.79,15.23 0.73,15.31 0.66,15.39 0.57,15.45 0.48,15.51 0.38,15.53 0.27,15.56 0.17,15.55 0.06,15.54 -0.03,15.50 -0.12,15.46 -0.20,15.38 -0.28,15.31 -0.33,15.22 -0.39,15.13 -0.41,15.02 -0.43,14.92 -0.41,14.81 -0.40,14.71 -0.35,14.61 -0.30,14.52 -0.23,14.44 -0.15,14.37 -0.06,14.32 0.03,14.27 0.13,14.26 0.24,14.25 0.34,14.27 0.45,14.29 0.54,14.34 0.63,14.39 0.70,14.47 0.77,14.55 0.82,14.65 0.86,14.74 0.86,14.74 0.86,14.74 1.79,16.33 2.72,17.91 3.90,19.36 5.07,20.81 6.55,22.16 8.03,23.52 9.44,24.24 10.84,24.97 12.33,25.11 13.81,25.26 15.69,24.67 17.56,24.08 19.46,23.13 21.35,22.19 22.96,20.70 24.56,19.21 25.42,17.84 26.28,16.47 26.32,15.82 26.36,15.18 26.15,14.18 25.94,13.18 24.60,11.94 23.25,10.69 20.58,8.56 17.91,6.43 15.23,5.64 12.54,4.85 11.45,4.67 10.37,4.49 10.19,4.59 10.01,4.69 9.81,4.75 9.61,4.81 9.40,4.82 9.20,4.82 8.99,4.78 8.79,4.74 8.60,4.65 8.41,4.56 8.25,4.43 8.09,4.30 7.97,4.13 7.84,3.96 7.76,3.77 7.68,3.58 7.65,3.37 7.62,3.17 7.64,2.96 7.65,2.75 7.72,2.56 7.79,2.36 7.90,2.19 8.01,2.01 8.16,1.87 8.31,1.72 8.79,1.57 9.27,1.42 10.32,0.68 11.38,-0.05 12.44,-0.88 13.50,-1.72 14.40,-2.96 15.30,-4.21 15.87,-5.36 16.45,-6.51 16.11,-7.14 15.77,-7.77 14.88,-8.68 14.00,-9.58 12.77,-9.85 11.55,-10.11 10.36,-9.93 9.17,-9.74 7.88,-9.27 6.60,-8.79 5.27,-8.10 3.94,-7.40 2.93,-6.63 1.92,-5.87 1.05,-4.76 0.19,-3.64 -0.19,-2.81 -0.58,-1.98 0.01,-1.39 0.60,-0.80 0.69,-0.72 0.78,-0.64 0.84,-0.53 0.91,-0.43 0.95,-0.31 0.99,-0.20 1.00,-0.08 1.01,0.03 0.99,0.16 0.97,0.28 0.92,0.39 0.87,0.50 0.80,0.60 0.73,0.70 0.63,0.77 0.54,0.85 0.43,0.90 0.32,0.95 0.20,0.98 0.08,1.00 -0.03,1.00 -0.16,0.99 -0.27,0.96 -0.39,0.93 -0.50,0.87 -0.60,0.80 -0.60,0.80 L -0.60,0.80 Z"></path></g><g transform="translate(360 150.5) rotate(0 -12.6666259765625 15)" stroke="none"><path fill="#220033" d="M -0.62,0.62 Q -0.62,0.62 -1.68,-0.23 -2.74,-1.09 -3.69,-1.81 -4.64,-2.53 -5.93,-3.17 -7.22,-3.80 -8.72,-4.45 -10.22,-5.11 -11.62,-5.16 -13.02,-5.20 -15.29,-4.86 -17.57,-4.52 -19.21,-3.84 -20.85,-3.15 -22.24,-2.35 -23.63,-1.55 -24.05,-0.48 -24.46,0.59 -24.51,1.40 -24.56,2.21 -23.92,2.93 -23.28,3.64 -22.29,4.56 -21.30,5.47 -19.38,6.79 -17.47,8.12 -15.64,9.49 -13.81,10.86 -11.14,12.76 -8.47,14.67 -6.29,16.69 -4.12,18.72 -2.61,20.36 -1.11,22.00 -0.19,23.60 0.72,25.20 0.96,26.86 1.19,28.53 0.64,30.21 0.08,31.89 -1.24,33.29 -2.57,34.69 -4.38,35.69 -6.19,36.70 -8.04,37.32 -9.88,37.94 -12.16,37.41 -14.43,36.88 -15.94,35.47 -17.45,34.06 -18.14,31.29 -18.83,28.53 -18.48,25.71 -18.12,22.88 -17.16,20.11 -16.20,17.33 -14.58,14.71 -12.96,12.10 -10.86,9.96 -8.75,7.82 -6.95,6.01 -5.14,4.19 -3.84,2.70 -2.54,1.21 -1.89,0.00 -1.25,-1.20 -0.64,-1.45 -0.03,-1.70 -0.00,-1.59 0.01,-1.49 0.01,-1.39 0.00,-1.28 -0.03,-1.18 -0.07,-1.08 -0.14,-1.00 -0.21,-0.92 -0.31,-0.87 -0.40,-0.82 -0.50,-0.80 -0.61,-0.78 -0.71,-0.79 -0.82,-0.80 -0.91,-0.85 -1.01,-0.89 -1.08,-0.97 -1.16,-1.04 -1.21,-1.14 -1.26,-1.23 -1.27,-1.34 -1.29,-1.44 -1.27,-1.55 -1.25,-1.65 -1.20,-1.74 -1.15,-1.84 -1.07,-1.91 -0.99,-1.98 -0.89,-2.02 -0.80,-2.07 -0.69,-2.08 -0.58,-2.09 -0.48,-2.06 -0.38,-2.04 -0.29,-1.98 -0.20,-1.92 -0.13,-1.84 -0.06,-1.76 -0.02,-1.66 0.00,-1.56 0.01,-1.46 0.01,-1.35 -0.01,-1.25 -0.04,-1.15 -0.10,-1.06 -0.16,-0.97 -0.25,-0.91 -0.33,-0.85 -0.43,-0.81 -0.54,-0.78 -0.64,-0.78 -0.75,-0.79 -0.85,-0.82 -0.95,-0.86 -1.03,-0.92 -1.12,-0.99 -1.17,-1.08 -1.23,-1.17 -1.23,-1.17 -1.23,-1.17 0.03,-2.22 1.30,-3.28 1.48,-1.60 1.66,0.07 0.78,1.69 -0.09,3.32 -1.47,4.90 -2.86,6.48 -4.66,8.28 -6.47,10.09 -8.36,11.96 -10.25,13.82 -11.71,16.12 -13.18,18.41 -14.06,20.88 -14.94,23.35 -15.31,25.65 -15.68,27.95 -15.38,30.02 -15.08,32.10 -14.24,33.05 -13.41,34.01 -11.97,34.53 -10.54,35.06 -9.06,34.55 -7.59,34.05 -6.10,33.31 -4.61,32.56 -3.59,31.66 -2.58,30.76 -2.11,29.74 -1.65,28.71 -1.72,27.61 -1.80,26.52 -2.51,25.22 -3.22,23.92 -4.65,22.36 -6.07,20.80 -8.10,18.89 -10.12,16.98 -12.82,15.05 -15.51,13.11 -17.30,11.77 -19.08,10.42 -21.14,8.95 -23.21,7.49 -24.38,6.35 -25.54,5.22 -26.36,3.81 -27.19,2.40 -27.06,0.93 -26.94,-0.53 -26.06,-2.12 -25.18,-3.71 -23.51,-4.67 -21.85,-5.63 -19.90,-6.39 -17.96,-7.14 -15.41,-7.48 -12.87,-7.82 -11.04,-7.67 -9.21,-7.51 -7.62,-6.79 -6.04,-6.06 -4.57,-5.26 -3.11,-4.45 -2.10,-3.60 -1.09,-2.74 -0.23,-1.68 0.62,-0.62 0.68,-0.54 0.75,-0.45 0.79,-0.35 0.84,-0.26 0.86,-0.15 0.88,-0.05 0.87,0.05 0.86,0.15 0.83,0.26 0.80,0.36 0.74,0.45 0.69,0.54 0.61,0.61 0.54,0.69 0.45,0.74 0.36,0.80 0.26,0.83 0.15,0.86 0.05,0.87 -0.05,0.88 -0.15,0.86 -0.26,0.84 -0.35,0.79 -0.45,0.75 -0.54,0.68 -0.62,0.62 -0.62,0.62 L -0.62,0.62 Z"></path></g><g transform="translate(454.66668701171875 153.83334350585938) rotate(0 -0.33331298828125 12.999984741210938)" stroke="none"><path fill="#220033" d="M -0.82,0.33 Q -0.82,0.33 -1.43,-0.53 -2.04,-1.40 -2.09,-1.56 -2.13,-1.72 -2.13,-1.89 -2.13,-2.05 -2.10,-2.22 -2.06,-2.38 -1.99,-2.53 -1.91,-2.68 -1.80,-2.80 -1.70,-2.93 -1.56,-3.03 -1.43,-3.12 -1.27,-3.18 -1.12,-3.25 -0.95,-3.27 -0.79,-3.29 -0.62,-3.27 -0.46,-3.26 -0.30,-3.20 -0.14,-3.15 -0.00,-3.05 0.13,-2.96 0.24,-2.84 0.35,-2.72 0.43,-2.57 0.51,-2.42 0.75,-0.40 0.99,1.61 1.20,4.74 1.41,7.86 1.69,10.72 1.96,13.57 2.09,16.18 2.21,18.79 2.26,21.24 2.32,23.70 1.82,26.13 1.32,28.55 1.30,28.66 1.29,28.76 1.24,28.86 1.19,28.95 1.12,29.03 1.04,29.10 0.95,29.15 0.85,29.20 0.75,29.21 0.64,29.23 0.54,29.21 0.43,29.19 0.34,29.13 0.25,29.08 0.18,29.00 0.11,28.92 0.06,28.83 0.02,28.73 0.01,28.62 0.00,28.52 0.03,28.41 0.06,28.31 0.11,28.22 0.17,28.13 0.25,28.06 0.34,28.00 0.44,27.96 0.54,27.93 0.64,27.92 0.75,27.92 0.85,27.95 0.95,27.98 1.04,28.04 1.12,28.11 1.19,28.19 1.25,28.28 1.28,28.38 1.31,28.48 1.31,28.59 1.30,28.69 1.27,28.79 1.23,28.89 1.16,28.98 1.10,29.06 1.01,29.12 0.92,29.17 0.81,29.20 0.71,29.22 0.61,29.22 0.50,29.21 0.40,29.17 0.30,29.12 0.23,29.05 0.15,28.98 0.09,28.89 0.04,28.80 0.02,28.69 0.00,28.59 0.00,28.59 0.00,28.59 -0.56,26.18 -1.13,23.77 -1.18,21.36 -1.22,18.95 -1.33,16.42 -1.44,13.90 -1.72,10.99 -1.99,8.08 -2.18,4.86 -2.36,1.64 -2.20,0.11 -2.04,-1.40 -2.09,-1.56 -2.13,-1.72 -2.13,-1.89 -2.13,-2.05 -2.10,-2.22 -2.06,-2.38 -1.99,-2.53 -1.91,-2.68 -1.80,-2.80 -1.70,-2.93 -1.56,-3.03 -1.43,-3.12 -1.27,-3.18 -1.12,-3.25 -0.95,-3.27 -0.79,-3.29 -0.62,-3.27 -0.46,-3.26 -0.30,-3.20 -0.14,-3.15 -0.00,-3.05 0.13,-2.96 0.24,-2.84 0.35,-2.72 0.43,-2.57 0.51,-2.42 0.67,-1.38 0.82,-0.33 0.85,-0.22 0.88,-0.12 0.88,-0.01 0.88,0.09 0.86,0.19 0.84,0.30 0.79,0.39 0.74,0.49 0.67,0.57 0.60,0.65 0.51,0.72 0.42,0.78 0.32,0.82 0.22,0.86 0.12,0.87 0.01,0.89 -0.09,0.88 -0.19,0.87 -0.29,0.83 -0.40,0.79 -0.49,0.73 -0.58,0.67 -0.65,0.59 -0.72,0.52 -0.77,0.42 -0.82,0.33 -0.82,0.33 L -0.82,0.33 Z"></path></g><g transform="translate(479.3333740234375 151.83334350585938) rotate(0 -4.000030517578125 11)" stroke="none"><path fill="#220033" d="M -0.61,0.40 Q -0.61,0.40 -1.05,-0.12 -1.49,-0.66 -1.88,-1.29 -2.26,-1.93 -2.71,-2.23 -3.16,-2.52 -3.77,-2.56 -4.39,-2.60 -5.11,-2.46 -5.83,-2.32 -6.72,-2.08 -7.60,-1.84 -9.00,-1.00 -10.40,-0.17 -11.74,0.91 -13.07,2.00 -14.18,3.19 -15.28,4.38 -16.07,5.76 -16.87,7.14 -17.37,8.62 -17.88,10.10 -18.30,11.65 -18.71,13.20 -18.31,14.96 -17.91,16.73 -17.40,18.03 -16.90,19.34 -15.66,20.49 -14.42,21.64 -13.04,22.29 -11.66,22.95 -10.15,23.43 -8.63,23.90 -7.10,24.10 -5.58,24.29 -4.05,24.18 -2.53,24.08 -0.92,23.85 0.67,23.62 2.81,22.96 4.94,22.31 6.31,21.51 7.69,20.72 8.54,19.73 9.39,18.75 9.88,17.16 10.37,15.57 10.41,14.04 10.45,12.50 10.11,11.00 9.78,9.49 8.95,8.23 8.13,6.96 6.71,5.72 5.30,4.47 3.21,3.19 1.13,1.91 -1.10,0.58 -3.34,-0.74 -5.59,-1.04 -7.83,-1.34 -9.74,-1.41 -11.65,-1.49 -11.76,-1.49 -11.87,-1.49 -11.97,-1.52 -12.07,-1.56 -12.15,-1.62 -12.24,-1.69 -12.29,-1.78 -12.35,-1.86 -12.38,-1.97 -12.41,-2.07 -12.40,-2.18 -12.39,-2.28 -12.35,-2.38 -12.31,-2.48 -12.24,-2.56 -12.17,-2.64 -12.08,-2.69 -11.99,-2.75 -11.89,-2.77 -11.78,-2.79 -11.68,-2.78 -11.57,-2.77 -11.48,-2.72 -11.38,-2.67 -11.30,-2.60 -11.23,-2.53 -11.18,-2.43 -11.13,-2.34 -11.11,-2.23 -11.10,-2.13 -11.12,-2.02 -11.13,-1.92 -11.18,-1.82 -11.24,-1.73 -11.31,-1.66 -11.39,-1.59 -11.49,-1.54 -11.58,-1.50 -11.69,-1.49 -11.80,-1.48 -11.90,-1.50 -12.00,-1.53 -12.09,-1.58 -12.18,-1.64 -12.25,-1.72 -12.32,-1.80 -12.36,-1.90 -12.40,-2.00 -12.40,-2.11 -12.41,-2.21 -12.38,-2.31 -12.35,-2.42 -12.29,-2.50 -12.23,-2.59 -12.14,-2.65 -12.06,-2.72 -11.95,-2.75 -11.85,-2.78 -11.85,-2.78 -11.85,-2.78 -9.65,-3.49 -7.44,-4.20 -4.69,-3.73 -1.94,-3.27 0.36,-1.91 2.66,-0.55 4.95,0.88 7.24,2.32 8.90,3.87 10.57,5.42 11.58,7.14 12.58,8.85 12.95,10.73 13.32,12.61 13.20,14.54 13.09,16.47 12.32,18.53 11.54,20.59 10.33,21.87 9.12,23.15 7.44,24.08 5.76,25.01 3.42,25.70 1.07,26.39 -0.64,26.63 -2.36,26.87 -4.15,26.96 -5.94,27.05 -7.71,26.79 -9.47,26.54 -11.18,25.98 -12.90,25.41 -14.61,24.51 -16.32,23.61 -17.85,22.00 -19.39,20.39 -19.98,18.82 -20.57,17.24 -20.95,14.93 -21.33,12.62 -20.88,10.91 -20.43,9.19 -19.80,7.48 -19.17,5.78 -18.19,4.18 -17.21,2.58 -15.95,1.27 -14.69,-0.02 -13.16,-1.20 -11.64,-2.38 -9.92,-3.29 -8.20,-4.19 -7.16,-4.42 -6.11,-4.66 -5.01,-4.74 -3.90,-4.82 -2.91,-4.47 -1.92,-4.11 -1.30,-3.49 -0.68,-2.87 -0.36,-2.25 -0.03,-1.63 0.29,-1.02 0.61,-0.40 0.65,-0.32 0.69,-0.25 0.71,-0.16 0.73,-0.07 0.73,0.01 0.73,0.10 0.70,0.18 0.68,0.27 0.64,0.35 0.60,0.42 0.54,0.49 0.48,0.56 0.40,0.60 0.33,0.65 0.24,0.68 0.16,0.71 0.07,0.72 -0.01,0.73 -0.10,0.72 -0.18,0.71 -0.27,0.68 -0.35,0.64 -0.42,0.59 -0.49,0.54 -0.55,0.47 -0.61,0.40 -0.61,0.40 L -0.61,0.40 Z"></path></g><g transform="translate(216.66668701171875 144.5) rotate(0 3.333343505859375 15)" stroke="none"><path fill="#220033" d="M -0.85,0 Q -0.85,0 -1.01,-0.96 -1.18,-1.93 -1.00,-2.60 -0.82,-3.28 -0.98,-3.66 -1.13,-4.03 -1.06,-4.18 -0.99,-4.33 -0.89,-4.46 -0.79,-4.59 -0.66,-4.69 -0.53,-4.79 -0.38,-4.86 -0.23,-4.92 -0.07,-4.95 0.09,-4.98 0.25,-4.97 0.41,-4.96 0.57,-4.91 0.73,-4.86 0.87,-4.77 1.01,-4.69 1.12,-4.57 1.24,-4.45 1.32,-4.31 1.41,-4.17 1.45,-4.01 1.50,-3.85 1.51,-3.69 1.52,-3.53 1.49,-3.36 1.46,-3.20 1.55,-1.97 1.63,-0.74 1.61,0.80 1.58,2.35 0.79,5.32 0.00,8.30 -0.90,11.05 -1.81,13.81 -2.98,16.57 -4.15,19.32 -5.39,22.20 -6.63,25.08 -7.56,26.93 -8.48,28.77 -9.03,30.05 -9.57,31.33 -7.38,31.18 -5.18,31.03 -3.44,31.00 -1.69,30.98 -0.63,30.97 0.42,30.96 1.83,30.96 3.24,30.95 4.80,30.95 6.36,30.95 7.98,30.95 9.60,30.95 10.94,30.76 12.29,30.58 13.62,30.31 14.95,30.04 16.61,30.37 18.27,30.71 18.38,30.71 18.48,30.72 18.58,30.76 18.68,30.80 18.76,30.87 18.84,30.94 18.89,31.03 18.95,31.13 18.97,31.23 18.99,31.33 18.98,31.44 18.96,31.54 18.92,31.64 18.87,31.74 18.80,31.81 18.72,31.89 18.63,31.94 18.53,31.98 18.43,32.00 18.32,32.02 18.22,32.00 18.11,31.98 18.02,31.93 17.93,31.88 17.86,31.80 17.78,31.72 17.74,31.62 17.70,31.53 17.69,31.42 17.68,31.31 17.70,31.21 17.73,31.11 17.78,31.02 17.84,30.93 17.92,30.86 18.00,30.79 18.10,30.75 18.20,30.72 18.31,30.71 18.41,30.71 18.52,30.74 18.62,30.77 18.70,30.83 18.79,30.89 18.85,30.97 18.92,31.06 18.95,31.16 18.98,31.26 18.98,31.37 18.98,31.48 18.94,31.58 18.91,31.68 18.84,31.76 18.78,31.84 18.69,31.90 18.60,31.96 18.50,31.99 18.39,32.01 18.39,32.01 18.39,32.01 17.00,32.72 15.61,33.42 14.17,33.70 12.74,33.98 11.17,34.18 9.60,34.38 7.98,34.38 6.36,34.38 4.81,34.38 3.25,34.38 1.84,34.38 0.44,34.38 -0.61,34.38 -1.66,34.39 -3.09,34.38 -4.52,34.38 -7.28,34.83 -10.04,35.29 -11.07,34.74 -12.10,34.20 -12.52,33.16 -12.94,32.13 -12.82,31.08 -12.70,30.04 -12.08,28.64 -11.46,27.25 -10.55,25.50 -9.64,23.76 -8.37,20.91 -7.10,18.05 -5.96,15.43 -4.82,12.80 -3.91,10.12 -3.00,7.44 -2.21,4.83 -1.42,2.22 -1.33,0.56 -1.25,-1.09 -1.03,-1.83 -0.82,-2.56 -0.97,-3.30 -1.13,-4.03 -1.06,-4.18 -0.99,-4.33 -0.89,-4.46 -0.79,-4.59 -0.66,-4.69 -0.53,-4.79 -0.38,-4.86 -0.23,-4.92 -0.07,-4.95 0.09,-4.98 0.25,-4.97 0.41,-4.96 0.57,-4.91 0.73,-4.86 0.87,-4.77 1.01,-4.69 1.12,-4.57 1.24,-4.45 1.32,-4.31 1.41,-4.17 1.45,-4.01 1.50,-3.85 1.51,-3.69 1.52,-3.53 1.49,-3.36 1.46,-3.20 1.52,-3.07 1.59,-2.94 1.38,-2.42 1.18,-1.89 1.01,-0.94 0.85,0 0.83,0.10 0.82,0.20 0.78,0.29 0.75,0.39 0.69,0.47 0.63,0.56 0.55,0.63 0.48,0.69 0.39,0.74 0.30,0.79 0.20,0.81 0.10,0.84 -0.00,0.84 -0.10,0.84 -0.20,0.81 -0.30,0.79 -0.39,0.74 -0.48,0.69 -0.55,0.63 -0.63,0.56 -0.69,0.47 -0.75,0.39 -0.78,0.29 -0.82,0.20 -0.83,0.10 -0.85,-0.00 -0.85,-0.00 L -0.85,0 Z"></path></g><g transform="translate(222.66668701171875 141.16665649414062) rotate(0 -0.666656494140625 33.66667175292969)" stroke="none"><path fill="#220033" d="M 0.87,0.17 Q 0.87,0.17 0.90,1.17 0.93,2.17 0.92,4.39 0.90,6.61 1.09,9.06 1.27,11.51 1.35,15.87 1.44,20.24 1.28,24.61 1.13,28.98 1.07,32.92 1.02,36.85 0.82,40.48 0.61,44.11 0.53,47.15 0.45,50.19 0.61,52.36 0.77,54.54 0.84,56.88 0.92,59.21 1.13,60.67 1.35,62.13 0.70,64.70 0.05,67.27 0.00,67.36 -0.04,67.45 -0.12,67.53 -0.20,67.60 -0.30,67.64 -0.40,67.68 -0.51,67.68 -0.61,67.69 -0.71,67.67 -0.82,67.64 -0.91,67.58 -1.00,67.52 -1.06,67.44 -1.13,67.36 -1.16,67.26 -1.20,67.16 -1.20,67.05 -1.20,66.94 -1.17,66.84 -1.14,66.74 -1.07,66.65 -1.01,66.57 -0.92,66.51 -0.84,66.45 -0.74,66.42 -0.63,66.39 -0.53,66.39 -0.42,66.39 -0.32,66.43 -0.22,66.47 -0.14,66.54 -0.06,66.60 -0.00,66.69 0.04,66.79 0.07,66.89 0.09,66.99 0.08,67.10 0.07,67.20 0.03,67.30 -0.00,67.40 -0.07,67.48 -0.15,67.55 -0.24,67.61 -0.33,67.66 -0.44,67.68 -0.54,67.69 -0.65,67.68 -0.75,67.66 -0.85,67.62 -0.94,67.57 -1.01,67.49 -1.09,67.42 -1.14,67.32 -1.18,67.22 -1.19,67.12 -1.21,67.01 -1.19,66.91 -1.17,66.81 -1.17,66.81 -1.17,66.81 -1.58,64.70 -2.00,62.60 -2.22,60.95 -2.44,59.31 -2.49,57.04 -2.55,54.77 -2.69,52.43 -2.84,50.09 -2.73,47.00 -2.63,43.91 -2.39,40.35 -2.15,36.80 -2.06,32.83 -1.98,28.87 -1.81,24.58 -1.64,20.28 -1.68,15.99 -1.73,11.70 -1.86,9.10 -2.00,6.51 -1.84,4.08 -1.69,1.65 -1.28,0.74 -0.87,-0.17 -0.84,-0.27 -0.80,-0.37 -0.75,-0.47 -0.69,-0.56 -0.61,-0.63 -0.53,-0.71 -0.44,-0.76 -0.35,-0.82 -0.25,-0.85 -0.14,-0.88 -0.03,-0.88 0.06,-0.89 0.17,-0.86 0.27,-0.84 0.37,-0.80 0.47,-0.75 0.55,-0.68 0.64,-0.62 0.70,-0.53 0.77,-0.44 0.81,-0.35 0.85,-0.25 0.87,-0.14 0.89,-0.03 0.88,0.06 0.87,0.17 0.87,0.17 L 0.87,0.17 Z"></path></g></svg>