<svg version="1.1" xmlns="http://www.w3.org/2000/svg" viewBox="0 0 620 340" width="620" height="340">
  <!-- svg-source:excalidraw -->
  
  <defs>
    <style>
      @font-face {
        font-family: "Virgil";
        src: url("https://excalidraw.com/Virgil.woff2");
      }
      @font-face {
        font-family: "Cascadia";
        src: url("https://excalidraw.com/Cascadia.woff2");
      }
    </style>
  </defs>
  <rect x="0" y="0" width="620" height="340" fill="#fff0"></rect><g stroke-linecap="round" transform="translate(10 10) rotate(0 0.5 0.5)"><path d="M-0.06 -0.03 C0.4 -0.08, 0.7 0.04, 0.91 0.03 M0.05 -0.04 C0.42 -0.05, 0.75 0.03, 0.99 0.01 M1.08 -0.06 C1.09 0.27, 1.05 0.48, 1.09 0.92 M0.97 0.01 C0.95 0.33, 0.98 0.72, 1 0.99 M1.03 1.06 C0.65 1.06, 0.49 0.96, -0.03 0.97 M1 1.02 C0.74 0.96, 0.52 1.04, -0.04 0.98 M-0.04 1.01 C0 0.63, -0.06 0.15, 0.05 -0.03 M-0.04 0.95 C-0.04 0.73, -0.03 0.59, -0.05 -0.02" stroke="transparent" stroke-width="0.5" fill="none"></path></g><g stroke-linecap="round" transform="translate(90 30) rotate(0 260 150)"><path d="M-0.61 0.11 C165.92 0.28, 332.76 0.3, 519.42 0.2 M-0.3 -0.28 C155.27 0.16, 311.16 0.81, 520.3 0.18 M521.46 1.04 C520.11 68.59, 518.48 139.94, 521.02 300.19 M520.5 -0.54 C518.18 89.3, 518.01 178.06, 519.44 300.21 M520.54 300.4 C371.06 301.7, 223.21 302.2, -0.52 299.48 M520.24 299.73 C330.68 300.53, 142.38 300.66, -0.21 300.05 M-0.05 300.1 C1.96 208.03, 1.51 115.53, 0.88 -0.67 M-0.13 300.01 C-0.9 202.12, -1.19 105.83, 0.68 -0.62" stroke="#220033" stroke-width="0.5" fill="none"></path></g><g stroke-linecap="round" transform="translate(150 70) rotate(0 130 110)"><path d="M110.65 0.58 C124.2 -3.04, 141.06 -0.44, 155.48 2.08 C169.9 4.6, 184.65 9.3, 197.16 15.67 C209.67 22.05, 221.29 30.66, 230.54 40.35 C239.79 50.03, 247.63 61.63, 252.66 73.76 C257.7 85.9, 260.85 100.4, 260.74 113.14 C260.62 125.88, 257.57 138.69, 251.97 150.22 C246.38 161.75, 237.15 172.79, 227.17 182.31 C217.18 191.84, 204.84 201.27, 192.08 207.38 C179.33 213.49, 165.34 217.35, 150.62 218.96 C135.91 220.58, 118.46 219.42, 103.79 217.06 C89.11 214.7, 75.07 211.16, 62.58 204.8 C50.08 198.44, 38.24 188.7, 28.83 178.92 C19.42 169.13, 10.8 158.06, 6.11 146.07 C1.42 134.08, 0.25 119.59, 0.7 106.98 C1.15 94.37, 3.6 82.04, 8.81 70.4 C14.02 58.76, 22.33 46.54, 31.96 37.13 C41.58 27.71, 52.41 19.97, 66.59 13.91 C80.76 7.84, 107.22 2.55, 116.98 0.73 C126.74 -1.09, 124.82 1.32, 125.15 2.98 M129.95 -0.97 C144.27 -2.67, 162.17 2.78, 176.28 7.46 C190.4 12.15, 203.66 19.32, 214.62 27.13 C225.57 34.94, 234.73 43.41, 242.02 54.35 C249.32 65.29, 255.63 80.33, 258.39 92.78 C261.14 105.24, 261.23 116.94, 258.55 129.11 C255.86 141.27, 250.03 154.98, 242.29 165.77 C234.54 176.56, 223.52 185.85, 212.06 193.84 C200.6 201.84, 187.23 209.39, 173.54 213.74 C159.84 218.08, 144.65 220.13, 129.89 219.91 C115.14 219.68, 98.9 216.85, 85.03 212.38 C71.15 207.9, 57.92 200.97, 46.63 193.07 C35.35 185.17, 24.96 175.8, 17.32 164.97 C9.68 154.13, 3.31 140.52, 0.78 128.07 C-1.74 115.61, -0.46 102.59, 2.16 90.22 C4.79 77.85, 8.95 64.44, 16.54 53.84 C24.13 43.24, 36.27 34.72, 47.7 26.62 C59.14 18.51, 71.06 9.47, 85.14 5.23 C99.22 0.98, 124.73 1.7, 132.2 1.17 C139.68 0.64, 130.28 0.24, 129.99 2.04" stroke="#220033" stroke-width="0.5" fill="none"></path></g><g stroke-linecap="round" transform="translate(290 70) rotate(0 130 110)"><path d="M163.45 4.12 C177.48 5.47, 192.82 12.93, 205 20 C217.19 27.07, 228.25 36.27, 236.58 46.53 C244.91 56.8, 251.32 69.21, 255 81.59 C258.69 93.97, 259.78 108.14, 258.69 120.82 C257.6 133.5, 254.56 146.57, 248.45 157.67 C242.33 168.78, 232.68 178.84, 221.99 187.44 C211.31 196.05, 197.69 203.84, 184.32 209.32 C170.95 214.8, 156.49 219.36, 141.78 220.33 C127.08 221.3, 110.69 218.57, 96.09 215.14 C81.48 211.71, 66.17 206.79, 54.14 199.74 C42.11 192.69, 32.21 183.27, 23.89 172.84 C15.58 162.42, 8.05 149.22, 4.26 137.19 C0.47 125.15, -0.09 112.97, 1.15 100.63 C2.38 88.28, 5.43 74.61, 11.67 63.12 C17.92 51.63, 28.05 40.64, 38.62 31.68 C49.2 22.72, 61.64 14.59, 75.12 9.35 C88.6 4.11, 103.47 0.71, 119.51 0.23 C135.55 -0.25, 161.66 4.79, 171.37 6.48 C181.08 8.16, 178.61 8.73, 177.76 10.34 M111.27 1.98 C124.88 -1.13, 143.12 0.5, 157.92 2.81 C172.72 5.12, 187.83 9.2, 200.06 15.85 C212.3 22.49, 222.19 32.52, 231.32 42.71 C240.45 52.89, 250.22 65.04, 254.85 76.97 C259.49 88.9, 259.86 102.01, 259.14 114.29 C258.41 126.58, 256.11 139.11, 250.5 150.68 C244.89 162.26, 235.4 174.2, 225.46 183.76 C215.51 193.33, 203.8 202.15, 190.84 208.08 C177.87 214.01, 162.49 217.6, 147.67 219.33 C132.85 221.06, 116.51 221.08, 101.92 218.44 C87.34 215.8, 72.46 210.49, 60.14 203.49 C47.82 196.5, 37.02 186.42, 28 176.47 C18.98 166.51, 10.63 155.73, 6 143.75 C1.36 131.76, -0.34 116.98, 0.18 104.53 C0.7 92.09, 3.31 80.68, 9.11 69.08 C14.91 57.48, 25.17 44.09, 35 34.91 C44.84 25.74, 55.06 19.81, 68.12 14.01 C81.19 8.21, 106.02 1.97, 113.41 0.11 C120.79 -1.75, 112.17 0.75, 112.43 2.84" stroke="#220033" stroke-width="0.5" fill="none"></path></g></svg>