<svg version="1.1" xmlns="http://www.w3.org/2000/svg" viewBox="0 0 554.6666870117188 271.0416564941406" width="554.6666870117188" height="271.0416564941406">
  <!-- svg-source:excalidraw -->
  
  <defs>
    <style>
      @font-face {
        font-family: "Virgil";
        src: url("https://excalidraw.com/Virgil.woff2");
      }
      @font-face {
        font-family: "Cascadia";
        src: url("https://excalidraw.com/Cascadia.woff2");
      }
    </style>
  </defs>
  <rect x="0" y="0" width="554.6666870117188" height="271.0416564941406" fill="#fff0"></rect><g stroke-linecap="round" transform="translate(10 10) rotate(0 0.5 0.5)"><path d="M-0.06 -0.03 C0.4 -0.08, 0.7 0.04, 0.91 0.03 M0.05 -0.04 C0.42 -0.05, 0.75 0.03, 0.99 0.01 M1.08 -0.06 C1.09 0.27, 1.05 0.48, 1.09 0.92 M0.97 0.01 C0.95 0.33, 0.98 0.72, 1 0.99 M1.03 1.06 C0.65 1.06, 0.49 0.96, -0.03 0.97 M1 1.02 C0.74 0.96, 0.52 1.04, -0.04 0.98 M-0.04 1.01 C0 0.63, -0.06 0.15, 0.05 -0.03 M-0.04 0.95 C-0.04 0.73, -0.03 0.59, -0.05 -0.02" stroke="transparent" stroke-width="0.5" fill="none"></path></g><g transform="translate(88 55.041656494140625) rotate(0 2 77.00001525878906)" stroke="none"><path fill="#000" d="M -0.78,0.47 Q -0.78,0.47 -1.55,-0.36 -2.32,-1.21 -2.39,-1.36 -2.45,-1.51 -2.48,-1.67 -2.51,-1.83 -2.50,-2.00 -2.49,-2.16 -2.44,-2.32 -2.39,-2.48 -2.31,-2.62 -2.22,-2.76 -2.10,-2.88 -1.99,-2.99 -1.84,-3.08 -1.70,-3.16 -1.55,-3.21 -1.39,-3.26 -1.22,-3.27 -1.06,-3.28 -0.90,-3.25 -0.73,-3.22 -0.58,-3.15 -0.43,-3.08 -0.30,-2.98 -0.17,-2.88 -0.07,-2.75 0.02,-2.62 -0.08,-0.82 -0.19,0.97 -0.09,3.49 0.01,6.00 0.24,16.73 0.47,27.45 0.57,34.12 0.67,40.79 0.73,47.65 0.78,54.52 0.81,61.07 0.85,67.63 1.06,74.04 1.27,80.44 1.74,88.33 2.21,96.21 2.79,102.62 3.37,109.02 4.19,116.14 5.02,123.26 5.56,128.80 6.11,134.34 6.53,138.60 6.95,142.87 6.95,146.29 6.94,149.72 6.19,152.87 5.44,156.01 5.41,156.11 5.39,156.22 5.33,156.31 5.27,156.40 5.19,156.46 5.10,156.53 5.00,156.56 4.90,156.60 4.80,156.60 4.69,156.60 4.59,156.57 4.49,156.54 4.40,156.48 4.32,156.41 4.26,156.33 4.19,156.24 4.16,156.14 4.13,156.04 4.14,155.93 4.14,155.82 4.18,155.72 4.22,155.63 4.28,155.54 4.35,155.46 4.44,155.40 4.53,155.35 4.63,155.32 4.74,155.30 4.84,155.31 4.95,155.32 5.05,155.36 5.14,155.40 5.22,155.47 5.30,155.55 5.35,155.64 5.40,155.73 5.42,155.84 5.44,155.94 5.43,156.05 5.41,156.15 5.36,156.25 5.32,156.34 5.24,156.42 5.16,156.49 5.07,156.54 4.97,156.58 4.87,156.60 4.76,156.61 4.66,156.59 4.55,156.57 4.46,156.51 4.37,156.46 4.30,156.38 4.23,156.30 4.19,156.20 4.15,156.11 4.14,156.00 4.13,155.89 4.13,155.89 4.13,155.89 3.94,152.80 3.76,149.71 3.77,146.44 3.79,143.18 3.37,138.91 2.95,134.65 2.41,129.13 1.87,123.62 1.05,116.46 0.23,109.30 -0.34,102.85 -0.92,96.40 -1.39,88.47 -1.86,80.54 -2.05,74.09 -2.24,67.64 -2.24,61.09 -2.24,54.53 -2.26,47.68 -2.29,40.83 -2.39,34.18 -2.48,27.52 -2.71,16.81 -2.93,6.10 -3.00,3.28 -3.08,0.45 -2.70,-0.37 -2.32,-1.21 -2.39,-1.36 -2.45,-1.51 -2.48,-1.67 -2.51,-1.83 -2.50,-2.00 -2.49,-2.16 -2.44,-2.32 -2.39,-2.48 -2.31,-2.62 -2.22,-2.76 -2.10,-2.88 -1.99,-2.99 -1.84,-3.08 -1.70,-3.16 -1.55,-3.21 -1.39,-3.26 -1.22,-3.27 -1.06,-3.28 -0.90,-3.25 -0.73,-3.22 -0.58,-3.15 -0.43,-3.08 -0.30,-2.98 -0.17,-2.88 -0.07,-2.75 0.02,-2.62 0.40,-1.54 0.78,-0.47 0.83,-0.37 0.87,-0.27 0.89,-0.16 0.91,-0.05 0.91,0.05 0.90,0.16 0.87,0.27 0.83,0.38 0.77,0.47 0.72,0.56 0.64,0.64 0.56,0.72 0.46,0.78 0.37,0.83 0.26,0.87 0.16,0.90 0.05,0.91 -0.05,0.91 -0.16,0.89 -0.27,0.87 -0.37,0.83 -0.47,0.78 -0.56,0.71 -0.65,0.64 -0.72,0.56 -0.78,0.47 -0.78,0.47 L -0.78,0.47 Z"></path></g><g transform="translate(80 43.041656494140625) rotate(0 208.33334350585938 -6.333320617675781)" stroke="none"><path fill="#000" d="M 0.07,-0.80 Q 0.07,-0.80 2.19,-0.81 4.32,-0.82 7.05,-0.94 9.79,-1.06 12.92,-1.11 16.04,-1.17 19.44,-1.38 22.85,-1.59 28.34,-1.88 33.83,-2.16 39.03,-2.47 44.23,-2.78 51.05,-3.11 57.87,-3.44 63.82,-3.77 69.78,-4.10 75.78,-4.24 81.79,-4.38 89.29,-4.83 96.79,-5.27 105.38,-5.46 113.97,-5.65 121.05,-5.92 128.13,-6.20 134.61,-6.31 141.08,-6.43 149.19,-6.67 157.30,-6.91 166.31,-7.02 175.33,-7.13 184.70,-7.56 194.06,-7.99 203.42,-8.36 212.78,-8.73 222.12,-9.09 231.47,-9.44 247.32,-9.99 263.18,-10.54 273.17,-10.96 283.16,-11.38 296.22,-11.98 309.29,-12.58 316.55,-13.02 323.82,-13.45 333.46,-13.64 343.10,-13.83 350.23,-14.10 357.37,-14.37 363.30,-14.48 369.22,-14.60 375.58,-14.65 381.94,-14.70 387.51,-14.73 393.09,-14.75 397.18,-14.76 401.27,-14.77 404.16,-14.77 407.05,-14.78 409.24,-14.78 411.43,-14.77 413.57,-14.38 415.72,-13.98 415.82,-13.97 415.93,-13.95 416.02,-13.90 416.11,-13.85 416.19,-13.77 416.26,-13.70 416.30,-13.60 416.35,-13.50 416.36,-13.40 416.37,-13.29 416.35,-13.19 416.33,-13.09 416.27,-12.99 416.22,-12.90 416.14,-12.83 416.06,-12.77 415.96,-12.73 415.86,-12.69 415.75,-12.68 415.65,-12.68 415.54,-12.70 415.44,-12.73 415.35,-12.79 415.27,-12.85 415.20,-12.94 415.14,-13.02 415.10,-13.12 415.07,-13.22 415.07,-13.33 415.07,-13.43 415.10,-13.53 415.14,-13.64 415.20,-13.72 415.26,-13.80 415.35,-13.86 415.44,-13.92 415.54,-13.95 415.65,-13.98 415.75,-13.97 415.86,-13.97 415.96,-13.93 416.06,-13.89 416.14,-13.82 416.22,-13.75 416.27,-13.66 416.33,-13.57 416.35,-13.47 416.37,-13.36 416.36,-13.26 416.35,-13.15 416.30,-13.06 416.26,-12.96 416.19,-12.88 416.11,-12.81 416.02,-12.76 415.93,-12.71 415.82,-12.69 415.72,-12.67 415.72,-12.67 415.72,-12.67 413.57,-12.28 411.43,-11.88 409.24,-11.87 407.06,-11.87 404.17,-11.86 401.28,-11.86 397.19,-11.85 393.10,-11.85 387.53,-11.83 381.96,-11.81 375.62,-11.76 369.28,-11.72 363.38,-11.60 357.48,-11.49 350.31,-11.22 343.15,-10.95 333.57,-10.78 323.99,-10.60 316.70,-10.18 309.41,-9.75 296.34,-9.23 283.27,-8.71 273.27,-8.29 263.27,-7.88 247.42,-7.36 231.57,-6.85 222.22,-6.50 212.88,-6.15 203.53,-5.78 194.18,-5.41 184.77,-4.99 175.36,-4.56 166.37,-4.46 157.37,-4.36 149.25,-4.13 141.13,-3.89 134.68,-3.77 128.23,-3.66 121.13,-3.39 114.03,-3.11 105.49,-2.93 96.94,-2.74 89.39,-2.30 81.85,-1.86 75.88,-1.72 69.92,-1.59 63.95,-1.26 57.98,-0.93 51.18,-0.61 44.37,-0.29 39.16,0.01 33.95,0.33 28.48,0.61 23.00,0.89 19.54,1.10 16.08,1.30 12.98,1.35 9.89,1.39 6.99,1.49 4.10,1.58 2.01,1.19 -0.07,0.80 -0.16,0.78 -0.26,0.76 -0.35,0.72 -0.43,0.67 -0.51,0.61 -0.58,0.55 -0.64,0.47 -0.70,0.39 -0.74,0.30 -0.77,0.21 -0.79,0.12 -0.80,0.02 -0.79,-0.07 -0.79,-0.16 -0.75,-0.26 -0.72,-0.35 -0.67,-0.43 -0.62,-0.51 -0.55,-0.58 -0.47,-0.65 -0.39,-0.69 -0.30,-0.74 -0.21,-0.77 -0.12,-0.79 -0.02,-0.80 0.07,-0.80 0.07,-0.80 L 0.07,-0.80 Z"></path></g><g transform="translate(112.66668701171875 226.375) rotate(0 215.3333282470703 -4.666656494140625)" stroke="none"><path fill="#000" d="M -0.17,-0.87 Q -0.17,-0.87 1.71,-1.41 3.59,-1.94 5.97,-2.31 8.34,-2.68 13.61,-3.04 18.87,-3.40 22.41,-3.74 25.95,-4.08 30.15,-4.42 34.36,-4.76 39.19,-5.29 44.02,-5.82 53.20,-6.43 62.38,-7.04 70.11,-7.50 77.84,-7.96 84.74,-8.54 91.65,-9.13 100.36,-9.59 109.08,-10.05 116.43,-10.24 123.78,-10.44 132.28,-10.52 140.77,-10.61 148.22,-10.65 155.66,-10.70 163.96,-11.11 172.27,-11.52 179.47,-11.69 186.67,-11.87 191.65,-11.94 196.63,-12.02 204.50,-12.05 212.37,-12.09 219.93,-12.10 227.49,-12.12 235.68,-12.13 243.88,-12.14 252.17,-11.95 260.46,-11.77 267.04,-11.69 273.61,-11.61 281.22,-11.39 288.82,-11.17 295.29,-11.08 301.77,-10.98 314.33,-10.18 326.90,-9.38 336.07,-8.66 345.24,-7.94 352.98,-7.27 360.72,-6.59 366.30,-6.12 371.88,-5.64 376.55,-5.24 381.22,-4.85 385.70,-4.49 390.17,-4.14 395.38,-3.41 400.59,-2.68 405.63,-2.19 410.66,-1.69 414.55,-1.29 418.43,-0.89 421.38,-0.72 424.34,-0.55 427.48,0.03 430.62,0.63 430.72,0.65 430.82,0.67 430.92,0.72 431.01,0.77 431.08,0.85 431.15,0.93 431.19,1.03 431.23,1.13 431.24,1.23 431.25,1.34 431.22,1.44 431.20,1.55 431.14,1.63 431.08,1.72 431.00,1.79 430.91,1.86 430.81,1.89 430.71,1.93 430.61,1.93 430.50,1.93 430.40,1.90 430.30,1.87 430.21,1.81 430.13,1.74 430.07,1.66 430.00,1.57 429.97,1.47 429.94,1.37 429.95,1.26 429.95,1.15 429.99,1.06 430.02,0.96 430.09,0.87 430.16,0.79 430.25,0.73 430.34,0.68 430.44,0.65 430.55,0.63 430.65,0.64 430.76,0.65 430.85,0.69 430.95,0.73 431.03,0.80 431.11,0.87 431.16,0.97 431.21,1.06 431.23,1.16 431.25,1.27 431.24,1.37 431.22,1.48 431.17,1.57 431.13,1.67 431.05,1.74 430.97,1.82 430.88,1.86 430.78,1.91 430.68,1.93 430.57,1.94 430.57,1.94 430.57,1.94 427.36,2.32 424.15,2.71 421.12,2.53 418.09,2.36 414.22,1.95 410.34,1.54 405.24,1.04 400.14,0.53 395.03,-0.19 389.91,-0.92 385.43,-1.28 380.95,-1.65 376.28,-2.05 371.60,-2.45 366.02,-2.95 360.43,-3.44 352.72,-4.16 345.00,-4.87 335.85,-5.60 326.71,-6.33 314.21,-7.15 301.72,-7.96 295.23,-8.06 288.73,-8.15 281.15,-8.39 273.58,-8.62 266.99,-8.70 260.40,-8.78 252.14,-8.98 243.88,-9.17 235.69,-9.17 227.49,-9.17 219.93,-9.16 212.38,-9.14 204.52,-9.12 196.67,-9.09 191.71,-9.02 186.74,-8.95 179.57,-8.79 172.41,-8.63 164.04,-8.24 155.67,-7.86 148.23,-7.84 140.80,-7.81 132.33,-7.74 123.85,-7.67 116.53,-7.49 109.21,-7.32 100.54,-6.90 91.87,-6.49 84.93,-5.93 77.99,-5.37 70.27,-4.93 62.55,-4.49 53.42,-3.89 44.30,-3.28 39.43,-2.76 34.56,-2.24 30.37,-1.91 26.19,-1.58 22.61,-1.24 19.04,-0.91 13.87,-0.58 8.71,-0.26 6.39,0.07 4.06,0.41 2.12,0.64 0.17,0.87 0.06,0.88 -0.03,0.89 -0.14,0.87 -0.25,0.85 -0.35,0.81 -0.44,0.77 -0.53,0.70 -0.62,0.64 -0.68,0.55 -0.75,0.47 -0.80,0.37 -0.84,0.27 -0.86,0.17 -0.89,0.06 -0.88,-0.03 -0.88,-0.14 -0.85,-0.25 -0.82,-0.35 -0.76,-0.44 -0.71,-0.53 -0.63,-0.61 -0.56,-0.69 -0.47,-0.75 -0.37,-0.80 -0.27,-0.84 -0.17,-0.87 -0.17,-0.87 L -0.17,-0.87 Z"></path></g><g transform="translate(504 36.375) rotate(0 15 95)" stroke="none"><path fill="#000" d="M -0.31,-0.63 Q -0.31,-0.63 0.78,-1.29 1.89,-1.95 2.76,-2.39 3.63,-2.83 4.39,-3.21 5.14,-3.59 6.00,-3.78 6.85,-3.97 7.54,-3.68 8.22,-3.39 8.60,-2.39 8.97,-1.39 9.06,-0.21 9.15,0.95 9.02,3.42 8.89,5.89 8.84,8.79 8.79,11.69 8.59,18.12 8.38,24.55 8.29,30.14 8.19,35.73 8.37,44.42 8.54,53.10 9.77,67.48 11.00,81.87 11.90,89.32 12.80,96.77 13.77,102.59 14.74,108.42 16.67,115.63 18.61,122.83 20.02,128.43 21.43,134.03 22.42,138.93 23.41,143.83 24.22,149.00 25.03,154.16 25.38,158.12 25.73,162.08 26.06,165.46 26.40,168.83 26.55,171.07 26.69,173.30 26.94,175.94 27.20,178.58 27.50,181.23 27.80,183.88 28.11,185.73 28.42,187.59 28.90,188.82 29.38,190.06 29.79,191.35 30.20,192.63 30.27,192.72 30.34,192.80 30.37,192.90 30.41,193.00 30.41,193.10 30.41,193.21 30.38,193.31 30.35,193.41 30.29,193.50 30.23,193.59 30.14,193.65 30.05,193.71 29.95,193.74 29.85,193.77 29.74,193.77 29.64,193.76 29.54,193.73 29.44,193.69 29.36,193.62 29.27,193.56 29.22,193.47 29.16,193.38 29.14,193.27 29.11,193.17 29.12,193.07 29.13,192.96 29.17,192.86 29.21,192.76 29.28,192.69 29.35,192.61 29.45,192.56 29.54,192.50 29.64,192.48 29.75,192.46 29.85,192.48 29.96,192.49 30.05,192.54 30.15,192.59 30.22,192.66 30.30,192.74 30.35,192.83 30.39,192.93 30.41,193.03 30.42,193.14 30.40,193.24 30.38,193.35 30.33,193.44 30.27,193.53 30.20,193.60 30.12,193.67 30.02,193.72 29.92,193.76 29.81,193.77 29.71,193.77 29.61,193.75 29.50,193.72 29.41,193.67 29.32,193.61 29.32,193.61 29.32,193.61 27.87,192.39 26.41,191.18 25.85,189.65 25.29,188.12 24.96,186.18 24.64,184.23 24.34,181.55 24.05,178.88 23.79,176.19 23.54,173.50 23.40,171.32 23.26,169.15 22.93,165.75 22.59,162.36 22.26,158.50 21.93,154.65 21.14,149.54 20.35,144.44 19.39,139.61 18.43,134.78 17.04,129.20 15.64,123.62 13.70,116.27 11.76,108.91 10.81,103.01 9.86,97.12 8.97,89.62 8.07,82.11 6.87,67.63 5.67,53.15 5.54,44.42 5.41,35.69 5.51,30.07 5.60,24.45 5.84,18.04 6.08,11.63 6.17,8.66 6.26,5.70 6.47,3.39 6.68,1.07 6.66,0.02 6.64,-1.03 6.85,-1.62 7.06,-2.21 6.50,-2.08 5.95,-1.95 5.20,-1.57 4.45,-1.20 3.57,-0.77 2.70,-0.34 1.51,0.14 0.31,0.63 0.23,0.66 0.15,0.69 0.07,0.70 -0.01,0.71 -0.09,0.70 -0.18,0.68 -0.26,0.65 -0.34,0.62 -0.41,0.57 -0.48,0.52 -0.53,0.45 -0.59,0.39 -0.63,0.31 -0.67,0.23 -0.68,0.15 -0.70,0.07 -0.70,-0.01 -0.70,-0.09 -0.68,-0.18 -0.66,-0.26 -0.61,-0.34 -0.57,-0.41 -0.51,-0.47 -0.46,-0.54 -0.39,-0.58 -0.31,-0.63 -0.31,-0.63 L -0.31,-0.63 Z"></path></g><g transform="translate(221.3333740234375 79.70834350585938) rotate(0 23.999969482421875 46.33332824707031)" stroke="none"><path fill="#000" d="M 0,0.85 Q 0,0.85 -1.14,0.99 -2.29,1.14 -7.52,1.67 -12.75,2.20 -15.97,2.38 -19.18,2.55 -22.15,3.20 -25.13,3.84 -28.31,4.69 -31.50,5.53 -34.50,6.82 -37.49,8.10 -40.99,10.34 -44.49,12.59 -47.83,15.60 -51.17,18.61 -53.28,21.70 -55.39,24.79 -56.84,27.96 -58.29,31.14 -59.28,34.35 -60.27,37.57 -60.66,41.13 -61.06,44.69 -60.28,49.10 -59.51,53.52 -57.50,58.38 -55.50,63.24 -52.80,66.94 -50.10,70.64 -46.89,73.91 -43.67,77.18 -38.89,81.04 -34.11,84.89 -29.47,87.64 -24.82,90.38 -18.67,93.06 -12.53,95.73 -7.06,97.63 -1.60,99.53 3.74,100.91 9.08,102.28 15.87,103.03 22.65,103.79 30.42,103.34 38.19,102.89 44.69,101.57 51.19,100.25 57.00,98.55 62.80,96.85 69.17,93.50 75.53,90.14 81.44,85.70 87.35,81.25 91.76,77.27 96.17,73.29 99.11,69.40 102.05,65.51 103.84,62.02 105.62,58.53 106.72,53.94 107.83,49.35 107.35,44.16 106.87,38.97 102.92,30.80 98.97,22.63 95.58,17.21 92.19,11.79 88.74,8.26 85.29,4.72 81.79,2.11 78.29,-0.49 66.30,-3.80 54.31,-7.12 43.33,-7.98 32.34,-8.84 24.82,-8.65 17.31,-8.45 11.52,-7.42 5.73,-6.39 -1.46,-4.25 -8.67,-2.11 -13.40,-0.08 -18.13,1.94 -21.64,3.91 -25.15,5.87 -27.16,7.40 -29.18,8.92 -31.55,10.83 -33.92,12.73 -34.00,12.79 -34.08,12.86 -34.18,12.90 -34.28,12.94 -34.39,12.94 -34.49,12.94 -34.59,12.91 -34.70,12.88 -34.78,12.82 -34.87,12.76 -34.93,12.67 -34.99,12.59 -35.03,12.48 -35.06,12.38 -35.05,12.28 -35.05,12.17 -35.02,12.07 -34.98,11.97 -34.91,11.89 -34.85,11.80 -34.76,11.75 -34.67,11.69 -34.57,11.66 -34.46,11.64 -34.36,11.65 -34.25,11.65 -34.15,11.69 -34.06,11.74 -33.98,11.81 -33.90,11.88 -33.84,11.97 -33.79,12.06 -33.77,12.17 -33.75,12.27 -33.76,12.38 -33.78,12.48 -33.82,12.58 -33.87,12.67 -33.95,12.75 -34.02,12.82 -34.12,12.87 -34.21,12.92 -34.32,12.93 -34.42,12.95 -34.53,12.93 -34.63,12.91 -34.72,12.86 -34.82,12.80 -34.89,12.73 -34.96,12.65 -35.00,12.55 -35.04,12.45 -35.05,12.35 -35.06,12.24 -35.04,12.14 -35.01,12.03 -34.95,11.94 -34.90,11.85 -34.90,11.85 -34.90,11.85 -33.08,9.05 -31.27,6.25 -29.09,4.51 -26.90,2.78 -23.24,0.69 -19.57,-1.40 -14.64,-3.51 -9.71,-5.62 -2.30,-7.81 5.09,-10.01 11.15,-11.06 17.21,-12.12 24.92,-12.31 32.64,-12.51 43.97,-11.58 55.30,-10.66 67.86,-7.07 80.42,-3.47 84.17,-0.65 87.92,2.16 91.61,6.00 95.29,9.84 98.78,15.45 102.26,21.06 106.37,29.82 110.47,38.58 110.91,44.37 111.34,50.16 110.09,55.16 108.83,60.16 106.87,63.92 104.91,67.68 101.74,71.81 98.57,75.94 94.02,80.02 89.48,84.09 83.32,88.68 77.17,93.27 70.49,96.74 63.80,100.22 57.84,101.95 51.88,103.68 45.14,105.03 38.39,106.38 30.33,106.80 22.27,107.22 15.25,106.41 8.23,105.59 2.75,104.17 -2.72,102.76 -8.31,100.80 -13.89,98.85 -20.21,96.06 -26.53,93.28 -31.37,90.39 -36.21,87.50 -41.14,83.51 -46.06,79.52 -49.43,76.05 -52.80,72.59 -55.68,68.55 -58.56,64.52 -60.67,59.30 -62.77,54.08 -63.54,49.21 -64.30,44.34 -63.82,40.48 -63.34,36.62 -62.27,33.21 -61.19,29.80 -59.59,26.40 -58.00,23.00 -55.64,19.64 -53.28,16.28 -49.71,13.13 -46.14,9.98 -42.41,7.65 -38.68,5.32 -35.48,3.97 -32.28,2.61 -29.01,1.76 -25.74,0.91 -22.54,0.26 -19.34,-0.37 -16.15,-0.52 -12.96,-0.67 -7.63,-0.90 -2.30,-1.14 -1.15,-0.99 0,-0.85 0.10,-0.83 0.20,-0.82 0.29,-0.78 0.39,-0.75 0.47,-0.69 0.56,-0.63 0.63,-0.55 0.69,-0.48 0.74,-0.39 0.79,-0.30 0.81,-0.20 0.84,-0.10 0.84,0.00 0.84,0.10 0.81,0.20 0.79,0.30 0.74,0.39 0.69,0.48 0.63,0.55 0.56,0.63 0.47,0.69 0.39,0.75 0.29,0.78 0.20,0.82 0.10,0.83 -0.00,0.85 -0.00,0.85 L 0,0.85 Z"></path></g><g transform="translate(408.66668701171875 73.04165649414062) rotate(0 -20.66668701171875 54.66667175292969)" stroke="none"><path fill="#000" d="M -0.41,0.83 Q -0.41,0.83 -2.03,0.23 -3.65,-0.36 -5.23,-1.02 -6.81,-1.69 -9.42,-1.92 -12.02,-2.16 -15.64,-2.27 -19.27,-2.38 -22.66,-2.04 -26.05,-1.70 -29.79,-1.17 -33.54,-0.64 -37.16,0.34 -40.78,1.33 -45.74,3.11 -50.70,4.89 -55.66,6.98 -60.63,9.07 -64.82,11.10 -69.02,13.13 -72.25,15.28 -75.49,17.44 -79.69,21.18 -83.88,24.92 -86.95,28.75 -90.02,32.57 -91.50,34.92 -92.98,37.27 -94.11,41.53 -95.24,45.79 -95.33,53.63 -95.43,61.47 -95.10,65.77 -94.77,70.07 -94.26,72.98 -93.75,75.90 -91.87,79.63 -89.99,83.35 -85.66,87.89 -81.33,92.43 -75.57,96.03 -69.81,99.64 -64.52,102.14 -59.22,104.63 -52.45,106.62 -45.69,108.62 -38.12,109.45 -30.55,110.28 -24.13,110.07 -17.72,109.86 -12.01,108.82 -6.29,107.79 0.44,105.27 7.18,102.76 13.61,99.05 20.05,95.34 24.85,91.69 29.65,88.04 34.09,82.94 38.53,77.85 42.31,71.91 46.08,65.97 48.78,58.14 51.48,50.31 47.67,38.50 43.87,26.70 39.72,20.40 35.57,14.10 29.07,10.82 22.57,7.53 15.88,6.08 9.18,4.62 4.23,2.79 -0.72,0.97 -0.69,0.86 -0.67,0.76 -0.61,0.67 -0.56,0.58 -0.47,0.51 -0.39,0.44 -0.29,0.40 -0.19,0.36 -0.09,0.36 0.01,0.36 0.11,0.38 0.21,0.41 0.30,0.47 0.39,0.54 0.45,0.62 0.51,0.71 0.55,0.81 0.58,0.91 0.58,1.01 0.58,1.12 0.54,1.22 0.51,1.32 0.44,1.40 0.38,1.49 0.29,1.55 0.20,1.61 0.10,1.63 -0.00,1.66 -0.10,1.65 -0.21,1.65 -0.31,1.61 -0.40,1.57 -0.48,1.50 -0.56,1.43 -0.62,1.34 -0.67,1.24 -0.69,1.14 -0.72,1.04 -0.70,0.93 -0.69,0.83 -0.65,0.73 -0.60,0.63 -0.53,0.56 -0.45,0.48 -0.36,0.43 -0.26,0.38 -0.16,0.37 -0.05,0.35 0.04,0.37 0.15,0.39 0.24,0.44 0.33,0.49 0.40,0.57 0.48,0.64 0.52,0.74 0.56,0.84 0.57,0.94 0.59,1.05 0.59,1.05 0.59,1.05 5.26,1.11 9.93,1.17 17.07,2.73 24.22,4.30 31.34,8.12 38.46,11.94 42.90,18.76 47.35,25.58 51.14,38.32 54.93,51.05 52.04,59.48 49.16,67.91 45.21,74.07 41.27,80.24 36.56,85.58 31.85,90.92 26.85,94.69 21.85,98.46 15.14,102.29 8.43,106.12 1.39,108.71 -5.65,111.30 -11.63,112.35 -17.60,113.41 -24.27,113.61 -30.94,113.81 -38.81,112.91 -46.68,112.00 -53.70,109.91 -60.72,107.82 -66.20,105.22 -71.69,102.62 -77.78,98.73 -83.87,94.85 -88.48,89.89 -93.08,84.92 -95.10,80.72 -97.12,76.52 -97.65,73.42 -98.18,70.32 -98.50,65.87 -98.82,61.42 -98.64,53.18 -98.45,44.94 -97.13,40.24 -95.80,35.53 -94.20,33.01 -92.61,30.49 -89.35,26.47 -86.08,22.46 -81.70,18.58 -77.31,14.69 -73.88,12.43 -70.44,10.17 -66.16,8.12 -61.88,6.07 -56.82,3.98 -51.75,1.89 -46.66,0.15 -41.56,-1.59 -37.75,-2.57 -33.95,-3.56 -30.13,-4.08 -26.32,-4.59 -22.75,-4.91 -19.18,-5.23 -15.45,-5.09 -11.72,-4.94 -8.73,-4.57 -5.75,-4.20 -4.11,-3.45 -2.48,-2.70 -1.03,-1.76 0.41,-0.83 0.51,-0.77 0.60,-0.71 0.68,-0.62 0.75,-0.54 0.81,-0.44 0.86,-0.34 0.89,-0.23 0.92,-0.13 0.92,-0.01 0.92,0.09 0.90,0.20 0.87,0.31 0.82,0.41 0.77,0.51 0.70,0.60 0.63,0.68 0.54,0.75 0.45,0.81 0.34,0.86 0.24,0.90 0.12,0.91 0.01,0.93 -0.09,0.92 -0.20,0.91 -0.31,0.87 -0.41,0.83 -0.41,0.83 L -0.41,0.83 Z"></path></g><g transform="translate(132.66668701171875 62.375) rotate(0 4.3333282470703125 10.333328247070312)" stroke="none"><path fill="#000" d="M 1.07,0.26 Q 1.07,0.26 0.67,2.61 0.26,4.95 0.04,6.62 -0.16,8.29 -0.25,10.49 -0.34,12.70 -0.37,15.37 -0.41,18.04 -0.42,19.57 -0.44,21.09 -0.43,22.12 -0.42,23.15 -0.44,23.34 -0.47,23.53 -0.54,23.70 -0.61,23.88 -0.72,24.03 -0.82,24.19 -0.97,24.31 -1.11,24.43 -1.28,24.52 -1.45,24.61 -1.63,24.65 -1.81,24.69 -2.00,24.69 -2.19,24.69 -2.37,24.64 -2.56,24.59 -2.72,24.50 -2.89,24.41 -3.03,24.29 -3.17,24.16 -3.27,24.00 -3.38,23.85 -3.44,23.67 -3.51,23.49 -3.53,23.30 -3.55,23.12 -3.59,21.21 -3.63,19.30 -3.63,16.82 -3.63,14.33 -3.44,11.50 -3.24,8.66 -2.77,5.49 -2.30,2.33 -0.96,-0.14 0.38,-2.62 1.85,-2.49 3.32,-2.36 4.98,-0.74 6.65,0.87 8.30,4.96 9.94,9.05 10.42,13.24 10.90,17.43 10.91,17.54 10.91,17.64 10.89,17.74 10.86,17.85 10.80,17.94 10.74,18.02 10.66,18.09 10.57,18.15 10.47,18.19 10.37,18.22 10.27,18.22 10.16,18.23 10.06,18.19 9.96,18.16 9.87,18.10 9.79,18.03 9.73,17.94 9.67,17.86 9.64,17.75 9.61,17.65 9.61,17.55 9.62,17.44 9.66,17.34 9.70,17.24 9.76,17.16 9.83,17.08 9.92,17.02 10.01,16.97 10.12,16.94 10.22,16.92 10.33,16.93 10.43,16.94 10.53,16.99 10.62,17.03 10.70,17.10 10.78,17.17 10.83,17.27 10.88,17.36 10.90,17.47 10.92,17.57 10.90,17.68 10.88,17.78 10.84,17.88 10.79,17.97 10.71,18.04 10.63,18.12 10.54,18.16 10.44,18.21 10.34,18.22 10.23,18.23 10.13,18.21 10.02,18.19 9.93,18.13 9.84,18.08 9.77,18.00 9.70,17.92 9.66,17.82 9.62,17.72 9.62,17.72 9.62,17.72 8.28,13.97 6.94,10.21 5.58,6.59 4.23,2.96 3.33,1.77 2.44,0.57 1.50,0.39 0.56,0.21 0.74,1.52 0.92,2.82 0.47,5.85 0.01,8.88 -0.17,11.61 -0.36,14.33 -0.36,16.81 -0.36,19.30 -0.39,21.23 -0.42,23.15 -0.44,23.34 -0.47,23.53 -0.54,23.70 -0.61,23.88 -0.72,24.03 -0.82,24.19 -0.97,24.31 -1.11,24.43 -1.28,24.52 -1.45,24.61 -1.63,24.65 -1.81,24.69 -2.00,24.69 -2.19,24.69 -2.37,24.64 -2.56,24.59 -2.72,24.50 -2.89,24.41 -3.03,24.29 -3.17,24.16 -3.27,24.00 -3.38,23.85 -3.44,23.67 -3.51,23.49 -3.53,23.30 -3.55,23.12 -3.52,22.08 -3.50,21.05 -3.47,19.52 -3.45,17.99 -3.40,15.28 -3.35,12.56 -3.22,10.22 -3.10,7.88 -2.83,6.06 -2.56,4.24 -1.82,1.98 -1.07,-0.26 -1.03,-0.39 -0.98,-0.52 -0.90,-0.63 -0.82,-0.74 -0.72,-0.82 -0.62,-0.91 -0.50,-0.97 -0.39,-1.04 -0.26,-1.07 -0.13,-1.10 0.00,-1.10 0.13,-1.10 0.26,-1.07 0.39,-1.03 0.51,-0.97 0.63,-0.91 0.73,-0.82 0.83,-0.73 0.91,-0.62 0.98,-0.51 1.03,-0.38 1.08,-0.26 1.09,-0.12 1.11,0.00 1.09,0.13 1.07,0.26 1.07,0.26 L 1.07,0.26 Z"></path></g><g transform="translate(129.33334350585938 74.375) rotate(0 10.666671752929688 -4)" stroke="none"><path fill="#000" d="M -0.59,-0.89 Q -0.59,-0.89 0.99,-2.25 2.57,-3.61 5.14,-4.78 7.70,-5.95 11.54,-7.02 15.37,-8.09 17.09,-8.04 18.81,-7.98 18.92,-7.99 19.02,-8.01 19.13,-7.98 19.23,-7.96 19.32,-7.90 19.41,-7.85 19.48,-7.77 19.55,-7.69 19.59,-7.59 19.63,-7.49 19.63,-7.38 19.64,-7.28 19.61,-7.18 19.58,-7.07 19.52,-6.98 19.46,-6.90 19.38,-6.83 19.29,-6.77 19.19,-6.74 19.09,-6.70 18.98,-6.70 18.88,-6.70 18.78,-6.74 18.68,-6.77 18.59,-6.83 18.51,-6.90 18.45,-6.99 18.39,-7.08 18.36,-7.18 18.33,-7.28 18.34,-7.39 18.35,-7.49 18.38,-7.59 18.42,-7.69 18.49,-7.77 18.56,-7.85 18.65,-7.91 18.74,-7.96 18.85,-7.98 18.95,-8.01 19.06,-7.99 19.16,-7.98 19.26,-7.94 19.36,-7.89 19.43,-7.82 19.51,-7.75 19.56,-7.65 19.61,-7.56 19.63,-7.45 19.64,-7.35 19.63,-7.24 19.61,-7.14 19.56,-7.04 19.51,-6.95 19.43,-6.88 19.35,-6.81 19.26,-6.76 19.16,-6.72 19.16,-6.72 19.16,-6.72 17.71,-5.79 16.26,-4.86 12.64,-3.88 9.02,-2.90 6.67,-1.94 4.32,-0.98 2.45,-0.04 0.59,0.89 0.47,0.94 0.36,1.00 0.23,1.03 0.11,1.06 -0.01,1.06 -0.14,1.06 -0.27,1.02 -0.39,0.99 -0.50,0.93 -0.62,0.87 -0.71,0.78 -0.81,0.69 -0.88,0.59 -0.95,0.48 -1.00,0.36 -1.04,0.23 -1.05,0.11 -1.07,-0.01 -1.05,-0.14 -1.03,-0.27 -0.98,-0.39 -0.94,-0.51 -0.86,-0.61 -0.79,-0.72 -0.69,-0.80 -0.59,-0.89 -0.59,-0.89 L -0.59,-0.89 Z"></path></g><g transform="translate(447.3333740234375 56.375) rotate(0 9 6.6666717529296875)" stroke="none"><path fill="#000" d="M 1.11,0.13 Q 1.11,0.13 1.06,1.69 1.01,3.24 0.94,4.79 0.87,6.34 1.22,7.80 1.57,9.27 1.12,11.23 0.68,13.19 -0.45,12.99 -1.59,12.78 -2.23,11.68 -2.88,10.58 -2.54,5.81 -2.20,1.04 -1.25,-1.68 -0.30,-4.41 3.10,-5.23 6.52,-6.04 7.61,-5.72 8.70,-5.39 8.89,-5.41 9.08,-5.42 9.27,-5.38 9.46,-5.35 9.64,-5.27 9.82,-5.19 9.97,-5.07 10.12,-4.95 10.24,-4.80 10.36,-4.65 10.44,-4.47 10.52,-4.30 10.56,-4.11 10.59,-3.92 10.58,-3.72 10.57,-3.53 10.51,-3.34 10.46,-3.16 10.36,-2.99 10.26,-2.83 10.12,-2.69 9.98,-2.55 9.82,-2.45 9.65,-2.35 9.47,-2.30 9.28,-2.24 9.42,-1.28 9.56,-0.33 8.67,0.88 7.79,2.09 7.26,1.54 6.73,0.98 7.59,1.19 8.45,1.39 9.74,1.68 11.04,1.98 12.82,2.51 14.60,3.04 16.59,4.42 18.58,5.81 19.15,7.65 19.71,9.49 18.63,11.49 17.55,13.49 13.81,15.75 10.06,18.01 5.70,18.99 1.33,19.96 1.23,19.98 1.12,20.00 1.02,19.99 0.91,19.97 0.82,19.93 0.72,19.88 0.65,19.80 0.57,19.73 0.52,19.63 0.48,19.54 0.46,19.43 0.45,19.33 0.47,19.22 0.49,19.12 0.54,19.03 0.59,18.93 0.67,18.86 0.75,18.79 0.85,18.75 0.95,18.71 1.05,18.70 1.16,18.69 1.26,18.72 1.37,18.74 1.45,18.80 1.54,18.86 1.61,18.94 1.68,19.02 1.71,19.12 1.75,19.22 1.75,19.33 1.75,19.44 1.72,19.54 1.69,19.64 1.63,19.73 1.57,19.81 1.48,19.87 1.39,19.94 1.29,19.97 1.19,20.00 1.09,19.99 0.98,19.99 0.88,19.95 0.78,19.92 0.70,19.85 0.61,19.78 0.56,19.69 0.50,19.60 0.48,19.50 0.45,19.40 0.46,19.29 0.47,19.19 0.51,19.09 0.55,18.99 0.62,18.91 0.69,18.83 0.79,18.78 0.88,18.73 0.88,18.73 0.88,18.73 4.57,16.77 8.26,14.80 11.51,13.10 14.75,11.41 15.69,10.41 16.62,9.42 16.52,8.73 16.42,8.04 15.03,7.07 13.64,6.10 11.98,5.61 10.32,5.12 8.93,4.80 7.54,4.48 6.61,4.16 5.67,3.83 5.42,2.04 5.17,0.24 5.84,-0.56 6.51,-1.38 7.60,-3.38 8.70,-5.39 8.89,-5.41 9.08,-5.42 9.27,-5.38 9.46,-5.35 9.64,-5.27 9.82,-5.19 9.97,-5.07 10.12,-4.95 10.24,-4.80 10.36,-4.65 10.44,-4.47 10.52,-4.30 10.56,-4.11 10.59,-3.92 10.58,-3.72 10.57,-3.53 10.51,-3.35 10.46,-3.16 10.36,-2.99 10.26,-2.83 10.12,-2.69 9.98,-2.55 9.82,-2.45 9.65,-2.35 9.47,-2.30 9.28,-2.24 8.11,-2.57 6.94,-2.90 4.14,-2.56 1.33,-2.22 1.17,-0.44 1.02,1.34 0.61,5.80 0.21,10.27 -0.52,10.07 -1.26,9.87 -1.61,8.04 -1.96,6.22 -1.87,4.55 -1.78,2.89 -1.45,1.37 -1.11,-0.13 -1.08,-0.27 -1.05,-0.40 -0.99,-0.52 -0.92,-0.64 -0.83,-0.74 -0.74,-0.84 -0.63,-0.92 -0.52,-1.00 -0.39,-1.04 -0.26,-1.09 -0.13,-1.11 0.00,-1.12 0.13,-1.11 0.27,-1.09 0.40,-1.04 0.52,-0.99 0.63,-0.91 0.75,-0.84 0.84,-0.73 0.93,-0.63 0.99,-0.51 1.05,-0.39 1.08,-0.26 1.12,-0.13 1.12,0.00 1.11,0.14 1.11,0.14 L 1.11,0.13 Z"></path></g><g transform="translate(270.66668701171875 244.375) rotate(0 7 2)" stroke="none"><path fill="#000" d="M 0.78,0 Q 0.78,0 0.97,1.91 1.17,3.83 1.03,6.23 0.88,8.63 0.84,10.56 0.80,12.49 0.67,13.95 0.53,15.42 0.56,15.30 0.58,15.18 0.55,15.37 0.52,15.56 0.45,15.74 0.37,15.92 0.26,16.08 0.14,16.24 -0.00,16.36 -0.15,16.48 -0.32,16.57 -0.49,16.66 -0.68,16.70 -0.87,16.74 -1.07,16.73 -1.26,16.73 -1.45,16.67 -1.64,16.62 -1.81,16.53 -1.98,16.43 -2.12,16.30 -2.26,16.17 -2.37,16.00 -2.47,15.84 -2.54,15.66 -2.60,15.47 -2.62,15.28 -2.64,15.09 -2.73,13.09 -2.82,11.10 -2.86,8.67 -2.90,6.24 -2.52,3.19 -2.15,0.14 -1.60,-2.69 -1.05,-5.53 -0.15,-7.87 0.75,-10.22 2.61,-11.25 4.48,-12.28 5.90,-11.61 7.32,-10.94 8.55,-9.31 9.78,-7.68 11.06,-4.62 12.35,-1.56 13.62,1.17 14.88,3.91 15.25,6.92 15.62,9.93 15.63,10.04 15.64,10.14 15.62,10.25 15.60,10.35 15.54,10.44 15.49,10.53 15.41,10.60 15.33,10.67 15.23,10.71 15.13,10.75 15.02,10.75 14.92,10.76 14.81,10.73 14.71,10.70 14.62,10.64 14.54,10.58 14.47,10.50 14.41,10.42 14.37,10.32 14.34,10.21 14.34,10.11 14.34,10.00 14.37,9.90 14.41,9.80 14.47,9.72 14.54,9.63 14.62,9.57 14.71,9.51 14.81,9.48 14.92,9.45 15.02,9.46 15.13,9.47 15.23,9.51 15.33,9.54 15.41,9.61 15.49,9.68 15.54,9.77 15.60,9.86 15.62,9.97 15.64,10.07 15.63,10.18 15.62,10.28 15.58,10.38 15.53,10.48 15.46,10.55 15.39,10.63 15.29,10.68 15.20,10.73 15.09,10.75 14.99,10.76 14.88,10.75 14.78,10.73 14.68,10.68 14.59,10.63 14.52,10.55 14.44,10.48 14.40,10.38 14.35,10.28 14.35,10.28 14.35,10.28 13.18,7.76 12.00,5.23 10.71,2.43 9.43,-0.35 8.31,-3.11 7.20,-5.86 6.39,-7.09 5.58,-8.32 4.91,-8.95 4.24,-9.59 3.88,-9.18 3.53,-8.77 2.83,-6.84 2.12,-4.90 1.59,-2.18 1.06,0.54 0.70,3.37 0.34,6.19 0.38,8.58 0.41,10.96 0.50,13.07 0.58,15.18 0.55,15.37 0.52,15.56 0.45,15.74 0.37,15.92 0.26,16.08 0.14,16.24 -0.00,16.36 -0.15,16.48 -0.32,16.57 -0.49,16.66 -0.68,16.70 -0.87,16.74 -1.07,16.73 -1.26,16.73 -1.45,16.67 -1.64,16.62 -1.81,16.53 -1.98,16.43 -2.12,16.30 -2.26,16.17 -2.37,16.00 -2.47,15.84 -2.54,15.66 -2.60,15.47 -2.62,15.28 -2.64,15.09 -2.20,14.70 -1.77,14.32 -1.83,13.35 -1.90,12.38 -1.77,10.40 -1.65,8.42 -1.41,6.12 -1.17,3.83 -0.97,1.91 -0.78,0 -0.77,-0.09 -0.76,-0.18 -0.72,-0.27 -0.69,-0.36 -0.64,-0.44 -0.58,-0.51 -0.51,-0.58 -0.44,-0.64 -0.36,-0.68 -0.27,-0.73 -0.18,-0.75 -0.09,-0.77 0.00,-0.77 0.09,-0.77 0.18,-0.75 0.27,-0.73 0.36,-0.68 0.44,-0.64 0.51,-0.58 0.58,-0.51 0.64,-0.44 0.69,-0.36 0.72,-0.27 0.76,-0.18 0.77,-0.09 0.78,0.00 0.78,0.00 L 0.78,0 Z"></path></g><g transform="translate(269.3333740234375 255.04165649414062) rotate(0 10.666656494140625 -2)" stroke="none"><path fill="#000" d="M -0.50,-1.01 Q -0.50,-1.01 0.54,-1.77 1.60,-2.54 2.71,-3.01 3.83,-3.49 5.75,-3.92 7.68,-4.35 10.02,-4.71 12.36,-5.07 16.03,-4.82 19.71,-4.56 19.82,-4.55 19.92,-4.53 20.02,-4.49 20.12,-4.45 20.20,-4.37 20.27,-4.30 20.32,-4.21 20.37,-4.11 20.39,-4.01 20.41,-3.90 20.39,-3.80 20.38,-3.69 20.33,-3.60 20.28,-3.51 20.20,-3.43 20.12,-3.36 20.03,-3.31 19.93,-3.27 19.83,-3.26 19.72,-3.25 19.62,-3.27 19.51,-3.29 19.42,-3.34 19.33,-3.40 19.26,-3.48 19.19,-3.56 19.15,-3.66 19.11,-3.76 19.11,-3.86 19.10,-3.97 19.13,-4.07 19.15,-4.17 19.21,-4.26 19.27,-4.35 19.36,-4.41 19.44,-4.48 19.54,-4.51 19.64,-4.55 19.75,-4.55 19.85,-4.55 19.96,-4.52 20.06,-4.48 20.14,-4.42 20.23,-4.36 20.29,-4.27 20.35,-4.18 20.38,-4.08 20.40,-3.98 20.40,-3.87 20.39,-3.76 20.36,-3.66 20.32,-3.57 20.25,-3.48 20.18,-3.40 20.09,-3.35 20.00,-3.29 19.89,-3.27 19.79,-3.25 19.79,-3.25 19.79,-3.25 16.32,-2.56 12.85,-1.88 10.59,-1.53 8.34,-1.19 6.68,-0.87 5.02,-0.55 4.01,-0.15 2.99,0.24 1.75,0.62 0.50,1.01 0.37,1.05 0.24,1.10 0.11,1.11 -0.02,1.13 -0.15,1.11 -0.29,1.09 -0.41,1.04 -0.54,0.99 -0.65,0.91 -0.76,0.83 -0.85,0.72 -0.94,0.62 -1.00,0.50 -1.06,0.38 -1.09,0.24 -1.12,0.11 -1.12,-0.02 -1.12,-0.15 -1.08,-0.29 -1.05,-0.42 -0.98,-0.54 -0.91,-0.66 -0.82,-0.76 -0.73,-0.86 -0.61,-0.93 -0.50,-1.01 -0.50,-1.01 L -0.50,-1.01 Z"></path></g><g transform="translate(298 240.375) rotate(0 4.333343505859375 4.666656494140625)" stroke="none"><path fill="#000" d="M 0,0.94 Q 0,0.94 -0.38,1.19 -0.76,1.43 -0.93,1.41 -1.11,1.39 -1.27,1.33 -1.43,1.27 -1.57,1.17 -1.72,1.07 -1.83,0.94 -1.95,0.81 -2.03,0.66 -2.11,0.51 -2.15,0.34 -2.19,0.17 -2.19,-0.00 -2.19,-0.17 -2.15,-0.34 -2.11,-0.51 -2.03,-0.66 -1.95,-0.81 -1.83,-0.94 -1.72,-1.07 -1.57,-1.17 -1.43,-1.27 -1.27,-1.33 -1.11,-1.39 -0.93,-1.41 -0.76,-1.43 -0.01,0.01 0.74,1.47 0.96,3.08 1.18,4.68 1.28,6.00 1.38,7.32 1.76,8.42 2.14,9.51 2.64,9.93 3.15,10.35 4.50,9.68 5.84,9.01 6.52,7.81 7.20,6.60 7.50,5.27 7.80,3.93 7.75,2.33 7.70,0.73 7.36,-0.95 7.02,-2.63 6.97,-2.73 6.93,-2.82 6.91,-2.93 6.90,-3.03 6.92,-3.14 6.94,-3.24 6.99,-3.33 7.04,-3.43 7.12,-3.50 7.20,-3.57 7.29,-3.61 7.39,-3.66 7.50,-3.66 7.60,-3.67 7.71,-3.65 7.81,-3.62 7.90,-3.57 7.99,-3.51 8.06,-3.43 8.12,-3.35 8.16,-3.25 8.20,-3.15 8.20,-3.04 8.20,-2.94 8.17,-2.83 8.14,-2.73 8.08,-2.64 8.02,-2.56 7.93,-2.50 7.85,-2.43 7.75,-2.40 7.65,-2.37 7.54,-2.37 7.43,-2.37 7.33,-2.41 7.23,-2.45 7.15,-2.51 7.07,-2.58 7.01,-2.67 6.95,-2.76 6.93,-2.86 6.90,-2.96 6.91,-3.07 6.92,-3.17 6.96,-3.27 7.00,-3.37 7.07,-3.45 7.14,-3.53 7.23,-3.58 7.32,-3.63 7.43,-3.66 7.53,-3.68 7.64,-3.66 7.74,-3.65 7.84,-3.60 7.93,-3.56 8.01,-3.48 8.08,-3.41 8.08,-3.41 8.08,-3.41 9.55,-1.38 11.01,0.64 11.00,2.68 11.00,4.72 10.48,6.53 9.97,8.35 8.75,10.05 7.52,11.75 5.74,12.56 3.97,13.36 2.63,13.06 1.28,12.76 0.28,11.68 -0.71,10.60 -1.18,9.07 -1.64,7.54 -1.71,6.29 -1.78,5.04 -1.97,3.31 -2.16,1.58 -1.46,1.51 -0.76,1.43 -0.93,1.41 -1.11,1.39 -1.27,1.33 -1.43,1.27 -1.57,1.17 -1.72,1.07 -1.83,0.94 -1.95,0.81 -2.03,0.66 -2.11,0.51 -2.15,0.34 -2.19,0.17 -2.19,0.00 -2.19,-0.17 -2.15,-0.34 -2.11,-0.51 -2.03,-0.66 -1.95,-0.81 -1.83,-0.94 -1.72,-1.07 -1.57,-1.17 -1.43,-1.27 -1.27,-1.33 -1.11,-1.39 -0.93,-1.41 -0.76,-1.43 -0.38,-1.19 0,-0.94 0.11,-0.92 0.22,-0.91 0.33,-0.87 0.43,-0.83 0.53,-0.77 0.62,-0.70 0.70,-0.62 0.77,-0.53 0.82,-0.43 0.88,-0.33 0.90,-0.22 0.93,-0.11 0.93,0.00 0.93,0.11 0.90,0.22 0.88,0.33 0.82,0.43 0.77,0.53 0.70,0.62 0.62,0.70 0.53,0.77 0.43,0.83 0.33,0.87 0.22,0.91 0.11,0.92 -0.00,0.94 -0.00,0.94 L 0,0.94 Z"></path></g><g transform="translate(323.3333740234375 244.375) rotate(0 7.999969482421875 -2.333343505859375)" stroke="none"><path fill="#000" d="M 0.79,-0.07 Q 0.79,-0.07 1.26,2.01 1.72,4.09 1.82,5.58 1.92,7.08 1.99,8.29 2.05,9.51 2.08,10.21 2.10,10.92 2.08,11.09 2.07,11.27 2.01,11.43 1.95,11.60 1.86,11.75 1.76,11.89 1.63,12.01 1.50,12.14 1.35,12.22 1.20,12.31 1.03,12.35 0.86,12.40 0.68,12.41 0.51,12.41 0.33,12.37 0.16,12.34 0.00,12.26 -0.14,12.18 -0.28,12.07 -0.42,11.96 -0.52,11.82 -0.62,11.67 -0.69,11.51 -0.76,11.35 -0.78,11.17 -0.81,11.00 -0.86,10.32 -0.91,9.63 -1.28,7.98 -1.64,6.33 -1.82,3.92 -2.00,1.51 -1.88,-1.09 -1.76,-3.69 -1.31,-6.75 -0.87,-9.81 -0.47,-11.73 -0.07,-13.66 1.03,-15.15 2.14,-16.64 3.63,-17.34 5.12,-18.05 6.76,-17.91 8.40,-17.78 9.65,-16.57 10.91,-15.36 10.54,-13.58 10.16,-11.80 9.11,-10.17 8.05,-8.55 7.29,-7.22 6.53,-5.90 5.82,-4.57 5.11,-3.25 5.27,-2.71 5.42,-2.18 6.32,-2.07 7.22,-1.97 8.58,-1.86 9.94,-1.75 12.03,-1.30 14.11,-0.84 15.99,0.24 17.86,1.33 18.61,2.85 19.36,4.37 18.74,6.08 18.11,7.79 14.72,9.60 11.34,11.41 8.93,12.28 6.52,13.14 2.39,12.03 -1.74,10.91 -1.84,10.88 -1.94,10.84 -2.02,10.78 -2.11,10.71 -2.17,10.63 -2.23,10.54 -2.26,10.44 -2.29,10.34 -2.28,10.23 -2.28,10.12 -2.24,10.02 -2.20,9.93 -2.13,9.84 -2.06,9.76 -1.97,9.71 -1.88,9.65 -1.78,9.63 -1.68,9.60 -1.57,9.61 -1.46,9.63 -1.37,9.67 -1.27,9.71 -1.19,9.79 -1.12,9.86 -1.07,9.95 -1.01,10.05 -1.00,10.15 -0.98,10.25 -1.00,10.36 -1.01,10.46 -1.06,10.56 -1.11,10.65 -1.19,10.73 -1.26,10.80 -1.36,10.85 -1.46,10.89 -1.56,10.90 -1.67,10.92 -1.77,10.89 -1.87,10.87 -1.97,10.82 -2.06,10.76 -2.13,10.68 -2.20,10.60 -2.24,10.50 -2.28,10.41 -2.28,10.30 -2.29,10.19 -2.26,10.09 -2.23,9.99 -2.17,9.90 -2.12,9.81 -2.03,9.75 -1.95,9.68 -1.85,9.65 -1.75,9.61 -1.64,9.61 -1.53,9.61 -1.53,9.61 -1.53,9.61 2.00,9.69 5.54,9.78 7.70,9.02 9.86,8.26 12.69,7.15 15.53,6.04 15.79,4.94 16.06,3.84 14.72,3.02 13.38,2.21 11.53,1.79 9.67,1.38 8.07,1.23 6.47,1.08 4.91,0.58 3.36,0.08 2.59,-1.02 1.82,-2.13 2.08,-3.43 2.34,-4.73 3.07,-6.10 3.80,-7.47 4.63,-8.89 5.45,-10.31 6.31,-11.52 7.18,-12.73 7.52,-13.73 7.87,-14.72 6.99,-14.93 6.11,-15.14 5.28,-14.86 4.45,-14.57 3.70,-13.73 2.95,-12.88 2.60,-11.12 2.25,-9.35 1.82,-6.45 1.39,-3.54 1.27,-1.12 1.14,1.29 1.29,3.49 1.44,5.69 1.83,7.67 2.22,9.64 2.16,10.28 2.10,10.92 2.08,11.09 2.07,11.27 2.01,11.43 1.95,11.60 1.86,11.75 1.76,11.89 1.63,12.01 1.50,12.14 1.35,12.22 1.20,12.31 1.03,12.35 0.86,12.40 0.68,12.41 0.51,12.41 0.33,12.37 0.16,12.34 0.00,12.26 -0.14,12.18 -0.28,12.07 -0.41,11.96 -0.52,11.82 -0.62,11.67 -0.69,11.51 -0.76,11.35 -0.78,11.17 -0.81,11.00 -0.82,10.30 -0.82,9.60 -0.83,8.41 -0.83,7.23 -0.89,5.78 -0.95,4.33 -0.87,2.20 -0.79,0.07 -0.79,-0.02 -0.78,-0.12 -0.76,-0.21 -0.73,-0.30 -0.69,-0.38 -0.64,-0.47 -0.57,-0.54 -0.51,-0.61 -0.43,-0.66 -0.34,-0.71 -0.25,-0.74 -0.16,-0.78 -0.07,-0.78 0.02,-0.79 0.11,-0.78 0.21,-0.76 0.30,-0.73 0.39,-0.69 0.46,-0.63 0.54,-0.58 0.60,-0.50 0.67,-0.43 0.71,-0.34 0.75,-0.26 0.77,-0.16 0.79,-0.07 0.79,-0.07 L 0.79,-0.07 Z"></path></g><g transform="translate(182.66668701171875 91.70831298828125) rotate(0 -9.666671752929688 16.000015258789062)" stroke="none"><path fill="#000" d="M 0.62,0.37 Q 0.62,0.37 0.34,1.51 0.06,2.64 -1.09,4.77 -2.26,6.91 -3.91,9.75 -5.57,12.59 -7.23,15.34 -8.90,18.08 -10.97,21.02 -13.05,23.95 -14.46,26.28 -15.88,28.61 -17.11,30.33 -18.34,32.05 -18.40,32.14 -18.46,32.23 -18.54,32.29 -18.62,32.36 -18.72,32.40 -18.82,32.43 -18.93,32.43 -19.04,32.44 -19.14,32.40 -19.24,32.37 -19.33,32.31 -19.41,32.25 -19.47,32.16 -19.53,32.07 -19.56,31.97 -19.59,31.87 -19.59,31.76 -19.59,31.66 -19.55,31.56 -19.51,31.46 -19.44,31.38 -19.38,31.29 -19.29,31.24 -19.20,31.18 -19.09,31.16 -18.99,31.13 -18.88,31.14 -18.78,31.15 -18.68,31.19 -18.58,31.24 -18.51,31.31 -18.43,31.38 -18.38,31.47 -18.32,31.57 -18.30,31.67 -18.29,31.77 -18.30,31.88 -18.32,31.98 -18.36,32.08 -18.41,32.17 -18.49,32.25 -18.56,32.32 -18.66,32.37 -18.76,32.42 -18.86,32.43 -18.97,32.44 -19.07,32.42 -19.17,32.40 -19.27,32.35 -19.36,32.29 -19.43,32.21 -19.50,32.13 -19.54,32.04 -19.58,31.94 -19.59,31.83 -19.60,31.73 -19.57,31.62 -19.54,31.52 -19.54,31.52 -19.54,31.52 -19.02,29.27 -18.51,27.02 -17.03,24.60 -15.55,22.17 -13.53,19.33 -11.50,16.49 -9.84,13.77 -8.18,11.05 -6.51,8.25 -4.84,5.45 -3.60,3.31 -2.36,1.18 -1.49,0.40 -0.62,-0.37 -0.57,-0.44 -0.51,-0.51 -0.44,-0.56 -0.37,-0.62 -0.29,-0.65 -0.21,-0.69 -0.13,-0.71 -0.04,-0.72 0.04,-0.72 0.12,-0.71 0.21,-0.69 0.29,-0.66 0.37,-0.62 0.44,-0.57 0.50,-0.51 0.57,-0.45 0.61,-0.37 0.66,-0.30 0.68,-0.21 0.71,-0.13 0.72,-0.04 0.72,0.04 0.71,0.12 0.69,0.21 0.66,0.29 0.62,0.37 0.62,0.37 L 0.62,0.37 Z"></path></g><g transform="translate(195.33334350585938 84.375) rotate(0 -13.666671752929688 24.333328247070312)" stroke="none"><path fill="#000" d="M 0.80,0.40 Q 0.80,0.40 0.13,1.98 -0.53,3.56 -1.83,5.78 -3.13,8.00 -5.39,12.17 -7.65,16.34 -10.15,20.63 -12.66,24.92 -15.64,29.81 -18.62,34.71 -20.44,38.10 -22.26,41.49 -24.14,44.53 -26.01,47.57 -26.08,47.66 -26.14,47.74 -26.23,47.80 -26.32,47.86 -26.42,47.89 -26.52,47.92 -26.63,47.91 -26.73,47.91 -26.83,47.87 -26.93,47.83 -27.01,47.76 -27.09,47.69 -27.15,47.60 -27.21,47.51 -27.23,47.41 -27.25,47.31 -27.24,47.20 -27.23,47.09 -27.19,47.00 -27.14,46.90 -27.07,46.82 -27.00,46.75 -26.90,46.70 -26.81,46.65 -26.70,46.63 -26.60,46.61 -26.49,46.63 -26.39,46.64 -26.29,46.69 -26.20,46.74 -26.13,46.82 -26.05,46.90 -26.01,46.99 -25.96,47.09 -25.95,47.20 -25.94,47.30 -25.96,47.40 -25.99,47.51 -26.04,47.60 -26.09,47.69 -26.17,47.76 -26.26,47.83 -26.35,47.87 -26.45,47.91 -26.56,47.91 -26.66,47.92 -26.77,47.89 -26.87,47.86 -26.96,47.81 -27.05,47.75 -27.11,47.66 -27.18,47.58 -27.21,47.48 -27.24,47.38 -27.24,47.27 -27.24,47.16 -27.21,47.06 -27.18,46.96 -27.18,46.96 -27.18,46.96 -25.73,43.68 -24.28,40.40 -22.43,36.96 -20.57,33.52 -17.59,28.65 -14.61,23.78 -12.12,19.52 -9.63,15.27 -7.35,11.07 -5.06,6.86 -3.79,4.71 -2.53,2.56 -1.67,1.08 -0.80,-0.40 -0.74,-0.49 -0.68,-0.58 -0.60,-0.65 -0.52,-0.73 -0.43,-0.78 -0.33,-0.83 -0.23,-0.86 -0.12,-0.89 -0.01,-0.89 0.09,-0.89 0.19,-0.87 0.30,-0.85 0.40,-0.80 0.49,-0.75 0.58,-0.68 0.66,-0.61 0.72,-0.52 0.79,-0.43 0.83,-0.33 0.87,-0.23 0.88,-0.12 0.90,-0.01 0.89,0.09 0.88,0.19 0.84,0.30 0.80,0.40 0.80,0.40 L 0.80,0.40 Z"></path></g><g transform="translate(203.33334350585938 85.04165649414062) rotate(0 -16.333328247070312 28.666671752929688)" stroke="none"><path fill="#000" d="M 0.85,0.56 Q 0.85,0.56 0.22,1.80 -0.40,3.04 -1.22,5.15 -2.03,7.25 -3.57,10.36 -5.11,13.47 -8.84,19.80 -12.57,26.13 -16.83,33.03 -21.10,39.93 -24.06,44.59 -27.03,49.25 -29.15,52.63 -31.28,56.02 -31.34,56.10 -31.41,56.19 -31.49,56.25 -31.58,56.31 -31.68,56.34 -31.78,56.38 -31.89,56.37 -31.99,56.37 -32.09,56.33 -32.19,56.30 -32.28,56.23 -32.36,56.16 -32.42,56.08 -32.47,55.99 -32.50,55.88 -32.53,55.78 -32.52,55.67 -32.51,55.57 -32.47,55.47 -32.42,55.37 -32.35,55.29 -32.28,55.21 -32.19,55.16 -32.10,55.11 -31.99,55.09 -31.89,55.07 -31.78,55.08 -31.68,55.10 -31.58,55.14 -31.49,55.19 -31.41,55.27 -31.34,55.34 -31.29,55.44 -31.24,55.53 -31.23,55.64 -31.21,55.74 -31.23,55.85 -31.25,55.95 -31.31,56.04 -31.36,56.14 -31.44,56.21 -31.52,56.28 -31.61,56.32 -31.71,56.36 -31.82,56.37 -31.92,56.38 -32.03,56.35 -32.13,56.33 -32.22,56.27 -32.31,56.21 -32.38,56.13 -32.44,56.05 -32.48,55.95 -32.52,55.85 -32.52,55.74 -32.52,55.64 -32.49,55.54 -32.46,55.43 -32.46,55.43 -32.46,55.43 -31.00,51.54 -29.54,47.65 -26.58,43.01 -23.62,38.37 -19.36,31.50 -15.09,24.63 -11.39,18.40 -7.68,12.18 -6.15,9.18 -4.63,6.19 -3.64,3.87 -2.65,1.55 -1.75,0.49 -0.85,-0.56 -0.77,-0.66 -0.69,-0.75 -0.59,-0.82 -0.49,-0.90 -0.37,-0.94 -0.26,-0.99 -0.13,-1.01 -0.01,-1.02 0.10,-1.01 0.22,-1.00 0.34,-0.95 0.46,-0.91 0.56,-0.84 0.66,-0.77 0.75,-0.68 0.83,-0.59 0.89,-0.48 0.95,-0.37 0.98,-0.25 1.01,-0.14 1.01,-0.01 1.02,0.10 0.99,0.22 0.96,0.34 0.91,0.45 0.85,0.57 0.85,0.56 L 0.85,0.56 Z"></path></g><g transform="translate(214 87.04165649414062) rotate(0 -16.999984741210938 29)" stroke="none"><path fill="#000" d="M 0.68,0.42 Q 0.68,0.42 -0.02,2.11 -0.74,3.79 -2.47,6.41 -4.20,9.02 -7.38,14.32 -10.55,19.62 -14.80,26.31 -19.04,33.00 -22.18,37.94 -25.32,42.89 -27.20,46.46 -29.08,50.04 -30.26,52.68 -31.44,55.32 -32.30,56.72 -33.16,58.12 -33.21,58.21 -33.25,58.31 -33.33,58.39 -33.40,58.46 -33.49,58.51 -33.59,58.56 -33.69,58.58 -33.80,58.60 -33.90,58.58 -34.01,58.56 -34.10,58.52 -34.19,58.47 -34.27,58.39 -34.34,58.31 -34.38,58.21 -34.43,58.12 -34.44,58.01 -34.45,57.91 -34.43,57.80 -34.41,57.70 -34.35,57.61 -34.30,57.52 -34.22,57.45 -34.13,57.38 -34.04,57.34 -33.94,57.30 -33.83,57.30 -33.73,57.29 -33.62,57.32 -33.52,57.35 -33.43,57.41 -33.34,57.47 -33.28,57.55 -33.22,57.63 -33.18,57.73 -33.15,57.84 -33.15,57.94 -33.15,58.05 -33.18,58.15 -33.22,58.25 -33.28,58.33 -33.34,58.42 -33.43,58.48 -33.52,58.54 -33.62,58.57 -33.72,58.60 -33.83,58.59 -33.94,58.58 -34.04,58.54 -34.13,58.51 -34.22,58.44 -34.30,58.37 -34.35,58.28 -34.41,58.19 -34.43,58.08 -34.45,57.98 -34.44,57.87 -34.43,57.77 -34.43,57.77 -34.43,57.77 -34.39,55.90 -34.35,54.04 -33.14,51.29 -31.93,48.54 -29.98,44.85 -28.03,41.16 -24.87,36.23 -21.72,31.29 -17.46,24.65 -13.20,18.01 -9.91,12.69 -6.61,7.38 -4.85,4.85 -3.08,2.33 -1.88,0.95 -0.68,-0.42 -0.62,-0.50 -0.56,-0.58 -0.48,-0.64 -0.40,-0.70 -0.31,-0.73 -0.22,-0.77 -0.13,-0.79 -0.03,-0.80 0.06,-0.80 0.15,-0.79 0.25,-0.76 0.34,-0.73 0.42,-0.68 0.50,-0.63 0.57,-0.56 0.64,-0.49 0.69,-0.40 0.74,-0.32 0.77,-0.22 0.79,-0.13 0.80,-0.03 0.80,0.06 0.78,0.15 0.77,0.25 0.72,0.34 0.68,0.42 0.68,0.42 L 0.68,0.42 Z"></path></g><g transform="translate(233.3333740234375 75.70831298828125) rotate(0 -23.333343505859375 39)" stroke="none"><path fill="#000" d="M 0.76,0.45 Q 0.76,0.45 -0.23,2.46 -1.23,4.47 -2.27,6.41 -3.31,8.36 -5.30,11.72 -7.28,15.07 -10.80,20.91 -14.31,26.74 -18.31,32.88 -22.30,39.02 -26.08,44.89 -29.87,50.76 -33.19,55.77 -36.51,60.78 -38.84,64.79 -41.18,68.79 -43.24,72.62 -45.30,76.45 -45.36,76.54 -45.41,76.63 -45.50,76.70 -45.58,76.76 -45.68,76.80 -45.78,76.84 -45.88,76.84 -45.99,76.85 -46.09,76.82 -46.19,76.79 -46.28,76.73 -46.37,76.66 -46.43,76.58 -46.49,76.49 -46.52,76.39 -46.56,76.29 -46.55,76.18 -46.55,76.08 -46.52,75.98 -46.48,75.88 -46.41,75.79 -46.35,75.71 -46.26,75.65 -46.17,75.59 -46.07,75.57 -45.97,75.54 -45.86,75.55 -45.75,75.56 -45.66,75.60 -45.56,75.64 -45.48,75.71 -45.40,75.78 -45.34,75.87 -45.29,75.96 -45.27,76.07 -45.25,76.17 -45.26,76.28 -45.28,76.38 -45.32,76.48 -45.37,76.57 -45.44,76.65 -45.52,76.73 -45.61,76.77 -45.71,76.82 -45.81,76.84 -45.92,76.85 -46.02,76.83 -46.13,76.81 -46.22,76.76 -46.31,76.71 -46.38,76.63 -46.46,76.55 -46.50,76.46 -46.54,76.36 -46.55,76.25 -46.56,76.15 -46.54,76.04 -46.51,75.94 -46.51,75.94 -46.51,75.94 -45.14,71.61 -43.78,67.27 -41.36,63.21 -38.94,59.15 -35.57,54.20 -32.21,49.24 -28.38,43.40 -24.56,37.55 -20.57,31.46 -16.58,25.37 -13.04,19.56 -9.50,13.75 -7.52,10.45 -5.54,7.15 -4.45,5.17 -3.36,3.19 -2.06,1.36 -0.76,-0.45 -0.69,-0.54 -0.63,-0.62 -0.54,-0.69 -0.46,-0.76 -0.36,-0.80 -0.26,-0.85 -0.16,-0.87 -0.05,-0.89 0.05,-0.88 0.15,-0.87 0.26,-0.84 0.36,-0.81 0.45,-0.76 0.54,-0.70 0.62,-0.62 0.70,-0.55 0.75,-0.46 0.81,-0.36 0.84,-0.26 0.87,-0.16 0.88,-0.05 0.89,0.05 0.87,0.15 0.85,0.26 0.80,0.36 0.76,0.45 0.76,0.45 L 0.76,0.45 Z"></path></g><g transform="translate(250 76.375) rotate(0 -28 45)" stroke="none"><path fill="#000" d="M 0.83,0.50 Q 0.83,0.50 -2.26,5.97 -5.36,11.43 -9.43,17.75 -13.51,24.08 -19.82,33.49 -26.13,42.91 -31.47,50.41 -36.80,57.90 -40.77,63.57 -44.74,69.25 -47.54,74.09 -50.34,78.92 -51.59,82.17 -52.84,85.42 -53.73,86.74 -54.61,88.06 -54.67,88.16 -54.72,88.25 -54.79,88.32 -54.87,88.39 -54.97,88.44 -55.07,88.48 -55.17,88.49 -55.28,88.50 -55.38,88.48 -55.49,88.45 -55.58,88.40 -55.67,88.34 -55.73,88.26 -55.80,88.17 -55.84,88.08 -55.88,87.98 -55.88,87.87 -55.88,87.76 -55.85,87.66 -55.82,87.56 -55.76,87.47 -55.70,87.39 -55.62,87.32 -55.53,87.26 -55.43,87.23 -55.33,87.20 -55.22,87.20 -55.12,87.20 -55.02,87.23 -54.92,87.27 -54.83,87.34 -54.75,87.40 -54.69,87.49 -54.63,87.58 -54.61,87.68 -54.58,87.78 -54.59,87.89 -54.59,88.00 -54.63,88.09 -54.68,88.19 -54.75,88.27 -54.82,88.35 -54.91,88.41 -55.00,88.46 -55.10,88.48 -55.21,88.50 -55.31,88.49 -55.42,88.48 -55.51,88.43 -55.61,88.38 -55.69,88.31 -55.76,88.23 -55.81,88.14 -55.86,88.04 -55.87,87.94 -55.89,87.83 -55.87,87.73 -55.85,87.63 -55.85,87.63 -55.85,87.63 -55.71,86.04 -55.57,84.45 -54.39,80.86 -53.21,77.26 -50.31,72.31 -47.40,67.36 -43.35,61.73 -39.30,56.09 -33.89,48.71 -28.48,41.32 -22.14,31.96 -15.79,22.60 -11.73,16.32 -7.66,10.03 -4.25,4.76 -0.83,-0.50 -0.76,-0.60 -0.69,-0.69 -0.60,-0.76 -0.50,-0.84 -0.39,-0.89 -0.29,-0.93 -0.17,-0.95 -0.05,-0.98 0.06,-0.97 0.17,-0.96 0.29,-0.93 0.40,-0.89 0.50,-0.83 0.60,-0.77 0.69,-0.68 0.77,-0.60 0.83,-0.50 0.89,-0.40 0.93,-0.28 0.96,-0.17 0.97,-0.05 0.98,0.06 0.95,0.17 0.93,0.29 0.88,0.40 0.83,0.51 0.83,0.51 L 0.83,0.50 Z"></path></g><g transform="translate(270.66668701171875 73.04165649414062) rotate(0 -31 46.33332824707031)" stroke="none"><path fill="#000" d="M 0.56,0.79 Q 0.56,0.79 -0.66,1.89 -1.89,3.00 -4.07,5.44 -6.24,7.88 -9.26,12.15 -12.29,16.42 -17.20,24.54 -22.12,32.67 -25.57,38.25 -29.02,43.83 -33.91,51.41 -38.80,58.99 -42.78,64.93 -46.75,70.86 -50.35,76.07 -53.95,81.28 -55.86,84.39 -57.77,87.50 -59.33,89.68 -60.89,91.86 -60.95,91.94 -61.01,92.03 -61.09,92.10 -61.18,92.16 -61.28,92.19 -61.38,92.23 -61.49,92.22 -61.59,92.22 -61.69,92.19 -61.79,92.15 -61.88,92.09 -61.96,92.02 -62.02,91.94 -62.08,91.85 -62.11,91.74 -62.14,91.64 -62.13,91.54 -62.12,91.43 -62.08,91.33 -62.04,91.23 -61.97,91.15 -61.90,91.07 -61.81,91.02 -61.72,90.96 -61.62,90.94 -61.51,90.92 -61.41,90.93 -61.30,90.95 -61.20,90.99 -61.11,91.04 -61.03,91.11 -60.96,91.18 -60.91,91.28 -60.86,91.37 -60.84,91.48 -60.83,91.58 -60.84,91.69 -60.86,91.79 -60.91,91.88 -60.96,91.98 -61.04,92.05 -61.12,92.12 -61.21,92.17 -61.31,92.21 -61.42,92.22 -61.52,92.23 -61.63,92.21 -61.73,92.18 -61.82,92.13 -61.91,92.07 -61.98,91.99 -62.05,91.91 -62.09,91.81 -62.12,91.71 -62.13,91.61 -62.13,91.50 -62.10,91.40 -62.08,91.30 -62.08,91.30 -62.08,91.30 -61.31,88.55 -60.54,85.81 -58.61,82.59 -56.68,79.38 -53.04,74.21 -49.40,69.05 -45.36,63.20 -41.32,57.35 -36.39,49.84 -31.45,42.33 -28.01,36.76 -24.56,31.19 -19.57,22.98 -14.58,14.78 -11.44,10.39 -8.30,6.01 -5.88,3.42 -3.46,0.82 -2.01,0.01 -0.56,-0.79 -0.46,-0.84 -0.35,-0.90 -0.24,-0.93 -0.13,-0.96 -0.01,-0.96 0.10,-0.96 0.21,-0.94 0.33,-0.91 0.43,-0.86 0.53,-0.80 0.62,-0.73 0.71,-0.65 0.78,-0.56 0.85,-0.46 0.89,-0.35 0.94,-0.24 0.95,-0.13 0.97,-0.01 0.95,0.10 0.94,0.21 0.90,0.32 0.86,0.43 0.80,0.53 0.73,0.63 0.65,0.71 0.56,0.79 0.56,0.79 L 0.56,0.79 Z"></path></g><g transform="translate(275.3333740234375 82.375) rotate(0 -31.333343505859375 47.33332824707031)" stroke="none"><path fill="#000" d="M 0.70,0.52 Q 0.70,0.52 -1.38,3.75 -3.47,6.97 -6.72,11.71 -9.97,16.45 -15.76,24.81 -21.55,33.16 -27.07,41.13 -32.59,49.09 -38.55,57.67 -44.51,66.25 -48.57,72.37 -52.62,78.50 -55.10,82.96 -57.57,87.42 -59.48,90.45 -61.40,93.49 -61.46,93.58 -61.52,93.66 -61.60,93.73 -61.69,93.79 -61.79,93.83 -61.89,93.86 -61.99,93.86 -62.10,93.86 -62.20,93.83 -62.30,93.79 -62.39,93.73 -62.47,93.67 -62.53,93.58 -62.59,93.49 -62.62,93.39 -62.65,93.29 -62.64,93.18 -62.64,93.07 -62.60,92.97 -62.56,92.88 -62.49,92.79 -62.42,92.71 -62.33,92.66 -62.24,92.60 -62.13,92.58 -62.03,92.56 -61.92,92.57 -61.82,92.58 -61.72,92.63 -61.63,92.67 -61.55,92.74 -61.47,92.82 -61.42,92.91 -61.37,93.00 -61.35,93.11 -61.34,93.21 -61.35,93.32 -61.37,93.42 -61.42,93.52 -61.47,93.61 -61.55,93.68 -61.62,93.76 -61.72,93.80 -61.82,93.85 -61.92,93.86 -62.03,93.87 -62.13,93.85 -62.24,93.82 -62.33,93.77 -62.42,93.71 -62.49,93.63 -62.56,93.55 -62.60,93.45 -62.64,93.36 -62.64,93.25 -62.65,93.14 -62.62,93.04 -62.59,92.94 -62.59,92.94 -62.59,92.94 -61.47,89.41 -60.36,85.87 -57.83,81.29 -55.31,76.71 -51.20,70.58 -47.09,64.44 -41.07,55.91 -35.05,47.38 -29.50,39.43 -23.95,31.49 -18.14,23.15 -12.33,14.82 -9.03,10.05 -5.72,5.28 -3.21,2.38 -0.70,-0.52 -0.63,-0.60 -0.55,-0.68 -0.46,-0.73 -0.37,-0.79 -0.27,-0.82 -0.17,-0.86 -0.07,-0.87 0.03,-0.88 0.13,-0.86 0.24,-0.84 0.34,-0.80 0.43,-0.76 0.52,-0.69 0.60,-0.63 0.67,-0.55 0.74,-0.47 0.78,-0.37 0.83,-0.27 0.85,-0.17 0.87,-0.07 0.87,0.03 0.86,0.14 0.84,0.24 0.81,0.34 0.75,0.43 0.70,0.52 0.70,0.52 L 0.70,0.52 Z"></path></g><g transform="translate(288 86.375) rotate(0 -30.666656494140625 43.666656494140625)" stroke="none"><path fill="#000" d="M 0.75,0.60 Q 0.75,0.60 -1.32,3.65 -3.40,6.70 -7.78,13.25 -12.16,19.79 -17.11,27.01 -22.06,34.23 -27.21,41.71 -32.37,49.19 -38.40,57.03 -44.42,64.86 -48.51,70.27 -52.59,75.68 -54.76,79.35 -56.94,83.02 -58.18,84.46 -59.42,85.90 -59.49,85.99 -59.55,86.07 -59.64,86.13 -59.73,86.19 -59.83,86.21 -59.93,86.24 -60.04,86.23 -60.15,86.22 -60.24,86.18 -60.34,86.14 -60.42,86.07 -60.50,86.00 -60.56,85.91 -60.61,85.82 -60.63,85.71 -60.65,85.61 -60.64,85.50 -60.62,85.40 -60.58,85.30 -60.53,85.21 -60.46,85.13 -60.38,85.06 -60.29,85.01 -60.19,84.96 -60.09,84.95 -59.98,84.93 -59.88,84.95 -59.77,84.97 -59.68,85.02 -59.59,85.07 -59.52,85.15 -59.44,85.23 -59.40,85.33 -59.36,85.42 -59.35,85.53 -59.34,85.63 -59.36,85.74 -59.39,85.84 -59.44,85.93 -59.50,86.02 -59.58,86.09 -59.67,86.16 -59.77,86.19 -59.86,86.23 -59.97,86.23 -60.08,86.24 -60.18,86.21 -60.28,86.18 -60.37,86.12 -60.45,86.05 -60.52,85.97 -60.58,85.88 -60.61,85.78 -60.64,85.68 -60.64,85.57 -60.64,85.47 -60.60,85.37 -60.57,85.27 -60.57,85.27 -60.57,85.27 -60.00,83.45 -59.44,81.64 -57.36,77.64 -55.29,73.64 -51.18,68.22 -47.07,62.81 -41.03,55.09 -35.00,47.37 -29.82,39.91 -24.64,32.45 -19.69,25.25 -14.74,18.05 -10.27,11.42 -5.79,4.79 -3.27,2.09 -0.75,-0.60 -0.67,-0.68 -0.59,-0.77 -0.49,-0.83 -0.38,-0.89 -0.27,-0.92 -0.16,-0.95 -0.04,-0.96 0.06,-0.96 0.18,-0.94 0.29,-0.92 0.40,-0.87 0.51,-0.82 0.60,-0.75 0.69,-0.68 0.76,-0.58 0.83,-0.49 0.88,-0.38 0.93,-0.27 0.95,-0.16 0.97,-0.04 0.96,0.06 0.95,0.18 0.91,0.29 0.88,0.40 0.82,0.50 0.75,0.60 0.75,0.60 L 0.75,0.60 Z"></path></g><g transform="translate(294 95.70831298828125) rotate(0 -29 42.66667175292969)" stroke="none"><path fill="#000" d="M 0.66,0.88 Q 0.66,0.88 0.02,1.60 -0.61,2.33 -1.52,3.76 -2.44,5.19 -4.42,8.34 -6.39,11.48 -11.07,18.77 -15.76,26.07 -20.62,33.58 -25.48,41.09 -33.68,52.02 -41.88,62.94 -45.94,68.33 -49.99,73.71 -51.89,77.20 -53.78,80.70 -54.99,82.03 -56.21,83.36 -56.27,83.44 -56.34,83.52 -56.43,83.58 -56.51,83.64 -56.62,83.67 -56.72,83.70 -56.82,83.70 -56.93,83.69 -57.03,83.65 -57.13,83.61 -57.21,83.54 -57.29,83.47 -57.35,83.38 -57.40,83.29 -57.42,83.19 -57.45,83.09 -57.43,82.98 -57.42,82.87 -57.38,82.78 -57.33,82.68 -57.26,82.60 -57.19,82.53 -57.09,82.48 -57.00,82.43 -56.90,82.41 -56.79,82.39 -56.69,82.41 -56.58,82.43 -56.49,82.48 -56.39,82.53 -56.32,82.60 -56.25,82.68 -56.20,82.78 -56.16,82.87 -56.15,82.98 -56.13,83.08 -56.16,83.19 -56.18,83.29 -56.23,83.38 -56.29,83.47 -56.37,83.54 -56.45,83.61 -56.55,83.65 -56.65,83.69 -56.75,83.70 -56.86,83.70 -56.96,83.67 -57.07,83.65 -57.15,83.59 -57.24,83.53 -57.31,83.44 -57.37,83.36 -57.40,83.26 -57.44,83.16 -57.44,83.05 -57.44,82.94 -57.40,82.84 -57.37,82.74 -57.37,82.74 -57.37,82.74 -56.96,80.99 -56.54,79.23 -54.60,75.47 -52.66,71.71 -48.59,66.33 -44.53,60.95 -36.33,50.16 -28.13,39.38 -23.26,31.88 -18.39,24.38 -13.71,17.10 -9.02,9.82 -7.00,6.63 -4.98,3.44 -3.72,1.70 -2.45,-0.03 -1.55,-0.45 -0.66,-0.88 -0.54,-0.94 -0.43,-1.01 -0.30,-1.05 -0.17,-1.08 -0.04,-1.09 0.08,-1.09 0.21,-1.07 0.34,-1.04 0.46,-0.98 0.58,-0.93 0.69,-0.84 0.79,-0.76 0.87,-0.65 0.95,-0.55 1.00,-0.42 1.05,-0.30 1.07,-0.17 1.10,-0.04 1.09,0.08 1.07,0.22 1.03,0.34 0.99,0.47 0.92,0.58 0.85,0.69 0.75,0.78 0.66,0.88 0.66,0.88 L 0.66,0.88 Z"></path></g><g transform="translate(312 93.04165649414062) rotate(0 -27.666656494140625 39.66667175292969)" stroke="none"><path fill="#000" d="M 0.64,0.86 Q 0.64,0.86 -0.00,1.58 -0.65,2.30 -1.77,3.80 -2.90,5.29 -6.05,10.49 -9.21,15.69 -13.28,21.79 -17.35,27.89 -23.10,36.24 -28.85,44.58 -34.75,52.38 -40.66,60.18 -44.30,65.01 -47.94,69.85 -50.80,73.81 -53.66,77.77 -53.73,77.85 -53.80,77.93 -53.89,77.99 -53.98,78.04 -54.08,78.07 -54.19,78.09 -54.29,78.08 -54.40,78.07 -54.49,78.03 -54.59,77.99 -54.67,77.91 -54.75,77.84 -54.80,77.75 -54.85,77.66 -54.87,77.55 -54.89,77.45 -54.87,77.34 -54.86,77.24 -54.81,77.14 -54.76,77.05 -54.69,76.97 -54.61,76.90 -54.51,76.85 -54.42,76.81 -54.31,76.79 -54.21,76.78 -54.10,76.80 -54.00,76.82 -53.91,76.88 -53.82,76.93 -53.75,77.01 -53.68,77.09 -53.63,77.19 -53.59,77.28 -53.59,77.39 -53.58,77.50 -53.60,77.60 -53.63,77.70 -53.69,77.79 -53.75,77.88 -53.83,77.95 -53.92,78.01 -54.02,78.05 -54.12,78.08 -54.22,78.08 -54.33,78.09 -54.43,78.05 -54.53,78.02 -54.62,77.96 -54.70,77.90 -54.76,77.81 -54.82,77.72 -54.85,77.62 -54.88,77.52 -54.88,77.41 -54.88,77.31 -54.84,77.21 -54.80,77.11 -54.80,77.11 -54.80,77.11 -52.69,72.48 -50.57,67.86 -46.91,63.04 -43.24,58.21 -37.36,50.49 -31.48,42.77 -25.73,34.45 -19.98,26.14 -15.94,20.09 -11.90,14.04 -8.60,8.69 -5.30,3.35 -3.85,1.67 -2.41,-0.00 -1.53,-0.43 -0.64,-0.86 -0.53,-0.92 -0.42,-0.99 -0.29,-1.02 -0.17,-1.06 -0.04,-1.06 0.08,-1.07 0.21,-1.04 0.34,-1.02 0.45,-0.96 0.57,-0.90 0.67,-0.82 0.77,-0.74 0.85,-0.64 0.93,-0.53 0.98,-0.41 1.03,-0.29 1.05,-0.17 1.07,-0.04 1.06,0.08 1.05,0.21 1.01,0.33 0.97,0.46 0.90,0.57 0.83,0.68 0.73,0.77 0.64,0.86 0.64,0.86 L 0.64,0.86 Z"></path></g><g transform="translate(317.3333740234375 105.70831298828125) rotate(0 -21.66668701171875 32.66667175292969)" stroke="none"><path fill="#000" d="M 0.84,0.70 Q 0.84,0.70 0.05,1.99 -0.73,3.28 -6.22,11.59 -11.71,19.90 -17.14,28.05 -22.58,36.20 -27.58,43.87 -32.57,51.53 -35.10,55.36 -37.62,59.19 -39.80,61.80 -41.98,64.41 -42.05,64.49 -42.12,64.57 -42.21,64.62 -42.31,64.68 -42.41,64.70 -42.51,64.72 -42.62,64.71 -42.72,64.69 -42.82,64.65 -42.92,64.60 -42.99,64.53 -43.07,64.45 -43.12,64.36 -43.16,64.26 -43.18,64.16 -43.20,64.05 -43.18,63.95 -43.16,63.84 -43.11,63.75 -43.06,63.66 -42.98,63.58 -42.90,63.51 -42.80,63.47 -42.70,63.43 -42.60,63.42 -42.49,63.41 -42.39,63.43 -42.29,63.46 -42.20,63.51 -42.11,63.57 -42.04,63.65 -41.97,63.73 -41.93,63.83 -41.90,63.93 -41.89,64.04 -41.89,64.14 -41.92,64.25 -41.95,64.35 -42.01,64.43 -42.07,64.52 -42.16,64.58 -42.24,64.65 -42.34,64.68 -42.44,64.71 -42.55,64.71 -42.66,64.71 -42.76,64.67 -42.86,64.64 -42.94,64.57 -43.02,64.51 -43.08,64.42 -43.14,64.33 -43.17,64.23 -43.19,64.12 -43.19,64.02 -43.18,63.91 -43.14,63.81 -43.10,63.71 -43.10,63.71 -43.10,63.71 -41.69,60.58 -40.29,57.45 -37.80,53.60 -35.31,49.75 -30.32,42.06 -25.33,34.37 -19.89,26.22 -14.44,18.08 -8.77,9.69 -3.10,1.31 -1.97,0.30 -0.84,-0.70 -0.74,-0.79 -0.65,-0.88 -0.53,-0.94 -0.41,-1.01 -0.29,-1.04 -0.16,-1.08 -0.03,-1.08 0.09,-1.09 0.22,-1.06 0.35,-1.03 0.47,-0.97 0.59,-0.92 0.69,-0.83 0.79,-0.75 0.87,-0.64 0.95,-0.53 1.00,-0.41 1.05,-0.29 1.07,-0.16 1.09,-0.03 1.08,0.09 1.07,0.23 1.02,0.35 0.98,0.48 0.91,0.59 0.84,0.70 0.84,0.70 L 0.84,0.70 Z"></path></g><g transform="translate(324.66668701171875 113.70831298828125) rotate(0 -17.666656494140625 28.333343505859375)" stroke="none"><path fill="#000" d="M 0.83,0.62 Q 0.83,0.62 0.45,1.53 0.06,2.44 -1.06,4.43 -2.20,6.42 -6.55,13.27 -10.90,20.11 -16.39,28.02 -21.89,35.94 -25.17,40.81 -28.45,45.69 -29.99,48.64 -31.54,51.60 -32.92,53.73 -34.29,55.86 -34.35,55.95 -34.41,56.04 -34.49,56.11 -34.57,56.18 -34.67,56.21 -34.77,56.25 -34.87,56.26 -34.98,56.26 -35.08,56.23 -35.18,56.21 -35.27,56.15 -35.36,56.09 -35.42,56.00 -35.49,55.92 -35.52,55.81 -35.55,55.71 -35.55,55.61 -35.55,55.50 -35.52,55.40 -35.48,55.30 -35.42,55.22 -35.35,55.13 -35.26,55.07 -35.18,55.01 -35.07,54.99 -34.97,54.96 -34.87,54.96 -34.76,54.97 -34.66,55.01 -34.56,55.05 -34.48,55.12 -34.40,55.19 -34.35,55.28 -34.29,55.37 -34.27,55.47 -34.25,55.58 -34.26,55.68 -34.27,55.79 -34.32,55.89 -34.36,55.98 -34.44,56.06 -34.51,56.14 -34.60,56.19 -34.70,56.23 -34.80,56.25 -34.91,56.27 -35.01,56.25 -35.12,56.23 -35.21,56.18 -35.30,56.13 -35.38,56.05 -35.45,55.98 -35.49,55.88 -35.54,55.78 -35.55,55.68 -35.56,55.57 -35.54,55.47 -35.51,55.36 -35.51,55.36 -35.51,55.36 -34.96,52.73 -34.41,50.09 -32.78,46.98 -31.15,43.87 -27.84,38.98 -24.54,34.09 -19.06,26.25 -13.58,18.40 -9.24,11.62 -4.90,4.84 -3.63,2.73 -2.36,0.62 -1.60,-0.00 -0.83,-0.62 -0.74,-0.71 -0.66,-0.80 -0.55,-0.87 -0.44,-0.94 -0.32,-0.98 -0.21,-1.02 -0.08,-1.03 0.04,-1.04 0.16,-1.02 0.29,-1.00 0.40,-0.95 0.52,-0.90 0.62,-0.83 0.72,-0.75 0.80,-0.65 0.88,-0.55 0.93,-0.44 0.99,-0.33 1.01,-0.20 1.04,-0.08 1.03,0.04 1.03,0.16 0.99,0.28 0.96,0.40 0.89,0.51 0.83,0.62 0.83,0.62 L 0.83,0.62 Z"></path></g><g transform="translate(327.3333740234375 123.70831298828125) rotate(0 -14 22.666671752929688)" stroke="none"><path fill="#000" d="M 0.94,0.23 Q 0.94,0.23 0.81,1.83 0.68,3.43 -0.47,5.79 -1.63,8.14 -4.62,12.96 -7.61,17.79 -10.41,22.12 -13.21,26.46 -16.31,31.01 -19.41,35.56 -21.51,38.62 -23.60,41.68 -24.87,42.72 -26.14,43.77 -26.21,43.84 -26.29,43.92 -26.38,43.97 -26.48,44.02 -26.58,44.04 -26.68,44.06 -26.79,44.04 -26.89,44.02 -26.99,43.97 -27.08,43.92 -27.16,43.84 -27.23,43.77 -27.27,43.67 -27.32,43.57 -27.33,43.47 -27.34,43.36 -27.32,43.26 -27.29,43.16 -27.24,43.06 -27.18,42.97 -27.10,42.90 -27.02,42.84 -26.92,42.80 -26.82,42.76 -26.72,42.75 -26.61,42.75 -26.51,42.77 -26.41,42.80 -26.32,42.86 -26.23,42.92 -26.17,43.01 -26.10,43.09 -26.07,43.19 -26.04,43.29 -26.04,43.40 -26.04,43.51 -26.07,43.61 -26.10,43.71 -26.17,43.79 -26.23,43.88 -26.32,43.94 -26.41,43.99 -26.51,44.02 -26.61,44.05 -26.72,44.05 -26.83,44.04 -26.92,44.00 -27.02,43.96 -27.10,43.89 -27.19,43.82 -27.24,43.73 -27.29,43.64 -27.32,43.54 -27.34,43.43 -27.33,43.33 -27.32,43.22 -27.27,43.13 -27.23,43.03 -27.23,43.03 -27.23,43.03 -26.72,41.46 -26.22,39.90 -24.14,36.82 -22.07,33.73 -18.96,29.24 -15.85,24.75 -13.06,20.44 -10.27,16.13 -7.33,11.42 -4.38,6.72 -3.30,4.71 -2.22,2.69 -1.58,1.22 -0.94,-0.23 -0.90,-0.34 -0.86,-0.45 -0.79,-0.55 -0.73,-0.65 -0.64,-0.72 -0.55,-0.80 -0.44,-0.86 -0.34,-0.91 -0.22,-0.94 -0.11,-0.97 0.00,-0.97 0.12,-0.97 0.23,-0.94 0.35,-0.91 0.45,-0.85 0.55,-0.80 0.64,-0.72 0.73,-0.64 0.80,-0.54 0.86,-0.45 0.91,-0.34 0.95,-0.23 0.96,-0.11 0.97,0.00 0.96,0.12 0.94,0.23 0.94,0.23 L 0.94,0.23 Z"></path></g><g transform="translate(352.66668701171875 83.70831298828125) rotate(0 -17 25.666671752929688)" stroke="none"><path fill="#000" d="M 0.63,0.42 Q 0.63,0.42 -0.41,2.21 -1.46,4.00 -3.03,7.02 -4.61,10.03 -6.82,13.85 -9.02,17.67 -11.88,21.83 -14.73,25.99 -18.99,31.98 -23.24,37.97 -26.04,42.00 -28.85,46.03 -30.28,47.59 -31.71,49.14 -31.78,49.22 -31.85,49.30 -31.95,49.35 -32.04,49.40 -32.15,49.41 -32.25,49.43 -32.36,49.41 -32.46,49.40 -32.55,49.35 -32.65,49.30 -32.72,49.22 -32.79,49.14 -32.84,49.04 -32.88,48.95 -32.89,48.84 -32.90,48.74 -32.88,48.63 -32.86,48.53 -32.80,48.44 -32.75,48.35 -32.67,48.28 -32.59,48.21 -32.49,48.17 -32.39,48.13 -32.28,48.13 -32.18,48.12 -32.07,48.15 -31.97,48.18 -31.88,48.24 -31.80,48.30 -31.73,48.38 -31.67,48.47 -31.63,48.57 -31.60,48.67 -31.60,48.78 -31.60,48.88 -31.64,48.98 -31.67,49.08 -31.73,49.17 -31.80,49.25 -31.89,49.31 -31.98,49.37 -32.08,49.40 -32.18,49.43 -32.29,49.42 -32.39,49.41 -32.49,49.38 -32.59,49.34 -32.67,49.27 -32.75,49.20 -32.81,49.11 -32.86,49.01 -32.88,48.91 -32.90,48.81 -32.89,48.70 -32.88,48.60 -32.84,48.50 -32.79,48.40 -32.79,48.40 -32.79,48.40 -31.86,46.51 -30.93,44.61 -28.17,40.51 -25.42,36.41 -21.10,30.48 -16.79,24.55 -13.92,20.51 -11.04,16.48 -8.79,12.73 -6.53,8.99 -4.83,5.94 -3.13,2.89 -1.88,1.23 -0.63,-0.42 -0.57,-0.48 -0.51,-0.55 -0.43,-0.61 -0.36,-0.66 -0.27,-0.69 -0.19,-0.73 -0.10,-0.74 -0.01,-0.75 0.07,-0.74 0.16,-0.73 0.25,-0.70 0.34,-0.67 0.41,-0.62 0.49,-0.57 0.55,-0.50 0.61,-0.44 0.66,-0.36 0.70,-0.28 0.72,-0.19 0.75,-0.10 0.75,-0.01 0.75,0.07 0.73,0.16 0.71,0.25 0.67,0.33 0.63,0.42 0.63,0.42 L 0.63,0.42 Z"></path></g><g transform="translate(375.3333740234375 78.375) rotate(0 -26.66668701171875 38.666656494140625)" stroke="none"><path fill="#000" d="M 0.64,0.52 Q 0.64,0.52 -0.87,2.80 -2.40,5.07 -4.79,8.63 -7.18,12.18 -10.70,17.18 -14.23,22.17 -19.75,29.67 -25.28,37.17 -31.07,45.32 -36.85,53.47 -40.86,59.05 -44.86,64.63 -46.93,68.08 -49.00,71.53 -50.59,73.98 -52.18,76.43 -52.24,76.51 -52.30,76.60 -52.38,76.67 -52.47,76.73 -52.57,76.76 -52.67,76.80 -52.78,76.80 -52.88,76.79 -52.98,76.76 -53.08,76.73 -53.17,76.66 -53.25,76.60 -53.31,76.51 -53.37,76.42 -53.40,76.32 -53.43,76.21 -53.42,76.11 -53.41,76.00 -53.37,75.90 -53.33,75.81 -53.26,75.72 -53.19,75.64 -53.10,75.59 -53.01,75.54 -52.91,75.51 -52.80,75.49 -52.70,75.50 -52.59,75.52 -52.50,75.56 -52.40,75.61 -52.32,75.68 -52.25,75.75 -52.20,75.85 -52.15,75.94 -52.13,76.05 -52.12,76.15 -52.13,76.26 -52.15,76.36 -52.20,76.46 -52.25,76.55 -52.33,76.62 -52.41,76.69 -52.50,76.74 -52.60,76.78 -52.71,76.79 -52.81,76.80 -52.92,76.78 -53.02,76.76 -53.11,76.70 -53.20,76.64 -53.27,76.56 -53.34,76.48 -53.38,76.38 -53.41,76.28 -53.42,76.18 -53.42,76.07 -53.40,75.97 -53.37,75.87 -53.37,75.87 -53.37,75.87 -52.43,72.96 -51.50,70.05 -49.41,66.46 -47.31,62.87 -43.32,57.29 -39.32,51.72 -33.51,43.55 -27.70,35.38 -22.17,27.92 -16.64,20.45 -13.09,15.51 -9.55,10.56 -7.02,6.96 -4.49,3.35 -2.57,1.41 -0.64,-0.52 -0.57,-0.59 -0.50,-0.66 -0.41,-0.71 -0.32,-0.76 -0.23,-0.79 -0.13,-0.82 -0.03,-0.82 0.06,-0.83 0.16,-0.81 0.26,-0.79 0.35,-0.74 0.44,-0.70 0.52,-0.64 0.60,-0.57 0.66,-0.49 0.72,-0.41 0.76,-0.32 0.80,-0.23 0.81,-0.13 0.83,-0.03 0.82,0.06 0.81,0.16 0.78,0.26 0.75,0.35 0.70,0.44 0.64,0.52 0.64,0.52 L 0.64,0.52 Z"></path></g><g transform="translate(384 82.375) rotate(0 -29.33331298828125 40.666656494140625)" stroke="none"><path fill="#000" d="M 0.71,0.61 Q 0.71,0.61 -0.27,2.08 -1.26,3.56 -3.03,6.19 -4.80,8.83 -15.12,23.06 -25.43,37.29 -31.18,44.86 -36.92,52.44 -42.61,59.88 -48.29,67.33 -50.90,71.54 -53.50,75.75 -54.98,77.36 -56.46,78.96 -56.53,79.04 -56.60,79.12 -56.69,79.18 -56.78,79.23 -56.88,79.26 -56.99,79.28 -57.09,79.27 -57.20,79.25 -57.29,79.21 -57.39,79.16 -57.47,79.09 -57.54,79.02 -57.59,78.92 -57.64,78.83 -57.66,78.72 -57.68,78.62 -57.66,78.52 -57.64,78.41 -57.59,78.32 -57.54,78.22 -57.46,78.15 -57.39,78.08 -57.29,78.03 -57.19,77.99 -57.09,77.98 -56.98,77.97 -56.88,77.99 -56.77,78.01 -56.68,78.07 -56.59,78.12 -56.52,78.20 -56.46,78.29 -56.42,78.39 -56.38,78.48 -56.37,78.59 -56.37,78.70 -56.40,78.80 -56.42,78.90 -56.48,78.99 -56.54,79.08 -56.63,79.14 -56.71,79.20 -56.81,79.24 -56.92,79.27 -57.02,79.27 -57.13,79.27 -57.23,79.24 -57.33,79.20 -57.41,79.14 -57.50,79.07 -57.56,78.98 -57.62,78.90 -57.64,78.79 -57.67,78.69 -57.67,78.58 -57.66,78.48 -57.62,78.38 -57.58,78.28 -57.58,78.28 -57.58,78.28 -56.84,76.23 -56.10,74.17 -53.47,69.77 -50.84,65.37 -45.13,57.96 -39.41,50.55 -33.67,43.01 -27.92,35.47 -17.52,21.36 -7.11,7.25 -5.22,4.52 -3.33,1.79 -2.02,0.59 -0.71,-0.61 -0.62,-0.68 -0.54,-0.76 -0.44,-0.81 -0.34,-0.87 -0.23,-0.89 -0.12,-0.92 -0.01,-0.93 0.09,-0.93 0.20,-0.90 0.31,-0.88 0.41,-0.83 0.51,-0.77 0.60,-0.70 0.69,-0.63 0.75,-0.54 0.82,-0.44 0.86,-0.34 0.90,-0.23 0.92,-0.12 0.93,-0.01 0.92,0.09 0.91,0.20 0.87,0.31 0.83,0.42 0.77,0.51 0.71,0.61 0.71,0.61 L 0.71,0.61 Z"></path></g><g transform="translate(398.66668701171875 81.70831298828125) rotate(0 -28 40.333343505859375)" stroke="none"><path fill="#000" d="M 0.74,0.52 Q 0.74,0.52 -0.37,2.59 -1.49,4.66 -4.16,8.21 -6.83,11.75 -12.15,18.99 -17.48,26.23 -26.27,37.95 -35.05,49.66 -40.32,56.74 -45.58,63.81 -48.28,68.75 -50.98,73.68 -52.37,75.71 -53.76,77.75 -53.83,77.83 -53.89,77.92 -53.98,77.98 -54.06,78.04 -54.17,78.07 -54.27,78.10 -54.37,78.09 -54.48,78.09 -54.58,78.05 -54.68,78.01 -54.76,77.95 -54.84,77.88 -54.90,77.79 -54.95,77.70 -54.98,77.59 -55.00,77.49 -54.99,77.39 -54.98,77.28 -54.94,77.18 -54.90,77.09 -54.82,77.01 -54.75,76.93 -54.66,76.88 -54.57,76.83 -54.46,76.81 -54.36,76.79 -54.25,76.81 -54.15,76.82 -54.05,76.87 -53.96,76.92 -53.88,76.99 -53.81,77.07 -53.76,77.17 -53.72,77.26 -53.70,77.37 -53.69,77.47 -53.71,77.58 -53.73,77.68 -53.79,77.77 -53.84,77.86 -53.92,77.93 -54.00,78.00 -54.10,78.05 -54.20,78.09 -54.30,78.09 -54.41,78.10 -54.51,78.07 -54.61,78.05 -54.70,77.99 -54.79,77.93 -54.86,77.85 -54.92,77.76 -54.96,77.66 -54.99,77.56 -54.99,77.46 -55.00,77.35 -54.96,77.25 -54.93,77.15 -54.93,77.15 -54.93,77.15 -54.10,74.83 -53.26,72.51 -50.71,67.21 -48.16,61.91 -42.88,54.82 -37.61,47.74 -28.81,36.05 -20.01,24.36 -14.63,17.13 -9.24,9.90 -6.56,6.45 -3.87,2.99 -2.30,1.23 -0.74,-0.52 -0.67,-0.60 -0.59,-0.68 -0.50,-0.74 -0.41,-0.80 -0.31,-0.84 -0.21,-0.88 -0.10,-0.89 0.00,-0.90 0.11,-0.89 0.22,-0.87 0.32,-0.84 0.42,-0.80 0.51,-0.73 0.60,-0.67 0.67,-0.59 0.75,-0.51 0.80,-0.41 0.85,-0.31 0.87,-0.20 0.90,-0.10 0.90,0.00 0.90,0.11 0.87,0.22 0.84,0.32 0.79,0.42 0.74,0.52 0.74,0.52 L 0.74,0.52 Z"></path></g><g transform="translate(410 88.375) rotate(0 -34 42.666656494140625)" stroke="none"><path fill="#000" d="M 0.64,0.64 Q 0.64,0.64 -0.32,1.97 -1.28,3.31 -3.03,5.50 -4.78,7.70 -7.64,11.33 -10.49,14.95 -13.26,18.24 -16.03,21.53 -22.56,29.43 -29.08,37.34 -35.31,44.92 -41.53,52.50 -47.80,59.96 -54.08,67.42 -57.68,72.09 -61.28,76.76 -63.87,80.34 -66.45,83.91 -66.52,84.00 -66.58,84.08 -66.67,84.14 -66.76,84.20 -66.87,84.22 -66.97,84.25 -67.07,84.24 -67.18,84.23 -67.28,84.19 -67.38,84.15 -67.46,84.08 -67.54,84.01 -67.59,83.92 -67.64,83.82 -67.66,83.72 -67.68,83.61 -67.67,83.51 -67.65,83.40 -67.61,83.31 -67.56,83.21 -67.49,83.14 -67.41,83.06 -67.32,83.01 -67.22,82.97 -67.12,82.95 -67.01,82.94 -66.91,82.96 -66.80,82.98 -66.71,83.03 -66.62,83.08 -66.55,83.16 -66.47,83.24 -66.43,83.33 -66.39,83.43 -66.38,83.54 -66.37,83.64 -66.40,83.75 -66.42,83.85 -66.48,83.94 -66.53,84.03 -66.62,84.10 -66.70,84.16 -66.80,84.20 -66.90,84.24 -67.00,84.24 -67.11,84.24 -67.21,84.21 -67.31,84.18 -67.40,84.12 -67.49,84.06 -67.55,83.97 -67.61,83.89 -67.64,83.79 -67.68,83.69 -67.67,83.58 -67.67,83.47 -67.63,83.37 -67.60,83.27 -67.60,83.27 -67.60,83.27 -65.79,78.98 -63.97,74.68 -60.31,69.96 -56.65,65.25 -50.35,57.84 -44.04,50.43 -37.81,42.85 -31.57,35.28 -25.02,27.38 -18.46,19.47 -15.71,16.23 -12.96,12.99 -10.05,9.37 -7.13,5.75 -5.22,3.51 -3.31,1.28 -1.97,0.32 -0.64,-0.64 -0.55,-0.70 -0.46,-0.77 -0.36,-0.81 -0.26,-0.86 -0.16,-0.88 -0.05,-0.90 0.05,-0.89 0.16,-0.89 0.26,-0.85 0.37,-0.82 0.46,-0.76 0.55,-0.71 0.63,-0.63 0.71,-0.55 0.76,-0.46 0.82,-0.37 0.85,-0.26 0.89,-0.16 0.89,-0.05 0.90,0.05 0.88,0.16 0.86,0.26 0.81,0.36 0.77,0.46 0.70,0.55 0.64,0.64 0.64,0.64 L 0.64,0.64 Z"></path></g><g transform="translate(422.66668701171875 93.70831298828125) rotate(0 -32.333343505859375 40)" stroke="none"><path fill="#000" d="M 0.74,0.84 Q 0.74,0.84 -0.67,2.32 -2.08,3.80 -4.35,6.60 -6.63,9.40 -11.84,15.98 -17.04,22.56 -22.51,29.76 -27.98,36.96 -35.87,46.57 -43.77,56.18 -49.41,63.31 -55.06,70.43 -57.28,73.42 -59.49,76.41 -60.78,77.44 -62.08,78.48 -62.15,78.55 -62.23,78.62 -62.32,78.67 -62.42,78.72 -62.52,78.73 -62.63,78.75 -62.73,78.72 -62.84,78.70 -62.93,78.65 -63.02,78.60 -63.09,78.52 -63.16,78.44 -63.20,78.34 -63.24,78.24 -63.25,78.14 -63.26,78.03 -63.23,77.93 -63.21,77.83 -63.15,77.74 -63.09,77.65 -63.01,77.58 -62.93,77.52 -62.83,77.48 -62.73,77.44 -62.62,77.44 -62.51,77.44 -62.41,77.47 -62.31,77.50 -62.22,77.57 -62.14,77.63 -62.08,77.71 -62.02,77.80 -61.99,77.90 -61.96,78.00 -61.96,78.11 -61.96,78.22 -62.00,78.32 -62.04,78.42 -62.10,78.50 -62.17,78.58 -62.26,78.64 -62.35,78.69 -62.45,78.72 -62.56,78.74 -62.66,78.73 -62.77,78.73 -62.87,78.68 -62.96,78.64 -63.04,78.57 -63.12,78.50 -63.17,78.40 -63.22,78.31 -63.24,78.21 -63.26,78.10 -63.25,78.00 -63.23,77.89 -63.18,77.80 -63.14,77.70 -63.14,77.70 -63.14,77.70 -62.55,76.16 -61.96,74.61 -59.76,71.53 -57.55,68.46 -51.89,61.30 -46.24,54.15 -38.36,44.60 -30.48,35.06 -24.99,27.84 -19.49,20.62 -14.25,14.03 -9.00,7.44 -6.52,4.50 -4.05,1.56 -2.39,0.35 -0.74,-0.84 -0.62,-0.92 -0.51,-0.99 -0.38,-1.04 -0.26,-1.09 -0.12,-1.10 0.00,-1.12 0.14,-1.10 0.27,-1.09 0.40,-1.04 0.52,-0.99 0.64,-0.91 0.75,-0.83 0.84,-0.73 0.93,-0.63 0.99,-0.51 1.05,-0.39 1.08,-0.26 1.11,-0.12 1.11,0.00 1.11,0.14 1.08,0.27 1.04,0.40 0.98,0.52 0.92,0.64 0.83,0.74 0.74,0.84 0.74,0.84 L 0.74,0.84 Z"></path></g><g transform="translate(431.3333740234375 95.04165649414062) rotate(0 -31 38.66667175292969)" stroke="none"><path fill="#000" d="M 0.75,0.75 Q 0.75,0.75 -0.04,1.87 -0.83,2.99 -2.69,5.29 -4.55,7.59 -8.98,13.36 -13.41,19.13 -16.85,23.51 -20.28,27.89 -31.94,42.37 -43.60,56.86 -48.89,62.74 -54.18,68.62 -54.26,68.69 -54.34,68.77 -54.44,68.81 -54.54,68.85 -54.64,68.86 -54.75,68.87 -54.85,68.84 -54.96,68.82 -55.04,68.76 -55.13,68.70 -55.20,68.62 -55.27,68.54 -55.30,68.44 -55.34,68.34 -55.34,68.23 -55.35,68.13 -55.32,68.02 -55.29,67.92 -55.22,67.84 -55.16,67.75 -55.08,67.69 -54.99,67.63 -54.89,67.59 -54.79,67.56 -54.68,67.57 -54.57,67.57 -54.47,67.60 -54.37,67.64 -54.29,67.71 -54.21,67.77 -54.15,67.86 -54.09,67.95 -54.07,68.06 -54.04,68.16 -54.05,68.26 -54.06,68.37 -54.10,68.47 -54.14,68.57 -54.21,68.65 -54.28,68.72 -54.38,68.78 -54.47,68.83 -54.57,68.85 -54.68,68.87 -54.78,68.86 -54.89,68.84 -54.98,68.79 -55.08,68.75 -55.15,68.67 -55.23,68.60 -55.28,68.50 -55.32,68.41 -55.34,68.30 -55.35,68.20 -55.33,68.09 -55.31,67.99 -55.26,67.90 -55.21,67.80 -55.21,67.80 -55.21,67.80 -50.63,61.35 -46.04,54.90 -34.47,40.37 -22.90,25.84 -19.47,21.47 -16.04,17.10 -11.53,11.32 -7.03,5.53 -5.01,3.18 -2.99,0.83 -1.87,0.04 -0.75,-0.75 -0.65,-0.83 -0.55,-0.90 -0.43,-0.96 -0.31,-1.01 -0.19,-1.03 -0.06,-1.06 0.06,-1.05 0.19,-1.04 0.31,-1.00 0.43,-0.96 0.54,-0.90 0.65,-0.83 0.74,-0.74 0.83,-0.65 0.90,-0.54 0.96,-0.43 1.00,-0.31 1.04,-0.19 1.05,-0.06 1.06,0.06 1.03,0.19 1.01,0.31 0.96,0.43 0.90,0.55 0.83,0.65 0.75,0.75 0.75,0.75 L 0.75,0.75 Z"></path></g><g transform="translate(440 100.375) rotate(0 -33.666656494140625 38.33332824707031)" stroke="none"><path fill="#000" d="M 0.92,0.66 Q 0.92,0.66 0.14,2.12 -0.63,3.59 -2.74,6.50 -4.85,9.40 -8.46,13.74 -12.07,18.07 -18.57,25.84 -25.08,33.60 -31.50,40.76 -37.93,47.92 -44.70,54.81 -51.47,61.71 -55.66,66.15 -59.85,70.59 -61.04,72.65 -62.23,74.72 -62.20,74.82 -62.17,74.92 -62.17,75.03 -62.17,75.13 -62.21,75.23 -62.25,75.33 -62.31,75.42 -62.38,75.50 -62.47,75.56 -62.56,75.62 -62.66,75.64 -62.76,75.67 -62.87,75.66 -62.98,75.65 -63.07,75.61 -63.17,75.57 -63.25,75.50 -63.33,75.43 -63.38,75.33 -63.43,75.24 -63.46,75.14 -63.48,75.03 -63.46,74.93 -63.45,74.82 -63.40,74.73 -63.35,74.63 -63.28,74.56 -63.20,74.48 -63.11,74.43 -63.01,74.39 -62.91,74.37 -62.80,74.36 -62.70,74.38 -62.59,74.40 -62.50,74.45 -62.41,74.50 -62.34,74.58 -62.27,74.66 -62.22,74.76 -62.18,74.85 -62.17,74.96 -62.16,75.06 -62.19,75.17 -62.22,75.27 -62.27,75.36 -62.33,75.45 -62.41,75.52 -62.49,75.58 -62.59,75.62 -62.69,75.66 -62.80,75.66 -62.91,75.66 -63.01,75.63 -63.11,75.60 -63.20,75.54 -63.28,75.48 -63.34,75.39 -63.41,75.31 -63.41,75.31 -63.41,75.31 -62.88,71.77 -62.36,68.24 -58.13,63.78 -53.90,59.32 -47.18,52.48 -40.45,45.65 -34.06,38.54 -27.67,31.43 -21.16,23.67 -14.64,15.91 -11.07,11.67 -7.50,7.43 -5.35,4.60 -3.19,1.76 -2.06,0.55 -0.92,-0.66 -0.83,-0.76 -0.74,-0.86 -0.62,-0.94 -0.51,-1.01 -0.38,-1.06 -0.25,-1.10 -0.11,-1.12 0.01,-1.13 0.15,-1.11 0.29,-1.10 0.41,-1.05 0.54,-0.99 0.65,-0.91 0.76,-0.83 0.85,-0.73 0.94,-0.63 1.00,-0.50 1.07,-0.38 1.10,-0.25 1.13,-0.11 1.13,0.01 1.12,0.15 1.09,0.28 1.05,0.42 0.99,0.54 0.92,0.66 0.92,0.66 L 0.92,0.66 Z"></path></g><g transform="translate(444.66668701171875 110.375) rotate(0 -26 32.33332824707031)" stroke="none"><path fill="#000" d="M 0.88,0.88 Q 0.88,0.88 -0.31,2.36 -1.51,3.84 -3.31,6.44 -5.10,9.04 -8.42,13.28 -11.74,17.52 -16.03,22.77 -20.31,28.03 -24.80,33.87 -29.28,39.72 -34.66,46.27 -40.04,52.81 -43.07,56.49 -46.09,60.18 -46.95,61.99 -47.81,63.80 -47.85,63.90 -47.89,64.00 -47.95,64.08 -48.02,64.16 -48.11,64.22 -48.20,64.27 -48.31,64.30 -48.41,64.32 -48.52,64.31 -48.62,64.30 -48.72,64.26 -48.81,64.21 -48.89,64.14 -48.97,64.07 -49.02,63.97 -49.07,63.88 -49.09,63.78 -49.11,63.67 -49.09,63.57 -49.07,63.46 -49.03,63.37 -48.98,63.27 -48.90,63.20 -48.82,63.13 -48.73,63.08 -48.63,63.03 -48.53,63.02 -48.42,63.01 -48.32,63.03 -48.21,63.05 -48.12,63.11 -48.03,63.16 -47.96,63.24 -47.89,63.32 -47.85,63.42 -47.81,63.52 -47.80,63.63 -47.80,63.73 -47.82,63.83 -47.85,63.94 -47.91,64.03 -47.97,64.11 -48.05,64.18 -48.14,64.24 -48.24,64.28 -48.34,64.31 -48.45,64.31 -48.55,64.31 -48.65,64.28 -48.75,64.25 -48.84,64.18 -48.92,64.12 -48.98,64.03 -49.04,63.95 -49.07,63.84 -49.10,63.74 -49.10,63.64 -49.09,63.53 -49.09,63.53 -49.09,63.53 -48.99,60.83 -48.89,58.12 -45.83,54.35 -42.76,50.57 -37.41,44.08 -32.07,37.59 -27.54,31.70 -23.02,25.81 -18.75,20.59 -14.48,15.37 -11.19,11.20 -7.90,7.04 -5.87,4.28 -3.84,1.52 -2.36,0.32 -0.88,-0.88 -0.76,-0.97 -0.64,-1.06 -0.50,-1.12 -0.37,-1.18 -0.22,-1.21 -0.07,-1.24 0.07,-1.23 0.22,-1.22 0.36,-1.18 0.51,-1.13 0.63,-1.05 0.76,-0.98 0.87,-0.87 0.98,-0.76 1.05,-0.63 1.13,-0.51 1.18,-0.36 1.22,-0.22 1.23,-0.07 1.24,0.07 1.21,0.22 1.18,0.37 1.12,0.50 1.06,0.64 0.97,0.76 0.88,0.88 0.88,0.88 L 0.88,0.88 Z"></path></g><g transform="translate(449.3333740234375 121.04165649414062) rotate(0 -19.333343505859375 26.333328247070312)" stroke="none"><path fill="#000" d="M 0.84,0.53 Q 0.84,0.53 -0.23,2.81 -1.32,5.08 -3.61,8.33 -5.90,11.58 -7.83,14.29 -9.76,16.99 -12.89,21.05 -16.03,25.10 -20.23,30.63 -24.43,36.16 -27.37,40.05 -30.31,43.93 -32.16,46.33 -34.00,48.73 -35.76,50.44 -37.51,52.15 -37.59,52.22 -37.66,52.30 -37.75,52.35 -37.85,52.40 -37.95,52.41 -38.06,52.43 -38.16,52.41 -38.27,52.40 -38.36,52.35 -38.45,52.30 -38.53,52.22 -38.60,52.14 -38.64,52.04 -38.69,51.95 -38.70,51.84 -38.71,51.74 -38.69,51.63 -38.66,51.53 -38.61,51.44 -38.55,51.35 -38.47,51.28 -38.39,51.21 -38.29,51.17 -38.19,51.13 -38.09,51.13 -37.98,51.12 -37.88,51.15 -37.78,51.18 -37.69,51.24 -37.60,51.30 -37.54,51.39 -37.47,51.47 -37.44,51.57 -37.41,51.67 -37.41,51.78 -37.41,51.88 -37.44,51.98 -37.48,52.09 -37.54,52.17 -37.61,52.25 -37.69,52.31 -37.78,52.37 -37.88,52.40 -37.99,52.43 -38.09,52.42 -38.20,52.42 -38.30,52.38 -38.40,52.34 -38.48,52.27 -38.56,52.20 -38.61,52.11 -38.67,52.01 -38.69,51.91 -38.71,51.81 -38.70,51.70 -38.69,51.60 -38.64,51.50 -38.60,51.40 -38.60,51.40 -38.60,51.40 -37.60,49.09 -36.60,46.77 -34.80,44.34 -33.00,41.90 -30.07,38.00 -27.14,34.10 -22.94,28.55 -18.73,23.00 -15.62,19.01 -12.52,15.02 -10.58,12.32 -8.63,9.62 -6.34,6.48 -4.04,3.35 -2.44,1.40 -0.84,-0.53 -0.77,-0.63 -0.69,-0.72 -0.59,-0.79 -0.50,-0.87 -0.38,-0.91 -0.27,-0.96 -0.15,-0.98 -0.03,-1.00 0.08,-0.99 0.20,-0.98 0.31,-0.94 0.43,-0.90 0.53,-0.84 0.63,-0.77 0.72,-0.68 0.80,-0.60 0.86,-0.49 0.92,-0.39 0.95,-0.27 0.99,-0.15 0.99,-0.03 1.00,0.08 0.97,0.20 0.95,0.32 0.90,0.43 0.84,0.53 0.84,0.53 L 0.84,0.53 Z"></path></g><g transform="translate(456.66668701171875 131.04165649414062) rotate(0 -18 22)" stroke="none"><path fill="#000" d="M 0.85,0.56 Q 0.85,0.56 0.29,1.85 -0.26,3.14 -2.13,5.61 -3.99,8.08 -8.04,12.97 -12.09,17.86 -16.88,23.57 -21.66,29.28 -24.85,33.05 -28.03,36.82 -29.99,39.00 -31.94,41.17 -33.45,42.43 -34.95,43.68 -35.03,43.76 -35.10,43.83 -35.20,43.88 -35.29,43.92 -35.40,43.94 -35.50,43.95 -35.61,43.93 -35.71,43.91 -35.80,43.85 -35.90,43.80 -35.97,43.72 -36.04,43.64 -36.08,43.54 -36.12,43.45 -36.13,43.34 -36.13,43.23 -36.11,43.13 -36.08,43.03 -36.02,42.94 -35.96,42.85 -35.88,42.78 -35.80,42.72 -35.70,42.68 -35.60,42.65 -35.49,42.65 -35.38,42.64 -35.28,42.68 -35.18,42.71 -35.10,42.77 -35.01,42.83 -34.95,42.92 -34.89,43.01 -34.86,43.11 -34.83,43.21 -34.83,43.32 -34.84,43.42 -34.87,43.52 -34.91,43.62 -34.98,43.70 -35.05,43.79 -35.14,43.84 -35.23,43.90 -35.33,43.92 -35.43,43.95 -35.54,43.94 -35.65,43.93 -35.74,43.89 -35.84,43.84 -35.92,43.77 -36.00,43.70 -36.05,43.61 -36.10,43.51 -36.12,43.41 -36.14,43.30 -36.12,43.20 -36.11,43.09 -36.06,43.00 -36.01,42.90 -36.01,42.90 -36.01,42.91 -35.18,40.98 -34.34,39.05 -32.44,36.87 -30.54,34.70 -27.36,30.94 -24.17,27.17 -19.38,21.47 -14.60,15.77 -10.55,10.95 -6.50,6.14 -4.65,3.79 -2.80,1.45 -1.82,0.44 -0.85,-0.56 -0.77,-0.66 -0.69,-0.75 -0.59,-0.82 -0.49,-0.90 -0.37,-0.94 -0.26,-0.99 -0.13,-1.00 -0.01,-1.02 0.10,-1.01 0.22,-0.99 0.34,-0.95 0.46,-0.91 0.56,-0.84 0.66,-0.77 0.75,-0.68 0.83,-0.59 0.89,-0.48 0.95,-0.37 0.98,-0.25 1.01,-0.13 1.01,-0.01 1.02,0.10 0.99,0.22 0.96,0.34 0.90,0.45 0.85,0.56 0.85,0.56 L 0.85,0.56 Z"></path></g><g transform="translate(457.3333740234375 144.375) rotate(0 -5.66668701171875 7)" stroke="none"><path fill="#000" d="M 0.93,0.66 Q 0.93,0.66 0.14,2.13 -0.63,3.59 -2.59,6.11 -4.56,8.62 -7.19,10.95 -9.83,13.28 -9.92,13.35 -10.00,13.42 -10.10,13.45 -10.20,13.49 -10.30,13.50 -10.41,13.50 -10.51,13.47 -10.61,13.44 -10.70,13.38 -10.79,13.32 -10.85,13.23 -10.91,13.15 -10.95,13.05 -10.98,12.95 -10.98,12.84 -10.98,12.73 -10.94,12.63 -10.90,12.53 -10.84,12.45 -10.77,12.37 -10.68,12.31 -10.60,12.25 -10.49,12.22 -10.39,12.20 -10.28,12.20 -10.18,12.21 -10.08,12.25 -9.98,12.29 -9.90,12.36 -9.82,12.43 -9.77,12.52 -9.72,12.61 -9.69,12.72 -9.67,12.82 -9.69,12.93 -9.70,13.03 -9.74,13.13 -9.79,13.23 -9.86,13.30 -9.94,13.38 -10.03,13.43 -10.13,13.47 -10.23,13.49 -10.34,13.51 -10.44,13.49 -10.55,13.47 -10.64,13.42 -10.73,13.37 -10.81,13.29 -10.88,13.21 -10.92,13.11 -10.96,13.02 -10.97,12.91 -10.98,12.80 -10.96,12.70 -10.94,12.60 -10.88,12.51 -10.82,12.42 -10.82,12.42 -10.82,12.42 -8.93,9.55 -7.03,6.69 -5.11,4.23 -3.19,1.76 -2.06,0.55 -0.93,-0.66 -0.83,-0.76 -0.74,-0.87 -0.63,-0.94 -0.51,-1.02 -0.38,-1.07 -0.25,-1.11 -0.11,-1.13 0.01,-1.14 0.15,-1.12 0.29,-1.10 0.42,-1.05 0.54,-1.00 0.66,-0.92 0.77,-0.84 0.86,-0.74 0.95,-0.63 1.01,-0.51 1.07,-0.38 1.10,-0.25 1.14,-0.11 1.13,0.01 1.13,0.15 1.10,0.29 1.06,0.42 0.99,0.54 0.93,0.66 0.93,0.66 L 0.93,0.66 Z"></path></g></svg>