<svg version="1.1" xmlns="http://www.w3.org/2000/svg" viewBox="0 0 699.6000755859375 414.2001274658203" width="699.6000755859375" height="414.2001274658203">
  <!-- svg-source:excalidraw -->
  
  <defs>
    <style>
      @font-face {
        font-family: "Virgil";
        src: url("https://excalidraw.com/Virgil.woff2");
      }
      @font-face {
        font-family: "Cascadia";
        src: url("https://excalidraw.com/Cascadia.woff2");
      }
    </style>
  </defs>
  <rect x="0" y="0" width="699.6000755859375" height="414.2001274658203" fill="#fff0"></rect><g stroke-linecap="round" transform="translate(10 10) rotate(0 0.5 0.5)"><path d="M-0.06 -0.03 C0.4 -0.08, 0.7 0.04, 0.91 0.03 M0.05 -0.04 C0.42 -0.05, 0.75 0.03, 0.99 0.01 M1.08 -0.06 C1.09 0.27, 1.05 0.48, 1.09 0.92 M0.97 0.01 C0.95 0.33, 0.98 0.72, 1 0.99 M1.03 1.06 C0.65 1.06, 0.49 0.96, -0.03 0.97 M1 1.02 C0.74 0.96, 0.52 1.04, -0.04 0.98 M-0.04 1.01 C0 0.63, -0.06 0.15, 0.05 -0.03 M-0.04 0.95 C-0.04 0.73, -0.03 0.59, -0.05 -0.02" stroke="transparent" stroke-width="0.5" fill="none"></path></g><g stroke-linecap="round"><g transform="translate(171.33632085374558 51.70393115215933) rotate(0 -0.6681604268727881 149.14803442392034)"><path d="M0.08 -0.43 C0.09 49.13, 0.13 248.32, -0.24 298.29 M-1.34 -1.7 C-1.37 47.97, -0.89 249.93, -0.62 299.82" stroke="#000" stroke-width="0.5" fill="none"></path></g></g><g stroke-linecap="round"><g transform="translate(110 110) rotate(0 220 0)"><path d="M-1.16 0.34 C72.37 0.33, 367.21 0.62, 440.92 0.55 M0.44 -0.53 C73.91 -0.95, 367.04 -1.57, 440.46 -1.28" stroke="#000" stroke-width="0.5" fill="none"></path></g></g><g stroke-linecap="round"><g transform="translate(110 230) rotate(0 220 0)"><path d="M0.26 0.52 C73.78 0.47, 367.76 -0.96, 440.88 -1.07 M-1.06 -0.25 C72.4 -0.12, 366.66 -0.31, 440.39 -0.1" stroke="#000" stroke-width="0.5" fill="none"></path></g></g><g stroke-linecap="round"><g transform="translate(371.00366453528403 49.65904755675231) rotate(0 -0.5018322676420155 150.17047622162386)"><path d="M-1 0.91 C-1.09 50.73, -1.17 249.92, -0.98 299.95 M0.67 0.34 C0.47 50.85, -1.8 251.48, -1.91 301.28" stroke="#000" stroke-width="0.5" fill="none"></path></g></g><g stroke-linecap="round"><g transform="translate(550 110) rotate(0 0 120)"><path d="M-0.37 -0.78 C-0.09 39.11, 0.91 199.29, 0.93 239.27 M1.63 1.43 C1.9 41.46, 0.93 200.67, 0.47 240.43" stroke="#000" stroke-width="0.5" fill="none"></path></g></g><g stroke-linecap="round"><g transform="translate(170 350) rotate(0 190 0)"><path d="M-0.33 -0.99 C62.93 -1.16, 315.51 -0.06, 378.97 0.21 M1.7 1.1 C65.38 1.05, 318.12 -1.38, 381.14 -1.8" stroke="#000" stroke-width="0.5" fill="none"></path></g></g><g transform="translate(258 58.166656494140625) rotate(0 7.333343505859375 10)" stroke="none"><path fill="#000000" d="M 0.71,0.57 Q 0.71,0.57 0.18,1.66 -0.35,2.76 -0.69,5.19 -1.03,7.62 -1.23,10.41 -1.42,13.20 -1.71,15.98 -1.99,18.75 -2.29,21.47 -2.60,24.18 -2.73,25.88 -2.85,27.58 -3.08,28.31 -3.32,29.04 -3.35,29.23 -3.39,29.43 -3.48,29.61 -3.56,29.79 -3.69,29.94 -3.81,30.10 -3.97,30.22 -4.13,30.34 -4.31,30.42 -4.50,30.50 -4.69,30.53 -4.89,30.56 -5.09,30.55 -5.29,30.53 -5.47,30.47 -5.66,30.41 -5.83,30.30 -6.00,30.19 -6.14,30.05 -6.28,29.91 -6.38,29.74 -6.48,29.56 -6.53,29.37 -6.59,29.18 -6.60,28.98 -6.61,28.78 -6.18,25.18 -5.76,21.58 -5.15,18.16 -4.54,14.75 -3.70,11.14 -2.85,7.54 -1.71,4.22 -0.56,0.90 0.49,-1.67 1.56,-4.24 2.65,-6.01 3.74,-7.79 5.04,-8.91 6.35,-10.03 7.92,-10.12 9.49,-10.21 10.74,-9.24 11.98,-8.28 13.09,-5.56 14.20,-2.85 15.00,0.17 15.80,3.21 16.52,6.20 17.24,9.20 18.11,12.36 18.98,15.51 19.55,17.85 20.13,20.18 20.56,21.93 20.99,23.67 19.85,25.85 18.70,28.02 18.61,27.98 18.51,27.93 18.43,27.86 18.36,27.79 18.31,27.69 18.26,27.60 18.24,27.49 18.23,27.39 18.24,27.28 18.26,27.18 18.31,27.08 18.36,26.99 18.44,26.92 18.51,26.85 18.61,26.80 18.71,26.76 18.81,26.75 18.92,26.73 19.02,26.76 19.13,26.78 19.22,26.84 19.31,26.89 19.38,26.97 19.45,27.05 19.48,27.15 19.52,27.25 19.53,27.36 19.53,27.46 19.51,27.57 19.48,27.67 19.42,27.76 19.36,27.84 19.27,27.91 19.19,27.97 19.09,28.00 18.99,28.04 18.88,28.04 18.77,28.04 18.67,28.00 18.57,27.97 18.49,27.90 18.40,27.84 18.34,27.75 18.28,27.66 18.26,27.56 18.23,27.46 18.23,27.35 18.24,27.25 18.28,27.15 18.32,27.05 18.39,26.97 18.46,26.89 18.55,26.83 18.64,26.78 18.74,26.76 18.85,26.73 18.95,26.75 19.06,26.76 19.06,26.76 19.06,26.76 18.39,25.62 17.72,24.48 17.29,22.73 16.86,20.98 16.30,18.69 15.75,16.40 14.86,13.19 13.98,9.98 13.27,7.02 12.57,4.06 11.82,1.19 11.07,-1.67 10.34,-3.83 9.61,-5.99 8.80,-6.65 7.99,-7.32 7.28,-6.66 6.56,-5.99 5.61,-4.47 4.65,-2.95 3.62,-0.47 2.58,1.99 1.49,5.15 0.39,8.30 -0.43,11.82 -1.25,15.33 -1.86,18.74 -2.47,22.15 -3.01,24.91 -3.55,27.68 -3.43,28.36 -3.32,29.04 -3.35,29.23 -3.39,29.43 -3.48,29.61 -3.56,29.79 -3.69,29.94 -3.81,30.10 -3.97,30.22 -4.13,30.34 -4.31,30.42 -4.50,30.50 -4.69,30.53 -4.89,30.56 -5.09,30.55 -5.29,30.53 -5.47,30.47 -5.66,30.41 -5.83,30.30 -6.00,30.19 -6.14,30.05 -6.28,29.91 -6.38,29.74 -6.48,29.56 -6.53,29.37 -6.59,29.18 -6.60,28.98 -6.61,28.78 -6.34,28.05 -6.08,27.31 -5.94,25.56 -5.80,23.81 -5.48,21.12 -5.16,18.42 -4.87,15.69 -4.58,12.96 -4.34,10.00 -4.10,7.03 -3.40,4.05 -2.71,1.07 -1.71,0.25 -0.71,-0.57 -0.63,-0.64 -0.55,-0.72 -0.46,-0.78 -0.36,-0.83 -0.26,-0.86 -0.15,-0.89 -0.04,-0.90 0.06,-0.91 0.17,-0.88 0.28,-0.86 0.38,-0.82 0.48,-0.77 0.56,-0.70 0.65,-0.63 0.71,-0.55 0.78,-0.46 0.82,-0.36 0.87,-0.26 0.89,-0.15 0.91,-0.04 0.90,0.06 0.89,0.17 0.86,0.27 0.82,0.38 0.77,0.47 0.71,0.57 0.71,0.57 L 0.71,0.57 Z"></path></g><g transform="translate(254 74.83332824707031) rotate(0 13.66668701171875 -1.3333358764648438)" stroke="none"><path fill="#000000" d="M -0.67,-0.67 Q -0.67,-0.67 -0.44,-1.26 -0.22,-1.86 1.16,-2.41 2.54,-2.95 4.44,-3.33 6.35,-3.72 8.75,-3.89 11.15,-4.06 13.57,-3.93 15.99,-3.81 18.10,-3.76 20.21,-3.70 22.15,-3.49 24.09,-3.27 25.75,-2.37 27.41,-1.48 27.51,-1.44 27.61,-1.40 27.68,-1.33 27.76,-1.25 27.82,-1.16 27.87,-1.07 27.89,-0.97 27.91,-0.86 27.90,-0.76 27.88,-0.65 27.84,-0.56 27.79,-0.46 27.72,-0.38 27.64,-0.31 27.55,-0.26 27.45,-0.21 27.35,-0.20 27.24,-0.18 27.14,-0.20 27.03,-0.22 26.94,-0.27 26.85,-0.32 26.78,-0.40 26.71,-0.48 26.66,-0.58 26.62,-0.68 26.61,-0.78 26.60,-0.89 26.63,-0.99 26.65,-1.09 26.71,-1.18 26.76,-1.27 26.85,-1.34 26.93,-1.41 27.03,-1.45 27.13,-1.48 27.23,-1.49 27.34,-1.49 27.44,-1.46 27.54,-1.43 27.63,-1.37 27.72,-1.31 27.78,-1.22 27.84,-1.14 27.87,-1.03 27.91,-0.93 27.90,-0.83 27.90,-0.72 27.87,-0.62 27.83,-0.52 27.76,-0.44 27.70,-0.35 27.61,-0.30 27.52,-0.24 27.42,-0.21 27.31,-0.19 27.21,-0.19 27.10,-0.20 27.10,-0.20 27.10,-0.20 25.41,-0.11 23.71,-0.02 21.92,-0.24 20.13,-0.45 17.97,-0.51 15.81,-0.57 13.58,-0.70 11.35,-0.84 9.14,-0.71 6.93,-0.59 5.20,-0.29 3.47,0.00 2.61,0.16 1.75,0.33 1.21,0.50 0.67,0.67 0.58,0.74 0.49,0.81 0.38,0.85 0.28,0.90 0.16,0.92 0.05,0.94 -0.05,0.93 -0.17,0.93 -0.27,0.89 -0.38,0.86 -0.48,0.80 -0.58,0.74 -0.66,0.66 -0.74,0.58 -0.80,0.48 -0.86,0.38 -0.89,0.27 -0.93,0.17 -0.93,0.05 -0.94,-0.05 -0.92,-0.16 -0.90,-0.28 -0.85,-0.38 -0.81,-0.49 -0.74,-0.58 -0.67,-0.67 -0.67,-0.67 L -0.67,-0.67 Z"></path></g><g transform="translate(444.66668701171875 65.5) rotate(0 7.666656494140625 8)" stroke="none"><path fill="#000000" d="M 0.81,0.06 Q 0.81,0.06 0.92,2.39 1.04,4.71 0.78,7.06 0.53,9.41 0.23,11.56 -0.05,13.72 -0.36,15.79 -0.68,17.86 -1.00,19.76 -1.32,21.66 -1.60,22.02 -1.89,22.37 -1.95,22.56 -2.00,22.75 -2.11,22.92 -2.21,23.09 -2.35,23.23 -2.49,23.37 -2.66,23.47 -2.83,23.57 -3.01,23.63 -3.20,23.69 -3.40,23.70 -3.60,23.72 -3.79,23.68 -3.99,23.65 -4.17,23.57 -4.35,23.49 -4.51,23.36 -4.66,23.24 -4.79,23.09 -4.91,22.93 -4.99,22.75 -5.07,22.57 -5.11,22.38 -5.14,22.18 -5.13,21.98 -5.12,21.79 -5.09,19.78 -5.05,17.77 -4.05,13.62 -3.05,9.47 -1.85,5.63 -0.66,1.78 0.24,-0.63 1.14,-3.05 1.94,-4.72 2.74,-6.39 4.05,-7.38 5.36,-8.38 6.75,-8.06 8.14,-7.74 9.04,-6.38 9.94,-5.01 10.61,-3.10 11.28,-1.19 11.94,0.93 12.59,3.07 13.25,5.10 13.91,7.14 14.57,9.15 15.23,11.16 16.06,12.89 16.88,14.61 17.78,16.07 18.68,17.53 19.11,19.57 19.55,21.61 19.58,21.71 19.61,21.81 19.60,21.92 19.60,22.02 19.56,22.12 19.52,22.22 19.46,22.30 19.39,22.38 19.30,22.44 19.21,22.50 19.11,22.52 19.00,22.54 18.90,22.53 18.79,22.52 18.69,22.48 18.60,22.44 18.52,22.37 18.44,22.29 18.39,22.20 18.34,22.11 18.32,22.00 18.30,21.90 18.32,21.79 18.33,21.69 18.38,21.59 18.43,21.50 18.50,21.43 18.58,21.35 18.68,21.31 18.77,21.26 18.88,21.25 18.98,21.23 19.09,21.25 19.19,21.28 19.28,21.33 19.37,21.38 19.44,21.46 19.51,21.54 19.56,21.64 19.60,21.74 19.60,21.85 19.61,21.95 19.58,22.05 19.56,22.16 19.50,22.25 19.44,22.33 19.36,22.40 19.27,22.47 19.17,22.50 19.07,22.54 18.97,22.54 18.86,22.54 18.76,22.51 18.66,22.47 18.57,22.41 18.49,22.35 18.43,22.26 18.37,22.17 18.37,22.17 18.37,22.17 17.12,20.71 15.87,19.24 14.89,17.63 13.91,16.01 13.02,14.10 12.13,12.19 11.46,10.16 10.80,8.14 10.14,6.08 9.48,4.03 8.84,1.95 8.20,-0.13 7.63,-1.82 7.05,-3.51 6.36,-4.21 5.67,-4.91 4.95,-3.40 4.23,-1.90 3.36,0.43 2.49,2.77 1.32,6.51 0.15,10.26 -0.80,14.06 -1.75,17.86 -1.82,20.11 -1.89,22.37 -1.95,22.56 -2.00,22.75 -2.11,22.92 -2.21,23.09 -2.35,23.23 -2.49,23.37 -2.66,23.47 -2.83,23.57 -3.01,23.63 -3.20,23.69 -3.40,23.70 -3.60,23.72 -3.79,23.68 -3.99,23.65 -4.17,23.57 -4.35,23.49 -4.51,23.36 -4.66,23.24 -4.79,23.09 -4.91,22.93 -4.99,22.75 -5.07,22.57 -5.11,22.38 -5.14,22.18 -5.13,21.98 -5.12,21.79 -4.74,21.35 -4.37,20.91 -4.03,19.14 -3.69,17.38 -3.36,15.34 -3.03,13.29 -2.71,11.18 -2.39,9.06 -2.10,6.77 -1.80,4.48 -1.31,2.20 -0.81,-0.06 -0.79,-0.16 -0.77,-0.26 -0.73,-0.35 -0.69,-0.43 -0.62,-0.51 -0.56,-0.59 -0.48,-0.65 -0.40,-0.70 -0.31,-0.74 -0.22,-0.78 -0.12,-0.80 -0.03,-0.81 0.06,-0.80 0.16,-0.80 0.25,-0.76 0.35,-0.73 0.43,-0.68 0.51,-0.63 0.58,-0.56 0.65,-0.48 0.70,-0.40 0.75,-0.31 0.78,-0.22 0.80,-0.12 0.81,-0.03 0.81,0.06 0.81,0.06 L 0.81,0.06 Z"></path></g><g transform="translate(441.3333740234375 76.16665649414062) rotate(0 10.33331298828125 -1.6666641235351562)" stroke="none"><path fill="#000000" d="M -0.17,-0.94 Q -0.17,-0.94 1.89,-1.57 3.95,-2.19 6.40,-2.57 8.85,-2.95 10.97,-3.48 13.08,-4.01 16.18,-3.92 19.29,-3.84 19.39,-3.83 19.50,-3.83 19.60,-3.79 19.69,-3.75 19.78,-3.68 19.86,-3.61 19.91,-3.52 19.97,-3.43 19.99,-3.33 20.01,-3.22 20.00,-3.12 19.99,-3.01 19.94,-2.91 19.90,-2.82 19.83,-2.74 19.75,-2.66 19.66,-2.61 19.57,-2.56 19.46,-2.55 19.36,-2.53 19.25,-2.55 19.15,-2.56 19.05,-2.61 18.96,-2.66 18.89,-2.74 18.81,-2.82 18.77,-2.91 18.72,-3.01 18.71,-3.12 18.70,-3.22 18.72,-3.32 18.75,-3.43 18.80,-3.52 18.86,-3.61 18.94,-3.68 19.02,-3.75 19.12,-3.79 19.22,-3.83 19.32,-3.83 19.43,-3.84 19.53,-3.81 19.63,-3.78 19.72,-3.72 19.81,-3.66 19.87,-3.58 19.94,-3.49 19.97,-3.39 20.00,-3.29 20.00,-3.19 20.00,-3.08 19.97,-2.98 19.94,-2.88 19.87,-2.79 19.81,-2.71 19.72,-2.65 19.63,-2.59 19.53,-2.56 19.43,-2.53 19.43,-2.53 19.43,-2.53 16.61,-1.80 13.79,-1.07 11.54,-0.53 9.29,0.00 6.88,0.33 4.47,0.66 2.32,0.80 0.17,0.94 0.05,0.95 -0.05,0.96 -0.17,0.94 -0.28,0.92 -0.39,0.87 -0.50,0.82 -0.59,0.75 -0.68,0.68 -0.75,0.58 -0.82,0.49 -0.87,0.39 -0.92,0.28 -0.94,0.17 -0.96,0.05 -0.95,-0.05 -0.94,-0.17 -0.91,-0.28 -0.87,-0.39 -0.81,-0.49 -0.75,-0.59 -0.67,-0.67 -0.59,-0.76 -0.49,-0.82 -0.39,-0.88 -0.28,-0.91 -0.17,-0.94 -0.17,-0.94 L -0.17,-0.94 Z"></path></g><g transform="translate(478 47.5) rotate(0 1.3333740234375 8)" stroke="none"><path fill="#000000" d="M -1.01,0 Q -1.01,0 -1.23,-0.57 -1.46,-1.15 -1.44,-1.32 -1.42,-1.50 -1.35,-1.66 -1.29,-1.83 -1.19,-1.97 -1.09,-2.12 -0.96,-2.23 -0.83,-2.35 -0.67,-2.43 -0.51,-2.51 -0.34,-2.56 -0.17,-2.60 0.00,-2.60 0.17,-2.60 0.34,-2.56 0.51,-2.51 0.67,-2.43 0.83,-2.35 0.96,-2.23 1.09,-2.12 1.19,-1.97 1.29,-1.83 1.35,-1.66 1.42,-1.50 1.44,-1.32 1.46,-1.14 1.42,-1.72 1.38,-2.29 2.24,-1.45 3.10,-0.61 3.67,0.86 4.25,2.34 4.29,4.46 4.34,6.58 4.15,8.42 3.96,10.26 3.68,11.84 3.41,13.42 1.88,15.41 0.35,17.40 0.29,17.49 0.23,17.57 0.14,17.63 0.06,17.70 -0.03,17.73 -0.14,17.76 -0.24,17.76 -0.35,17.76 -0.45,17.72 -0.55,17.68 -0.63,17.62 -0.71,17.55 -0.77,17.46 -0.83,17.37 -0.86,17.27 -0.88,17.17 -0.87,17.06 -0.86,16.95 -0.82,16.86 -0.78,16.76 -0.71,16.68 -0.64,16.60 -0.55,16.55 -0.46,16.49 -0.35,16.47 -0.25,16.45 -0.14,16.47 -0.04,16.48 0.05,16.53 0.14,16.58 0.22,16.65 0.30,16.72 0.34,16.82 0.39,16.91 0.40,17.02 0.42,17.13 0.40,17.23 0.38,17.33 0.33,17.43 0.28,17.52 0.20,17.59 0.12,17.66 0.02,17.70 -0.07,17.75 -0.17,17.76 -0.28,17.76 -0.38,17.74 -0.48,17.71 -0.57,17.66 -0.66,17.60 -0.73,17.52 -0.80,17.44 -0.83,17.34 -0.87,17.24 -0.87,17.13 -0.88,17.02 -0.85,16.92 -0.82,16.82 -0.82,16.82 -0.82,16.82 -0.37,14.80 0.06,12.77 0.34,11.33 0.61,9.89 0.81,8.22 1.02,6.56 1.09,4.96 1.15,3.35 0.65,1.95 0.14,0.55 -0.66,-0.29 -1.46,-1.14 -1.44,-1.32 -1.42,-1.50 -1.35,-1.66 -1.29,-1.83 -1.19,-1.97 -1.09,-2.12 -0.96,-2.23 -0.83,-2.35 -0.67,-2.43 -0.51,-2.51 -0.34,-2.56 -0.17,-2.60 -0.00,-2.60 0.17,-2.60 0.34,-2.56 0.51,-2.51 0.67,-2.43 0.83,-2.35 0.96,-2.23 1.09,-2.12 1.19,-1.97 1.29,-1.83 1.35,-1.66 1.42,-1.50 1.44,-1.32 1.46,-1.15 1.23,-0.57 1.01,0 0.99,0.12 0.98,0.24 0.93,0.35 0.89,0.46 0.82,0.56 0.75,0.66 0.66,0.75 0.57,0.83 0.46,0.88 0.35,0.94 0.23,0.97 0.12,1.00 -0.00,1.00 -0.12,1.00 -0.24,0.97 -0.35,0.94 -0.46,0.88 -0.57,0.83 -0.66,0.75 -0.75,0.66 -0.82,0.56 -0.89,0.46 -0.93,0.35 -0.98,0.24 -0.99,0.12 -1.01,-0.00 -1.01,-0.00 L -1.01,0 Z"></path></g><g transform="translate(126 154.83334350585938) rotate(0 7.333343505859375 11.666656494140625)" stroke="none"><path fill="#000000" d="M 0.78,0.09 Q 0.78,0.09 0.96,1.67 1.13,3.25 1.07,5.37 1.01,7.49 1.17,9.68 1.34,11.86 1.61,14.92 1.88,17.98 2.00,20.67 2.12,23.35 2.18,24.87 2.23,26.40 1.85,28.07 1.47,29.74 1.16,30.12 0.85,30.49 0.77,30.69 0.70,30.88 0.58,31.05 0.46,31.22 0.30,31.36 0.14,31.50 -0.03,31.59 -0.22,31.69 -0.42,31.73 -0.63,31.78 -0.84,31.78 -1.04,31.78 -1.25,31.72 -1.45,31.67 -1.63,31.57 -1.82,31.47 -1.97,31.33 -2.12,31.19 -2.24,31.02 -2.36,30.85 -2.43,30.65 -2.50,30.46 -2.52,30.25 -2.55,30.04 -2.52,29.83 -2.49,29.63 -2.85,27.65 -3.21,25.67 -3.37,22.30 -3.52,18.93 -3.58,15.21 -3.64,11.49 -3.48,7.75 -3.31,4.02 -2.84,1.38 -2.38,-1.24 -1.73,-3.07 -1.09,-4.89 0.35,-6.30 1.80,-7.72 3.78,-8.35 5.76,-8.97 7.27,-9.01 8.78,-9.04 10.34,-8.62 11.90,-8.19 13.00,-7.36 14.10,-6.53 14.46,-5.24 14.82,-3.95 14.23,-2.42 13.65,-0.89 12.16,0.91 10.68,2.72 9.45,3.87 8.22,5.01 7.11,5.90 5.99,6.78 5.73,7.14 5.46,7.50 5.28,7.61 5.10,7.72 4.90,7.78 4.70,7.85 4.49,7.86 4.28,7.87 4.07,7.84 3.87,7.80 3.68,7.71 3.48,7.63 3.32,7.50 3.15,7.37 3.02,7.20 2.89,7.04 2.81,6.85 2.72,6.66 2.68,6.45 2.64,6.24 2.66,6.03 2.67,5.82 2.73,5.62 2.79,5.42 2.90,5.24 3.01,5.06 3.16,4.91 3.31,4.77 4.84,4.74 6.38,4.72 7.42,4.78 8.46,4.83 9.77,5.30 11.08,5.76 12.43,6.58 13.79,7.40 15.19,8.59 16.60,9.78 17.56,11.68 18.51,13.59 18.70,15.32 18.90,17.06 18.49,18.81 18.08,20.56 16.18,22.32 14.27,24.07 12.44,25.14 10.60,26.20 7.95,26.34 5.30,26.49 3.29,25.88 1.29,25.27 -0.89,23.69 -3.08,22.11 -3.17,22.06 -3.26,22.01 -3.34,21.93 -3.41,21.85 -3.45,21.76 -3.49,21.66 -3.50,21.55 -3.51,21.45 -3.49,21.35 -3.47,21.24 -3.41,21.15 -3.35,21.06 -3.27,20.99 -3.19,20.93 -3.09,20.89 -2.99,20.85 -2.88,20.85 -2.78,20.84 -2.68,20.87 -2.57,20.90 -2.49,20.96 -2.40,21.03 -2.34,21.11 -2.27,21.20 -2.24,21.30 -2.21,21.40 -2.21,21.51 -2.21,21.61 -2.25,21.71 -2.28,21.81 -2.35,21.90 -2.42,21.98 -2.50,22.04 -2.59,22.10 -2.70,22.12 -2.80,22.15 -2.90,22.14 -3.01,22.13 -3.11,22.09 -3.21,22.05 -3.29,21.98 -3.37,21.91 -3.42,21.82 -3.47,21.73 -3.49,21.62 -3.52,21.52 -3.50,21.41 -3.49,21.31 -3.44,21.21 -3.40,21.12 -3.32,21.04 -3.25,20.97 -3.15,20.92 -3.06,20.87 -2.95,20.85 -2.85,20.84 -2.74,20.86 -2.64,20.88 -2.64,20.88 -2.64,20.88 -0.09,21.30 2.46,21.72 3.89,22.24 5.32,22.77 7.16,22.86 9.00,22.95 10.50,22.10 12.00,21.25 13.44,20.29 14.89,19.34 15.14,18.32 15.40,17.30 15.35,16.14 15.30,14.97 14.78,13.65 14.26,12.33 13.10,11.35 11.95,10.37 10.87,9.69 9.80,9.01 9.00,8.66 8.20,8.30 6.83,7.90 5.46,7.50 5.28,7.61 5.10,7.72 4.90,7.78 4.70,7.85 4.49,7.86 4.28,7.87 4.07,7.84 3.87,7.80 3.68,7.71 3.48,7.63 3.32,7.50 3.15,7.37 3.02,7.20 2.89,7.04 2.81,6.85 2.72,6.66 2.68,6.45 2.64,6.24 2.66,6.03 2.67,5.82 2.73,5.62 2.79,5.42 2.90,5.24 3.01,5.06 3.16,4.91 3.31,4.77 3.56,4.42 3.82,4.07 4.84,3.27 5.86,2.47 6.95,1.48 8.04,0.48 9.29,-0.95 10.55,-2.38 11.01,-3.07 11.46,-3.76 11.17,-4.34 10.88,-4.92 9.82,-5.26 8.75,-5.60 7.70,-5.63 6.65,-5.65 5.31,-5.36 3.97,-5.07 3.01,-4.32 2.06,-3.57 1.54,-2.09 1.03,-0.62 0.59,1.77 0.15,4.18 -0.00,7.81 -0.16,11.43 -0.10,15.10 -0.04,18.78 0.08,21.97 0.22,25.17 0.53,27.83 0.85,30.49 0.77,30.69 0.70,30.88 0.58,31.05 0.46,31.22 0.30,31.36 0.14,31.50 -0.03,31.59 -0.22,31.69 -0.42,31.73 -0.63,31.78 -0.84,31.78 -1.04,31.78 -1.25,31.72 -1.45,31.67 -1.63,31.57 -1.82,31.47 -1.97,31.33 -2.12,31.19 -2.24,31.02 -2.36,30.85 -2.43,30.65 -2.50,30.46 -2.52,30.25 -2.55,30.04 -2.52,29.83 -2.49,29.63 -2.11,29.19 -1.73,28.76 -1.38,27.61 -1.03,26.46 -1.07,24.97 -1.11,23.48 -1.21,20.87 -1.31,18.25 -1.55,15.17 -1.80,12.08 -1.95,9.73 -2.10,7.37 -2.00,5.12 -1.90,2.87 -1.34,1.38 -0.78,-0.09 -0.75,-0.18 -0.73,-0.28 -0.69,-0.36 -0.64,-0.44 -0.58,-0.52 -0.51,-0.59 -0.44,-0.64 -0.36,-0.69 -0.27,-0.73 -0.18,-0.76 -0.09,-0.77 0.00,-0.78 0.09,-0.77 0.19,-0.76 0.27,-0.72 0.36,-0.69 0.44,-0.64 0.52,-0.58 0.58,-0.51 0.64,-0.44 0.69,-0.36 0.73,-0.27 0.75,-0.18 0.78,-0.09 0.78,0.00 0.78,0.09 0.78,0.09 L 0.78,0.09 Z"></path></g><g transform="translate(129.33334350585938 284.8333435058594) rotate(0 7 7.3333282470703125)" stroke="none"><path fill="#000000" d="M 1.32,0 Q 1.32,0 1.40,1.30 1.47,2.61 2.20,3.87 2.94,5.14 2.71,10.13 2.48,15.12 2.55,15.31 2.61,15.49 2.63,15.69 2.65,15.88 2.62,16.07 2.60,16.27 2.52,16.45 2.45,16.63 2.34,16.79 2.22,16.95 2.08,17.08 1.93,17.20 1.75,17.29 1.58,17.38 1.39,17.42 1.20,17.46 1.00,17.46 0.80,17.46 0.62,17.41 0.43,17.36 0.26,17.26 0.08,17.17 -0.05,17.04 -0.19,16.90 -0.30,16.74 -0.41,16.58 -1.39,10.44 -2.37,4.30 -3.10,1.71 -3.83,-0.88 -5.11,-3.18 -6.39,-5.48 -6.42,-5.68 -6.45,-5.88 -6.43,-6.08 -6.41,-6.28 -6.35,-6.48 -6.28,-6.67 -6.17,-6.84 -6.06,-7.01 -5.91,-7.15 -5.77,-7.28 -5.59,-7.38 -5.41,-7.48 -5.22,-7.54 -5.02,-7.59 -4.82,-7.60 -4.62,-7.60 -4.42,-7.56 -4.22,-7.52 -4.04,-7.43 -3.86,-7.34 -3.71,-7.21 -3.55,-7.08 -3.43,-6.92 -3.31,-6.76 -3.23,-6.57 -3.15,-6.38 0.11,-8.48 3.39,-10.57 4.47,-9.36 5.56,-8.16 5.45,-5.20 5.34,-2.24 5.22,-1.09 5.09,0.05 5.74,0.32 6.39,0.58 7.38,0.66 8.36,0.74 9.72,1.02 11.07,1.30 12.42,1.61 13.78,1.93 15.17,2.74 16.56,3.56 18.03,5.40 19.49,7.25 20.34,9.79 21.19,12.33 20.38,15.98 19.56,19.62 18.75,21.55 17.95,23.48 16.22,24.96 14.49,26.44 12.25,26.87 10.01,27.30 6.90,25.81 3.78,24.31 1.85,22.40 -0.06,20.50 -0.14,20.43 -0.22,20.35 -0.27,20.26 -0.33,20.17 -0.34,20.06 -0.36,19.96 -0.35,19.85 -0.33,19.75 -0.29,19.65 -0.24,19.56 -0.16,19.48 -0.09,19.41 0.00,19.36 0.09,19.32 0.20,19.30 0.30,19.29 0.41,19.31 0.51,19.33 0.60,19.38 0.70,19.44 0.77,19.52 0.84,19.60 0.88,19.69 0.92,19.79 0.93,19.90 0.94,20.00 0.91,20.11 0.88,20.21 0.83,20.30 0.77,20.39 0.69,20.45 0.60,20.52 0.50,20.56 0.40,20.59 0.30,20.59 0.19,20.60 0.09,20.56 -0.00,20.53 -0.09,20.47 -0.17,20.41 -0.24,20.32 -0.30,20.23 -0.33,20.13 -0.36,20.03 -0.36,19.92 -0.35,19.82 -0.31,19.72 -0.28,19.62 -0.21,19.54 -0.14,19.45 -0.05,19.40 0.03,19.34 0.13,19.32 0.23,19.29 0.34,19.30 0.44,19.31 0.54,19.35 0.64,19.39 0.64,19.39 0.64,19.39 3.04,20.29 5.44,21.18 7.66,22.50 9.89,23.83 11.20,23.68 12.50,23.54 13.70,22.75 14.90,21.96 15.58,20.36 16.26,18.76 17.12,15.91 17.99,13.07 17.40,11.14 16.80,9.22 15.77,7.78 14.74,6.35 13.85,5.75 12.97,5.16 11.69,4.87 10.40,4.57 9.15,4.31 7.89,4.05 6.35,3.77 4.80,3.50 3.81,2.83 2.81,2.15 2.34,1.18 1.86,0.20 1.94,-1.17 2.01,-2.55 2.38,-4.65 2.75,-6.74 2.25,-7.51 1.74,-8.27 -2.32,-6.87 -6.39,-5.48 -6.42,-5.68 -6.45,-5.88 -6.43,-6.08 -6.41,-6.28 -6.35,-6.47 -6.28,-6.67 -6.17,-6.84 -6.06,-7.01 -5.91,-7.14 -5.77,-7.28 -5.59,-7.38 -5.41,-7.48 -5.22,-7.54 -5.02,-7.59 -4.82,-7.60 -4.62,-7.60 -4.42,-7.56 -4.22,-7.52 -4.04,-7.43 -3.86,-7.34 -3.71,-7.21 -3.55,-7.08 -3.43,-6.92 -3.31,-6.76 -3.23,-6.57 -3.15,-6.38 -1.88,-4.09 -0.60,-1.80 0.17,1.00 0.94,3.80 1.71,9.46 2.48,15.12 2.55,15.31 2.61,15.49 2.63,15.69 2.65,15.88 2.62,16.07 2.60,16.27 2.52,16.45 2.45,16.63 2.34,16.79 2.22,16.95 2.08,17.08 1.93,17.20 1.75,17.29 1.58,17.38 1.39,17.42 1.20,17.46 1.00,17.46 0.80,17.46 0.62,17.41 0.43,17.36 0.26,17.26 0.08,17.17 -0.05,17.04 -0.19,16.90 -0.30,16.74 -0.41,16.58 -0.14,11.45 0.12,6.33 -0.67,4.54 -1.47,2.75 -1.40,1.37 -1.32,0 -1.31,-0.15 -1.29,-0.31 -1.23,-0.46 -1.17,-0.61 -1.08,-0.74 -0.99,-0.88 -0.87,-0.98 -0.75,-1.09 -0.61,-1.16 -0.47,-1.24 -0.31,-1.28 -0.16,-1.31 0.00,-1.31 0.16,-1.31 0.31,-1.28 0.47,-1.24 0.61,-1.16 0.75,-1.09 0.87,-0.98 0.99,-0.88 1.08,-0.74 1.17,-0.61 1.23,-0.46 1.29,-0.31 1.31,-0.15 1.32,0.00 1.32,0.00 L 1.32,0 Z"></path></g><g transform="translate(144.66668701171875 258.1666564941406) rotate(0 1.33331298828125 4.66668701171875)" stroke="none"><path fill="#000000" d="M 0.55,-0.83 Q 0.55,-0.83 1.31,-0.65 2.06,-0.48 2.73,0.47 3.39,1.43 3.85,2.65 4.30,3.87 4.51,5.05 4.72,6.23 4.05,8.10 3.39,9.97 3.36,10.07 3.34,10.18 3.28,10.26 3.22,10.35 3.13,10.42 3.05,10.48 2.95,10.52 2.85,10.55 2.74,10.55 2.64,10.55 2.54,10.52 2.44,10.49 2.35,10.42 2.27,10.36 2.21,10.27 2.15,10.18 2.12,10.08 2.09,9.98 2.09,9.87 2.10,9.77 2.14,9.67 2.17,9.57 2.24,9.49 2.31,9.41 2.40,9.35 2.49,9.30 2.60,9.27 2.70,9.25 2.81,9.26 2.91,9.27 3.01,9.31 3.10,9.36 3.18,9.43 3.26,9.50 3.31,9.60 3.36,9.69 3.38,9.80 3.40,9.90 3.38,10.00 3.36,10.11 3.31,10.20 3.26,10.30 3.19,10.37 3.11,10.45 3.01,10.49 2.92,10.54 2.81,10.55 2.71,10.56 2.60,10.54 2.50,10.52 2.41,10.46 2.32,10.41 2.25,10.33 2.18,10.25 2.14,10.15 2.10,10.05 2.09,9.94 2.09,9.84 2.09,9.84 2.09,9.84 1.78,8.27 1.47,6.70 1.35,5.82 1.24,4.93 0.94,3.99 0.64,3.04 0.44,2.53 0.23,2.01 -0.16,1.42 -0.55,0.83 -0.65,0.75 -0.74,0.67 -0.81,0.58 -0.88,0.48 -0.92,0.36 -0.97,0.25 -0.99,0.13 -1.00,0.01 -0.99,-0.10 -0.98,-0.22 -0.94,-0.33 -0.89,-0.45 -0.83,-0.55 -0.76,-0.65 -0.67,-0.73 -0.58,-0.81 -0.47,-0.87 -0.37,-0.93 -0.25,-0.96 -0.13,-0.99 -0.01,-0.99 0.10,-1.00 0.22,-0.97 0.34,-0.94 0.45,-0.89 0.55,-0.83 0.55,-0.83 L 0.55,-0.83 Z"></path></g><g transform="translate(454.66668701171875 276.6666564941406) rotate(0 4.666656494140625 6.6666717529296875)" stroke="none"><path fill="#000000" d="M -0.69,-0.46 Q -0.69,-0.46 -0.18,-1.78 0.32,-3.11 1.12,-3.91 1.93,-4.70 2.50,-5.64 3.08,-6.57 3.51,-7.51 3.94,-8.45 4.60,-9.38 5.25,-10.31 5.59,-11.27 5.93,-12.24 6.09,-12.87 6.25,-13.49 6.30,-13.56 6.34,-13.63 6.41,-13.81 6.48,-13.98 6.60,-14.14 6.71,-14.29 6.86,-14.42 7.01,-14.54 7.19,-14.63 7.36,-14.71 7.55,-14.75 7.74,-14.79 7.93,-14.78 8.12,-14.78 8.31,-14.72 8.49,-14.67 8.66,-14.58 8.83,-14.48 8.97,-14.35 9.11,-14.21 9.21,-14.05 9.32,-13.89 9.38,-13.71 9.44,-13.52 9.46,-13.33 9.48,-13.14 9.45,-12.95 9.42,-12.76 9.49,-12.09 9.56,-11.41 9.77,-9.55 9.98,-7.68 10.07,-5.08 10.17,-2.48 10.40,0.08 10.63,2.65 10.92,6.26 11.21,9.87 11.34,12.77 11.46,15.68 11.52,17.87 11.57,20.07 11.60,21.58 11.62,23.08 11.13,24.82 10.65,26.56 10.63,26.67 10.61,26.77 10.56,26.87 10.51,26.96 10.44,27.03 10.36,27.11 10.27,27.15 10.17,27.20 10.06,27.21 9.96,27.22 9.85,27.20 9.75,27.18 9.66,27.12 9.57,27.07 9.50,26.99 9.43,26.91 9.39,26.81 9.35,26.71 9.34,26.61 9.34,26.50 9.36,26.40 9.39,26.30 9.45,26.21 9.51,26.12 9.59,26.05 9.68,25.99 9.78,25.95 9.88,25.92 9.98,25.92 10.09,25.92 10.19,25.95 10.29,25.98 10.38,26.05 10.46,26.11 10.52,26.20 10.58,26.29 10.61,26.39 10.64,26.49 10.64,26.60 10.63,26.70 10.59,26.80 10.55,26.90 10.49,26.98 10.42,27.06 10.33,27.12 10.24,27.17 10.13,27.20 10.03,27.22 9.92,27.21 9.82,27.20 9.72,27.16 9.62,27.11 9.55,27.04 9.47,26.97 9.42,26.87 9.37,26.78 9.35,26.68 9.33,26.57 9.33,26.57 9.33,26.57 8.82,24.85 8.30,23.13 8.28,21.64 8.26,20.15 8.21,17.98 8.16,15.82 8.04,12.98 7.93,10.13 7.64,6.54 7.35,2.94 7.13,0.28 6.90,-2.36 6.82,-4.85 6.74,-7.33 6.53,-9.31 6.33,-11.29 6.33,-12.46 6.34,-13.63 6.41,-13.81 6.48,-13.98 6.60,-14.14 6.71,-14.29 6.86,-14.42 7.01,-14.54 7.19,-14.63 7.36,-14.71 7.55,-14.75 7.74,-14.79 7.93,-14.78 8.12,-14.78 8.31,-14.72 8.49,-14.67 8.66,-14.58 8.83,-14.48 8.97,-14.35 9.11,-14.22 9.21,-14.05 9.32,-13.89 9.38,-13.71 9.44,-13.52 9.46,-13.33 9.48,-13.14 9.45,-12.95 9.42,-12.76 9.30,-12.65 9.18,-12.53 8.97,-11.83 8.75,-11.12 8.21,-9.86 7.67,-8.59 7.14,-7.89 6.62,-7.18 6.09,-6.07 5.55,-4.97 4.76,-3.79 3.97,-2.61 3.35,-2.04 2.74,-1.48 1.71,-0.51 0.69,0.46 0.62,0.53 0.56,0.61 0.47,0.67 0.39,0.72 0.30,0.76 0.21,0.80 0.11,0.81 0.01,0.83 -0.08,0.82 -0.18,0.80 -0.27,0.77 -0.37,0.74 -0.45,0.68 -0.54,0.63 -0.60,0.55 -0.67,0.48 -0.72,0.39 -0.77,0.30 -0.79,0.21 -0.82,0.11 -0.82,0.01 -0.82,-0.08 -0.80,-0.18 -0.78,-0.28 -0.73,-0.37 -0.69,-0.46 -0.69,-0.46 L -0.69,-0.46 Z"></path></g><g transform="translate(451.3333740234375 305.3333435058594) rotate(0 15.33331298828125 -0.333343505859375)" stroke="none"><path fill="#000000" d="M -0.53,-1.07 Q -0.53,-1.07 0.15,-1.62 0.84,-2.16 2.48,-2.61 4.11,-3.06 6.47,-3.05 8.83,-3.05 11.08,-3.04 13.33,-3.03 16.26,-2.84 19.19,-2.65 21.61,-2.37 24.02,-2.10 26.95,-0.77 29.88,0.54 29.97,0.60 30.06,0.66 30.12,0.75 30.18,0.84 30.21,0.94 30.24,1.04 30.24,1.15 30.23,1.25 30.20,1.35 30.16,1.45 30.09,1.53 30.03,1.62 29.94,1.67 29.85,1.73 29.74,1.75 29.64,1.78 29.53,1.77 29.43,1.76 29.33,1.72 29.23,1.68 29.16,1.61 29.08,1.53 29.02,1.44 28.97,1.35 28.95,1.24 28.93,1.14 28.95,1.03 28.96,0.93 29.01,0.83 29.06,0.74 29.13,0.67 29.21,0.59 29.30,0.54 29.40,0.50 29.51,0.48 29.61,0.47 29.72,0.49 29.82,0.51 29.91,0.56 30.00,0.62 30.07,0.69 30.15,0.77 30.19,0.87 30.23,0.97 30.24,1.08 30.24,1.18 30.22,1.28 30.19,1.39 30.13,1.48 30.08,1.57 29.99,1.63 29.91,1.70 29.81,1.73 29.71,1.77 29.60,1.77 29.50,1.78 29.40,1.74 29.30,1.71 29.30,1.71 29.30,1.71 26.46,1.50 23.62,1.28 21.29,1.00 18.96,0.73 16.13,0.52 13.31,0.32 11.04,0.29 8.77,0.26 6.81,0.18 4.85,0.10 3.53,0.37 2.22,0.63 1.38,0.85 0.53,1.07 0.40,1.12 0.26,1.17 0.12,1.18 -0.02,1.20 -0.16,1.18 -0.31,1.15 -0.44,1.10 -0.57,1.05 -0.69,0.96 -0.81,0.88 -0.90,0.77 -1.00,0.66 -1.06,0.53 -1.13,0.40 -1.16,0.26 -1.19,0.12 -1.19,-0.02 -1.18,-0.16 -1.15,-0.30 -1.11,-0.44 -1.04,-0.57 -0.97,-0.70 -0.87,-0.80 -0.77,-0.91 -0.65,-0.99 -0.53,-1.07 -0.53,-1.07 L -0.53,-1.07 Z"></path></g><g transform="translate(454.66668701171875 252.66665649414062) rotate(0 -12.333343505859375 39.66667175292969)" stroke="none"><path fill="#000000" d="M 0,1.05 Q 0,1.05 -1.31,1.31 -2.63,1.57 -3.67,2.10 -4.71,2.63 -6.33,3.61 -7.96,4.58 -10.77,6.36 -13.58,8.13 -15.52,9.45 -17.46,10.77 -18.95,12.21 -20.44,13.65 -21.19,14.71 -21.95,15.78 -21.99,16.54 -22.04,17.30 -21.93,18.09 -21.82,18.87 -21.32,19.55 -20.81,20.24 -19.77,21.05 -18.72,21.85 -17.09,23.01 -15.47,24.17 -14.19,25.05 -12.91,25.94 -12.00,26.90 -11.09,27.86 -10.86,29.41 -10.63,30.95 -11.49,32.17 -12.34,33.38 -13.31,34.18 -14.29,34.97 -15.99,35.77 -17.69,36.56 -18.21,36.83 -18.74,37.11 -17.77,37.23 -16.80,37.35 -16.00,37.41 -15.20,37.48 -14.26,37.74 -13.32,38.00 -12.67,38.10 -12.01,38.20 -11.04,38.98 -10.08,39.77 -9.86,40.62 -9.65,41.48 -9.98,42.28 -10.31,43.09 -11.27,43.73 -12.22,44.37 -13.10,44.83 -13.98,45.29 -14.54,46.07 -15.10,46.85 -16.03,48.36 -16.97,49.86 -17.91,52.15 -18.85,54.44 -19.80,58.59 -20.75,62.74 -21.16,66.17 -21.57,69.60 -21.05,71.89 -20.52,74.19 -19.21,75.29 -17.90,76.38 -15.24,77.39 -12.58,78.40 -12.49,78.44 -12.39,78.48 -12.30,78.54 -12.22,78.61 -12.17,78.70 -12.11,78.79 -12.09,78.90 -12.06,79.00 -12.07,79.11 -12.08,79.21 -12.12,79.31 -12.17,79.41 -12.24,79.48 -12.31,79.56 -12.40,79.61 -12.50,79.66 -12.60,79.68 -12.71,79.70 -12.81,79.69 -12.92,79.67 -13.01,79.62 -13.11,79.57 -13.18,79.50 -13.25,79.42 -13.30,79.33 -13.35,79.23 -13.36,79.12 -13.37,79.02 -13.35,78.92 -13.33,78.81 -13.28,78.72 -13.22,78.63 -13.14,78.56 -13.06,78.49 -12.97,78.45 -12.87,78.41 -12.76,78.40 -12.66,78.39 -12.55,78.42 -12.45,78.44 -12.36,78.50 -12.27,78.56 -12.21,78.65 -12.14,78.73 -12.11,78.83 -12.07,78.93 -12.07,79.04 -12.07,79.14 -12.10,79.24 -12.13,79.34 -12.19,79.43 -12.26,79.51 -12.34,79.58 -12.43,79.64 -12.53,79.67 -12.64,79.70 -12.74,79.69 -12.85,79.69 -12.85,79.69 -12.85,79.69 -16.48,79.41 -20.12,79.14 -21.99,77.21 -23.86,75.28 -24.51,72.26 -25.15,69.24 -24.71,65.58 -24.26,61.91 -23.20,57.49 -22.14,53.07 -21.04,50.52 -19.94,47.97 -18.80,46.21 -17.65,44.45 -17.10,43.89 -16.54,43.32 -15.76,42.70 -14.97,42.07 -14.40,41.67 -13.84,41.28 -13.30,41.39 -12.76,41.50 -13.53,41.41 -14.30,41.32 -14.91,41.12 -15.53,40.92 -16.58,40.82 -17.62,40.71 -18.76,40.35 -19.89,40.00 -20.72,39.09 -21.55,38.17 -21.49,36.86 -21.44,35.55 -20.29,34.48 -19.13,33.41 -17.79,32.83 -16.44,32.26 -15.65,31.64 -14.87,31.01 -14.31,30.44 -13.74,29.88 -14.31,29.31 -14.88,28.75 -16.17,27.85 -17.46,26.96 -19.18,25.72 -20.89,24.49 -22.29,23.28 -23.69,22.08 -24.43,20.73 -25.18,19.38 -25.30,18.08 -25.42,16.78 -25.11,15.36 -24.79,13.93 -23.80,12.55 -22.80,11.17 -21.08,9.56 -19.36,7.96 -17.36,6.62 -15.35,5.29 -12.49,3.52 -9.62,1.76 -7.81,0.71 -5.99,-0.33 -4.36,-0.95 -2.73,-1.57 -1.36,-1.31 0,-1.05 0.12,-1.04 0.25,-1.02 0.37,-0.98 0.49,-0.93 0.59,-0.86 0.70,-0.79 0.78,-0.69 0.87,-0.60 0.93,-0.48 0.98,-0.37 1.01,-0.25 1.05,-0.12 1.05,0.00 1.05,0.12 1.01,0.25 0.98,0.37 0.93,0.48 0.87,0.60 0.78,0.69 0.70,0.79 0.59,0.86 0.49,0.93 0.37,0.98 0.25,1.02 0.12,1.04 -0.00,1.05 -0.00,1.05 L 0,1.05 Z"></path></g><g transform="translate(489.3333740234375 250.66665649414062) rotate(0 7 35.00001525878906)" stroke="none"><path fill="#000000" d="M -0.44,0.89 Q -0.44,0.89 -0.94,0.93 -1.44,0.98 -1.60,0.87 -1.75,0.77 -1.87,0.64 -2.00,0.50 -2.09,0.34 -2.18,0.18 -2.22,0.00 -2.27,-0.16 -2.27,-0.35 -2.28,-0.53 -2.24,-0.71 -2.20,-0.89 -2.12,-1.06 -2.03,-1.22 -1.91,-1.36 -1.79,-1.50 -1.65,-1.61 -1.50,-1.71 -1.33,-1.78 -1.16,-1.85 -0.97,-1.88 -0.79,-1.90 -0.61,-1.88 -0.43,-1.87 -0.25,-1.80 -0.08,-1.74 0.79,-0.63 1.68,0.48 2.53,1.06 3.39,1.64 4.60,2.54 5.80,3.44 6.94,4.43 8.08,5.42 9.14,6.43 10.20,7.43 11.13,8.74 12.06,10.04 12.51,11.42 12.95,12.79 12.51,14.45 12.07,16.11 10.96,17.30 9.84,18.49 8.81,19.32 7.78,20.15 6.52,20.92 5.26,21.69 4.28,22.51 3.30,23.32 2.63,23.26 1.96,23.20 2.52,23.97 3.08,24.75 4.74,25.30 6.40,25.86 7.64,26.41 8.88,26.97 10.19,27.60 11.50,28.22 12.54,28.93 13.58,29.64 14.28,30.17 14.97,30.69 14.93,32.17 14.88,33.65 13.80,34.31 12.72,34.97 11.71,35.35 10.70,35.73 9.46,36.10 8.22,36.46 7.16,36.80 6.10,37.13 5.32,37.45 4.55,37.76 4.09,37.29 3.64,36.82 4.13,37.09 4.62,37.35 6.25,38.62 7.88,39.89 9.03,40.88 10.18,41.87 11.51,43.33 12.84,44.79 14.28,47.90 15.73,51.02 16.16,54.04 16.58,57.06 15.96,60.06 15.33,63.07 14.41,65.01 13.49,66.95 11.96,68.35 10.43,69.74 8.70,70.54 6.96,71.35 4.94,71.23 2.91,71.12 2.80,71.13 2.70,71.14 2.59,71.11 2.49,71.08 2.40,71.02 2.32,70.97 2.25,70.88 2.18,70.80 2.15,70.70 2.11,70.60 2.11,70.49 2.11,70.38 2.14,70.28 2.18,70.18 2.24,70.10 2.30,70.01 2.39,69.95 2.48,69.89 2.58,69.86 2.68,69.83 2.79,69.84 2.90,69.84 2.99,69.88 3.09,69.92 3.18,69.99 3.26,70.05 3.31,70.14 3.37,70.23 3.39,70.34 3.42,70.44 3.41,70.55 3.40,70.65 3.35,70.75 3.31,70.85 3.24,70.92 3.16,71.00 3.07,71.05 2.98,71.10 2.87,71.12 2.77,71.14 2.66,71.12 2.56,71.11 2.46,71.06 2.37,71.01 2.30,70.93 2.22,70.86 2.18,70.76 2.13,70.67 2.12,70.56 2.11,70.46 2.13,70.35 2.15,70.25 2.20,70.16 2.26,70.06 2.34,69.99 2.42,69.92 2.51,69.88 2.61,69.84 2.61,69.84 2.61,69.84 4.06,68.93 5.51,68.01 6.81,67.48 8.11,66.95 9.21,66.11 10.31,65.27 11.06,63.76 11.81,62.25 12.41,59.85 13.01,57.44 12.72,54.95 12.43,52.45 11.29,49.80 10.14,47.16 8.99,45.87 7.83,44.59 6.74,43.65 5.65,42.71 3.81,41.23 1.97,39.76 1.50,38.97 1.04,38.18 1.45,36.79 1.87,35.41 2.57,34.99 3.26,34.57 4.17,34.21 5.07,33.86 6.16,33.51 7.26,33.17 8.38,32.84 9.50,32.52 10.43,32.17 11.36,31.82 12.15,31.68 12.94,31.53 12.30,31.99 11.65,32.44 10.84,31.86 10.02,31.28 8.76,30.67 7.49,30.06 6.28,29.51 5.07,28.97 2.77,27.83 0.47,26.69 -0.16,25.29 -0.81,23.89 0.19,22.32 1.21,20.74 2.38,19.80 3.56,18.87 4.66,18.22 5.77,17.57 6.69,16.87 7.62,16.16 8.40,15.54 9.18,14.93 9.59,14.14 10.00,13.35 9.75,12.56 9.50,11.78 8.78,10.72 8.06,9.66 7.05,8.70 6.04,7.74 5.00,6.82 3.97,5.90 2.77,5.01 1.57,4.11 0.38,3.18 -0.79,2.25 -1.12,1.61 -1.44,0.98 -1.60,0.87 -1.75,0.77 -1.87,0.64 -2.00,0.50 -2.09,0.34 -2.18,0.18 -2.22,0.00 -2.27,-0.16 -2.27,-0.35 -2.28,-0.53 -2.24,-0.71 -2.20,-0.89 -2.12,-1.06 -2.03,-1.22 -1.91,-1.36 -1.79,-1.50 -1.65,-1.61 -1.50,-1.71 -1.33,-1.78 -1.16,-1.85 -0.97,-1.88 -0.79,-1.90 -0.61,-1.88 -0.43,-1.87 -0.25,-1.80 -0.08,-1.74 0.18,-1.32 0.44,-0.89 0.55,-0.83 0.65,-0.76 0.73,-0.67 0.81,-0.58 0.87,-0.48 0.93,-0.37 0.96,-0.25 0.99,-0.14 0.99,-0.01 1.00,0.10 0.97,0.21 0.94,0.33 0.89,0.44 0.83,0.55 0.75,0.64 0.68,0.73 0.58,0.80 0.48,0.88 0.37,0.92 0.25,0.97 0.13,0.98 0.01,1.00 -0.10,0.99 -0.22,0.98 -0.33,0.93 -0.44,0.89 -0.44,0.89 L -0.44,0.89 Z"></path></g><g transform="translate(251.3333740234375 125.50001525878906) rotate(0 -10.66668701171875 38.666656494140625)" stroke="none"><path fill="#000000" d="M -0.22,0.88 Q -0.22,0.88 -1.00,1.04 -1.78,1.20 -2.29,1.50 -2.80,1.80 -4.11,2.31 -5.41,2.82 -6.85,3.58 -8.28,4.34 -10.08,5.27 -11.88,6.20 -13.34,7.13 -14.80,8.06 -16.17,9.03 -17.55,9.99 -18.18,10.60 -18.80,11.21 -18.62,12.21 -18.44,13.21 -18.08,13.87 -17.71,14.54 -16.87,15.52 -16.03,16.49 -15.04,17.77 -14.04,19.04 -13.15,19.85 -12.25,20.66 -11.18,21.34 -10.11,22.03 -9.15,22.79 -8.19,23.55 -7.39,24.27 -6.59,24.99 -5.99,25.64 -5.38,26.29 -5.18,27.24 -4.98,28.19 -5.52,29.23 -6.06,30.27 -7.30,30.97 -8.54,31.67 -10.15,32.26 -11.76,32.85 -13.13,33.46 -14.50,34.06 -15.95,34.54 -17.39,35.03 -18.13,35.47 -18.87,35.91 -18.34,35.53 -17.80,35.16 -16.80,35.74 -15.79,36.32 -14.63,36.65 -13.46,36.99 -12.30,37.37 -11.14,37.74 -10.07,38.09 -9.00,38.44 -8.22,38.84 -7.44,39.24 -6.72,39.90 -6.01,40.57 -6.22,41.79 -6.43,43.01 -7.36,43.51 -8.29,44.01 -9.42,44.62 -10.55,45.24 -11.63,46.49 -12.70,47.75 -14.09,50.31 -15.48,52.86 -16.44,55.60 -17.40,58.34 -17.60,61.04 -17.80,63.75 -16.97,66.61 -16.15,69.47 -15.01,71.29 -13.86,73.10 -10.91,74.91 -7.95,76.71 -7.87,76.77 -7.78,76.82 -7.71,76.91 -7.64,76.99 -7.61,77.09 -7.57,77.19 -7.57,77.30 -7.57,77.40 -7.60,77.51 -7.63,77.61 -7.70,77.69 -7.76,77.78 -7.84,77.84 -7.93,77.90 -8.03,77.93 -8.14,77.96 -8.24,77.96 -8.35,77.95 -8.45,77.92 -8.55,77.88 -8.63,77.81 -8.71,77.74 -8.77,77.65 -8.82,77.56 -8.85,77.46 -8.87,77.36 -8.86,77.25 -8.85,77.15 -8.81,77.05 -8.77,76.95 -8.70,76.87 -8.63,76.79 -8.53,76.74 -8.44,76.69 -8.34,76.67 -8.23,76.65 -8.13,76.67 -8.02,76.68 -7.93,76.73 -7.83,76.78 -7.76,76.86 -7.68,76.93 -7.64,77.03 -7.59,77.12 -7.58,77.23 -7.56,77.33 -7.58,77.44 -7.60,77.54 -7.66,77.63 -7.71,77.73 -7.79,77.80 -7.87,77.87 -7.97,77.91 -8.07,77.95 -8.17,77.96 -8.28,77.96 -8.38,77.94 -8.48,77.91 -8.48,77.91 -8.48,77.91 -12.59,76.61 -16.70,75.30 -18.20,72.89 -19.70,70.48 -20.58,67.00 -21.47,63.52 -21.18,60.33 -20.88,57.13 -19.79,54.11 -18.69,51.09 -17.05,48.20 -15.41,45.32 -13.86,43.69 -12.31,42.07 -10.88,41.32 -9.44,40.57 -8.84,40.56 -8.25,40.55 -8.68,41.48 -9.12,42.42 -9.63,42.14 -10.13,41.85 -11.19,41.51 -12.24,41.16 -13.38,40.79 -14.52,40.43 -16.05,39.93 -17.58,39.43 -18.41,38.94 -19.24,38.46 -20.37,37.74 -21.49,37.02 -21.74,35.94 -21.98,34.86 -21.46,33.95 -20.93,33.04 -19.74,32.33 -18.55,31.61 -17.25,31.18 -15.95,30.75 -14.47,30.11 -13.00,29.47 -11.52,28.93 -10.05,28.40 -9.51,28.02 -8.98,27.64 -9.70,26.99 -10.42,26.33 -11.24,25.67 -12.06,25.01 -13.36,24.15 -14.67,23.28 -15.76,22.26 -16.84,21.24 -17.81,20.00 -18.78,18.76 -19.84,17.44 -20.91,16.11 -21.42,14.97 -21.94,13.83 -22.07,12.78 -22.20,11.72 -21.86,10.40 -21.51,9.07 -20.55,8.08 -19.58,7.09 -18.12,6.09 -16.67,5.08 -15.06,4.09 -13.46,3.09 -11.66,2.20 -9.86,1.31 -8.24,0.48 -6.62,-0.33 -5.24,-0.84 -3.86,-1.35 -2.57,-1.66 -1.28,-1.96 -0.52,-1.42 0.22,-0.88 0.32,-0.84 0.42,-0.80 0.51,-0.74 0.60,-0.67 0.67,-0.59 0.75,-0.51 0.80,-0.41 0.85,-0.32 0.87,-0.21 0.90,-0.10 0.90,0.00 0.90,0.11 0.87,0.21 0.85,0.32 0.79,0.42 0.74,0.51 0.67,0.60 0.60,0.68 0.51,0.74 0.42,0.80 0.31,0.84 0.21,0.88 0.10,0.89 -0.00,0.91 -0.11,0.89 -0.22,0.88 -0.22,0.88 L -0.22,0.88 Z"></path></g><g transform="translate(261.3333740234375 149.50001525878906) rotate(0 8.33331298828125 10.666656494140625)" stroke="none"><path fill="#000000" d="M -1.08,0 Q -1.08,0 -1.25,-0.76 -1.42,-1.53 -1.21,-2.82 -1.00,-4.12 0.18,-5.50 1.38,-6.88 2.57,-7.64 3.76,-8.40 5.30,-8.58 6.83,-8.75 8.20,-8.36 9.58,-7.97 10.70,-7.09 11.82,-6.21 12.58,-4.67 13.34,-3.13 13.47,-0.58 13.60,1.96 13.04,4.65 12.47,7.35 11.44,10.06 10.41,12.78 8.80,15.89 7.19,19.00 5.72,21.31 4.25,23.62 3.28,25.30 2.31,26.99 1.67,27.96 1.03,28.92 0.96,29.13 0.89,29.33 0.75,29.49 0.61,29.65 0.44,29.78 0.27,29.90 0.07,29.98 -0.11,30.06 -0.32,30.08 -0.53,30.11 -0.74,30.09 -0.95,30.07 -1.15,30.00 -1.35,29.93 -1.52,29.81 -1.70,29.69 -1.84,29.54 -1.98,29.38 -2.08,29.20 -2.18,29.01 -2.24,28.81 -2.29,28.61 -2.29,28.39 -2.30,28.18 -2.25,27.98 -2.20,27.77 -2.11,27.58 -2.01,27.40 -0.67,26.91 0.66,26.42 1.89,26.19 3.13,25.96 4.73,25.84 6.33,25.73 8.15,25.68 9.98,25.64 11.71,25.62 13.44,25.60 15.30,26.14 17.17,26.68 17.28,26.69 17.38,26.71 17.48,26.76 17.57,26.81 17.64,26.88 17.72,26.96 17.76,27.06 17.81,27.15 17.82,27.26 17.83,27.36 17.81,27.47 17.79,27.57 17.73,27.66 17.68,27.76 17.60,27.82 17.52,27.89 17.42,27.93 17.32,27.97 17.21,27.98 17.11,27.99 17.01,27.96 16.90,27.93 16.81,27.87 16.73,27.81 16.66,27.73 16.60,27.64 16.56,27.54 16.53,27.44 16.53,27.34 16.53,27.23 16.56,27.13 16.59,27.03 16.66,26.94 16.72,26.86 16.81,26.80 16.90,26.74 17.00,26.71 17.10,26.68 17.21,26.69 17.31,26.69 17.41,26.73 17.51,26.77 17.59,26.84 17.67,26.91 17.73,27.00 17.78,27.09 17.81,27.19 17.83,27.29 17.82,27.40 17.81,27.51 17.76,27.60 17.72,27.70 17.65,27.78 17.58,27.85 17.48,27.90 17.39,27.95 17.28,27.97 17.18,27.99 17.18,27.99 17.18,27.99 15.33,28.55 13.47,29.11 11.77,29.13 10.06,29.15 8.31,29.18 6.56,29.22 5.17,29.31 3.77,29.40 2.33,29.37 0.89,29.33 0.75,29.49 0.61,29.65 0.44,29.78 0.27,29.90 0.07,29.98 -0.11,30.06 -0.32,30.08 -0.53,30.11 -0.74,30.09 -0.95,30.07 -1.15,30.00 -1.35,29.93 -1.52,29.81 -1.70,29.69 -1.84,29.54 -1.98,29.38 -2.08,29.20 -2.18,29.01 -2.24,28.81 -2.29,28.61 -2.29,28.39 -2.30,28.18 -2.25,27.98 -2.20,27.77 -2.11,27.59 -2.01,27.40 -1.95,27.20 -1.88,27.01 -1.29,26.13 -0.70,25.25 0.31,23.50 1.33,21.75 2.73,19.57 4.13,17.40 5.67,14.47 7.22,11.54 8.19,9.07 9.16,6.60 9.71,4.30 10.26,2.00 10.31,0.03 10.35,-1.93 10.02,-2.93 9.68,-3.92 9.11,-4.49 8.54,-5.05 7.74,-5.36 6.95,-5.67 6.09,-5.70 5.22,-5.72 4.38,-5.21 3.54,-4.70 2.65,-4.01 1.77,-3.31 1.59,-2.42 1.42,-1.52 1.25,-0.76 1.08,0 1.07,0.13 1.05,0.26 1.01,0.38 0.96,0.50 0.88,0.61 0.81,0.72 0.71,0.80 0.61,0.89 0.50,0.95 0.38,1.01 0.25,1.04 0.13,1.08 -0.00,1.08 -0.13,1.08 -0.25,1.04 -0.38,1.01 -0.50,0.95 -0.61,0.89 -0.71,0.80 -0.81,0.72 -0.88,0.61 -0.96,0.50 -1.01,0.38 -1.05,0.26 -1.07,0.13 -1.08,-0.00 -1.08,-0.00 L -1.08,0 Z"></path></g><g transform="translate(286.66668701171875 124.83332824707031) rotate(0 10.666656494140625 37.00001525878906)" stroke="none"><path fill="#000000" d="M 0.78,-0.58 Q 0.78,-0.58 1.56,0.02 2.34,0.63 3.12,1.47 3.90,2.31 4.95,3.20 6.00,4.10 7.22,5.06 8.44,6.02 9.58,7.04 10.72,8.07 11.87,9.56 13.02,11.06 13.57,12.66 14.13,14.27 13.96,15.75 13.79,17.24 12.87,19.10 11.96,20.96 10.73,22.39 9.50,23.82 8.67,24.89 7.84,25.97 7.07,26.87 6.29,27.76 5.78,28.31 5.27,28.86 5.80,29.50 6.32,30.14 6.93,30.73 7.55,31.33 8.19,31.96 8.83,32.60 9.61,33.19 10.38,33.77 10.96,34.26 11.54,34.76 11.99,35.17 12.44,35.58 13.08,36.27 13.73,36.96 13.95,37.99 14.18,39.02 13.89,39.88 13.61,40.74 12.69,41.44 11.78,42.15 11.23,42.63 10.67,43.11 9.93,43.59 9.19,44.08 8.45,44.71 7.71,45.35 8.55,45.68 9.40,46.01 10.23,46.28 11.06,46.54 12.21,46.87 13.37,47.19 14.82,47.99 16.28,48.78 17.57,49.46 18.87,50.15 20.00,51.17 21.14,52.19 21.92,54.00 22.71,55.81 23.01,57.39 23.30,58.97 23.03,61.19 22.75,63.40 21.77,65.28 20.79,67.16 19.11,68.81 17.44,70.45 15.81,71.87 14.18,73.29 12.58,74.19 10.98,75.08 9.24,75.08 7.50,75.08 7.39,75.09 7.29,75.11 7.18,75.09 7.08,75.08 6.98,75.02 6.89,74.97 6.82,74.90 6.74,74.82 6.70,74.72 6.66,74.63 6.64,74.52 6.63,74.41 6.66,74.31 6.68,74.21 6.74,74.12 6.79,74.03 6.87,73.96 6.95,73.89 7.05,73.85 7.15,73.81 7.26,73.81 7.36,73.80 7.47,73.83 7.57,73.86 7.66,73.92 7.74,73.98 7.81,74.06 7.87,74.15 7.90,74.25 7.94,74.35 7.94,74.46 7.94,74.56 7.90,74.66 7.87,74.76 7.80,74.85 7.74,74.93 7.65,74.99 7.56,75.05 7.46,75.08 7.36,75.11 7.25,75.10 7.14,75.09 7.05,75.05 6.95,75.01 6.87,74.95 6.79,74.88 6.73,74.78 6.68,74.69 6.66,74.59 6.63,74.49 6.65,74.38 6.66,74.27 6.70,74.18 6.75,74.08 6.82,74.01 6.90,73.93 6.99,73.88 7.08,73.83 7.08,73.83 7.08,73.83 8.19,72.89 9.30,71.94 10.60,71.28 11.90,70.62 13.48,69.28 15.06,67.94 16.44,66.70 17.82,65.46 18.60,64.15 19.39,62.84 19.67,61.18 19.95,59.51 19.74,58.27 19.53,57.03 19.14,55.80 18.74,54.56 18.00,53.85 17.26,53.14 15.93,52.44 14.61,51.74 13.51,51.10 12.42,50.45 11.18,50.10 9.94,49.74 8.75,49.30 7.56,48.85 6.85,48.37 6.15,47.88 5.73,47.46 5.31,47.04 5.02,46.50 4.73,45.96 4.73,45.03 4.74,44.10 5.09,43.52 5.44,42.94 5.89,42.54 6.34,42.15 6.89,41.74 7.43,41.32 8.01,40.96 8.60,40.60 9.36,39.99 10.12,39.37 10.69,39.05 11.26,38.74 10.78,38.33 10.29,37.92 9.89,37.55 9.48,37.18 8.96,36.74 8.44,36.29 7.52,35.58 6.60,34.86 5.97,34.23 5.34,33.61 4.75,33.04 4.17,32.47 3.49,31.77 2.82,31.06 2.49,29.97 2.17,28.88 2.53,27.85 2.89,26.82 3.41,26.25 3.92,25.69 4.64,24.87 5.36,24.05 6.26,22.90 7.16,21.75 8.19,20.63 9.21,19.51 9.99,18.10 10.77,16.68 10.99,15.87 11.21,15.05 10.88,13.95 10.56,12.85 9.62,11.59 8.68,10.32 7.61,9.36 6.55,8.40 5.29,7.40 4.03,6.40 2.85,5.37 1.67,4.35 0.81,3.39 -0.04,2.43 -0.41,1.51 -0.78,0.58 -0.84,0.48 -0.90,0.38 -0.93,0.27 -0.96,0.15 -0.97,0.03 -0.97,-0.07 -0.95,-0.19 -0.93,-0.31 -0.87,-0.41 -0.82,-0.52 -0.75,-0.61 -0.67,-0.70 -0.58,-0.77 -0.48,-0.85 -0.38,-0.89 -0.27,-0.94 -0.15,-0.96 -0.03,-0.98 0.07,-0.97 0.19,-0.96 0.30,-0.92 0.42,-0.88 0.52,-0.82 0.62,-0.75 0.70,-0.67 0.78,-0.58 0.78,-0.58 L 0.78,-0.58 Z"></path></g><g transform="translate(421.3333740234375 126.83334350585938) rotate(0 -10.000030517578125 34)" stroke="none"><path fill="#000000" d="M -0.20,0.83 Q -0.20,0.83 -1.04,0.97 -1.87,1.10 -2.71,1.25 -3.55,1.39 -5.04,1.81 -6.53,2.23 -8.42,3.14 -10.31,4.05 -12.31,5.04 -14.30,6.02 -16.19,7.35 -18.08,8.67 -19.17,9.89 -20.25,11.11 -20.63,12.03 -21.02,12.95 -20.98,13.49 -20.95,14.03 -20.47,15.02 -19.98,16.00 -18.97,16.88 -17.96,17.76 -15.88,18.89 -13.81,20.02 -11.62,20.89 -9.43,21.75 -7.43,22.75 -5.44,23.74 -4.48,24.12 -3.53,24.50 -2.64,25.15 -1.75,25.81 -1.58,27.11 -1.41,28.42 -2.13,29.24 -2.85,30.07 -4.29,30.57 -5.73,31.08 -7.80,31.63 -9.87,32.19 -12.01,32.98 -14.14,33.77 -15.65,34.30 -17.17,34.84 -17.82,35.26 -18.46,35.69 -18.67,35.73 -18.87,35.78 -19.08,35.77 -19.29,35.77 -19.50,35.71 -19.70,35.66 -19.88,35.56 -20.07,35.45 -20.22,35.31 -20.38,35.17 -20.49,34.99 -20.61,34.82 -20.68,34.62 -20.75,34.42 -20.77,34.21 -20.79,34.00 -20.76,33.79 -20.73,33.59 -20.65,33.39 -20.57,33.20 -20.44,33.03 -20.32,32.86 -20.16,32.72 -20.00,32.59 -19.81,32.49 -19.62,32.40 -18.27,33.16 -16.91,33.92 -16.30,33.93 -15.70,33.95 -13.91,34.02 -12.12,34.10 -9.90,34.34 -7.68,34.57 -6.28,34.88 -4.88,35.19 -4.13,35.32 -3.39,35.46 -2.54,36.32 -1.70,37.19 -1.69,38.01 -1.68,38.82 -2.34,39.54 -3.00,40.27 -3.59,40.53 -4.18,40.79 -4.93,41.05 -5.68,41.30 -6.67,41.76 -7.66,42.22 -9.12,43.30 -10.57,44.38 -11.96,45.59 -13.34,46.80 -14.42,48.18 -15.50,49.56 -16.28,51.18 -17.07,52.80 -17.37,54.66 -17.67,56.51 -17.25,58.84 -16.83,61.17 -16.43,62.37 -16.03,63.57 -14.01,64.41 -12.00,65.26 -8.78,65.68 -5.55,66.11 -1.91,66.99 1.73,67.87 1.83,67.90 1.93,67.92 2.02,67.98 2.11,68.04 2.18,68.12 2.25,68.20 2.28,68.30 2.32,68.40 2.32,68.51 2.32,68.61 2.29,68.72 2.26,68.82 2.20,68.90 2.14,68.99 2.05,69.05 1.97,69.11 1.86,69.14 1.76,69.18 1.66,69.17 1.55,69.17 1.45,69.13 1.35,69.10 1.27,69.03 1.18,68.96 1.13,68.87 1.07,68.78 1.05,68.68 1.02,68.58 1.03,68.47 1.04,68.36 1.08,68.27 1.12,68.17 1.19,68.09 1.26,68.01 1.36,67.96 1.45,67.91 1.55,67.89 1.66,67.87 1.76,67.88 1.87,67.90 1.96,67.94 2.06,67.99 2.13,68.07 2.21,68.14 2.26,68.24 2.30,68.33 2.32,68.44 2.33,68.54 2.31,68.65 2.29,68.75 2.24,68.84 2.19,68.94 2.11,69.01 2.03,69.08 1.93,69.12 1.83,69.16 1.73,69.17 1.62,69.18 1.62,69.18 1.62,69.18 -2.23,69.44 -6.08,69.70 -9.84,69.09 -13.60,68.49 -16.27,66.91 -18.95,65.33 -19.67,63.54 -20.38,61.75 -20.79,58.84 -21.20,55.94 -20.75,53.59 -20.29,51.24 -19.30,49.29 -18.30,47.34 -17.00,45.73 -15.69,44.12 -14.18,42.81 -12.66,41.50 -10.90,40.25 -9.14,38.99 -7.98,38.47 -6.82,37.95 -5.82,37.79 -4.81,37.63 -4.48,38.23 -4.14,38.83 -4.89,38.72 -5.64,38.61 -6.85,38.33 -8.06,38.05 -10.18,37.82 -12.30,37.59 -14.41,37.46 -16.51,37.34 -17.49,36.51 -18.46,35.69 -18.67,35.73 -18.87,35.78 -19.08,35.77 -19.29,35.77 -19.50,35.71 -19.70,35.66 -19.88,35.56 -20.07,35.45 -20.22,35.31 -20.37,35.17 -20.49,34.99 -20.61,34.82 -20.68,34.62 -20.75,34.42 -20.77,34.21 -20.79,34.00 -20.76,33.79 -20.73,33.59 -20.65,33.39 -20.57,33.20 -20.44,33.03 -20.32,32.86 -20.16,32.72 -20.00,32.59 -19.81,32.49 -19.62,32.40 -18.99,31.98 -18.35,31.57 -16.84,31.04 -15.32,30.51 -13.04,29.69 -10.75,28.87 -8.75,28.34 -6.74,27.82 -5.77,27.71 -4.79,27.61 -5.86,27.17 -6.93,26.74 -8.80,25.80 -10.67,24.86 -13.06,23.90 -15.45,22.94 -17.84,21.57 -20.24,20.20 -21.62,18.80 -23.00,17.39 -23.64,15.72 -24.28,14.05 -24.18,12.85 -24.09,11.65 -23.42,10.27 -22.75,8.89 -21.37,7.41 -19.98,5.93 -17.86,4.50 -15.74,3.07 -13.71,2.10 -11.68,1.13 -9.52,0.14 -7.36,-0.83 -5.61,-1.27 -3.87,-1.72 -2.53,-1.79 -1.19,-1.87 -0.49,-1.35 0.20,-0.83 0.30,-0.79 0.40,-0.76 0.48,-0.70 0.57,-0.64 0.64,-0.56 0.71,-0.48 0.75,-0.39 0.80,-0.30 0.83,-0.20 0.85,-0.10 0.85,0.00 0.85,0.10 0.83,0.20 0.80,0.30 0.75,0.40 0.70,0.49 0.63,0.57 0.57,0.64 0.48,0.70 0.39,0.76 0.30,0.80 0.20,0.83 0.10,0.85 -0.00,0.86 -0.10,0.85 -0.20,0.83 -0.20,0.83 L -0.20,0.83 Z"></path></g><g transform="translate(435.3333740234375 146.83334350585938) rotate(0 7.33331298828125 12)" stroke="none"><path fill="#000000" d="M -0.90,-0.60 Q -0.90,-0.60 -0.28,-1.89 0.33,-3.19 1.51,-3.91 2.69,-4.63 4.19,-4.72 5.70,-4.80 7.19,-4.03 8.68,-3.27 9.22,-2.05 9.76,-0.84 9.32,1.04 8.88,2.93 8.06,4.49 7.24,6.05 6.75,6.86 6.27,7.67 6.80,7.81 7.34,7.96 8.07,8.59 8.79,9.22 10.01,10.21 11.23,11.20 12.65,12.91 14.07,14.62 14.76,16.32 15.45,18.02 15.36,19.76 15.28,21.51 14.59,23.15 13.89,24.78 13.11,25.76 12.32,26.73 10.84,27.65 9.37,28.56 7.12,28.97 4.87,29.37 2.97,28.59 1.07,27.81 0.43,25.72 -0.20,23.63 -0.24,23.53 -0.27,23.44 -0.28,23.33 -0.28,23.22 -0.25,23.12 -0.22,23.02 -0.15,22.93 -0.09,22.85 -0.01,22.79 0.07,22.72 0.17,22.69 0.27,22.66 0.38,22.67 0.49,22.67 0.59,22.71 0.69,22.74 0.77,22.81 0.85,22.88 0.91,22.97 0.96,23.06 0.99,23.16 1.02,23.26 1.01,23.37 1.00,23.47 0.95,23.57 0.91,23.67 0.84,23.75 0.77,23.83 0.68,23.88 0.58,23.93 0.48,23.95 0.38,23.97 0.27,23.96 0.17,23.94 0.07,23.89 -0.01,23.85 -0.09,23.77 -0.16,23.69 -0.21,23.60 -0.26,23.50 -0.27,23.40 -0.29,23.29 -0.27,23.19 -0.25,23.08 -0.19,22.99 -0.14,22.90 -0.06,22.83 0.01,22.76 0.11,22.72 0.20,22.68 0.31,22.67 0.42,22.66 0.52,22.69 0.62,22.71 0.71,22.77 0.80,22.83 0.87,22.91 0.93,22.99 0.93,22.99 0.93,22.99 1.95,23.86 2.96,24.73 3.80,25.23 4.65,25.73 6.13,25.53 7.61,25.33 8.61,24.83 9.61,24.32 10.13,23.77 10.65,23.21 11.24,22.14 11.82,21.07 12.04,20.06 12.25,19.05 11.84,17.88 11.43,16.70 10.27,15.25 9.10,13.80 7.84,12.77 6.59,11.74 6.00,11.22 5.42,10.70 4.52,9.89 3.63,9.08 3.45,7.92 3.26,6.76 3.81,5.61 4.36,4.46 5.09,3.21 5.82,1.97 6.32,0.44 6.83,-1.07 6.19,-1.44 5.56,-1.81 4.77,-1.86 3.97,-1.92 3.35,-1.66 2.73,-1.40 1.81,-0.40 0.90,0.60 0.81,0.70 0.73,0.80 0.62,0.87 0.51,0.95 0.39,1.00 0.27,1.04 0.14,1.06 0.01,1.08 -0.11,1.07 -0.24,1.05 -0.36,1.01 -0.48,0.96 -0.59,0.89 -0.70,0.82 -0.79,0.72 -0.88,0.63 -0.94,0.51 -1.00,0.40 -1.04,0.27 -1.07,0.14 -1.07,0.01 -1.07,-0.11 -1.04,-0.24 -1.02,-0.36 -0.96,-0.48 -0.90,-0.60 -0.90,-0.60 L -0.90,-0.60 Z"></path></g><g transform="translate(467.3333740234375 163.5) rotate(0 -1.000030517578125 6.333343505859375)" stroke="none"><path fill="#000000" d="M 0.90,-0.15 Q 0.90,-0.15 1.46,0.94 2.01,2.04 1.93,3.50 1.85,4.96 1.40,6.62 0.95,8.27 -0.77,10.42 -2.50,12.56 -2.57,12.64 -2.64,12.72 -2.73,12.78 -2.82,12.83 -2.92,12.85 -3.03,12.87 -3.13,12.86 -3.24,12.85 -3.33,12.80 -3.43,12.76 -3.51,12.69 -3.58,12.61 -3.63,12.52 -3.68,12.42 -3.70,12.32 -3.71,12.21 -3.70,12.11 -3.68,12.00 -3.63,11.91 -3.58,11.82 -3.50,11.74 -3.42,11.67 -3.32,11.63 -3.23,11.58 -3.12,11.57 -3.02,11.56 -2.91,11.59 -2.81,11.61 -2.72,11.67 -2.63,11.72 -2.56,11.80 -2.49,11.88 -2.45,11.98 -2.41,12.08 -2.41,12.19 -2.40,12.29 -2.43,12.40 -2.46,12.50 -2.52,12.59 -2.58,12.67 -2.67,12.74 -2.75,12.80 -2.85,12.83 -2.96,12.87 -3.06,12.87 -3.17,12.87 -3.27,12.83 -3.37,12.80 -3.45,12.73 -3.54,12.67 -3.60,12.58 -3.66,12.49 -3.68,12.39 -3.71,12.28 -3.70,12.18 -3.70,12.07 -3.66,11.97 -3.62,11.88 -3.62,11.88 -3.62,11.88 -2.98,9.59 -2.35,7.31 -1.94,5.98 -1.53,4.65 -1.39,3.60 -1.25,2.55 -1.08,1.35 -0.90,0.15 -0.91,0.04 -0.91,-0.07 -0.89,-0.17 -0.87,-0.28 -0.82,-0.38 -0.78,-0.48 -0.71,-0.57 -0.64,-0.66 -0.55,-0.72 -0.46,-0.79 -0.36,-0.84 -0.25,-0.88 -0.15,-0.90 -0.04,-0.92 0.06,-0.91 0.18,-0.90 0.28,-0.86 0.39,-0.83 0.48,-0.77 0.57,-0.71 0.65,-0.63 0.73,-0.55 0.79,-0.46 0.84,-0.36 0.87,-0.25 0.90,-0.15 0.90,-0.15 L 0.90,-0.15 Z"></path></g><g transform="translate(480.66668701171875 146.83334350585938) rotate(0 6 13)" stroke="none"><path fill="#000000" d="M 0.27,1.11 Q 0.27,1.11 -0.40,1.46 -1.09,1.81 -1.35,2.31 -1.62,2.82 -1.21,3.65 -0.80,4.49 -0.20,4.83 0.39,5.18 1.33,5.51 2.28,5.85 3.62,6.19 4.96,6.54 6.43,7.11 7.90,7.68 9.37,8.54 10.84,9.40 12.29,10.59 13.75,11.78 14.68,13.22 15.61,14.66 16.05,16.20 16.49,17.74 16.27,19.43 16.04,21.13 14.82,22.83 13.60,24.53 11.90,25.51 10.21,26.49 8.26,26.71 6.31,26.92 4.12,25.31 1.93,23.70 1.85,23.63 1.76,23.57 1.70,23.49 1.64,23.40 1.61,23.30 1.58,23.20 1.58,23.09 1.58,22.98 1.62,22.88 1.65,22.78 1.72,22.70 1.79,22.62 1.88,22.56 1.97,22.51 2.07,22.48 2.17,22.45 2.28,22.46 2.39,22.47 2.48,22.51 2.58,22.56 2.66,22.63 2.74,22.70 2.79,22.79 2.84,22.88 2.86,22.99 2.88,23.09 2.87,23.20 2.85,23.30 2.81,23.40 2.76,23.49 2.68,23.57 2.61,23.64 2.51,23.69 2.42,23.74 2.31,23.75 2.21,23.77 2.10,23.74 2.00,23.72 1.91,23.67 1.81,23.62 1.74,23.54 1.67,23.46 1.63,23.36 1.59,23.27 1.58,23.16 1.57,23.05 1.60,22.95 1.62,22.85 1.68,22.76 1.74,22.67 1.82,22.60 1.90,22.54 2.00,22.50 2.10,22.46 2.21,22.46 2.32,22.46 2.42,22.49 2.52,22.52 2.52,22.52 2.52,22.52 4.40,22.94 6.29,23.35 7.45,23.31 8.61,23.26 9.74,22.73 10.87,22.20 11.77,21.25 12.67,20.30 12.94,19.37 13.21,18.43 13.00,17.38 12.79,16.34 12.20,15.30 11.61,14.27 10.38,13.24 9.16,12.21 7.93,11.46 6.69,10.71 5.41,10.19 4.14,9.67 2.62,9.26 1.10,8.86 -0.16,8.33 -1.43,7.80 -2.44,7.00 -3.44,6.20 -4.07,4.90 -4.71,3.59 -4.55,2.47 -4.39,1.36 -4.00,0.76 -3.62,0.17 -2.80,-0.43 -1.97,-1.04 -1.12,-1.08 -0.27,-1.11 -0.14,-1.13 -0.00,-1.15 0.13,-1.13 0.27,-1.11 0.40,-1.06 0.53,-1.02 0.64,-0.94 0.75,-0.86 0.85,-0.75 0.94,-0.65 1.00,-0.53 1.07,-0.41 1.10,-0.27 1.14,-0.14 1.14,-0.00 1.14,0.13 1.10,0.26 1.07,0.40 1.01,0.52 0.94,0.65 0.85,0.75 0.76,0.85 0.65,0.93 0.53,1.01 0.40,1.06 0.27,1.11 0.27,1.11 L 0.27,1.11 Z"></path></g><g transform="translate(483.3333740234375 145.5) rotate(0 5.666656494140625 -2.3333282470703125)" stroke="none"><path fill="#000000" d="M -0.48,-0.84 Q -0.48,-0.84 0.74,-1.82 1.96,-2.80 3.97,-3.57 5.98,-4.34 8.11,-4.66 10.24,-4.97 10.34,-4.99 10.45,-5.01 10.55,-4.99 10.66,-4.98 10.75,-4.93 10.85,-4.88 10.92,-4.81 10.99,-4.73 11.04,-4.63 11.09,-4.54 11.10,-4.43 11.11,-4.33 11.09,-4.22 11.07,-4.12 11.02,-4.03 10.96,-3.94 10.88,-3.86 10.80,-3.79 10.71,-3.75 10.61,-3.71 10.50,-3.71 10.40,-3.70 10.29,-3.72 10.19,-3.75 10.10,-3.81 10.01,-3.87 9.95,-3.95 9.88,-4.03 9.85,-4.14 9.81,-4.24 9.81,-4.34 9.81,-4.45 9.84,-4.55 9.87,-4.65 9.93,-4.74 10.00,-4.82 10.08,-4.88 10.17,-4.94 10.27,-4.97 10.37,-5.00 10.48,-5.00 10.59,-5.00 10.69,-4.96 10.79,-4.92 10.87,-4.85 10.95,-4.79 11.01,-4.69 11.06,-4.60 11.09,-4.50 11.11,-4.40 11.10,-4.29 11.09,-4.19 11.05,-4.09 11.01,-3.99 10.93,-3.91 10.86,-3.84 10.77,-3.78 10.68,-3.73 10.68,-3.73 10.68,-3.73 8.85,-2.64 7.02,-1.55 5.21,-0.90 3.40,-0.26 1.94,0.28 0.48,0.84 0.37,0.88 0.26,0.93 0.15,0.95 0.03,0.96 -0.08,0.95 -0.19,0.95 -0.30,0.91 -0.41,0.87 -0.51,0.81 -0.61,0.74 -0.69,0.66 -0.77,0.57 -0.83,0.47 -0.89,0.37 -0.92,0.26 -0.95,0.15 -0.96,0.03 -0.96,-0.08 -0.94,-0.19 -0.91,-0.31 -0.86,-0.41 -0.81,-0.52 -0.74,-0.61 -0.66,-0.70 -0.57,-0.77 -0.48,-0.84 -0.48,-0.84 L -0.48,-0.84 Z"></path></g><g transform="translate(505.3333740234375 128.16668701171875) rotate(0 5.33331298828125 28.33331298828125)" stroke="none"><path fill="#000000" d="M 0,-1.04 Q 0,-1.04 1.15,-1.22 2.31,-1.39 3.76,-0.98 5.22,-0.57 6.59,-0.00 7.96,0.56 9.25,1.46 10.53,2.37 11.43,4.00 12.33,5.63 12.12,7.35 11.91,9.06 11.14,10.44 10.37,11.81 9.48,13.10 8.59,14.39 7.64,15.71 6.69,17.02 5.88,18.00 5.07,18.97 4.86,19.55 4.64,20.14 4.55,20.69 4.46,21.25 4.41,21.81 4.35,22.37 4.61,22.84 4.88,23.31 5.72,23.69 6.57,24.06 7.24,24.72 7.91,25.37 7.97,26.37 8.04,27.36 7.65,27.91 7.27,28.45 6.71,28.78 6.15,29.10 5.57,29.43 4.98,29.75 5.03,29.15 5.08,28.55 5.79,29.09 6.50,29.63 7.48,30.53 8.47,31.44 9.55,32.89 10.63,34.33 11.65,35.90 12.67,37.46 13.54,39.39 14.41,41.33 14.63,43.73 14.85,46.13 14.31,48.28 13.76,50.43 12.44,52.28 11.12,54.12 9.07,55.56 7.03,57.00 5.03,57.64 3.04,58.28 0.35,57.51 -2.32,56.75 -2.43,56.72 -2.53,56.70 -2.62,56.64 -2.71,56.58 -2.77,56.50 -2.84,56.41 -2.87,56.31 -2.91,56.21 -2.91,56.10 -2.91,56.00 -2.88,55.90 -2.85,55.80 -2.78,55.71 -2.72,55.63 -2.63,55.56 -2.55,55.50 -2.44,55.47 -2.34,55.44 -2.24,55.45 -2.13,55.45 -2.03,55.49 -1.93,55.53 -1.85,55.60 -1.77,55.66 -1.71,55.75 -1.65,55.84 -1.63,55.95 -1.61,56.05 -1.62,56.16 -1.63,56.26 -1.67,56.36 -1.71,56.46 -1.78,56.53 -1.86,56.61 -1.95,56.66 -2.04,56.71 -2.15,56.73 -2.25,56.75 -2.36,56.74 -2.46,56.72 -2.56,56.67 -2.65,56.62 -2.73,56.55 -2.80,56.47 -2.85,56.38 -2.89,56.28 -2.90,56.17 -2.92,56.07 -2.90,55.97 -2.87,55.86 -2.82,55.77 -2.77,55.68 -2.69,55.61 -2.61,55.54 -2.51,55.50 -2.41,55.46 -2.31,55.45 -2.20,55.44 -2.20,55.44 -2.20,55.44 -0.04,55.13 2.10,54.83 3.59,54.42 5.08,54.01 6.71,52.97 8.35,51.94 9.38,50.68 10.41,49.41 10.88,47.86 11.36,46.31 11.28,44.50 11.20,42.68 10.47,41.02 9.73,39.36 8.77,37.88 7.81,36.40 6.95,35.20 6.09,34.00 5.20,33.17 4.31,32.35 3.33,31.53 2.34,30.71 1.99,30.05 1.65,29.38 1.81,28.74 1.97,28.10 2.68,27.40 3.40,26.69 4.34,26.24 5.29,25.79 5.12,26.34 4.95,26.90 4.28,26.51 3.61,26.13 2.83,25.46 2.06,24.78 1.60,23.52 1.15,22.26 1.22,21.44 1.28,20.62 1.47,19.75 1.67,18.88 2.12,17.90 2.58,16.93 3.34,16.03 4.09,15.13 5.04,13.85 5.98,12.57 6.83,11.36 7.69,10.16 8.31,9.26 8.94,8.36 9.31,7.44 9.67,6.51 9.23,5.54 8.79,4.57 7.82,3.86 6.85,3.15 5.62,2.63 4.39,2.11 3.34,1.75 2.28,1.39 1.14,1.22 0,1.04 -0.12,1.03 -0.25,1.01 -0.36,0.97 -0.48,0.92 -0.59,0.85 -0.69,0.78 -0.77,0.69 -0.86,0.59 -0.92,0.48 -0.98,0.37 -1.01,0.24 -1.04,0.12 -1.04,-0.00 -1.04,-0.12 -1.01,-0.24 -0.98,-0.37 -0.92,-0.48 -0.86,-0.59 -0.77,-0.69 -0.69,-0.78 -0.59,-0.85 -0.48,-0.92 -0.36,-0.97 -0.25,-1.01 -0.12,-1.03 0.00,-1.04 0.00,-1.04 L 0,-1.04 Z"></path></g><g transform="translate(228.66668701171875 250.16668701171875) rotate(0 -5 32.33331298828125)" stroke="none"><path fill="#000000" d="M -0.19,0.77 Q -0.19,0.77 -0.88,0.96 -1.58,1.16 -3.94,2.76 -6.30,4.37 -8.14,5.94 -9.98,7.51 -11.07,9.02 -12.15,10.54 -12.95,12.36 -13.76,14.19 -13.53,15.21 -13.29,16.23 -12.80,16.87 -12.31,17.51 -11.36,17.87 -10.40,18.23 -8.96,18.86 -7.51,19.48 -6.02,19.91 -4.53,20.34 -3.10,20.72 -1.68,21.11 -0.33,21.73 1.02,22.35 1.85,23.78 2.68,25.21 2.33,26.24 1.98,27.27 0.84,28.18 -0.30,29.10 -2.08,30.18 -3.87,31.27 -5.40,32.11 -6.93,32.96 -7.87,33.64 -8.80,34.32 -9.52,34.69 -10.24,35.05 -10.42,34.35 -10.59,33.65 -10.07,33.53 -9.55,33.41 -8.36,33.45 -7.17,33.50 -5.87,33.52 -4.58,33.55 -2.96,33.76 -1.34,33.96 -0.18,34.27 0.96,34.58 1.83,35.36 2.70,36.13 2.77,36.91 2.84,37.69 2.04,38.55 1.25,39.42 0.14,40.05 -0.96,40.69 -2.62,42.01 -4.27,43.33 -5.47,44.76 -6.67,46.19 -7.50,47.84 -8.34,49.48 -9.06,51.64 -9.79,53.80 -9.72,55.34 -9.66,56.89 -8.45,58.23 -7.25,59.57 -5.54,60.70 -3.83,61.83 -1.77,62.26 0.29,62.69 2.90,63.61 5.51,64.53 5.61,64.56 5.72,64.59 5.80,64.65 5.89,64.71 5.95,64.79 6.02,64.88 6.05,64.98 6.08,65.08 6.08,65.19 6.08,65.29 6.04,65.39 6.01,65.49 5.94,65.58 5.88,65.66 5.79,65.72 5.70,65.78 5.60,65.80 5.49,65.83 5.39,65.82 5.28,65.82 5.18,65.78 5.09,65.73 5.01,65.67 4.93,65.60 4.87,65.50 4.82,65.41 4.80,65.31 4.78,65.20 4.79,65.10 4.80,64.99 4.85,64.90 4.89,64.80 4.97,64.72 5.04,64.65 5.14,64.60 5.23,64.55 5.34,64.54 5.44,64.52 5.55,64.54 5.65,64.56 5.74,64.61 5.84,64.66 5.91,64.74 5.98,64.82 6.02,64.91 6.07,65.01 6.08,65.12 6.09,65.22 6.06,65.33 6.04,65.43 5.98,65.52 5.93,65.61 5.84,65.68 5.76,65.74 5.66,65.78 5.56,65.82 5.46,65.82 5.35,65.83 5.35,65.83 5.35,65.83 2.39,66.06 -0.57,66.29 -3.20,65.59 -5.84,64.89 -7.97,63.36 -10.11,61.82 -11.62,59.60 -13.14,57.38 -13.18,55.05 -13.21,52.71 -12.37,50.27 -11.52,47.82 -10.45,45.86 -9.39,43.89 -7.93,42.22 -6.48,40.55 -4.59,39.08 -2.70,37.61 -1.43,37.10 -0.16,36.58 -0.08,37.25 -0.01,37.92 -0.91,37.68 -1.81,37.43 -3.23,37.23 -4.65,37.03 -5.99,37.01 -7.33,36.98 -8.74,36.91 -10.14,36.84 -11.22,36.44 -12.30,36.03 -12.69,34.85 -13.08,33.67 -12.49,32.84 -11.90,32.02 -11.36,31.75 -10.83,31.49 -9.72,30.71 -8.61,29.92 -7.14,29.11 -5.66,28.30 -3.99,27.29 -2.31,26.28 -1.42,25.82 -0.53,25.35 -1.55,24.88 -2.58,24.40 -4.03,24.00 -5.49,23.61 -7.18,23.10 -8.86,22.60 -10.39,21.93 -11.91,21.27 -13.43,20.40 -14.96,19.53 -15.78,18.17 -16.60,16.82 -16.75,14.95 -16.90,13.08 -15.90,10.81 -14.91,8.54 -13.55,6.73 -12.20,4.92 -10.11,3.17 -8.02,1.43 -4.75,-0.24 -1.48,-1.92 -0.64,-1.35 0.19,-0.77 0.28,-0.73 0.37,-0.70 0.45,-0.65 0.53,-0.59 0.59,-0.52 0.65,-0.45 0.70,-0.36 0.74,-0.28 0.76,-0.18 0.79,-0.09 0.79,0.00 0.79,0.09 0.76,0.19 0.74,0.28 0.70,0.37 0.65,0.45 0.59,0.52 0.52,0.59 0.44,0.65 0.36,0.70 0.27,0.74 0.18,0.77 0.09,0.78 -0.00,0.79 -0.09,0.78 -0.19,0.77 -0.19,0.77 L -0.19,0.77 Z"></path></g><g transform="translate(246.66668701171875 260.16668701171875) rotate(0 11 12.33331298828125)" stroke="none"><path fill="#000000" d="M 0.90,0.22 Q 0.90,0.22 0.92,1.04 0.93,1.86 0.70,3.30 0.47,4.74 0.39,6.62 0.31,8.51 0.08,10.54 -0.13,12.57 -0.03,14.43 0.06,16.29 0.81,18.22 1.56,20.14 2.82,21.14 4.08,22.15 5.52,22.34 6.97,22.54 9.93,21.92 12.89,21.29 15.32,20.49 17.75,19.69 20.22,19.11 22.69,18.53 22.79,18.50 22.90,18.47 23.00,18.48 23.11,18.49 23.21,18.53 23.30,18.57 23.38,18.64 23.46,18.71 23.52,18.80 23.57,18.89 23.59,18.99 23.61,19.10 23.60,19.20 23.59,19.31 23.54,19.41 23.50,19.50 23.42,19.58 23.35,19.65 23.25,19.70 23.16,19.75 23.05,19.77 22.95,19.78 22.84,19.76 22.74,19.74 22.65,19.69 22.55,19.64 22.48,19.56 22.41,19.49 22.37,19.39 22.32,19.29 22.31,19.19 22.30,19.08 22.33,18.98 22.35,18.87 22.41,18.78 22.46,18.69 22.54,18.63 22.63,18.56 22.73,18.52 22.83,18.48 22.93,18.48 23.04,18.47 23.14,18.50 23.24,18.53 23.33,18.59 23.42,18.65 23.48,18.74 23.54,18.83 23.57,18.93 23.61,19.03 23.61,19.13 23.60,19.24 23.57,19.34 23.53,19.44 23.47,19.52 23.40,19.61 23.31,19.67 23.23,19.72 23.23,19.72 23.23,19.72 20.99,21.25 18.76,22.77 16.13,23.63 13.49,24.50 9.95,25.10 6.41,25.70 4.29,25.16 2.17,24.63 0.44,23.00 -1.27,21.38 -2.13,18.92 -2.99,16.47 -3.07,14.34 -3.14,12.21 -2.89,10.27 -2.64,8.33 -2.48,6.28 -2.33,4.22 -2.01,2.71 -1.70,1.20 -1.30,0.48 -0.90,-0.22 -0.86,-0.33 -0.82,-0.43 -0.76,-0.53 -0.69,-0.62 -0.61,-0.69 -0.52,-0.77 -0.42,-0.82 -0.32,-0.87 -0.21,-0.90 -0.10,-0.93 0.00,-0.93 0.11,-0.93 0.22,-0.90 0.33,-0.87 0.43,-0.82 0.53,-0.76 0.61,-0.69 0.70,-0.61 0.76,-0.52 0.83,-0.43 0.87,-0.32 0.91,-0.22 0.92,-0.10 0.93,0.00 0.92,0.11 0.90,0.22 0.90,0.22 L 0.90,0.22 Z"></path></g><g transform="translate(260.66668701171875 269.5) rotate(0 1 12.333343505859375)" stroke="none"><path fill="#000000" d="M 0.83,0.41 Q 0.83,0.41 0.71,1.29 0.58,2.17 0.53,3.23 0.48,4.29 0.65,6.62 0.82,8.94 1.07,11.28 1.32,13.62 1.81,16.09 2.29,18.56 2.86,20.95 3.43,23.34 3.46,23.44 3.49,23.54 3.48,23.65 3.48,23.76 3.44,23.86 3.40,23.95 3.33,24.04 3.27,24.12 3.18,24.17 3.08,24.23 2.98,24.25 2.88,24.28 2.77,24.26 2.67,24.25 2.57,24.21 2.47,24.17 2.39,24.09 2.32,24.02 2.27,23.93 2.22,23.83 2.20,23.73 2.18,23.62 2.20,23.52 2.21,23.41 2.26,23.32 2.31,23.23 2.39,23.15 2.46,23.08 2.56,23.03 2.66,22.99 2.76,22.98 2.87,22.96 2.97,22.99 3.08,23.01 3.17,23.06 3.26,23.12 3.33,23.20 3.40,23.28 3.44,23.38 3.48,23.47 3.48,23.58 3.49,23.69 3.46,23.79 3.43,23.89 3.38,23.98 3.32,24.07 3.23,24.13 3.15,24.20 3.05,24.23 2.95,24.27 2.84,24.27 2.74,24.27 2.63,24.24 2.53,24.20 2.45,24.14 2.36,24.07 2.30,23.99 2.24,23.90 2.24,23.90 2.24,23.90 0.59,21.56 -1.06,19.23 -1.55,16.60 -2.05,13.97 -2.28,11.54 -2.52,9.10 -2.59,6.50 -2.66,3.90 -2.38,2.39 -2.11,0.89 -1.47,0.23 -0.83,-0.41 -0.77,-0.51 -0.71,-0.60 -0.63,-0.68 -0.54,-0.76 -0.44,-0.81 -0.35,-0.87 -0.24,-0.90 -0.13,-0.92 -0.01,-0.93 0.09,-0.93 0.20,-0.90 0.31,-0.88 0.41,-0.83 0.51,-0.78 0.60,-0.70 0.69,-0.63 0.75,-0.54 0.82,-0.45 0.86,-0.34 0.90,-0.24 0.92,-0.13 0.93,-0.01 0.92,0.09 0.91,0.20 0.87,0.31 0.83,0.42 0.83,0.42 L 0.83,0.41 Z"></path></g><g transform="translate(284.66668701171875 279.5) rotate(0 -0.66668701171875 8.66668701171875)" stroke="none"><path fill="#000000" d="M 1.00,-0.50 Q 1.00,-0.50 1.56,0.18 2.13,0.87 2.39,2.19 2.66,3.50 2.37,5.56 2.08,7.61 1.55,9.43 1.02,11.25 0.61,12.74 0.20,14.22 -0.80,15.56 -1.81,16.91 -1.86,17.00 -1.92,17.09 -2.00,17.17 -2.07,17.24 -2.17,17.28 -2.27,17.32 -2.37,17.33 -2.48,17.34 -2.58,17.32 -2.69,17.29 -2.78,17.24 -2.87,17.18 -2.93,17.10 -3.00,17.01 -3.04,16.91 -3.08,16.82 -3.08,16.71 -3.08,16.60 -3.05,16.50 -3.02,16.40 -2.96,16.31 -2.90,16.23 -2.81,16.16 -2.73,16.10 -2.63,16.07 -2.52,16.04 -2.42,16.04 -2.31,16.04 -2.21,16.08 -2.11,16.11 -2.03,16.18 -1.95,16.24 -1.89,16.33 -1.83,16.42 -1.80,16.53 -1.78,16.63 -1.79,16.73 -1.79,16.84 -1.83,16.94 -1.88,17.04 -1.95,17.12 -2.02,17.20 -2.11,17.25 -2.20,17.30 -2.30,17.32 -2.41,17.34 -2.51,17.33 -2.62,17.32 -2.72,17.27 -2.81,17.22 -2.89,17.15 -2.96,17.07 -3.01,16.98 -3.06,16.88 -3.07,16.78 -3.09,16.67 -3.07,16.57 -3.05,16.46 -3.05,16.47 -3.05,16.47 -3.02,14.90 -2.99,13.34 -2.57,11.82 -2.16,10.30 -1.66,8.67 -1.16,7.04 -0.82,5.48 -0.48,3.92 -0.54,3.05 -0.59,2.18 -0.79,1.34 -1.00,0.50 -1.04,0.37 -1.09,0.24 -1.10,0.11 -1.12,-0.02 -1.10,-0.15 -1.08,-0.28 -1.03,-0.41 -0.98,-0.54 -0.90,-0.64 -0.82,-0.75 -0.72,-0.84 -0.61,-0.93 -0.49,-0.99 -0.37,-1.05 -0.24,-1.08 -0.11,-1.11 0.02,-1.11 0.15,-1.10 0.28,-1.07 0.41,-1.03 0.53,-0.97 0.65,-0.90 0.75,-0.81 0.85,-0.72 0.92,-0.61 1.00,-0.50 1.00,-0.50 L 1.00,-0.50 Z"></path></g><g transform="translate(308 258.16668701171875) rotate(0 1.66668701171875 17)" stroke="none"><path fill="#000000" d="M 0.92,0.39 Q 0.92,0.39 0.56,1.82 0.19,3.26 -0.35,5.29 -0.91,7.33 -1.53,9.57 -2.15,11.81 -2.76,15.18 -3.37,18.55 -3.44,21.21 -3.50,23.86 -2.63,26.08 -1.75,28.30 -0.76,29.50 0.22,30.70 1.36,31.09 2.49,31.48 3.78,31.48 5.06,31.49 6.23,31.16 7.41,30.84 7.47,29.97 7.52,29.10 6.65,28.35 5.78,27.60 4.69,27.33 3.60,27.05 1.59,27.28 -0.41,27.50 -2.21,27.93 -4.02,28.37 -5.52,28.62 -7.03,28.87 -7.13,28.91 -7.23,28.94 -7.34,28.95 -7.44,28.95 -7.54,28.92 -7.64,28.89 -7.73,28.82 -7.82,28.76 -7.88,28.68 -7.94,28.59 -7.97,28.49 -8.00,28.39 -8.00,28.28 -8.00,28.18 -7.96,28.08 -7.93,27.98 -7.86,27.89 -7.79,27.81 -7.70,27.75 -7.61,27.70 -7.51,27.67 -7.41,27.64 -7.30,27.65 -7.20,27.66 -7.10,27.70 -7.00,27.74 -6.92,27.81 -6.84,27.89 -6.79,27.98 -6.74,28.07 -6.72,28.17 -6.70,28.28 -6.71,28.38 -6.73,28.49 -6.77,28.58 -6.82,28.68 -6.90,28.76 -6.97,28.83 -7.07,28.88 -7.16,28.93 -7.27,28.94 -7.37,28.95 -7.48,28.93 -7.58,28.91 -7.67,28.86 -7.76,28.81 -7.84,28.73 -7.91,28.65 -7.95,28.55 -7.99,28.46 -8.00,28.35 -8.01,28.25 -7.98,28.14 -7.96,28.04 -7.90,27.95 -7.84,27.86 -7.76,27.79 -7.68,27.73 -7.68,27.73 -7.68,27.73 -6.28,26.33 -4.87,24.93 -2.78,24.44 -0.69,23.95 1.96,23.81 4.61,23.67 6.38,24.34 8.15,25.01 9.48,26.49 10.82,27.97 11.07,29.62 11.32,31.28 9.83,32.73 8.34,34.19 6.64,34.58 4.94,34.96 3.07,34.82 1.21,34.68 -0.55,33.83 -2.31,32.97 -3.63,31.25 -4.96,29.53 -5.92,26.68 -6.89,23.84 -6.78,20.88 -6.67,17.93 -5.96,14.42 -5.25,10.91 -4.57,8.67 -3.89,6.44 -3.19,4.27 -2.49,2.10 -1.71,0.85 -0.92,-0.39 -0.86,-0.49 -0.80,-0.60 -0.71,-0.69 -0.63,-0.77 -0.53,-0.84 -0.42,-0.90 -0.31,-0.94 -0.19,-0.98 -0.07,-0.99 0.04,-1.00 0.16,-0.98 0.28,-0.96 0.39,-0.91 0.50,-0.86 0.60,-0.79 0.69,-0.72 0.77,-0.62 0.84,-0.53 0.90,-0.42 0.95,-0.31 0.97,-0.19 1.00,-0.07 0.99,0.04 0.99,0.16 0.95,0.27 0.92,0.39 0.92,0.39 L 0.92,0.39 Z"></path></g><g transform="translate(327.3333740234375 250.16668701171875) rotate(0 7.666656494140625 31.333328247070312)" stroke="none"><path fill="#000000" d="M -0.16,-1.14 Q -0.16,-1.14 1.15,-1.49 2.47,-1.85 4.35,-1.75 6.22,-1.65 8.22,-1.20 10.22,-0.75 11.95,0.05 13.67,0.86 14.74,1.76 15.81,2.65 16.15,4.06 16.50,5.47 14.59,8.38 12.69,11.30 10.92,13.37 9.16,15.44 7.64,17.09 6.13,18.75 5.18,19.87 4.24,20.99 4.35,22.07 4.46,23.16 4.65,23.70 4.84,24.25 6.32,24.54 7.81,24.82 8.90,25.55 10.00,26.27 10.37,27.62 10.74,28.97 10.12,30.15 9.51,31.32 8.66,32.27 7.82,33.23 7.28,33.80 6.75,34.38 7.39,34.48 8.03,34.59 9.23,35.10 10.44,35.62 11.21,36.08 11.98,36.54 12.69,37.31 13.39,38.08 13.76,39.22 14.13,40.36 14.24,41.42 14.35,42.47 14.56,43.31 14.76,44.15 15.04,45.09 15.32,46.03 15.65,47.46 15.97,48.89 16.48,50.57 16.98,52.26 17.04,53.82 17.11,55.38 16.65,56.87 16.19,58.36 14.62,59.78 13.06,61.21 10.16,62.37 7.26,63.53 4.05,63.88 0.83,64.23 0.73,64.24 0.62,64.26 0.52,64.24 0.41,64.22 0.32,64.16 0.23,64.11 0.16,64.03 0.09,63.95 0.04,63.85 0.00,63.76 0.00,63.65 -0.00,63.54 0.01,63.44 0.04,63.34 0.10,63.25 0.16,63.16 0.24,63.09 0.32,63.03 0.42,62.99 0.52,62.96 0.63,62.95 0.73,62.95 0.84,62.98 0.94,63.01 1.02,63.08 1.11,63.14 1.17,63.23 1.23,63.31 1.26,63.42 1.29,63.52 1.29,63.62 1.29,63.73 1.25,63.83 1.21,63.93 1.14,64.01 1.08,64.09 0.99,64.15 0.90,64.21 0.79,64.23 0.69,64.26 0.58,64.25 0.48,64.24 0.38,64.19 0.28,64.15 0.21,64.08 0.13,64.01 0.08,63.92 0.02,63.82 0.00,63.72 -0.00,63.61 0.00,63.51 0.02,63.40 0.06,63.31 0.11,63.21 0.19,63.14 0.26,63.07 0.36,63.02 0.45,62.97 0.45,62.97 0.45,62.97 3.20,61.53 5.94,60.09 8.37,59.21 10.80,58.32 11.85,57.64 12.90,56.95 13.18,56.17 13.47,55.39 13.47,54.33 13.48,53.27 12.95,51.48 12.42,49.70 12.12,48.37 11.82,47.05 11.52,46.02 11.22,44.99 10.97,43.90 10.72,42.81 10.66,42.02 10.60,41.23 10.33,40.42 10.06,39.61 9.52,39.28 8.98,38.95 7.99,38.51 7.01,38.07 6.33,37.86 5.65,37.66 4.80,37.37 3.94,37.09 3.46,36.40 2.98,35.72 3.02,34.66 3.05,33.60 3.60,32.77 4.14,31.94 4.66,31.39 5.19,30.84 5.93,30.05 6.67,29.25 6.71,28.68 6.75,28.12 4.56,27.25 2.37,26.38 1.89,25.61 1.42,24.85 1.22,23.96 1.02,23.08 1.23,21.17 1.44,19.26 2.55,17.85 3.65,16.45 5.15,14.86 6.65,13.27 8.37,11.32 10.09,9.36 11.87,6.97 13.65,4.59 13.00,4.07 12.35,3.55 10.95,2.85 9.54,2.15 7.78,1.73 6.02,1.32 4.45,1.20 2.88,1.08 1.52,1.11 0.16,1.14 0.02,1.14 -0.11,1.14 -0.25,1.11 -0.38,1.08 -0.51,1.02 -0.63,0.96 -0.74,0.87 -0.84,0.78 -0.92,0.67 -1.00,0.55 -1.06,0.42 -1.11,0.29 -1.13,0.16 -1.15,0.02 -1.13,-0.11 -1.12,-0.25 -1.07,-0.38 -1.03,-0.51 -0.95,-0.63 -0.87,-0.74 -0.77,-0.84 -0.67,-0.93 -0.55,-1.00 -0.43,-1.06 -0.29,-1.10 -0.16,-1.14 -0.16,-1.14 L -0.16,-1.14 Z"></path></g><g transform="translate(689.5999755859375 404.2000274658203) rotate(0 0.00004999999998744897 0.00004999999998744897)" stroke="none"><path fill="#000000" d="M 0.78,-0.78 Q 0.78,-0.78 0.88,-0.63 0.99,-0.49 1.04,-0.32 1.10,-0.14 1.09,0.02 1.09,0.20 1.02,0.37 0.96,0.54 0.85,0.68 0.74,0.82 0.59,0.92 0.43,1.02 0.26,1.06 0.09,1.10 -0.08,1.09 -0.26,1.07 -0.43,1.00 -0.59,0.93 -0.73,0.81 -0.86,0.69 -0.95,0.53 -1.04,0.38 -1.07,0.20 -1.10,0.02 -1.08,-0.14 -1.06,-0.32 -0.98,-0.48 -0.90,-0.64 -0.77,-0.77 -0.64,-0.90 -0.48,-0.98 -0.32,-1.06 -0.14,-1.08 0.03,-1.10 0.20,-1.07 0.38,-1.04 0.53,-0.95 0.69,-0.86 0.81,-0.73 0.93,-0.59 1.00,-0.43 1.07,-0.26 1.09,-0.08 1.10,0.09 1.06,0.26 1.01,0.43 0.92,0.59 0.82,0.74 0.68,0.85 0.54,0.96 0.37,1.02 0.20,1.09 0.02,1.09 -0.15,1.10 -0.32,1.04 -0.49,0.99 -0.63,0.88 -0.78,0.78 -0.78,0.78 -0.78,0.78 -0.86,0.67 -0.95,0.57 -1.00,0.45 -1.06,0.33 -1.08,0.19 -1.10,0.06 -1.10,-0.06 -1.09,-0.20 -1.05,-0.32 -1.01,-0.45 -0.94,-0.57 -0.87,-0.68 -0.77,-0.77 -0.68,-0.87 -0.57,-0.94 -0.45,-1.01 -0.32,-1.05 -0.20,-1.09 -0.06,-1.10 0.06,-1.10 0.19,-1.08 0.33,-1.06 0.45,-1.00 0.57,-0.95 0.67,-0.86 0.78,-0.78 0.78,-0.78 L 0.78,-0.78 Z"></path></g></svg>