<svg version="1.1" xmlns="http://www.w3.org/2000/svg" viewBox="0 0 714.800148828125 410.375" width="714.800148828125" height="410.375">
  <!-- svg-source:excalidraw -->
  
  <defs>
    <style>
      @font-face {
        font-family: "Virgil";
        src: url("https://excalidraw.com/Virgil.woff2");
      }
      @font-face {
        font-family: "Cascadia";
        src: url("https://excalidraw.com/Cascadia.woff2");
      }
    </style>
  </defs>
  <rect x="0" y="0" width="714.800148828125" height="410.375" fill="#fff0"></rect><g stroke-linecap="round" transform="translate(10 10) rotate(0 0.5 0.5)"><path d="M-0.06 -0.03 C0.4 -0.08, 0.7 0.04, 0.91 0.03 M0.05 -0.04 C0.42 -0.05, 0.75 0.03, 0.99 0.01 M1.08 -0.06 C1.09 0.27, 1.05 0.48, 1.09 0.92 M0.97 0.01 C0.95 0.33, 0.98 0.72, 1 0.99 M1.03 1.06 C0.65 1.06, 0.49 0.96, -0.03 0.97 M1 1.02 C0.74 0.96, 0.52 1.04, -0.04 0.98 M-0.04 1.01 C0 0.63, -0.06 0.15, 0.05 -0.03 M-0.04 0.95 C-0.04 0.73, -0.03 0.59, -0.05 -0.02" stroke="transparent" stroke-width="0.5" fill="none"></path></g><g stroke-linecap="round"><g transform="translate(192.01630681208334 52.6095866229478) rotate(0 -0.6681604268727881 149.14803442392034)"><path d="M-0.15 -0.68 C-0.26 49.31, 0.01 249.51, -0.14 299.14 M-1.69 1.58 C-1.9 51.31, -0.47 248.1, -0.46 297.47" stroke="#000" stroke-width="0.5" fill="none"></path></g></g><g stroke-linecap="round"><g transform="translate(130.67998595833777 110.90565547078847) rotate(0 220 0)"><path d="M-0.68 1.2 C72.93 1.28, 367.6 0.68, 440.85 0.32 M1.16 0.78 C74.76 0.49, 367.03 -1.47, 440.35 -1.64" stroke="#000" stroke-width="0.5" fill="none"></path></g></g><g stroke-linecap="round"><g transform="translate(130.67998595833777 230.90565547078847) rotate(0 220 0)"><path d="M1.2 0.85 C74.61 0.76, 367.35 -1.03, 440.32 -1.19 M0.37 0.25 C73.66 0.32, 366.04 -0.42, 439.53 -0.27" stroke="#000" stroke-width="0.5" fill="none"></path></g></g><g stroke-linecap="round"><g transform="translate(391.6836504936218 50.56470302754079) rotate(0 -0.5018322676420155 150.17047622162386)"><path d="M0.85 0.32 C0.6 50, -1.86 249.18, -2.19 299.32 M-0.16 -0.56 C-0.01 49.74, 0.2 250.35, -0.1 300.33" stroke="#000" stroke-width="0.5" fill="none"></path></g></g><g stroke-linecap="round"><g transform="translate(570.6799859583377 110.90565547078847) rotate(0 0 120)"><path d="M0.32 -1.19 C-0.05 38.65, -1.1 199.65, -1.02 239.88 M-0.98 0.8 C-1.09 40.76, 0.91 201.22, 1.16 241.35" stroke="#000" stroke-width="0.5" fill="none"></path></g></g><g stroke-linecap="round"><g transform="translate(190.67998595833777 350.9056554707885) rotate(0 190 0)"><path d="M-1.19 -1.02 C61.98 -0.93, 316.32 0.67, 379.88 0.84 M0.39 1.06 C63.32 0.79, 315.68 -0.88, 378.86 -0.85" stroke="#000" stroke-width="0.5" fill="none"></path></g></g><g transform="translate(278.66668701171875 59.041656494140625) rotate(0 -8.333343505859375 12.66668701171875)" stroke="none"><path fill="#000" d="M -0.78,0.58 Q -0.78,0.58 -1.59,0.00 -2.40,-0.57 -2.90,-0.93 -3.41,-1.28 -4.85,-1.41 -6.29,-1.53 -7.63,-1.38 -8.96,-1.22 -10.40,-0.80 -11.83,-0.38 -13.62,0.86 -15.40,2.10 -16.91,3.55 -18.42,4.99 -19.62,6.35 -20.83,7.71 -21.44,8.90 -22.05,10.09 -22.28,11.57 -22.50,13.05 -22.24,15.27 -21.98,17.49 -21.18,19.24 -20.37,20.99 -19.37,22.21 -18.37,23.43 -16.41,24.41 -14.45,25.38 -12.74,25.81 -11.02,26.24 -9.20,26.42 -7.37,26.61 -5.72,26.51 -4.08,26.40 -2.52,26.00 -0.96,25.59 0.65,25.05 2.27,24.50 4.72,23.50 7.17,22.50 7.26,22.45 7.35,22.39 7.46,22.37 7.56,22.34 7.67,22.36 7.77,22.37 7.87,22.41 7.97,22.46 8.04,22.53 8.12,22.60 8.17,22.70 8.22,22.79 8.24,22.89 8.26,23.00 8.24,23.10 8.22,23.21 8.17,23.30 8.12,23.40 8.05,23.47 7.97,23.54 7.87,23.59 7.78,23.63 7.67,23.64 7.56,23.66 7.46,23.63 7.36,23.61 7.27,23.56 7.17,23.50 7.11,23.42 7.04,23.34 7.00,23.24 6.96,23.14 6.95,23.04 6.95,22.93 6.97,22.83 7.00,22.73 7.06,22.64 7.12,22.55 7.21,22.48 7.29,22.42 7.39,22.39 7.49,22.35 7.60,22.35 7.70,22.35 7.80,22.39 7.91,22.42 7.99,22.48 8.07,22.55 8.13,22.64 8.19,22.72 8.22,22.83 8.25,22.93 8.25,23.03 8.24,23.14 8.20,23.24 8.16,23.34 8.09,23.42 8.02,23.50 8.02,23.50 8.02,23.50 5.71,25.66 3.39,27.82 1.63,28.41 -0.11,28.99 -1.99,29.44 -3.87,29.89 -5.80,29.98 -7.74,30.08 -9.82,29.84 -11.91,29.60 -13.99,29.03 -16.07,28.45 -18.53,27.06 -20.99,25.67 -22.26,24.04 -23.53,22.40 -24.47,20.15 -25.42,17.89 -25.66,15.19 -25.91,12.48 -25.51,10.50 -25.12,8.52 -24.27,6.97 -23.42,5.43 -22.10,3.96 -20.77,2.48 -19.04,0.87 -17.30,-0.73 -15.05,-2.17 -12.79,-3.60 -11.05,-4.08 -9.31,-4.55 -7.68,-4.70 -6.05,-4.85 -4.62,-4.71 -3.18,-4.57 -2.29,-4.21 -1.39,-3.85 -0.64,-3.16 0.10,-2.48 0.44,-1.53 0.78,-0.58 0.84,-0.48 0.89,-0.38 0.93,-0.26 0.96,-0.15 0.96,-0.03 0.97,0.07 0.95,0.19 0.92,0.31 0.87,0.41 0.82,0.52 0.75,0.61 0.67,0.70 0.58,0.77 0.48,0.84 0.37,0.89 0.27,0.93 0.15,0.95 0.03,0.97 -0.07,0.96 -0.19,0.95 -0.30,0.92 -0.41,0.88 -0.51,0.81 -0.61,0.75 -0.70,0.67 -0.78,0.58 -0.78,0.58 L -0.78,0.58 Z"></path></g><g transform="translate(476.66668701171875 67.70834350585938) rotate(0 -7.66668701171875 10.333328247070312)" stroke="none"><path fill="#000" d="M -0.54,0.81 Q -0.54,0.81 -1.20,0.60 -1.86,0.39 -2.63,0.39 -3.41,0.39 -4.34,0.36 -5.28,0.33 -6.72,0.52 -8.16,0.70 -10.00,1.34 -11.84,1.98 -13.16,2.61 -14.48,3.23 -15.45,4.13 -16.41,5.03 -16.92,6.19 -17.42,7.35 -17.85,8.94 -18.27,10.53 -18.27,11.97 -18.26,13.41 -17.41,14.90 -16.55,16.40 -15.39,17.33 -14.23,18.25 -12.74,18.80 -11.25,19.35 -9.01,19.59 -6.76,19.82 -4.70,19.75 -2.63,19.68 -0.90,19.29 0.83,18.91 2.61,18.92 4.39,18.93 4.49,18.92 4.60,18.90 4.70,18.92 4.81,18.94 4.90,18.99 4.99,19.05 5.06,19.13 5.14,19.20 5.18,19.30 5.22,19.40 5.23,19.51 5.24,19.61 5.21,19.71 5.19,19.82 5.13,19.91 5.07,20.00 4.99,20.06 4.91,20.13 4.81,20.17 4.71,20.20 4.60,20.21 4.49,20.21 4.39,20.18 4.29,20.15 4.21,20.09 4.12,20.02 4.06,19.94 3.99,19.85 3.96,19.75 3.93,19.65 3.93,19.54 3.94,19.44 3.97,19.34 4.01,19.24 4.08,19.15 4.14,19.07 4.23,19.01 4.32,18.96 4.43,18.93 4.53,18.90 4.63,18.91 4.74,18.92 4.84,18.96 4.94,19.00 5.01,19.08 5.09,19.15 5.15,19.24 5.20,19.33 5.22,19.44 5.24,19.54 5.22,19.65 5.21,19.75 5.16,19.85 5.12,19.94 5.04,20.02 4.97,20.09 4.87,20.14 4.78,20.19 4.78,20.19 4.78,20.19 3.17,21.24 1.57,22.30 -0.47,22.74 -2.52,23.18 -4.84,23.24 -7.17,23.30 -9.84,22.94 -12.52,22.59 -14.49,21.75 -16.45,20.92 -18.02,19.48 -19.58,18.05 -20.63,15.80 -21.68,13.56 -21.65,11.59 -21.61,9.63 -21.06,7.73 -20.52,5.83 -19.63,4.18 -18.75,2.53 -17.35,1.34 -15.95,0.15 -14.41,-0.53 -12.87,-1.22 -10.69,-1.87 -8.50,-2.51 -6.79,-2.65 -5.07,-2.79 -4.00,-2.68 -2.93,-2.58 -1.68,-2.25 -0.43,-1.92 0.05,-1.36 0.54,-0.81 0.63,-0.73 0.71,-0.65 0.78,-0.56 0.85,-0.46 0.90,-0.35 0.94,-0.24 0.95,-0.13 0.97,-0.01 0.96,0.10 0.95,0.21 0.91,0.32 0.87,0.43 0.80,0.53 0.74,0.63 0.65,0.71 0.56,0.79 0.46,0.85 0.36,0.90 0.24,0.93 0.13,0.96 0.01,0.96 -0.10,0.97 -0.21,0.94 -0.33,0.91 -0.43,0.86 -0.54,0.81 -0.54,0.81 L -0.54,0.81 Z"></path></g><g transform="translate(490.66668701171875 49.708343505859375) rotate(0 1.666656494140625 6.9999847412109375)" stroke="none"><path fill="#000" d="M 0.88,-0.71 Q 0.88,-0.71 1.83,0.11 2.78,0.93 3.41,2.28 4.04,3.62 4.32,5.08 4.60,6.54 4.33,8.67 4.05,10.80 3.11,12.45 2.16,14.09 2.12,14.18 2.07,14.28 2.00,14.36 1.93,14.44 1.84,14.49 1.74,14.54 1.64,14.56 1.53,14.58 1.43,14.56 1.32,14.54 1.23,14.49 1.13,14.45 1.06,14.37 0.99,14.29 0.94,14.20 0.90,14.10 0.88,14.00 0.87,13.89 0.89,13.79 0.91,13.68 0.97,13.59 1.02,13.50 1.10,13.43 1.18,13.36 1.28,13.32 1.38,13.28 1.48,13.27 1.59,13.27 1.69,13.29 1.80,13.32 1.88,13.38 1.97,13.44 2.04,13.52 2.10,13.61 2.14,13.71 2.17,13.81 2.17,13.91 2.18,14.02 2.14,14.12 2.11,14.22 2.05,14.31 1.98,14.39 1.90,14.45 1.81,14.51 1.71,14.54 1.60,14.57 1.50,14.57 1.39,14.56 1.29,14.52 1.19,14.49 1.11,14.42 1.03,14.35 0.97,14.26 0.92,14.17 0.89,14.06 0.87,13.96 0.88,13.86 0.89,13.75 0.89,13.75 0.89,13.75 0.84,12.02 0.79,10.30 1.10,8.67 1.40,7.04 1.25,5.97 1.09,4.90 0.68,3.90 0.28,2.89 -0.30,1.80 -0.88,0.71 -0.95,0.59 -1.03,0.47 -1.07,0.34 -1.11,0.21 -1.12,0.07 -1.13,-0.05 -1.11,-0.19 -1.08,-0.32 -1.03,-0.45 -0.97,-0.57 -0.89,-0.68 -0.81,-0.79 -0.70,-0.88 -0.59,-0.96 -0.47,-1.02 -0.34,-1.08 -0.21,-1.10 -0.08,-1.13 0.05,-1.12 0.19,-1.12 0.32,-1.08 0.45,-1.04 0.57,-0.97 0.69,-0.90 0.78,-0.80 0.88,-0.71 0.88,-0.71 L 0.88,-0.71 Z"></path></g><g transform="translate(148 152.375) rotate(0 -11.33331298828125 13.333328247070312)" stroke="none"><path fill="#000" d="M -0.93,0.62 Q -0.93,0.62 -1.48,0.16 -2.04,-0.29 -2.94,-1.17 -3.84,-2.04 -4.73,-2.76 -5.62,-3.47 -6.32,-3.66 -7.03,-3.85 -8.83,-3.56 -10.62,-3.27 -12.50,-2.63 -14.38,-1.98 -15.82,-1.03 -17.25,-0.07 -18.31,1.33 -19.38,2.75 -20.41,4.64 -21.44,6.54 -22.03,8.56 -22.62,10.58 -22.67,13.77 -22.72,16.97 -22.21,19.36 -21.69,21.76 -20.79,23.39 -19.89,25.01 -18.13,26.53 -16.37,28.04 -14.60,28.84 -12.83,29.64 -11.05,29.97 -9.26,30.30 -8.09,30.28 -6.91,30.25 -6.44,29.96 -5.98,29.66 -6.05,29.06 -6.12,28.46 -6.22,27.76 -6.32,27.07 -6.80,26.44 -7.29,25.81 -8.67,24.86 -10.06,23.90 -11.58,23.08 -13.11,22.26 -14.06,21.94 -15.01,21.63 -15.57,21.49 -16.14,21.35 -16.80,21.09 -17.46,20.83 -17.67,20.75 -17.87,20.67 -18.06,20.55 -18.24,20.42 -18.38,20.25 -18.53,20.09 -18.63,19.89 -18.74,19.70 -18.79,19.48 -18.84,19.27 -18.84,19.04 -18.84,18.82 -18.79,18.61 -18.74,18.39 -18.63,18.20 -18.53,18.00 -18.38,17.84 -18.24,17.67 -18.05,17.55 -17.87,17.42 -17.66,17.34 -17.46,17.26 -17.24,17.24 -17.02,17.21 -16.80,17.24 -16.58,17.26 -17.33,17.39 -18.07,17.52 -15.98,16.69 -13.88,15.85 -11.76,15.19 -9.63,14.53 -7.82,13.89 -6.01,13.24 -4.06,12.58 -2.11,11.91 -0.17,12.06 1.75,12.20 1.86,12.19 1.97,12.19 2.07,12.21 2.17,12.24 2.26,12.30 2.35,12.36 2.41,12.44 2.48,12.52 2.52,12.62 2.55,12.72 2.55,12.83 2.55,12.94 2.52,13.04 2.49,13.14 2.42,13.22 2.36,13.31 2.27,13.37 2.19,13.43 2.09,13.46 1.98,13.49 1.88,13.49 1.77,13.48 1.67,13.44 1.57,13.41 1.49,13.34 1.41,13.27 1.35,13.18 1.30,13.09 1.27,12.99 1.25,12.88 1.26,12.78 1.27,12.67 1.31,12.57 1.36,12.48 1.43,12.40 1.50,12.32 1.59,12.27 1.69,12.22 1.79,12.20 1.90,12.18 2.00,12.20 2.11,12.21 2.20,12.26 2.29,12.31 2.37,12.39 2.44,12.46 2.49,12.56 2.53,12.66 2.55,12.76 2.56,12.87 2.54,12.97 2.52,13.07 2.46,13.17 2.41,13.26 2.33,13.33 2.25,13.40 2.15,13.44 2.05,13.48 2.05,13.48 2.05,13.48 0.56,14.42 -0.93,15.37 -2.85,16.03 -4.78,16.70 -6.66,17.37 -8.55,18.04 -10.61,18.67 -12.67,19.31 -14.11,19.72 -15.56,20.13 -16.51,20.48 -17.46,20.83 -17.67,20.75 -17.87,20.67 -18.06,20.55 -18.24,20.42 -18.38,20.25 -18.53,20.09 -18.63,19.89 -18.74,19.70 -18.79,19.48 -18.84,19.27 -18.84,19.05 -18.84,18.82 -18.79,18.61 -18.74,18.39 -18.63,18.20 -18.53,18.00 -18.38,17.84 -18.24,17.67 -18.05,17.55 -17.87,17.42 -17.66,17.34 -17.46,17.26 -17.24,17.24 -17.02,17.21 -16.80,17.24 -16.58,17.26 -15.92,17.52 -15.26,17.78 -14.52,17.97 -13.79,18.15 -12.58,18.59 -11.36,19.02 -9.61,19.98 -7.86,20.95 -6.04,22.38 -4.22,23.81 -3.47,25.19 -2.72,26.56 -2.63,27.88 -2.54,29.20 -3.07,30.63 -3.60,32.05 -5.11,32.93 -6.62,33.80 -8.28,33.82 -9.95,33.84 -12.15,33.38 -14.35,32.91 -16.55,31.83 -18.74,30.76 -20.89,28.76 -23.04,26.77 -24.13,24.65 -25.22,22.53 -25.77,19.71 -26.33,16.89 -26.20,13.23 -26.07,9.57 -25.33,7.19 -24.59,4.81 -23.39,2.67 -22.18,0.52 -20.70,-1.25 -19.22,-3.03 -17.37,-4.18 -15.51,-5.34 -13.27,-6.05 -11.02,-6.76 -8.53,-6.94 -6.04,-7.12 -4.77,-6.62 -3.51,-6.11 -2.45,-5.20 -1.40,-4.29 -0.44,-3.15 0.50,-2.00 0.72,-1.31 0.93,-0.62 0.99,-0.50 1.06,-0.38 1.09,-0.25 1.12,-0.11 1.11,0.01 1.11,0.15 1.08,0.28 1.04,0.41 0.98,0.53 0.91,0.65 0.82,0.75 0.73,0.85 0.62,0.93 0.50,1.00 0.37,1.05 0.25,1.09 0.11,1.11 -0.01,1.12 -0.15,1.10 -0.28,1.08 -0.41,1.03 -0.53,0.98 -0.65,0.91 -0.76,0.83 -0.84,0.72 -0.93,0.62 -0.93,0.62 L -0.93,0.62 Z"></path></g><g transform="translate(142 273.7083435058594) rotate(0 -9 16.333343505859375)" stroke="none"><path fill="#000" d="M -0.41,0.83 Q -0.41,0.83 -1.69,0.53 -2.96,0.22 -4.19,0.09 -5.43,-0.04 -6.73,0.26 -8.04,0.56 -9.69,1.23 -11.34,1.89 -12.65,3.02 -13.96,4.15 -15.26,5.72 -16.56,7.29 -17.64,9.21 -18.72,11.12 -19.12,13.83 -19.52,16.53 -19.34,18.92 -19.17,21.30 -17.84,23.83 -16.51,26.35 -15.08,28.15 -13.64,29.95 -11.90,30.75 -10.17,31.56 -8.20,31.92 -6.23,32.28 -4.52,32.26 -2.81,32.24 -1.75,31.94 -0.68,31.64 -0.39,30.50 -0.10,29.37 -0.53,28.59 -0.97,27.80 -1.99,26.55 -3.02,25.30 -4.14,24.43 -5.26,23.56 -6.10,22.64 -6.93,21.72 -7.34,20.57 -7.75,19.42 -7.42,18.49 -7.08,17.55 -5.87,16.89 -4.65,16.22 -3.08,15.67 -1.51,15.11 0.89,15.00 3.30,14.90 3.40,14.88 3.51,14.85 3.61,14.87 3.72,14.88 3.82,14.92 3.91,14.96 3.99,15.04 4.07,15.11 4.12,15.20 4.17,15.30 4.19,15.40 4.21,15.51 4.19,15.61 4.17,15.72 4.12,15.81 4.07,15.90 4.00,15.98 3.92,16.05 3.82,16.10 3.73,16.14 3.62,16.15 3.52,16.17 3.41,16.14 3.31,16.12 3.22,16.07 3.13,16.01 3.06,15.93 2.99,15.85 2.95,15.75 2.91,15.66 2.90,15.55 2.90,15.44 2.92,15.34 2.95,15.24 3.01,15.15 3.07,15.06 3.15,15.00 3.24,14.93 3.34,14.90 3.44,14.86 3.54,14.86 3.65,14.86 3.75,14.89 3.85,14.93 3.94,14.99 4.02,15.06 4.08,15.14 4.14,15.23 4.17,15.33 4.20,15.43 4.20,15.54 4.19,15.65 4.15,15.75 4.11,15.84 4.05,15.93 3.98,16.01 3.89,16.06 3.80,16.12 3.80,16.12 3.80,16.12 1.74,17.30 -0.31,18.48 -2.28,18.91 -4.24,19.34 -3.62,20.05 -3.01,20.76 -1.61,21.91 -0.21,23.07 1.07,24.77 2.35,26.48 2.86,28.15 3.36,29.82 2.96,31.31 2.56,32.79 1.58,33.81 0.61,34.82 -1.07,35.30 -2.77,35.77 -4.84,35.76 -6.91,35.75 -9.33,35.23 -11.75,34.72 -14.02,33.47 -16.30,32.22 -17.98,30.07 -19.66,27.93 -21.16,24.78 -22.66,21.64 -22.82,18.81 -22.99,15.97 -22.39,12.71 -21.79,9.45 -20.51,7.25 -19.23,5.05 -17.69,3.26 -16.15,1.47 -14.38,0.10 -12.61,-1.27 -10.62,-2.00 -8.63,-2.72 -6.79,-2.98 -4.95,-3.23 -3.29,-2.88 -1.63,-2.52 -0.60,-1.68 0.41,-0.83 0.50,-0.77 0.60,-0.70 0.67,-0.62 0.75,-0.54 0.80,-0.44 0.86,-0.34 0.89,-0.23 0.92,-0.13 0.92,-0.01 0.92,0.09 0.90,0.20 0.87,0.31 0.82,0.41 0.77,0.51 0.70,0.59 0.63,0.68 0.53,0.74 0.44,0.81 0.34,0.85 0.24,0.89 0.12,0.91 0.01,0.93 -0.09,0.91 -0.20,0.90 -0.31,0.86 -0.41,0.83 -0.41,0.83 L -0.41,0.83 Z"></path></g><g transform="translate(156 263.7083435058594) rotate(0 2.333343505859375 5.3333282470703125)" stroke="none"><path fill="#000" d="M 0.83,-0.83 Q 0.83,-0.83 2.15,0.15 3.47,1.15 4.30,2.59 5.13,4.02 5.19,7.01 5.24,9.99 5.23,10.09 5.23,10.20 5.19,10.30 5.15,10.40 5.09,10.48 5.02,10.56 4.93,10.62 4.84,10.68 4.74,10.70 4.63,10.73 4.53,10.72 4.42,10.71 4.33,10.67 4.23,10.63 4.15,10.55 4.07,10.48 4.02,10.39 3.97,10.30 3.95,10.19 3.93,10.09 3.94,9.98 3.96,9.88 4.01,9.78 4.05,9.69 4.13,9.61 4.20,9.54 4.30,9.49 4.39,9.44 4.50,9.43 4.61,9.42 4.71,9.44 4.81,9.46 4.91,9.51 5.00,9.56 5.07,9.64 5.14,9.72 5.18,9.82 5.22,9.92 5.23,10.02 5.24,10.13 5.21,10.23 5.19,10.34 5.13,10.43 5.07,10.51 4.99,10.58 4.90,10.65 4.80,10.68 4.70,10.72 4.60,10.72 4.49,10.72 4.39,10.69 4.29,10.66 4.20,10.60 4.12,10.54 4.06,10.45 3.99,10.36 3.96,10.26 3.93,10.16 3.93,10.16 3.93,10.16 3.06,7.87 2.18,5.59 1.65,4.52 1.12,3.44 0.14,2.14 -0.83,0.83 -0.92,0.72 -1.01,0.61 -1.07,0.48 -1.13,0.35 -1.15,0.21 -1.18,0.07 -1.17,-0.07 -1.16,-0.21 -1.12,-0.34 -1.08,-0.48 -1.00,-0.60 -0.93,-0.73 -0.83,-0.83 -0.73,-0.93 -0.60,-1.00 -0.48,-1.08 -0.34,-1.12 -0.21,-1.16 -0.07,-1.17 0.07,-1.18 0.21,-1.15 0.35,-1.13 0.48,-1.07 0.61,-1.01 0.72,-0.92 0.83,-0.83 0.83,-0.83 L 0.83,-0.83 Z"></path></g><g transform="translate(585.3333740234375 358.375) rotate(0 9.33331298828125 12)" stroke="none"><path fill="#000" d="M -1.01,0.25 Q -1.01,0.25 -1.25,-0.77 -1.49,-1.80 -0.34,-3.25 0.79,-4.69 2.39,-5.49 3.99,-6.29 5.32,-6.62 6.64,-6.94 8.72,-6.69 10.81,-6.44 12.19,-6.02 13.57,-5.59 14.39,-4.39 15.22,-3.18 15.12,-1.46 15.02,0.24 14.11,2.02 13.20,3.80 11.99,5.17 10.77,6.55 9.67,7.52 8.57,8.50 8.05,9.13 7.54,9.76 8.40,9.98 9.26,10.19 10.36,10.64 11.45,11.09 12.86,11.94 14.26,12.80 15.34,13.83 16.41,14.86 17.73,17.39 19.06,19.91 19.25,21.98 19.45,24.05 18.83,25.77 18.21,27.49 16.76,28.57 15.31,29.66 13.67,30.26 12.03,30.87 10.18,30.94 8.33,31.01 6.06,28.93 3.80,26.84 3.75,26.75 3.70,26.65 3.69,26.54 3.67,26.44 3.69,26.34 3.71,26.23 3.76,26.14 3.81,26.05 3.89,25.97 3.97,25.90 4.07,25.86 4.17,25.82 4.27,25.81 4.38,25.80 4.48,25.83 4.59,25.85 4.68,25.91 4.77,25.97 4.83,26.05 4.90,26.13 4.94,26.23 4.97,26.33 4.98,26.44 4.98,26.54 4.95,26.64 4.92,26.75 4.85,26.83 4.79,26.92 4.71,26.98 4.62,27.04 4.52,27.07 4.42,27.11 4.31,27.10 4.21,27.10 4.11,27.06 4.01,27.03 3.92,26.96 3.84,26.90 3.78,26.81 3.73,26.72 3.70,26.61 3.67,26.51 3.68,26.40 3.69,26.30 3.73,26.20 3.77,26.10 3.84,26.02 3.92,25.94 4.01,25.89 4.10,25.84 4.20,25.82 4.31,25.80 4.41,25.81 4.52,25.83 4.61,25.87 4.71,25.92 4.78,26.00 4.86,26.07 4.86,26.07 4.86,26.07 6.59,26.82 8.33,27.57 9.64,27.59 10.95,27.61 12.23,27.19 13.51,26.78 14.43,26.36 15.35,25.94 15.78,25.03 16.21,24.11 16.19,22.69 16.16,21.26 15.16,19.18 14.15,17.09 13.36,16.29 12.57,15.49 11.39,14.75 10.20,14.01 8.82,13.39 7.43,12.78 6.17,11.64 4.90,10.50 4.96,9.23 5.01,7.96 5.77,7.05 6.54,6.15 7.54,5.32 8.54,4.49 9.57,3.42 10.61,2.35 11.37,1.07 12.14,-0.20 12.39,-1.16 12.64,-2.13 12.47,-2.71 12.31,-3.30 11.36,-3.48 10.41,-3.66 8.81,-3.94 7.21,-4.22 6.18,-3.99 5.15,-3.76 3.93,-3.25 2.71,-2.73 1.71,-2.00 0.72,-1.26 0.87,-0.75 1.01,-0.25 1.03,-0.12 1.05,-0.00 1.03,0.12 1.02,0.24 0.97,0.36 0.93,0.48 0.86,0.59 0.78,0.69 0.69,0.77 0.60,0.86 0.48,0.92 0.37,0.98 0.25,1.01 0.13,1.04 0.00,1.04 -0.12,1.04 -0.24,1.01 -0.36,0.98 -0.48,0.92 -0.59,0.86 -0.68,0.78 -0.78,0.69 -0.85,0.59 -0.92,0.49 -0.97,0.37 -1.02,0.25 -1.01,0.25 L -1.01,0.25 Z"></path></g><g transform="translate(624 360.375) rotate(0 -0.999969482421875 12.000030517578125)" stroke="none"><path fill="#000" d="M -0.18,0.93 Q -0.18,0.93 -1.12,0.94 -2.06,0.95 -2.51,1.25 -2.96,1.55 -4.03,2.55 -5.11,3.55 -6.60,4.79 -8.10,6.03 -8.94,7.52 -9.78,9.02 -10.71,11.51 -11.63,14.00 -11.62,15.97 -11.62,17.95 -10.96,19.31 -10.30,20.68 -9.29,21.29 -8.28,21.90 -6.69,22.16 -5.11,22.41 -2.77,22.37 -0.43,22.33 2.50,21.40 5.43,20.46 7.08,19.26 8.73,18.06 9.28,16.55 9.84,15.04 9.41,13.76 8.99,12.48 7.67,11.31 6.36,10.15 4.36,9.07 2.37,7.99 0.37,7.12 -1.62,6.25 -1.79,3.74 -1.96,1.22 -1.88,1.15 -1.79,1.08 -1.69,1.05 -1.59,1.01 -1.49,1.00 -1.38,1.00 -1.28,1.03 -1.18,1.06 -1.09,1.12 -1.00,1.19 -0.94,1.27 -0.88,1.36 -0.85,1.46 -0.82,1.56 -0.82,1.67 -0.82,1.77 -0.86,1.87 -0.89,1.97 -0.96,2.06 -1.03,2.14 -1.11,2.20 -1.20,2.25 -1.31,2.28 -1.41,2.31 -1.52,2.30 -1.62,2.29 -1.72,2.25 -1.82,2.21 -1.90,2.14 -1.98,2.07 -2.03,1.97 -2.08,1.88 -2.10,1.78 -2.12,1.67 -2.11,1.57 -2.10,1.46 -2.05,1.37 -2.00,1.27 -1.93,1.20 -1.85,1.12 -1.76,1.07 -1.66,1.03 -1.56,1.01 -1.45,1.00 -1.35,1.02 -1.24,1.04 -1.15,1.09 -1.06,1.14 -0.99,1.22 -0.91,1.30 -0.87,1.39 -0.83,1.49 -0.82,1.60 -0.81,1.70 -0.84,1.81 -0.86,1.91 -0.92,2.00 -0.98,2.09 -0.98,2.09 -0.98,2.09 -0.61,2.58 -0.24,3.07 1.91,4.01 4.07,4.95 6.43,6.31 8.79,7.67 10.52,9.55 12.24,11.43 12.65,13.70 13.06,15.98 11.98,18.31 10.90,20.65 8.69,22.19 6.48,23.72 3.06,24.73 -0.36,25.73 -3.07,25.74 -5.79,25.74 -7.97,25.21 -10.15,24.69 -11.69,23.44 -13.23,22.20 -14.07,20.10 -14.90,18.01 -14.80,15.45 -14.70,12.89 -13.61,10.13 -12.51,7.36 -11.31,5.51 -10.10,3.66 -8.58,2.45 -7.05,1.23 -5.54,0.06 -4.03,-1.11 -2.89,-1.41 -1.76,-1.72 -0.78,-1.32 0.18,-0.93 0.29,-0.89 0.40,-0.86 0.50,-0.80 0.59,-0.74 0.67,-0.65 0.75,-0.57 0.81,-0.47 0.87,-0.37 0.90,-0.26 0.94,-0.15 0.94,-0.04 0.95,0.07 0.92,0.18 0.90,0.29 0.85,0.40 0.80,0.50 0.73,0.59 0.66,0.68 0.57,0.75 0.47,0.82 0.37,0.86 0.26,0.91 0.15,0.93 0.04,0.95 -0.07,0.94 -0.18,0.93 -0.18,0.93 L -0.18,0.93 Z"></path></g><g transform="translate(286.66668701171875 145.04168701171875) rotate(0 -9 17.999984741210938)" stroke="none"><path fill="#000" d="M -1.00,0.50 Q -1.00,0.50 -1.58,-0.16 -2.16,-0.83 -3.05,-1.66 -3.94,-2.49 -4.96,-2.79 -5.98,-3.09 -7.02,-3.04 -8.05,-2.99 -9.36,-2.63 -10.68,-2.28 -12.51,-1.40 -14.35,-0.52 -16.05,0.58 -17.75,1.69 -18.78,2.66 -19.81,3.64 -20.35,4.48 -20.89,5.32 -20.47,6.19 -20.06,7.05 -18.74,7.75 -17.42,8.45 -15.87,9.21 -14.32,9.96 -12.70,10.66 -11.08,11.37 -8.65,12.44 -6.22,13.51 -4.13,14.79 -2.03,16.06 -0.48,17.45 1.06,18.83 2.19,20.50 3.32,22.18 3.84,23.81 4.36,25.45 4.38,27.07 4.41,28.69 3.58,31.09 2.75,33.49 1.34,35.39 -0.06,37.28 -2.33,38.94 -4.59,40.60 -6.89,41.35 -9.18,42.10 -11.12,42.01 -13.07,41.93 -14.50,41.36 -15.92,40.78 -16.93,39.30 -17.94,37.81 -18.12,36.00 -18.30,34.19 -17.53,31.56 -16.76,28.92 -15.63,26.64 -14.50,24.37 -13.02,22.20 -11.54,20.04 -9.32,17.71 -7.09,15.38 -5.19,13.63 -3.28,11.88 -1.69,10.56 -0.10,9.23 0.84,8.19 1.80,7.16 2.08,6.34 2.37,5.53 2.72,4.44 3.06,3.34 2.81,2.23 2.56,1.13 2.21,0.42 1.87,-0.27 0.88,-0.74 -0.10,-1.21 -1.22,-1.07 -2.35,-0.93 -1.97,-1.24 -1.59,-1.56 -1.51,-1.50 -1.42,-1.43 -1.36,-1.35 -1.30,-1.26 -1.27,-1.16 -1.24,-1.05 -1.25,-0.95 -1.25,-0.84 -1.29,-0.74 -1.33,-0.64 -1.40,-0.56 -1.46,-0.48 -1.55,-0.42 -1.65,-0.37 -1.75,-0.34 -1.85,-0.32 -1.96,-0.33 -2.06,-0.34 -2.16,-0.38 -2.26,-0.43 -2.34,-0.50 -2.41,-0.57 -2.46,-0.67 -2.51,-0.76 -2.53,-0.86 -2.55,-0.97 -2.54,-1.07 -2.52,-1.18 -2.47,-1.27 -2.42,-1.37 -2.35,-1.44 -2.27,-1.52 -2.17,-1.56 -2.08,-1.61 -1.97,-1.62 -1.87,-1.63 -1.76,-1.61 -1.66,-1.59 -1.57,-1.53 -1.48,-1.48 -1.41,-1.40 -1.34,-1.32 -1.30,-1.22 -1.26,-1.12 -1.25,-1.02 -1.24,-0.91 -1.27,-0.81 -1.30,-0.71 -1.35,-0.62 -1.41,-0.53 -1.50,-0.46 -1.58,-0.40 -1.68,-0.36 -1.78,-0.33 -1.89,-0.33 -1.99,-0.33 -2.10,-0.36 -2.20,-0.39 -2.20,-0.39 -2.20,-0.39 -2.32,-2.45 -2.44,-4.51 -0.50,-4.44 1.44,-4.37 3.15,-3.22 4.87,-2.06 5.48,-0.75 6.08,0.56 6.28,2.40 6.47,4.24 6.05,5.58 5.64,6.91 5.04,8.21 4.43,9.50 3.30,10.72 2.16,11.94 0.63,13.22 -0.89,14.49 -2.72,16.16 -4.55,17.83 -6.59,19.94 -8.63,22.05 -9.99,24.00 -11.34,25.96 -12.37,27.97 -13.39,29.98 -14.08,32.03 -14.77,34.07 -14.79,35.14 -14.80,36.22 -14.51,37.02 -14.22,37.82 -13.49,38.11 -12.76,38.41 -11.45,38.56 -10.13,38.71 -8.35,38.20 -6.58,37.70 -4.68,36.41 -2.79,35.12 -1.63,33.69 -0.47,32.25 0.24,30.42 0.96,28.59 1.00,27.49 1.05,26.39 0.74,25.21 0.42,24.03 -0.41,22.69 -1.26,21.36 -2.55,20.17 -3.84,18.98 -5.72,17.81 -7.61,16.64 -10.03,15.57 -12.45,14.49 -14.13,13.75 -15.81,13.02 -17.51,12.18 -19.20,11.34 -21.02,10.11 -22.84,8.88 -23.50,7.50 -24.15,6.12 -23.95,4.87 -23.76,3.62 -22.94,2.41 -22.12,1.19 -20.85,0.03 -19.58,-1.12 -17.68,-2.34 -15.77,-3.55 -13.64,-4.53 -11.51,-5.51 -9.79,-5.92 -8.08,-6.33 -6.51,-6.29 -4.93,-6.25 -3.42,-5.65 -1.90,-5.05 -1.03,-4.26 -0.16,-3.48 0.22,-2.85 0.62,-2.23 0.81,-1.36 1.00,-0.50 1.04,-0.37 1.09,-0.24 1.10,-0.11 1.12,0.02 1.10,0.15 1.08,0.28 1.03,0.41 0.98,0.54 0.90,0.64 0.82,0.75 0.72,0.84 0.61,0.93 0.49,0.99 0.37,1.05 0.24,1.08 0.11,1.11 -0.02,1.11 -0.15,1.10 -0.28,1.07 -0.41,1.03 -0.53,0.97 -0.65,0.90 -0.75,0.81 -0.85,0.72 -0.92,0.61 -1.00,0.50 -1.00,0.50 L -1.00,0.50 Z"></path></g><g transform="translate(267.3333740234375 371.0416564941406) rotate(0 -1.000030517578125 10.66668701171875)" stroke="none"><path fill="#000" d="M -0.67,0.19 Q -0.67,0.19 -1.19,-1.10 -1.72,-2.41 -1.96,-3.40 -2.20,-4.39 -2.47,-5.07 -2.74,-5.74 -3.08,-6.09 -3.43,-6.43 -3.46,-6.58 -3.49,-6.73 -3.48,-6.89 -3.48,-7.04 -3.43,-7.19 -3.39,-7.34 -3.31,-7.47 -3.23,-7.60 -3.13,-7.71 -3.02,-7.83 -2.89,-7.91 -2.76,-7.99 -2.61,-8.04 -2.47,-8.09 -2.31,-8.10 -2.16,-8.11 -2.01,-8.08 -1.86,-8.06 -1.71,-8.00 -1.57,-7.94 -1.45,-7.85 -1.33,-7.75 -1.23,-7.63 -1.13,-7.51 -1.07,-7.37 -1.00,-7.23 -1.15,-6.51 -1.30,-5.79 -1.26,-4.79 -1.21,-3.79 -1.18,-0.98 -1.15,1.82 -1.15,4.94 -1.14,8.05 -1.14,11.10 -1.14,14.15 -1.14,16.60 -1.14,19.04 -0.95,20.77 -0.76,22.50 -0.50,23.77 -0.23,25.04 0.09,26.19 0.42,27.35 0.52,27.36 0.63,27.37 0.72,27.42 0.82,27.46 0.90,27.53 0.98,27.61 1.03,27.70 1.08,27.79 1.09,27.90 1.11,28.00 1.10,28.11 1.08,28.21 1.03,28.31 0.98,28.40 0.90,28.48 0.83,28.55 0.73,28.59 0.63,28.64 0.53,28.65 0.42,28.66 0.32,28.64 0.21,28.62 0.12,28.56 0.03,28.51 -0.03,28.43 -0.10,28.35 -0.14,28.25 -0.18,28.15 -0.18,28.05 -0.19,27.94 -0.16,27.84 -0.13,27.73 -0.07,27.65 -0.01,27.56 0.06,27.49 0.14,27.43 0.25,27.39 0.35,27.36 0.45,27.36 0.56,27.36 0.66,27.39 0.76,27.43 0.84,27.49 0.93,27.55 0.99,27.64 1.05,27.73 1.08,27.83 1.11,27.93 1.10,28.04 1.10,28.15 1.06,28.24 1.02,28.34 0.95,28.42 0.88,28.51 0.79,28.56 0.70,28.62 0.60,28.64 0.49,28.66 0.49,28.66 0.49,28.66 -1.36,27.16 -3.23,25.65 -3.51,24.23 -3.79,22.82 -3.98,20.93 -4.18,19.04 -4.17,16.60 -4.17,14.15 -4.16,11.10 -4.15,8.04 -4.13,4.92 -4.10,1.80 -4.03,-1.05 -3.95,-3.91 -3.69,-5.17 -3.43,-6.43 -3.46,-6.58 -3.49,-6.73 -3.48,-6.89 -3.48,-7.04 -3.43,-7.19 -3.39,-7.34 -3.31,-7.47 -3.23,-7.60 -3.13,-7.71 -3.02,-7.83 -2.89,-7.91 -2.76,-7.99 -2.61,-8.04 -2.47,-8.09 -2.31,-8.10 -2.16,-8.11 -2.01,-8.08 -1.86,-8.06 -1.71,-8.00 -1.57,-7.94 -1.45,-7.85 -1.33,-7.75 -1.23,-7.63 -1.13,-7.51 -1.07,-7.37 -1.00,-7.23 -0.74,-6.91 -0.48,-6.58 -0.23,-5.68 0.01,-4.78 0.10,-3.86 0.19,-2.95 0.43,-1.57 0.67,-0.19 0.68,-0.10 0.69,-0.02 0.68,0.05 0.68,0.14 0.65,0.22 0.62,0.30 0.58,0.37 0.53,0.44 0.47,0.50 0.41,0.55 0.34,0.60 0.27,0.64 0.19,0.66 0.10,0.68 0.02,0.69 -0.05,0.69 -0.14,0.67 -0.22,0.66 -0.29,0.62 -0.37,0.58 -0.43,0.53 -0.50,0.48 -0.55,0.41 -0.60,0.34 -0.63,0.26 -0.67,0.19 -0.67,0.19 L -0.67,0.19 Z"></path></g><g transform="translate(294 369.0416564941406) rotate(0 -0.33331298828125 12.66668701171875)" stroke="none"><path fill="#000" d="M -0.77,0.46 Q -0.77,0.46 -1.44,-0.41 -2.11,-1.29 -2.80,-1.69 -3.49,-2.09 -4.22,-2.24 -4.94,-2.40 -5.70,-2.29 -6.45,-2.18 -7.33,-1.96 -8.21,-1.74 -8.99,-1.14 -9.77,-0.54 -10.34,-0.09 -10.91,0.34 -10.23,0.68 -9.56,1.01 -8.54,1.68 -7.53,2.35 -6.11,3.24 -4.70,4.12 -2.98,5.06 -1.25,6.00 1.01,7.16 3.28,8.32 5.68,10.03 8.09,11.73 9.59,13.52 11.08,15.30 11.75,16.54 12.42,17.78 12.55,19.90 12.67,22.03 11.86,23.87 11.05,25.72 9.82,26.97 8.59,28.21 6.97,28.98 5.35,29.75 3.60,30.08 1.86,30.40 0.17,30.13 -1.51,29.87 -3.12,29.07 -4.74,28.27 -5.98,26.37 -7.22,24.46 -7.53,22.14 -7.84,19.83 -7.54,17.07 -7.25,14.32 -6.51,12.10 -5.78,9.89 -4.86,8.14 -3.94,6.38 -3.14,5.23 -2.34,4.07 -1.64,3.04 -0.94,2.02 -0.39,1.43 0.15,0.85 0.07,0.78 -0.01,0.71 -0.06,0.62 -0.12,0.53 -0.14,0.43 -0.16,0.32 -0.15,0.22 -0.14,0.11 -0.10,0.02 -0.05,-0.07 0.01,-0.15 0.08,-0.23 0.17,-0.28 0.27,-0.33 0.37,-0.34 0.48,-0.36 0.58,-0.35 0.69,-0.33 0.78,-0.28 0.88,-0.23 0.95,-0.15 1.02,-0.08 1.07,0.01 1.11,0.10 1.13,0.21 1.14,0.32 1.12,0.42 1.09,0.52 1.04,0.61 0.98,0.71 0.90,0.78 0.82,0.84 0.73,0.88 0.63,0.92 0.52,0.93 0.41,0.94 0.31,0.91 0.21,0.88 0.12,0.82 0.03,0.76 -0.02,0.68 -0.09,0.59 -0.12,0.49 -0.16,0.39 -0.16,0.29 -0.16,0.18 -0.12,0.08 -0.09,-0.01 -0.03,-0.10 0.03,-0.18 0.12,-0.24 0.20,-0.30 0.30,-0.33 0.41,-0.36 0.51,-0.35 0.62,-0.35 0.72,-0.31 0.82,-0.27 0.82,-0.27 0.82,-0.27 1.17,1.71 1.53,3.70 0.82,4.74 0.11,5.78 -0.59,6.79 -1.29,7.79 -2.12,9.32 -2.94,10.86 -3.60,12.76 -4.26,14.67 -4.55,17.09 -4.84,19.52 -4.71,21.27 -4.58,23.03 -3.88,24.39 -3.19,25.76 -2.05,26.34 -0.92,26.92 0.24,27.19 1.42,27.46 2.79,27.25 4.17,27.04 5.39,26.55 6.60,26.05 7.54,25.23 8.47,24.40 9.14,23.18 9.82,21.96 9.84,20.48 9.85,19.00 9.36,18.05 8.87,17.11 7.64,15.58 6.40,14.05 4.19,12.45 1.97,10.86 -0.32,9.67 -2.61,8.49 -4.41,7.50 -6.21,6.52 -7.67,5.59 -9.13,4.66 -10.36,3.77 -11.60,2.88 -12.46,1.73 -13.31,0.58 -12.96,-0.58 -12.60,-1.75 -11.94,-2.26 -11.28,-2.77 -10.07,-3.52 -8.86,-4.26 -7.77,-4.49 -6.68,-4.73 -5.50,-4.78 -4.32,-4.84 -3.20,-4.48 -2.07,-4.13 -1.13,-3.33 -0.18,-2.53 0.29,-1.50 0.77,-0.46 0.81,-0.36 0.86,-0.26 0.88,-0.15 0.90,-0.05 0.89,0.05 0.88,0.16 0.85,0.26 0.82,0.37 0.76,0.46 0.70,0.55 0.63,0.63 0.55,0.71 0.46,0.76 0.36,0.82 0.26,0.85 0.15,0.88 0.05,0.89 -0.05,0.90 -0.16,0.88 -0.27,0.86 -0.37,0.81 -0.47,0.77 -0.55,0.70 -0.64,0.63 -0.70,0.55 -0.77,0.46 -0.77,0.46 L -0.77,0.46 Z"></path></g><g transform="translate(254 275.0416564941406) rotate(0 2 22)" stroke="none"><path fill="#000" d="M 0.92,-0.18 Q 0.92,-0.18 1.20,0.75 1.48,1.69 2.00,3.60 2.51,5.51 2.98,9.67 3.45,13.83 3.63,17.71 3.82,21.59 3.91,25.54 3.99,29.49 4.22,32.27 4.45,35.04 4.55,37.03 4.65,39.02 4.62,41.24 4.58,43.46 4.58,43.57 4.58,43.67 4.54,43.77 4.51,43.87 4.44,43.95 4.37,44.04 4.28,44.09 4.19,44.15 4.09,44.18 3.99,44.20 3.88,44.20 3.78,44.19 3.68,44.15 3.58,44.10 3.50,44.03 3.42,43.96 3.37,43.87 3.32,43.78 3.30,43.67 3.28,43.57 3.29,43.46 3.30,43.36 3.35,43.26 3.40,43.17 3.47,43.09 3.55,43.02 3.64,42.97 3.74,42.92 3.84,42.91 3.95,42.89 4.05,42.91 4.16,42.93 4.25,42.98 4.34,43.04 4.41,43.12 4.49,43.19 4.53,43.29 4.57,43.39 4.58,43.50 4.59,43.60 4.56,43.70 4.54,43.81 4.48,43.90 4.42,43.99 4.34,44.05 4.26,44.12 4.16,44.16 4.06,44.19 3.95,44.20 3.85,44.20 3.74,44.17 3.64,44.14 3.56,44.08 3.47,44.01 3.41,43.93 3.35,43.84 3.31,43.74 3.28,43.64 3.28,43.64 3.28,43.64 2.50,41.40 1.72,39.16 1.64,37.22 1.55,35.27 1.34,32.41 1.12,29.54 1.07,25.62 1.01,21.71 0.87,17.90 0.72,14.09 0.41,10.08 0.10,6.08 -0.30,4.11 -0.72,2.13 -0.82,1.16 -0.92,0.18 -0.92,0.07 -0.93,-0.04 -0.91,-0.15 -0.90,-0.26 -0.85,-0.36 -0.81,-0.47 -0.74,-0.56 -0.67,-0.65 -0.58,-0.72 -0.49,-0.79 -0.39,-0.84 -0.29,-0.89 -0.18,-0.91 -0.07,-0.93 0.04,-0.93 0.15,-0.92 0.26,-0.89 0.37,-0.86 0.46,-0.80 0.56,-0.74 0.64,-0.66 0.72,-0.59 0.78,-0.49 0.85,-0.39 0.88,-0.29 0.92,-0.18 0.92,-0.18 L 0.92,-0.18 Z"></path></g><g transform="translate(298 284.375) rotate(0 -7.6666259765625 10.333328247070312)" stroke="none"><path fill="#000" d="M -0.89,0.44 Q -0.89,0.44 -1.58,-0.64 -2.27,-1.73 -2.91,-2.98 -3.54,-4.23 -4.33,-5.23 -5.12,-6.23 -5.79,-7.02 -6.46,-7.80 -7.46,-8.00 -8.47,-8.19 -9.84,-8.32 -11.20,-8.45 -12.54,-7.96 -13.88,-7.47 -15.54,-6.35 -17.20,-5.24 -18.42,-3.89 -19.63,-2.53 -20.48,-1.06 -21.33,0.40 -21.82,2.43 -22.32,4.46 -22.54,6.63 -22.76,8.80 -22.85,10.87 -22.95,12.94 -22.61,15.22 -22.26,17.49 -21.21,19.64 -20.16,21.79 -19.01,23.21 -17.86,24.64 -16.50,25.75 -15.14,26.87 -13.57,27.46 -12.00,28.04 -10.63,28.30 -9.26,28.56 -7.66,28.48 -6.06,28.40 -4.36,27.83 -2.67,27.26 -1.01,26.47 0.64,25.68 2.37,24.28 4.10,22.88 5.13,21.46 6.16,20.04 6.52,18.13 6.89,16.22 6.89,14.52 6.90,12.83 6.20,11.17 5.50,9.51 4.45,7.43 3.40,5.34 1.93,3.85 0.46,2.36 -1.09,1.15 -2.64,-0.05 -4.13,-0.90 -5.62,-1.75 -8.17,-2.21 -10.71,-2.66 -10.82,-2.68 -10.92,-2.70 -11.02,-2.75 -11.11,-2.80 -11.18,-2.88 -11.26,-2.96 -11.30,-3.05 -11.34,-3.15 -11.35,-3.25 -11.37,-3.36 -11.34,-3.46 -11.32,-3.57 -11.26,-3.66 -11.21,-3.75 -11.13,-3.82 -11.04,-3.88 -10.95,-3.92 -10.85,-3.96 -10.74,-3.97 -10.63,-3.97 -10.53,-3.94 -10.43,-3.91 -10.34,-3.85 -10.25,-3.79 -10.19,-3.71 -10.13,-3.62 -10.09,-3.52 -10.06,-3.42 -10.06,-3.32 -10.06,-3.21 -10.10,-3.11 -10.13,-3.01 -10.20,-2.92 -10.26,-2.84 -10.35,-2.78 -10.44,-2.72 -10.54,-2.69 -10.64,-2.67 -10.75,-2.67 -10.86,-2.68 -10.95,-2.72 -11.05,-2.76 -11.13,-2.83 -11.21,-2.90 -11.27,-2.99 -11.32,-3.08 -11.34,-3.18 -11.37,-3.29 -11.35,-3.39 -11.34,-3.50 -11.30,-3.60 -11.25,-3.69 -11.18,-3.77 -11.10,-3.85 -11.01,-3.89 -10.92,-3.94 -10.81,-3.96 -10.71,-3.98 -10.71,-3.98 -10.71,-3.98 -7.42,-4.40 -4.14,-4.82 -2.32,-3.80 -0.49,-2.78 1.23,-1.41 2.97,-0.03 4.72,1.85 6.48,3.74 7.60,6.00 8.73,8.26 9.54,10.52 10.35,12.78 10.31,14.88 10.27,16.98 9.62,19.49 8.98,22.00 7.62,23.78 6.26,25.56 4.18,27.16 2.11,28.76 0.23,29.63 -1.65,30.50 -3.78,31.14 -5.91,31.77 -7.91,31.81 -9.90,31.86 -11.58,31.50 -13.25,31.14 -15.24,30.29 -17.23,29.43 -18.84,28.05 -20.44,26.67 -21.77,24.92 -23.09,23.17 -24.24,20.57 -25.39,17.97 -25.72,15.38 -26.06,12.79 -25.93,10.62 -25.81,8.46 -25.52,6.07 -25.23,3.68 -24.53,1.30 -23.83,-1.07 -22.76,-2.75 -21.70,-4.44 -20.21,-5.99 -18.71,-7.55 -16.72,-8.79 -14.73,-10.03 -12.87,-10.56 -11.02,-11.08 -9.39,-10.90 -7.75,-10.73 -6.21,-10.19 -4.67,-9.66 -3.86,-8.74 -3.05,-7.81 -2.15,-6.60 -1.26,-5.38 -0.64,-4.12 -0.02,-2.86 0.43,-1.65 0.89,-0.44 0.93,-0.33 0.97,-0.22 0.98,-0.10 1.00,0.01 0.98,0.13 0.96,0.25 0.92,0.37 0.87,0.48 0.80,0.58 0.73,0.67 0.64,0.75 0.55,0.83 0.44,0.88 0.33,0.94 0.21,0.97 0.10,0.99 -0.01,0.99 -0.14,0.99 -0.25,0.96 -0.37,0.92 -0.47,0.87 -0.58,0.81 -0.67,0.73 -0.76,0.64 -0.82,0.54 -0.89,0.44 -0.89,0.44 L -0.89,0.44 Z"></path></g><g transform="translate(597.3333740234375 145.70834350585938) rotate(0 -1.66668701171875 19.666656494140625)" stroke="none"><path fill="#000" d="M -0.26,0.80 Q -0.26,0.80 -0.03,0.46 0.19,0.12 -0.00,0.80 -0.20,1.48 -0.25,2.19 -0.30,2.90 -0.32,4.73 -0.34,6.55 -0.15,9.21 0.02,11.87 -0.07,15.02 -0.18,18.18 -0.21,21.96 -0.25,25.74 -0.46,28.55 -0.66,31.37 -0.75,33.29 -0.83,35.20 -1.69,37.77 -2.56,40.34 -2.61,40.43 -2.65,40.53 -2.72,40.61 -2.79,40.69 -2.89,40.74 -2.98,40.79 -3.08,40.81 -3.19,40.82 -3.29,40.81 -3.40,40.79 -3.49,40.74 -3.59,40.69 -3.66,40.62 -3.74,40.54 -3.78,40.45 -3.83,40.35 -3.84,40.25 -3.85,40.14 -3.83,40.04 -3.81,39.93 -3.76,39.84 -3.70,39.75 -3.62,39.68 -3.54,39.61 -3.44,39.57 -3.35,39.53 -3.24,39.52 -3.13,39.51 -3.03,39.54 -2.93,39.57 -2.84,39.63 -2.75,39.69 -2.69,39.77 -2.62,39.85 -2.59,39.95 -2.55,40.05 -2.55,40.16 -2.55,40.27 -2.58,40.37 -2.61,40.47 -2.68,40.55 -2.74,40.64 -2.83,40.70 -2.91,40.76 -3.02,40.79 -3.12,40.82 -3.22,40.81 -3.33,40.81 -3.43,40.77 -3.53,40.73 -3.61,40.67 -3.69,40.60 -3.75,40.51 -3.80,40.42 -3.83,40.31 -3.85,40.21 -3.84,40.11 -3.83,40.00 -3.83,40.00 -3.83,40.00 -4.03,37.52 -4.23,35.05 -4.13,33.08 -4.03,31.11 -3.81,28.40 -3.59,25.69 -3.53,21.87 -3.46,18.05 -3.33,15.06 -3.20,12.07 -3.36,9.27 -3.52,6.48 -3.45,4.51 -3.38,2.53 -3.22,1.51 -3.07,0.48 -2.78,-0.20 -2.49,-0.89 -1.11,-0.84 0.26,-0.80 0.36,-0.75 0.45,-0.71 0.53,-0.65 0.61,-0.58 0.67,-0.50 0.73,-0.42 0.77,-0.32 0.81,-0.23 0.82,-0.13 0.84,-0.03 0.83,0.06 0.82,0.16 0.79,0.26 0.76,0.36 0.71,0.44 0.65,0.53 0.58,0.60 0.50,0.67 0.42,0.72 0.33,0.77 0.23,0.80 0.13,0.83 0.03,0.83 -0.06,0.84 -0.16,0.82 -0.26,0.80 -0.26,0.80 L -0.26,0.80 Z"></path></g><g transform="translate(624.6666870117188 147.04168701171875) rotate(0 -7 18.666656494140625)" stroke="none"><path fill="#000" d="M -0.83,0 Q -0.83,0 -0.99,-0.55 -1.16,-1.10 -1.61,-1.63 -2.07,-2.16 -2.53,-2.72 -2.99,-3.27 -3.91,-3.54 -4.83,-3.80 -6.10,-3.95 -7.37,-4.10 -8.70,-3.81 -10.03,-3.51 -11.56,-3.02 -13.08,-2.53 -14.32,-1.67 -15.55,-0.80 -16.52,0.90 -17.49,2.62 -17.91,4.20 -18.34,5.79 -18.36,7.03 -18.38,8.26 -17.54,9.29 -16.71,10.32 -15.85,11.18 -14.98,12.03 -13.84,12.48 -12.71,12.93 -11.56,13.14 -10.41,13.34 -9.57,13.07 -8.74,12.81 -7.74,12.52 -6.75,12.24 -6.01,11.50 -5.28,10.76 -4.79,9.97 -4.31,9.17 -3.93,8.15 -3.55,7.13 -3.19,5.76 -2.84,4.39 -2.48,3.17 -2.11,1.95 -1.96,1.25 -1.81,0.55 -1.73,0.37 -1.65,0.19 -1.53,0.03 -1.41,-0.12 -1.25,-0.25 -1.10,-0.37 -0.92,-0.46 -0.73,-0.54 -0.54,-0.58 -0.34,-0.62 -0.14,-0.61 0.05,-0.60 0.24,-0.54 0.44,-0.49 0.61,-0.39 0.78,-0.28 0.92,-0.14 1.07,-0.00 1.17,0.16 1.28,0.33 1.34,0.52 1.40,0.71 1.42,0.91 1.43,1.11 1.40,1.31 1.37,1.50 1.46,2.26 1.56,3.02 1.61,7.15 1.66,11.28 1.87,15.86 2.07,20.44 2.54,24.44 3.01,28.45 3.58,31.26 4.15,34.06 4.77,36.17 5.38,38.29 6.13,40.42 6.87,42.56 6.92,42.65 6.98,42.74 7.00,42.84 7.02,42.95 7.01,43.05 7.00,43.16 6.95,43.25 6.91,43.35 6.84,43.43 6.76,43.50 6.67,43.55 6.57,43.60 6.47,43.62 6.36,43.64 6.26,43.62 6.15,43.60 6.06,43.55 5.97,43.50 5.89,43.42 5.82,43.34 5.78,43.25 5.73,43.15 5.72,43.05 5.71,42.94 5.74,42.84 5.76,42.73 5.81,42.64 5.87,42.55 5.95,42.48 6.03,42.41 6.13,42.38 6.23,42.34 6.34,42.33 6.44,42.33 6.54,42.35 6.65,42.38 6.73,42.44 6.82,42.50 6.89,42.59 6.95,42.67 6.98,42.77 7.02,42.88 7.02,42.98 7.01,43.09 6.98,43.19 6.95,43.29 6.88,43.37 6.82,43.46 6.73,43.52 6.64,43.58 6.54,43.60 6.44,43.63 6.33,43.63 6.22,43.62 6.12,43.58 6.03,43.54 5.95,43.47 5.86,43.40 5.86,43.40 5.86,43.40 3.97,41.33 2.07,39.25 1.43,37.00 0.78,34.75 0.19,31.80 -0.39,28.85 -0.87,24.72 -1.34,20.59 -1.54,15.94 -1.74,11.30 -1.75,7.26 -1.75,3.22 -1.78,1.89 -1.81,0.55 -1.73,0.37 -1.65,0.19 -1.53,0.03 -1.41,-0.12 -1.25,-0.25 -1.10,-0.37 -0.92,-0.46 -0.73,-0.54 -0.54,-0.58 -0.34,-0.62 -0.14,-0.61 0.05,-0.60 0.24,-0.54 0.44,-0.49 0.61,-0.39 0.78,-0.28 0.92,-0.14 1.07,-0.00 1.17,0.16 1.28,0.33 1.34,0.52 1.40,0.71 1.42,0.91 1.43,1.11 1.40,1.31 1.37,1.50 1.21,2.20 1.06,2.90 0.71,4.07 0.36,5.24 -0.05,6.79 -0.46,8.33 -1.00,9.65 -1.54,10.98 -2.31,12.10 -3.08,13.22 -4.40,14.27 -5.72,15.33 -6.85,15.66 -7.98,15.99 -9.44,16.27 -10.91,16.55 -12.46,16.23 -14.01,15.92 -15.62,15.15 -17.23,14.38 -18.32,13.26 -19.42,12.15 -20.48,10.35 -21.54,8.55 -21.51,6.73 -21.49,4.92 -20.89,2.93 -20.30,0.94 -18.88,-1.24 -17.46,-3.42 -15.77,-4.52 -14.09,-5.62 -12.35,-6.15 -10.62,-6.68 -8.79,-6.97 -6.96,-7.26 -5.30,-6.98 -3.64,-6.70 -2.18,-5.96 -0.72,-5.22 -0.09,-4.31 0.54,-3.40 0.85,-2.30 1.16,-1.19 0.99,-0.59 0.83,0 0.81,0.09 0.80,0.19 0.77,0.29 0.73,0.38 0.67,0.46 0.62,0.55 0.54,0.61 0.47,0.68 0.38,0.73 0.29,0.77 0.19,0.80 0.10,0.82 -0.00,0.82 -0.10,0.82 -0.19,0.80 -0.29,0.77 -0.38,0.73 -0.47,0.68 -0.54,0.61 -0.62,0.55 -0.67,0.46 -0.73,0.38 -0.77,0.29 -0.80,0.19 -0.81,0.09 -0.83,-0.00 -0.83,-0.00 L -0.83,0 Z"></path></g><g transform="translate(454.66668701171875 151.70834350585938) rotate(0 1 14)" stroke="none"><path fill="#000" d="M -1.01,0 Q -1.01,0 -1.20,-0.95 -1.40,-1.91 -1.40,-2.60 -1.40,-3.29 -1.31,-3.45 -1.22,-3.62 -1.20,-3.81 -1.18,-4.00 -1.11,-4.19 -1.04,-4.37 -0.93,-4.53 -0.82,-4.69 -0.67,-4.82 -0.53,-4.94 -0.35,-5.03 -0.18,-5.12 0.00,-5.17 0.18,-5.22 0.38,-5.22 0.57,-5.22 0.76,-5.17 0.95,-5.12 1.12,-5.03 1.29,-4.94 1.44,-4.82 1.58,-4.69 1.69,-4.53 1.80,-4.37 1.87,-4.19 1.94,-4.00 1.97,-3.81 1.99,-3.62 2.08,-3.06 2.18,-2.50 2.42,-0.90 2.67,0.70 2.61,4.78 2.56,8.87 2.52,12.26 2.49,15.65 2.66,18.57 2.84,21.49 3.10,23.25 3.36,25.02 2.99,28.17 2.62,31.31 2.61,31.42 2.60,31.52 2.55,31.62 2.51,31.71 2.43,31.79 2.36,31.87 2.26,31.92 2.17,31.96 2.06,31.98 1.96,32.00 1.85,31.98 1.75,31.96 1.66,31.91 1.56,31.86 1.49,31.78 1.42,31.70 1.37,31.61 1.33,31.51 1.32,31.41 1.31,31.30 1.33,31.20 1.36,31.09 1.41,31.00 1.47,30.91 1.55,30.84 1.63,30.78 1.73,30.74 1.83,30.70 1.94,30.69 2.04,30.69 2.14,30.72 2.25,30.75 2.33,30.81 2.42,30.87 2.48,30.95 2.55,31.04 2.58,31.14 2.61,31.24 2.61,31.35 2.61,31.45 2.58,31.55 2.54,31.65 2.48,31.74 2.41,31.82 2.32,31.88 2.24,31.94 2.13,31.97 2.03,31.99 1.92,31.99 1.82,31.98 1.72,31.94 1.62,31.90 1.54,31.83 1.46,31.76 1.41,31.67 1.35,31.58 1.33,31.47 1.31,31.37 1.31,31.37 1.31,31.37 0.58,28.45 -0.14,25.53 -0.42,23.61 -0.69,21.69 -0.86,18.65 -1.03,15.61 -0.99,12.20 -0.94,8.78 -0.81,4.97 -0.67,1.16 -0.88,-0.46 -1.08,-2.10 -1.15,-2.86 -1.22,-3.62 -1.20,-3.81 -1.18,-4.00 -1.11,-4.19 -1.04,-4.37 -0.93,-4.53 -0.82,-4.69 -0.67,-4.82 -0.53,-4.94 -0.35,-5.03 -0.18,-5.12 0.00,-5.17 0.18,-5.22 0.38,-5.22 0.57,-5.22 0.76,-5.17 0.95,-5.12 1.12,-5.03 1.29,-4.94 1.44,-4.82 1.58,-4.69 1.69,-4.53 1.80,-4.37 1.87,-4.19 1.94,-4.00 1.97,-3.81 1.99,-3.62 1.70,-2.77 1.40,-1.91 1.20,-0.95 1.01,0 0.99,0.12 0.98,0.24 0.93,0.35 0.89,0.47 0.82,0.57 0.75,0.67 0.66,0.75 0.57,0.83 0.46,0.88 0.35,0.94 0.24,0.97 0.12,1.00 -0.00,1.00 -0.12,1.00 -0.24,0.97 -0.35,0.94 -0.46,0.88 -0.57,0.83 -0.66,0.75 -0.75,0.67 -0.82,0.57 -0.89,0.47 -0.93,0.35 -0.98,0.24 -0.99,0.12 -1.01,-0.00 -1.01,-0.00 L -1.01,0 Z"></path></g><g transform="translate(478.66668701171875 147.04168701171875) rotate(0 1 17.999984741210938)" stroke="none"><path fill="#000" d="M 0,1.04 Q 0,1.04 -0.19,1.32 -0.38,1.60 -0.57,1.57 -0.76,1.55 -0.94,1.48 -1.12,1.41 -1.28,1.30 -1.44,1.19 -1.57,1.05 -1.70,0.91 -1.79,0.73 -1.88,0.56 -1.92,0.38 -1.97,0.19 -1.97,-0.00 -1.97,-0.19 -1.92,-0.38 -1.88,-0.56 -1.79,-0.73 -1.70,-0.91 -1.57,-1.05 -1.44,-1.19 -1.28,-1.30 -1.12,-1.41 -0.94,-1.48 -0.76,-1.55 -0.57,-1.57 -0.38,-1.60 0.55,0.67 1.48,2.94 1.73,5.30 1.98,7.65 2.29,10.38 2.59,13.10 2.91,16.19 3.24,19.27 3.57,22.49 3.90,25.72 4.05,28.08 4.19,30.45 3.75,33.59 3.30,36.72 3.29,36.83 3.27,36.93 3.23,37.03 3.18,37.12 3.10,37.20 3.03,37.27 2.93,37.32 2.84,37.37 2.73,37.38 2.63,37.40 2.52,37.38 2.42,37.36 2.33,37.30 2.23,37.25 2.16,37.17 2.09,37.09 2.05,36.99 2.01,36.90 2.00,36.79 1.99,36.69 2.02,36.58 2.04,36.48 2.10,36.39 2.16,36.30 2.24,36.23 2.32,36.17 2.42,36.13 2.52,36.09 2.63,36.09 2.73,36.09 2.84,36.12 2.94,36.15 3.02,36.21 3.11,36.27 3.17,36.36 3.23,36.45 3.27,36.55 3.30,36.65 3.29,36.76 3.29,36.86 3.25,36.96 3.22,37.06 3.15,37.15 3.08,37.23 2.99,37.29 2.91,37.34 2.80,37.37 2.70,37.39 2.59,37.38 2.49,37.38 2.39,37.33 2.29,37.29 2.21,37.22 2.13,37.15 2.08,37.06 2.03,36.96 2.01,36.86 1.99,36.76 1.99,36.76 1.99,36.76 1.36,33.71 0.72,30.66 0.59,28.36 0.46,26.07 0.14,22.84 -0.17,19.62 -0.48,16.54 -0.79,13.47 -1.07,10.72 -1.36,7.98 -1.58,5.58 -1.81,3.18 -1.09,2.39 -0.38,1.60 -0.57,1.57 -0.76,1.55 -0.94,1.48 -1.12,1.41 -1.28,1.30 -1.44,1.19 -1.57,1.05 -1.70,0.91 -1.79,0.73 -1.88,0.56 -1.92,0.38 -1.97,0.19 -1.97,0.00 -1.97,-0.19 -1.92,-0.38 -1.88,-0.56 -1.79,-0.73 -1.70,-0.91 -1.57,-1.05 -1.44,-1.19 -1.28,-1.30 -1.12,-1.41 -0.94,-1.48 -0.76,-1.55 -0.57,-1.57 -0.38,-1.60 -0.19,-1.32 0,-1.04 0.12,-1.02 0.24,-1.01 0.36,-0.96 0.48,-0.92 0.58,-0.85 0.69,-0.77 0.77,-0.68 0.85,-0.59 0.91,-0.48 0.97,-0.36 1.00,-0.24 1.03,-0.12 1.03,0.00 1.03,0.12 1.00,0.24 0.97,0.36 0.91,0.48 0.85,0.59 0.77,0.68 0.69,0.77 0.58,0.85 0.48,0.92 0.36,0.96 0.24,1.01 0.12,1.02 -0.00,1.04 -0.00,1.04 L 0,1.04 Z"></path></g><g transform="translate(447.3333740234375 361.7083740234375) rotate(0 0.666656494140625 19.33331298828125)" stroke="none"><path fill="#000" d="M 0.89,0.12 Q 0.89,0.12 0.86,1.49 0.83,2.85 0.80,4.89 0.78,6.94 0.98,9.68 1.18,12.43 1.27,15.56 1.35,18.70 1.58,21.51 1.80,24.33 1.91,27.30 2.01,30.27 2.24,32.02 2.47,33.78 2.46,35.73 2.45,37.68 2.46,37.78 2.47,37.89 2.44,37.99 2.41,38.09 2.35,38.18 2.29,38.27 2.20,38.33 2.12,38.40 2.02,38.43 1.92,38.46 1.81,38.46 1.70,38.46 1.60,38.43 1.50,38.39 1.42,38.33 1.33,38.26 1.27,38.17 1.22,38.09 1.19,37.98 1.16,37.88 1.17,37.77 1.17,37.67 1.21,37.57 1.25,37.47 1.32,37.39 1.39,37.31 1.48,37.26 1.57,37.20 1.68,37.18 1.78,37.16 1.89,37.17 1.99,37.18 2.09,37.23 2.18,37.27 2.26,37.35 2.34,37.42 2.39,37.51 2.44,37.61 2.45,37.71 2.47,37.82 2.45,37.92 2.43,38.03 2.38,38.12 2.33,38.21 2.26,38.29 2.18,38.36 2.08,38.40 1.99,38.45 1.88,38.46 1.77,38.47 1.67,38.45 1.57,38.42 1.48,38.37 1.39,38.31 1.32,38.23 1.25,38.15 1.21,38.05 1.17,37.95 1.17,37.95 1.17,37.95 0.34,36.05 -0.49,34.15 -0.72,32.26 -0.95,30.37 -1.04,27.46 -1.12,24.55 -1.33,21.66 -1.55,18.76 -1.60,15.67 -1.65,12.59 -1.76,9.71 -1.87,6.83 -1.73,4.67 -1.60,2.50 -1.25,1.19 -0.89,-0.12 -0.86,-0.23 -0.84,-0.33 -0.78,-0.43 -0.73,-0.53 -0.66,-0.61 -0.58,-0.69 -0.49,-0.75 -0.40,-0.81 -0.30,-0.84 -0.19,-0.88 -0.08,-0.89 0.01,-0.90 0.12,-0.89 0.23,-0.87 0.33,-0.83 0.43,-0.79 0.52,-0.73 0.61,-0.66 0.68,-0.58 0.75,-0.49 0.80,-0.40 0.85,-0.30 0.87,-0.19 0.90,-0.09 0.90,0.01 0.89,0.12 0.89,0.12 L 0.89,0.12 Z"></path></g><g transform="translate(461.3333740234375 377.04168701171875) rotate(0 11.999969482421875 4.333343505859375)" stroke="none"><path fill="#000" d="M -0.88,0.29 Q -0.88,0.29 -1.48,-0.81 -2.09,-1.93 -1.89,-3.72 -1.69,-5.52 -0.48,-7.04 0.72,-8.55 3.49,-9.98 6.25,-11.40 8.66,-11.99 11.08,-12.59 13.11,-12.23 15.15,-11.88 16.60,-10.74 18.06,-9.60 18.55,-7.70 19.04,-5.80 18.38,-3.30 17.73,-0.80 16.47,2.13 15.22,5.06 13.88,7.32 12.55,9.58 11.24,11.67 9.92,13.77 8.95,15.09 7.98,16.41 7.33,17.00 6.68,17.59 6.59,17.88 6.49,18.17 6.33,18.28 6.18,18.40 6.00,18.47 5.82,18.54 5.63,18.56 5.44,18.59 5.24,18.57 5.05,18.55 4.87,18.48 4.69,18.41 4.53,18.31 4.37,18.20 4.24,18.06 4.11,17.91 4.02,17.74 3.93,17.57 3.88,17.39 3.83,17.20 3.83,17.01 3.83,16.82 3.87,16.63 3.92,16.44 4.01,16.27 4.09,16.10 4.22,15.95 4.34,15.81 5.90,15.70 7.45,15.59 8.56,15.63 9.67,15.66 11.75,15.87 13.83,16.09 15.24,16.17 16.64,16.26 18.54,16.70 20.43,17.14 22.52,18.42 24.61,19.69 24.70,19.75 24.79,19.80 24.86,19.88 24.93,19.96 24.97,20.05 25.01,20.15 25.02,20.26 25.03,20.36 25.00,20.47 24.98,20.57 24.92,20.66 24.86,20.75 24.78,20.81 24.70,20.88 24.60,20.92 24.50,20.95 24.39,20.96 24.29,20.96 24.18,20.93 24.08,20.90 24.00,20.83 23.91,20.77 23.85,20.68 23.79,20.60 23.76,20.50 23.73,20.39 23.73,20.29 23.73,20.18 23.77,20.08 23.81,19.98 23.87,19.90 23.94,19.82 24.03,19.76 24.12,19.70 24.22,19.68 24.33,19.65 24.43,19.66 24.54,19.67 24.63,19.71 24.73,19.76 24.81,19.83 24.89,19.90 24.94,19.99 24.99,20.08 25.01,20.19 25.03,20.29 25.02,20.40 25.00,20.50 24.96,20.60 24.91,20.69 24.83,20.77 24.76,20.84 24.66,20.89 24.57,20.94 24.46,20.95 24.36,20.96 24.25,20.94 24.15,20.92 24.15,20.92 24.15,20.92 21.92,20.60 19.68,20.27 18.06,19.87 16.43,19.47 14.97,19.38 13.50,19.29 11.53,19.08 9.55,18.87 8.02,18.52 6.49,18.17 6.33,18.28 6.18,18.40 6.00,18.47 5.82,18.54 5.63,18.56 5.44,18.59 5.24,18.57 5.05,18.55 4.87,18.48 4.69,18.41 4.53,18.31 4.37,18.20 4.24,18.06 4.11,17.91 4.02,17.74 3.93,17.57 3.88,17.39 3.83,17.20 3.83,17.01 3.83,16.82 3.87,16.63 3.92,16.44 4.01,16.27 4.09,16.10 4.22,15.95 4.34,15.81 4.37,15.64 4.39,15.48 4.92,15.00 5.46,14.51 6.37,13.30 7.29,12.10 8.60,10.05 9.92,8.01 11.17,5.93 12.42,3.85 13.63,1.09 14.84,-1.66 15.48,-3.53 16.12,-5.41 16.05,-6.58 15.97,-7.76 15.20,-8.45 14.43,-9.13 13.03,-9.47 11.63,-9.80 9.58,-9.31 7.52,-8.83 5.17,-7.71 2.82,-6.59 1.93,-5.72 1.04,-4.86 0.79,-3.76 0.55,-2.66 0.72,-1.48 0.88,-0.29 0.90,-0.18 0.92,-0.07 0.92,0.03 0.91,0.14 0.88,0.25 0.85,0.36 0.79,0.46 0.74,0.55 0.66,0.64 0.58,0.72 0.49,0.78 0.39,0.84 0.29,0.87 0.18,0.91 0.07,0.92 -0.03,0.92 -0.14,0.91 -0.25,0.89 -0.36,0.84 -0.46,0.80 -0.55,0.73 -0.64,0.67 -0.71,0.58 -0.78,0.49 -0.83,0.39 -0.88,0.29 -0.88,0.29 L -0.88,0.29 Z"></path></g><g transform="translate(601.3333740234375 275.7083435058594) rotate(0 0.33331298828125 14.333328247070312)" stroke="none"><path fill="#000" d="M -0.88,0.29 Q -0.88,0.29 -1.21,-0.23 -1.55,-0.76 -1.58,-0.90 -1.61,-1.05 -1.60,-1.19 -1.59,-1.34 -1.55,-1.49 -1.51,-1.63 -1.44,-1.76 -1.36,-1.89 -1.26,-1.99 -1.16,-2.10 -1.03,-2.18 -0.91,-2.26 -0.76,-2.30 -0.62,-2.35 -0.48,-2.36 -0.33,-2.38 -0.18,-2.35 -0.04,-2.33 0.09,-2.27 0.23,-2.21 0.35,-2.12 0.46,-2.03 0.56,-1.92 0.65,-1.80 0.72,-1.67 0.78,-1.53 0.96,-0.95 1.13,-0.37 1.24,1.10 1.34,2.59 1.40,5.49 1.45,8.39 1.66,11.10 1.86,13.81 1.96,16.35 2.05,18.89 2.09,21.13 2.13,23.36 2.15,24.88 2.17,26.40 2.00,28.24 1.83,30.07 1.85,30.18 1.86,30.28 1.84,30.39 1.82,30.49 1.77,30.58 1.72,30.68 1.64,30.75 1.56,30.82 1.46,30.86 1.37,30.90 1.26,30.91 1.15,30.92 1.05,30.90 0.95,30.87 0.86,30.81 0.77,30.76 0.70,30.67 0.64,30.59 0.60,30.49 0.56,30.39 0.56,30.29 0.56,30.18 0.59,30.08 0.62,29.98 0.68,29.89 0.74,29.80 0.83,29.74 0.91,29.68 1.01,29.65 1.12,29.62 1.22,29.62 1.33,29.62 1.43,29.66 1.53,29.69 1.61,29.76 1.69,29.83 1.75,29.92 1.81,30.01 1.83,30.11 1.86,30.21 1.85,30.32 1.84,30.42 1.80,30.52 1.76,30.62 1.69,30.70 1.62,30.78 1.53,30.83 1.43,30.88 1.33,30.90 1.23,30.92 1.12,30.91 1.01,30.89 0.92,30.85 0.82,30.80 0.75,30.73 0.67,30.65 0.63,30.56 0.58,30.46 0.58,30.46 0.58,30.46 -0.15,28.45 -0.88,26.43 -0.89,24.92 -0.90,23.41 -0.94,21.20 -0.97,19.00 -1.04,16.51 -1.12,14.03 -1.32,11.22 -1.51,8.41 -1.49,5.55 -1.48,2.68 -1.51,0.96 -1.55,-0.76 -1.58,-0.90 -1.61,-1.05 -1.60,-1.19 -1.59,-1.34 -1.55,-1.49 -1.51,-1.63 -1.44,-1.76 -1.36,-1.88 -1.26,-1.99 -1.16,-2.10 -1.03,-2.18 -0.91,-2.26 -0.76,-2.30 -0.62,-2.35 -0.48,-2.36 -0.33,-2.38 -0.18,-2.35 -0.04,-2.33 0.09,-2.27 0.23,-2.21 0.35,-2.12 0.46,-2.03 0.56,-1.92 0.65,-1.80 0.72,-1.67 0.78,-1.53 0.83,-0.91 0.88,-0.29 0.90,-0.18 0.92,-0.07 0.92,0.03 0.91,0.14 0.88,0.25 0.85,0.36 0.79,0.46 0.74,0.55 0.66,0.64 0.58,0.72 0.49,0.78 0.39,0.84 0.29,0.87 0.18,0.91 0.07,0.92 -0.03,0.92 -0.14,0.91 -0.25,0.89 -0.36,0.84 -0.46,0.80 -0.55,0.73 -0.64,0.67 -0.71,0.58 -0.78,0.49 -0.83,0.39 -0.88,0.29 -0.88,0.29 L -0.88,0.29 Z"></path></g><g transform="translate(622 275.7083435058594) rotate(0 0.66668701171875 13.333328247070312)" stroke="none"><path fill="#000" d="M -0.72,0.72 Q -0.72,0.72 -1.05,0.66 -1.38,0.61 -1.48,0.48 -1.59,0.34 -1.66,0.19 -1.73,0.03 -1.76,-0.13 -1.79,-0.29 -1.78,-0.46 -1.77,-0.63 -1.72,-0.80 -1.67,-0.96 -1.58,-1.10 -1.49,-1.25 -1.37,-1.37 -1.25,-1.49 -1.10,-1.58 -0.96,-1.67 -0.80,-1.72 -0.63,-1.77 -0.46,-1.78 -0.29,-1.79 -0.13,-1.76 0.03,-1.73 0.19,-1.66 0.34,-1.59 0.48,-1.48 0.61,-1.38 0.96,0.90 1.31,3.19 1.38,6.31 1.45,9.42 1.47,12.08 1.50,14.73 1.51,17.20 1.53,19.67 1.90,23.28 2.27,26.90 2.28,27.00 2.28,27.11 2.26,27.21 2.23,27.31 2.17,27.40 2.11,27.49 2.03,27.55 1.94,27.62 1.84,27.65 1.74,27.69 1.63,27.69 1.53,27.69 1.43,27.65 1.33,27.62 1.24,27.56 1.16,27.49 1.10,27.40 1.04,27.32 1.01,27.21 0.98,27.11 0.98,27.01 0.99,26.90 1.03,26.80 1.07,26.70 1.14,26.62 1.20,26.54 1.30,26.49 1.39,26.43 1.49,26.41 1.59,26.38 1.70,26.39 1.80,26.41 1.90,26.45 2.00,26.49 2.08,26.57 2.15,26.64 2.20,26.73 2.25,26.83 2.27,26.93 2.29,27.04 2.27,27.14 2.25,27.25 2.21,27.34 2.16,27.43 2.08,27.51 2.00,27.58 1.91,27.63 1.81,27.67 1.70,27.68 1.60,27.70 1.49,27.67 1.39,27.65 1.30,27.60 1.21,27.54 1.14,27.46 1.07,27.38 1.03,27.28 0.99,27.18 0.99,27.18 0.99,27.18 -0.28,23.44 -1.55,19.69 -1.56,17.22 -1.56,14.75 -1.57,12.11 -1.59,9.47 -1.61,6.42 -1.63,3.37 -1.50,1.99 -1.38,0.61 -1.48,0.48 -1.59,0.34 -1.66,0.19 -1.73,0.03 -1.76,-0.13 -1.79,-0.29 -1.78,-0.46 -1.77,-0.63 -1.72,-0.80 -1.67,-0.96 -1.58,-1.10 -1.49,-1.25 -1.37,-1.37 -1.25,-1.49 -1.10,-1.58 -0.96,-1.67 -0.80,-1.72 -0.63,-1.77 -0.46,-1.78 -0.29,-1.79 -0.13,-1.76 0.03,-1.73 0.19,-1.66 0.34,-1.59 0.48,-1.48 0.61,-1.38 0.66,-1.05 0.72,-0.72 0.79,-0.62 0.87,-0.52 0.92,-0.41 0.97,-0.30 0.99,-0.18 1.02,-0.06 1.01,0.06 1.00,0.18 0.96,0.30 0.93,0.41 0.86,0.52 0.80,0.63 0.71,0.71 0.63,0.80 0.52,0.86 0.41,0.93 0.30,0.96 0.18,1.00 0.06,1.01 -0.06,1.02 -0.18,0.99 -0.30,0.97 -0.41,0.92 -0.52,0.87 -0.62,0.79 -0.72,0.72 -0.72,0.72 L -0.72,0.72 Z"></path></g><g transform="translate(467.3333740234375 289.04168701171875) rotate(0 6 -1)" stroke="none"><path fill="#000" d="M -0.68,-0.51 Q -0.68,-0.51 -0.20,-1.35 0.26,-2.19 0.87,-3.08 1.47,-3.98 2.07,-5.25 2.66,-6.52 3.29,-8.20 3.91,-9.88 4.56,-11.58 5.20,-13.28 5.82,-14.98 6.45,-16.67 6.67,-17.87 6.89,-19.07 7.47,-19.97 8.04,-20.86 9.40,-20.64 10.76,-20.42 11.00,-19.79 11.24,-19.17 11.33,-17.84 11.42,-16.50 11.47,-13.47 11.51,-10.44 11.33,-7.58 11.16,-4.71 11.28,-2.07 11.40,0.56 11.64,3.02 11.88,5.48 12.18,8.26 12.47,11.04 12.79,12.74 13.10,14.44 12.83,16.16 12.56,17.87 12.56,17.98 12.55,18.09 12.51,18.18 12.48,18.28 12.41,18.37 12.34,18.45 12.25,18.50 12.16,18.56 12.06,18.58 11.95,18.61 11.85,18.60 11.74,18.59 11.64,18.54 11.55,18.50 11.47,18.43 11.39,18.35 11.34,18.26 11.29,18.17 11.27,18.06 11.25,17.96 11.27,17.85 11.29,17.75 11.33,17.65 11.38,17.56 11.46,17.48 11.54,17.41 11.63,17.37 11.73,17.32 11.83,17.31 11.94,17.29 12.04,17.32 12.15,17.34 12.24,17.39 12.33,17.45 12.40,17.53 12.47,17.61 12.51,17.71 12.55,17.80 12.56,17.91 12.56,18.02 12.54,18.12 12.51,18.22 12.45,18.31 12.39,18.40 12.31,18.46 12.22,18.53 12.12,18.56 12.02,18.60 11.92,18.60 11.81,18.60 11.71,18.57 11.61,18.53 11.52,18.47 11.44,18.41 11.38,18.32 11.32,18.23 11.29,18.13 11.26,18.03 11.26,18.03 11.26,18.03 10.61,16.52 9.95,15.01 9.63,13.19 9.31,11.37 9.02,8.58 8.73,5.78 8.49,3.24 8.25,0.70 8.14,-2.10 8.03,-4.91 8.22,-7.66 8.41,-10.42 8.40,-13.39 8.40,-16.35 8.34,-17.90 8.27,-19.45 8.94,-18.95 9.60,-18.44 9.25,-17.07 8.91,-15.70 8.20,-14.04 7.50,-12.38 6.81,-10.70 6.13,-9.03 5.43,-7.27 4.74,-5.51 4.04,-4.10 3.33,-2.68 2.68,-1.78 2.03,-0.87 1.35,-0.18 0.68,0.51 0.60,0.58 0.53,0.65 0.45,0.71 0.36,0.76 0.26,0.80 0.17,0.83 0.06,0.84 -0.03,0.84 -0.13,0.83 -0.23,0.81 -0.33,0.77 -0.42,0.73 -0.50,0.67 -0.58,0.61 -0.65,0.53 -0.71,0.45 -0.76,0.36 -0.80,0.26 -0.82,0.16 -0.84,0.06 -0.84,-0.03 -0.83,-0.13 -0.81,-0.23 -0.78,-0.33 -0.73,-0.42 -0.68,-0.51 -0.68,-0.51 L -0.68,-0.51 Z"></path></g><g transform="translate(464 312.375) rotate(0 16.66668701171875 -1.666656494140625)" stroke="none"><path fill="#000" d="M -0.45,-0.68 Q -0.45,-0.68 0.56,-1.64 1.59,-2.60 3.16,-3.24 4.73,-3.88 6.63,-4.16 8.54,-4.44 10.69,-4.55 12.84,-4.66 15.34,-4.52 17.84,-4.37 20.81,-4.12 23.77,-3.88 27.98,-3.02 32.19,-2.17 32.29,-2.14 32.40,-2.12 32.48,-2.06 32.57,-2.00 32.64,-1.91 32.70,-1.83 32.74,-1.73 32.77,-1.63 32.77,-1.52 32.77,-1.42 32.74,-1.31 32.71,-1.21 32.64,-1.13 32.58,-1.04 32.49,-0.98 32.40,-0.92 32.30,-0.89 32.20,-0.86 32.09,-0.87 31.99,-0.87 31.89,-0.91 31.79,-0.95 31.71,-1.02 31.63,-1.09 31.57,-1.18 31.52,-1.27 31.49,-1.37 31.47,-1.48 31.48,-1.58 31.49,-1.69 31.53,-1.78 31.58,-1.88 31.65,-1.96 31.72,-2.04 31.82,-2.09 31.91,-2.14 32.01,-2.16 32.12,-2.17 32.22,-2.16 32.33,-2.14 32.42,-2.09 32.52,-2.04 32.59,-1.97 32.67,-1.89 32.71,-1.79 32.76,-1.70 32.77,-1.59 32.78,-1.49 32.76,-1.38 32.74,-1.28 32.68,-1.19 32.63,-1.10 32.55,-1.03 32.47,-0.96 32.37,-0.92 32.27,-0.88 32.16,-0.87 32.06,-0.86 32.06,-0.86 32.06,-0.86 27.78,-0.87 23.51,-0.87 20.58,-1.14 17.65,-1.40 15.31,-1.56 12.97,-1.72 10.93,-1.64 8.90,-1.57 7.27,-1.41 5.65,-1.25 4.33,-0.85 3.00,-0.45 1.73,0.11 0.45,0.68 0.37,0.73 0.28,0.77 0.18,0.80 0.08,0.82 -0.01,0.82 -0.11,0.82 -0.20,0.79 -0.30,0.77 -0.39,0.72 -0.48,0.67 -0.55,0.60 -0.62,0.53 -0.68,0.45 -0.74,0.37 -0.77,0.27 -0.80,0.18 -0.81,0.08 -0.82,-0.01 -0.81,-0.11 -0.80,-0.21 -0.76,-0.30 -0.72,-0.39 -0.66,-0.47 -0.61,-0.55 -0.53,-0.62 -0.45,-0.68 -0.45,-0.68 L -0.45,-0.68 Z"></path></g><g transform="translate(704.800048828125 381.7000427246094) rotate(0 0.00004999999998744897 0.00004999999998744897)" stroke="none"><path fill="#000" d="M 0.78,-0.78 Q 0.78,-0.78 0.88,-0.63 0.99,-0.49 1.04,-0.32 1.10,-0.14 1.09,0.02 1.09,0.20 1.02,0.37 0.96,0.54 0.85,0.68 0.74,0.82 0.59,0.92 0.43,1.02 0.26,1.06 0.09,1.10 -0.08,1.09 -0.26,1.07 -0.43,1.00 -0.59,0.93 -0.73,0.81 -0.86,0.69 -0.95,0.53 -1.04,0.38 -1.07,0.20 -1.10,0.02 -1.08,-0.14 -1.06,-0.32 -0.98,-0.48 -0.90,-0.64 -0.77,-0.77 -0.64,-0.90 -0.48,-0.98 -0.32,-1.06 -0.14,-1.08 0.03,-1.10 0.20,-1.07 0.38,-1.04 0.53,-0.95 0.69,-0.86 0.81,-0.73 0.93,-0.59 1.00,-0.43 1.07,-0.26 1.09,-0.08 1.10,0.09 1.06,0.26 1.01,0.43 0.92,0.59 0.82,0.74 0.68,0.85 0.54,0.96 0.37,1.02 0.20,1.09 0.02,1.09 -0.15,1.10 -0.32,1.04 -0.49,0.99 -0.63,0.88 -0.78,0.78 -0.78,0.78 -0.78,0.78 -0.86,0.67 -0.95,0.57 -1.00,0.45 -1.06,0.33 -1.08,0.19 -1.10,0.06 -1.10,-0.06 -1.09,-0.20 -1.05,-0.32 -1.01,-0.45 -0.94,-0.57 -0.87,-0.68 -0.77,-0.77 -0.68,-0.87 -0.57,-0.94 -0.45,-1.01 -0.32,-1.05 -0.20,-1.09 -0.06,-1.10 0.06,-1.10 0.19,-1.08 0.33,-1.06 0.45,-1.00 0.57,-0.95 0.67,-0.86 0.78,-0.78 0.78,-0.78 L 0.78,-0.78 Z"></path></g></svg>