<svg version="1.1" xmlns="http://www.w3.org/2000/svg" viewBox="0 0 640 380" width="640" height="380">
  <!-- svg-source:excalidraw -->
  
  <defs>
    <style>
      @font-face {
        font-family: "Virgil";
        src: url("https://excalidraw.com/Virgil.woff2");
      }
      @font-face {
        font-family: "Cascadia";
        src: url("https://excalidraw.com/Cascadia.woff2");
      }
    </style>
  </defs>
  <rect x="0" y="0" width="640" height="380" fill="#fff0"></rect><g stroke-linecap="round" transform="translate(10 10) rotate(0 0.5 0.5)"><path d="M-0.06 -0.03 C0.4 -0.08, 0.7 0.04, 0.91 0.03 M0.05 -0.04 C0.42 -0.05, 0.75 0.03, 0.99 0.01 M1.08 -0.06 C1.09 0.27, 1.05 0.48, 1.09 0.92 M0.97 0.01 C0.95 0.33, 0.98 0.72, 1 0.99 M1.03 1.06 C0.65 1.06, 0.49 0.96, -0.03 0.97 M1 1.02 C0.74 0.96, 0.52 1.04, -0.04 0.98 M-0.04 1.01 C0 0.63, -0.06 0.15, 0.05 -0.03 M-0.04 0.95 C-0.04 0.73, -0.03 0.59, -0.05 -0.02" stroke="transparent" stroke-width="0.5" fill="none"></path></g><g stroke-linecap="round" transform="translate(110 70) rotate(0 260 150)"><path d="M-0.08 0.07 C184.16 -0.81, 369.18 -0.42, 519.75 0.76 M-0.35 0.24 C117.56 -0.71, 235.01 -0.65, 519.68 -0.02 M519.14 -0.44 C519.07 65.59, 517.26 132.94, 520.93 300.23 M519.76 -0.24 C522 64.87, 521.43 129.02, 519.64 299.4 M520.18 300.01 C354.89 301.11, 190.3 301.44, -0.23 299.34 M519.85 299.97 C333.75 301.71, 146.55 301.92, 0.36 299.73 M1.24 300.97 C0.63 215.72, -0.45 129.7, -0.71 1.17 M0.06 300.37 C-0.08 193.33, -0.71 87.07, 0.11 0.47" stroke="#220033" stroke-width="0.5" fill="none"></path></g><g stroke-linecap="round" transform="translate(170 110) rotate(0 130 110)"><path d="M188.5 11.15 C202.05 14.89, 214.97 25.72, 225.23 35.07 C235.49 44.41, 244.3 55.74, 250.06 67.23 C255.83 78.72, 259.07 91.48, 259.83 104.01 C260.6 116.53, 258.86 130.39, 254.65 142.37 C250.44 154.36, 243.68 165.82, 234.57 175.9 C225.46 185.97, 212.44 195.8, 200 202.83 C187.55 209.86, 174.26 215.36, 159.9 218.08 C145.53 220.79, 128.5 220.84, 113.81 219.1 C99.12 217.36, 85.05 213.28, 71.76 207.62 C58.46 201.96, 44.15 194.37, 34.06 185.15 C23.98 175.94, 16.93 163.84, 11.25 152.33 C5.57 140.82, 0.99 128.36, 0 116.09 C-0.99 103.82, 0.84 90.6, 5.31 78.71 C9.78 66.81, 17.8 54.85, 26.82 44.72 C35.84 34.59, 47.22 24.99, 59.43 17.92 C71.63 10.86, 85.51 5.1, 100.04 2.34 C114.57 -0.42, 130.25 -0.8, 146.61 1.36 C162.98 3.53, 188.49 11.64, 198.25 15.32 C208.02 19, 206.3 21.79, 205.22 23.45 M107.76 1.45 C121.16 -2.46, 136.48 -0.76, 151.11 1.31 C165.74 3.37, 182.6 7.33, 195.54 13.83 C208.47 20.32, 219.37 30.39, 228.72 40.27 C238.06 50.14, 246.36 61.61, 251.6 73.06 C256.83 84.5, 259.74 96.59, 260.1 108.93 C260.46 121.27, 258.93 134.99, 253.74 147.11 C248.55 159.23, 238.54 171.88, 228.98 181.65 C219.41 191.42, 209.11 199.53, 196.35 205.72 C183.59 211.91, 167.06 216.62, 152.41 218.81 C137.77 221.01, 123 220.98, 108.47 218.89 C93.94 216.8, 78.41 212.52, 65.23 206.3 C52.05 200.07, 38.71 191.12, 29.38 181.54 C20.04 171.96, 13.87 160.66, 9.21 148.81 C4.55 136.96, 1.62 123.06, 1.4 110.44 C1.18 97.83, 3.28 85, 7.89 73.11 C12.5 61.22, 19.86 48.7, 29.05 39.08 C38.23 29.47, 49.8 21.56, 63 15.41 C76.2 9.26, 100.96 4.04, 108.23 2.18 C115.51 0.33, 106.6 2.59, 106.65 4.28" stroke="#220033" stroke-width="0.5" fill="none"></path></g><g stroke-linecap="round" transform="translate(310 110) rotate(0 130 110)"><path d="M93.65 3.98 C106.8 -1.13, 124.91 -0.9, 139.89 0.03 C154.88 0.96, 170.25 4.26, 183.58 9.54 C196.91 14.83, 209.34 23.15, 219.88 31.73 C230.41 40.31, 240.08 49.83, 246.79 61.03 C253.51 72.24, 258.54 86.46, 260.18 98.96 C261.82 111.46, 260.31 123.88, 256.64 136.01 C252.98 148.14, 246.52 161.27, 238.21 171.73 C229.91 182.18, 218.76 191.56, 206.8 198.73 C194.84 205.9, 180.69 211.12, 166.44 214.75 C152.19 218.38, 136.1 221.06, 121.31 220.51 C106.51 219.96, 91.27 216.65, 77.67 211.45 C64.07 206.26, 50.42 198.33, 39.7 189.36 C28.98 180.39, 19.92 169.11, 13.35 157.65 C6.79 146.19, 1.85 132.81, 0.31 120.61 C-1.23 108.4, 0.42 96.5, 4.11 84.42 C7.8 72.34, 14.18 58.77, 22.45 48.14 C30.72 37.51, 40.33 28.39, 53.74 20.65 C67.16 12.92, 93.08 4.57, 102.94 1.73 C112.8 -1.1, 112.3 1.88, 112.91 3.64 M78.1 10.7 C90.02 4.34, 105.3 2.61, 119.83 1.36 C134.36 0.1, 150.84 -0.22, 165.28 3.19 C179.71 6.59, 194.26 14.22, 206.46 21.78 C218.66 29.34, 230.16 38.39, 238.47 48.52 C246.78 58.65, 252.62 70.65, 256.31 82.56 C260 94.47, 261.98 107.4, 260.61 119.98 C259.24 132.55, 254.88 146.27, 248.12 158.01 C241.36 169.75, 230.71 181.47, 220.04 190.42 C209.37 199.36, 197.7 207.04, 184.08 211.69 C170.45 216.33, 153.34 217.62, 138.31 218.3 C123.27 218.98, 108.16 219.06, 93.88 215.76 C79.6 212.46, 64.33 205.87, 52.64 198.49 C40.95 191.12, 31.8 181.94, 23.73 171.53 C15.66 161.11, 7.85 148.17, 4.22 136.01 C0.59 123.85, 0.4 110.81, 1.93 98.55 C3.46 86.3, 7.38 73.74, 13.41 62.49 C19.44 51.24, 27.37 39.71, 38.11 31.06 C48.85 22.41, 71.08 14.08, 77.85 10.61 C84.62 7.15, 78.01 8.85, 78.72 10.27" stroke="#220033" stroke-width="0.5" fill="none"></path></g><g transform="translate(194 90.88543701171875) rotate(0 8.333343505859375 11.666656494140625)" stroke="none"><path fill="#220033" d="M 0.72,0.05 Q 0.72,0.05 0.93,2.76 1.15,5.47 0.89,8.17 0.62,10.87 0.32,13.73 0.02,16.60 -0.09,19.12 -0.21,21.63 -0.46,23.55 -0.70,25.47 -0.80,26.75 -0.90,28.04 -0.74,28.46 -0.58,28.88 -0.62,29.08 -0.66,29.27 -0.74,29.45 -0.82,29.63 -0.95,29.78 -1.07,29.93 -1.23,30.05 -1.39,30.17 -1.57,30.25 -1.75,30.33 -1.95,30.36 -2.14,30.39 -2.34,30.38 -2.53,30.36 -2.72,30.30 -2.91,30.24 -3.08,30.13 -3.24,30.03 -3.38,29.89 -3.52,29.74 -3.62,29.57 -3.72,29.40 -3.77,29.21 -3.83,29.02 -3.84,28.83 -3.85,28.63 -3.77,27.21 -3.69,25.80 -3.29,22.50 -2.89,19.21 -2.53,16.12 -2.17,13.04 -1.62,9.95 -1.08,6.87 -0.46,4.19 0.15,1.51 0.82,-0.44 1.48,-2.41 1.97,-3.81 2.45,-5.22 3.31,-6.14 4.17,-7.06 5.55,-7.00 6.93,-6.95 7.97,-5.29 9.01,-3.63 9.77,-1.13 10.53,1.36 11.40,3.86 12.26,6.37 13.21,8.97 14.15,11.57 14.95,14.26 15.76,16.95 16.63,18.93 17.51,20.92 18.43,22.49 19.35,24.05 19.00,26.14 18.65,28.23 18.57,28.30 18.49,28.37 18.39,28.42 18.30,28.46 18.19,28.47 18.08,28.48 17.98,28.46 17.88,28.43 17.79,28.38 17.70,28.32 17.63,28.24 17.56,28.16 17.52,28.06 17.48,27.96 17.48,27.85 17.47,27.75 17.50,27.65 17.53,27.54 17.59,27.46 17.66,27.37 17.74,27.31 17.83,27.24 17.93,27.21 18.03,27.18 18.13,27.18 18.24,27.18 18.34,27.21 18.44,27.25 18.52,27.31 18.61,27.38 18.67,27.47 18.73,27.56 18.75,27.66 18.78,27.76 18.77,27.87 18.77,27.97 18.73,28.07 18.69,28.17 18.62,28.25 18.55,28.33 18.45,28.38 18.36,28.44 18.26,28.46 18.15,28.48 18.05,28.47 17.94,28.46 17.85,28.41 17.75,28.36 17.68,28.29 17.60,28.22 17.55,28.12 17.50,28.03 17.49,27.92 17.47,27.82 17.49,27.71 17.51,27.61 17.56,27.52 17.61,27.42 17.61,27.42 17.61,27.42 17.04,26.57 16.47,25.72 15.46,23.99 14.46,22.25 13.52,20.07 12.58,17.89 11.81,15.30 11.04,12.70 10.09,10.07 9.14,7.45 8.25,4.88 7.37,2.30 6.72,0.07 6.06,-2.15 5.78,-3.09 5.50,-4.03 5.05,-2.69 4.61,-1.34 3.99,0.46 3.37,2.26 2.76,4.85 2.16,7.44 1.63,10.43 1.11,13.42 0.75,16.52 0.39,19.61 0.00,22.74 -0.38,25.87 -0.48,27.37 -0.58,28.88 -0.62,29.08 -0.66,29.27 -0.74,29.45 -0.82,29.63 -0.95,29.78 -1.07,29.93 -1.23,30.05 -1.39,30.17 -1.57,30.25 -1.75,30.33 -1.95,30.36 -2.14,30.39 -2.34,30.38 -2.53,30.36 -2.72,30.30 -2.91,30.24 -3.08,30.13 -3.24,30.03 -3.38,29.89 -3.52,29.75 -3.62,29.57 -3.72,29.40 -3.77,29.21 -3.83,29.02 -3.84,28.83 -3.85,28.63 -3.98,28.28 -4.11,27.92 -4.00,26.48 -3.89,25.04 -3.64,23.25 -3.40,21.47 -3.26,18.86 -3.11,16.26 -2.80,13.41 -2.48,10.55 -2.20,7.90 -1.92,5.25 -1.32,2.60 -0.72,-0.05 -0.70,-0.13 -0.68,-0.22 -0.65,-0.30 -0.61,-0.38 -0.56,-0.45 -0.50,-0.51 -0.43,-0.57 -0.36,-0.62 -0.28,-0.65 -0.20,-0.69 -0.12,-0.70 -0.03,-0.72 0.05,-0.71 0.13,-0.71 0.22,-0.68 0.30,-0.65 0.37,-0.61 0.45,-0.56 0.51,-0.50 0.57,-0.44 0.62,-0.36 0.66,-0.29 0.68,-0.20 0.71,-0.12 0.71,-0.03 0.72,0.05 0.72,0.05 L 0.72,0.05 Z"></path></g><g transform="translate(192.66668701171875 108.21875) rotate(0 12.666656494140625 -2)" stroke="none"><path fill="#220033" d="M -0.30,-1.07 Q -0.30,-1.07 0.96,-1.70 2.23,-2.34 3.79,-2.73 5.35,-3.12 8.34,-3.67 11.33,-4.23 14.14,-4.65 16.95,-5.08 20.38,-4.81 23.81,-4.54 23.92,-4.53 24.02,-4.52 24.12,-4.48 24.22,-4.43 24.30,-4.36 24.38,-4.29 24.43,-4.20 24.48,-4.11 24.50,-4.00 24.52,-3.90 24.50,-3.79 24.49,-3.69 24.44,-3.59 24.39,-3.50 24.32,-3.42 24.24,-3.35 24.15,-3.30 24.05,-3.25 23.95,-3.24 23.84,-3.23 23.74,-3.25 23.63,-3.27 23.54,-3.32 23.45,-3.37 23.38,-3.45 23.31,-3.53 23.27,-3.63 23.22,-3.73 23.22,-3.83 23.21,-3.94 23.23,-4.04 23.26,-4.15 23.32,-4.24 23.38,-4.32 23.46,-4.39 23.54,-4.46 23.64,-4.49 23.74,-4.53 23.85,-4.53 23.95,-4.53 24.06,-4.50 24.16,-4.47 24.24,-4.41 24.33,-4.35 24.39,-4.26 24.45,-4.17 24.48,-4.07 24.51,-3.97 24.51,-3.86 24.51,-3.76 24.47,-3.66 24.43,-3.56 24.36,-3.47 24.30,-3.39 24.21,-3.34 24.12,-3.28 24.01,-3.25 23.91,-3.23 23.91,-3.23 23.91,-3.23 20.69,-2.45 17.46,-1.67 14.70,-1.26 11.94,-0.85 9.03,-0.34 6.12,0.16 4.62,0.48 3.13,0.80 1.71,0.93 0.30,1.07 0.17,1.09 0.04,1.11 -0.09,1.10 -0.22,1.09 -0.35,1.04 -0.48,1.00 -0.59,0.93 -0.70,0.86 -0.80,0.76 -0.89,0.66 -0.95,0.54 -1.02,0.43 -1.06,0.30 -1.09,0.17 -1.10,0.04 -1.10,-0.09 -1.08,-0.22 -1.05,-0.35 -0.99,-0.47 -0.93,-0.59 -0.85,-0.70 -0.76,-0.80 -0.66,-0.88 -0.55,-0.96 -0.42,-1.01 -0.30,-1.07 -0.30,-1.07 L -0.30,-1.07 Z"></path></g><g transform="translate(469.3333740234375 84.21875) rotate(0 12.33331298828125 10.000015258789062)" stroke="none"><path fill="#220033" d="M 0.78,-0.26 Q 0.78,-0.26 1.48,0.78 2.18,1.82 2.57,3.54 2.97,5.25 3.14,7.19 3.32,9.14 3.76,11.17 4.20,13.20 4.40,14.74 4.61,16.28 4.70,17.32 4.78,18.37 4.83,18.61 4.88,18.85 4.87,19.04 4.87,19.24 4.81,19.42 4.76,19.61 4.66,19.78 4.56,19.94 4.43,20.08 4.29,20.22 4.13,20.33 3.97,20.43 3.78,20.49 3.60,20.55 3.40,20.57 3.21,20.58 3.02,20.55 2.83,20.52 2.65,20.45 2.47,20.37 2.32,20.25 2.16,20.14 2.04,19.99 1.92,19.84 1.83,19.66 1.75,19.48 1.71,19.29 1.67,19.10 0.96,16.99 0.25,14.88 0.09,12.69 -0.06,10.51 0.25,7.56 0.58,4.62 1.14,2.32 1.70,0.03 3.27,-1.77 4.84,-3.59 6.64,-4.40 8.45,-5.21 10.03,-5.53 11.61,-5.84 13.18,-5.77 14.76,-5.70 16.26,-4.81 17.76,-3.93 17.95,-2.54 18.14,-1.16 16.86,0.59 15.58,2.36 14.26,3.59 12.94,4.82 11.54,5.77 10.15,6.72 9.06,7.17 7.98,7.62 7.44,8.06 6.91,8.50 6.73,8.58 6.55,8.66 6.36,8.70 6.17,8.73 5.97,8.72 5.78,8.70 5.59,8.64 5.40,8.58 5.24,8.48 5.07,8.38 4.93,8.24 4.80,8.10 4.70,7.93 4.60,7.76 4.54,7.58 4.48,7.39 4.47,7.19 4.46,7.00 4.50,6.81 4.54,6.61 4.62,6.44 4.70,6.26 4.82,6.10 4.94,5.95 5.10,5.83 5.25,5.71 7.21,5.66 9.17,5.61 12.07,6.23 14.97,6.85 17.71,8.35 20.44,9.85 22.17,12.30 23.90,14.74 22.65,17.82 21.40,20.91 19.23,22.55 17.06,24.18 14.17,24.70 11.28,25.22 9.13,24.80 6.98,24.37 5.09,22.57 3.21,20.76 3.14,20.68 3.07,20.60 3.04,20.50 3.00,20.40 2.99,20.29 2.99,20.19 3.02,20.09 3.05,19.98 3.11,19.90 3.17,19.81 3.25,19.75 3.34,19.68 3.44,19.65 3.54,19.62 3.65,19.62 3.75,19.62 3.85,19.65 3.95,19.69 4.04,19.75 4.12,19.82 4.18,19.91 4.24,20.00 4.27,20.10 4.29,20.20 4.29,20.31 4.28,20.41 4.24,20.51 4.20,20.61 4.13,20.69 4.06,20.77 3.97,20.82 3.88,20.88 3.77,20.90 3.67,20.92 3.56,20.91 3.46,20.90 3.36,20.85 3.27,20.80 3.19,20.73 3.11,20.66 3.06,20.56 3.02,20.47 3.00,20.36 2.98,20.26 3.00,20.15 3.02,20.05 3.07,19.96 3.12,19.86 3.20,19.79 3.28,19.72 3.37,19.67 3.47,19.63 3.58,19.62 3.68,19.61 3.79,19.63 3.89,19.66 3.98,19.71 4.07,19.77 4.07,19.77 4.07,19.77 5.93,20.31 7.79,20.85 9.32,21.26 10.85,21.67 13.03,21.45 15.20,21.23 16.82,20.23 18.43,19.22 19.78,16.99 21.14,14.75 19.96,13.70 18.79,12.65 16.51,11.34 14.23,10.02 11.63,9.44 9.03,8.86 7.97,8.68 6.91,8.50 6.73,8.58 6.55,8.66 6.36,8.70 6.17,8.73 5.97,8.72 5.78,8.70 5.59,8.64 5.40,8.58 5.24,8.48 5.07,8.38 4.93,8.24 4.80,8.10 4.70,7.93 4.60,7.76 4.54,7.58 4.48,7.39 4.47,7.19 4.46,7.00 4.50,6.81 4.54,6.61 4.62,6.44 4.70,6.26 4.82,6.10 4.94,5.95 5.10,5.83 5.25,5.71 5.24,5.65 5.23,5.58 6.00,5.09 6.78,4.60 7.56,4.31 8.35,4.02 9.55,3.23 10.75,2.43 11.93,1.36 13.11,0.28 14.11,-0.66 15.11,-1.62 14.81,-2.07 14.51,-2.52 13.35,-2.60 12.18,-2.69 10.92,-2.46 9.65,-2.24 8.38,-1.79 7.10,-1.34 5.92,-0.18 4.75,0.97 4.27,2.98 3.80,4.99 3.48,7.64 3.16,10.29 3.30,12.27 3.43,14.24 3.64,15.67 3.85,17.11 4.37,17.98 4.88,18.85 4.87,19.04 4.87,19.24 4.81,19.42 4.76,19.61 4.66,19.78 4.56,19.94 4.43,20.08 4.30,20.22 4.13,20.33 3.97,20.43 3.78,20.49 3.60,20.55 3.40,20.57 3.21,20.58 3.02,20.55 2.83,20.52 2.65,20.45 2.47,20.37 2.32,20.25 2.16,20.14 2.04,19.99 1.92,19.84 1.83,19.66 1.75,19.48 1.71,19.29 1.67,19.10 1.65,18.86 1.63,18.63 1.56,17.65 1.49,16.68 1.31,15.26 1.14,13.84 0.68,11.62 0.23,9.39 0.10,7.64 -0.02,5.89 -0.33,4.33 -0.65,2.77 -0.71,1.51 -0.78,0.26 -0.80,0.16 -0.82,0.06 -0.82,-0.03 -0.81,-0.13 -0.78,-0.22 -0.76,-0.32 -0.71,-0.41 -0.66,-0.49 -0.59,-0.56 -0.52,-0.64 -0.43,-0.69 -0.35,-0.74 -0.25,-0.77 -0.16,-0.81 -0.06,-0.81 0.03,-0.82 0.13,-0.81 0.23,-0.79 0.32,-0.75 0.41,-0.71 0.49,-0.65 0.57,-0.59 0.63,-0.51 0.69,-0.44 0.74,-0.35 0.78,-0.26 0.78,-0.26 L 0.78,-0.26 Z"></path></g><g transform="translate(159.33334350585938 330.88543701171875) rotate(0 -0.3333282470703125 14.666656494140625)" stroke="none"><path fill="#220033" d="M 0.73,0 Q 0.73,0 0.98,1.15 1.22,2.3 1.27,4.70 1.32,7.11 1.14,9.34 0.96,11.57 0.90,13.99 0.83,16.41 0.81,17.83 0.78,19.25 0.77,20.81 0.77,22.36 0.78,23.60 0.78,24.83 0.69,26.83 0.60,28.83 0.59,28.94 0.59,29.05 0.55,29.15 0.51,29.24 0.44,29.33 0.38,29.41 0.29,29.46 0.20,29.52 0.09,29.54 -0.00,29.57 -0.11,29.56 -0.21,29.55 -0.31,29.51 -0.41,29.46 -0.49,29.39 -0.56,29.32 -0.61,29.22 -0.67,29.13 -0.68,29.03 -0.70,28.92 -0.69,28.82 -0.67,28.71 -0.62,28.62 -0.57,28.52 -0.50,28.45 -0.42,28.37 -0.32,28.33 -0.23,28.28 -0.12,28.27 -0.02,28.26 0.08,28.28 0.18,28.30 0.27,28.35 0.36,28.41 0.43,28.49 0.50,28.57 0.54,28.67 0.58,28.76 0.59,28.87 0.60,28.98 0.57,29.08 0.54,29.18 0.49,29.27 0.43,29.36 0.34,29.42 0.26,29.49 0.16,29.53 0.06,29.56 -0.04,29.56 -0.14,29.56 -0.24,29.53 -0.35,29.50 -0.43,29.43 -0.52,29.37 -0.58,29.28 -0.64,29.20 -0.67,29.09 -0.70,28.99 -0.70,28.99 -0.70,28.99 -1.40,26.91 -2.09,24.83 -2.08,23.58 -2.06,22.33 -2.03,20.76 -2.01,19.18 -1.97,17.75 -1.93,16.32 -1.83,13.82 -1.73,11.33 -1.52,9.22 -1.32,7.11 -1.27,4.70 -1.22,2.3 -0.98,1.15 -0.73,0 -0.72,-0.08 -0.71,-0.17 -0.68,-0.25 -0.65,-0.34 -0.59,-0.41 -0.54,-0.48 -0.48,-0.54 -0.41,-0.60 -0.33,-0.64 -0.26,-0.68 -0.17,-0.70 -0.08,-0.72 0.00,-0.72 0.08,-0.72 0.17,-0.70 0.26,-0.68 0.33,-0.64 0.41,-0.60 0.48,-0.54 0.54,-0.48 0.59,-0.41 0.65,-0.34 0.68,-0.25 0.71,-0.17 0.72,-0.08 0.73,0.00 0.73,0.00 L 0.73,0 Z"></path></g><g transform="translate(149.33334350585938 338.21875) rotate(0 6 5.66668701171875)" stroke="none"><path fill="#220033" d="M -0.49,-0.49 Q -0.49,-0.49 -0.14,-0.90 0.21,-1.31 0.51,-1.80 0.81,-2.29 1.79,-3.19 2.77,-4.09 3.40,-4.47 4.04,-4.85 4.37,-5.30 4.70,-5.75 5.07,-6.20 5.44,-6.65 5.83,-7.32 6.21,-8.00 6.66,-8.38 7.10,-8.76 8.05,-8.88 9.00,-9.01 9.63,-8.78 10.27,-8.55 10.60,-8.06 10.94,-7.57 11.23,-6.37 11.53,-5.18 11.47,-3.59 11.41,-2.00 11.38,-0.09 11.36,1.82 11.35,3.59 11.34,5.37 11.52,7.21 11.71,9.05 11.97,10.37 12.23,11.69 12.36,13.12 12.49,14.54 12.54,16.73 12.58,18.92 12.59,19.02 12.59,19.13 12.56,19.23 12.53,19.33 12.47,19.42 12.41,19.51 12.32,19.57 12.24,19.63 12.13,19.67 12.03,19.70 11.93,19.70 11.82,19.69 11.72,19.66 11.62,19.62 11.54,19.56 11.45,19.49 11.40,19.40 11.34,19.31 11.31,19.21 11.28,19.11 11.29,19.00 11.30,18.90 11.34,18.80 11.38,18.70 11.45,18.62 11.52,18.54 11.61,18.49 11.71,18.43 11.81,18.41 11.91,18.39 12.02,18.40 12.12,18.42 12.22,18.46 12.32,18.51 12.39,18.59 12.47,18.66 12.52,18.75 12.56,18.85 12.58,18.95 12.59,19.06 12.58,19.16 12.56,19.27 12.51,19.36 12.45,19.45 12.38,19.53 12.30,19.60 12.20,19.64 12.10,19.68 12.00,19.69 11.89,19.70 11.79,19.68 11.68,19.65 11.59,19.60 11.50,19.54 11.44,19.46 11.37,19.38 11.33,19.28 11.29,19.18 11.29,19.18 11.29,19.18 10.56,16.97 9.83,14.77 9.73,13.49 9.62,12.20 9.35,10.75 9.07,9.30 8.89,7.32 8.70,5.35 8.72,3.56 8.74,1.77 8.79,-0.19 8.84,-2.16 8.95,-3.40 9.07,-4.64 8.53,-5.80 8.00,-6.96 7.38,-6.20 6.76,-5.45 6.38,-5.06 6.00,-4.67 5.45,-4.06 4.90,-3.45 4.37,-3.15 3.84,-2.85 2.99,-2.13 2.13,-1.41 1.72,-0.81 1.31,-0.21 0.90,0.14 0.49,0.49 0.43,0.55 0.36,0.60 0.28,0.63 0.21,0.67 0.12,0.69 0.04,0.70 -0.04,0.70 -0.12,0.69 -0.20,0.66 -0.29,0.64 -0.36,0.60 -0.43,0.55 -0.49,0.49 -0.55,0.43 -0.60,0.36 -0.64,0.28 -0.66,0.20 -0.69,0.12 -0.70,0.04 -0.70,-0.04 -0.69,-0.12 -0.67,-0.21 -0.63,-0.28 -0.60,-0.36 -0.55,-0.43 -0.49,-0.49 -0.49,-0.49 L -0.49,-0.49 Z"></path></g><g transform="translate(148.66668701171875 364.21875) rotate(0 13.999984741210938 0.333343505859375)" stroke="none"><path fill="#220033" d="M -0.20,-0.70 Q -0.20,-0.70 1.08,-1.29 2.37,-1.87 4.19,-2.05 6.01,-2.24 8.17,-2.11 10.33,-1.99 12.45,-1.55 14.57,-1.10 17.71,-0.53 20.86,0.02 24.07,0.60 27.28,1.19 27.39,1.22 27.49,1.25 27.58,1.31 27.66,1.36 27.73,1.45 27.79,1.53 27.83,1.63 27.86,1.73 27.86,1.84 27.86,1.95 27.83,2.05 27.80,2.15 27.73,2.23 27.67,2.32 27.58,2.38 27.49,2.44 27.39,2.47 27.29,2.50 27.18,2.49 27.08,2.49 26.98,2.45 26.88,2.41 26.80,2.34 26.72,2.27 26.66,2.18 26.61,2.09 26.58,1.98 26.56,1.88 26.57,1.78 26.58,1.67 26.63,1.57 26.67,1.48 26.74,1.40 26.82,1.32 26.91,1.27 27.00,1.22 27.11,1.20 27.21,1.19 27.32,1.20 27.42,1.22 27.52,1.27 27.61,1.32 27.68,1.40 27.76,1.47 27.80,1.57 27.85,1.67 27.86,1.77 27.87,1.88 27.85,1.98 27.83,2.08 27.77,2.18 27.72,2.27 27.64,2.34 27.56,2.40 27.46,2.44 27.36,2.48 27.25,2.49 27.15,2.50 27.15,2.50 27.15,2.50 23.80,2.39 20.45,2.29 17.27,1.72 14.09,1.14 12.14,0.72 10.19,0.30 8.21,0.17 6.23,0.05 4.61,0.19 2.99,0.33 1.59,0.52 0.20,0.70 0.11,0.72 0.02,0.73 -0.06,0.72 -0.15,0.72 -0.23,0.69 -0.31,0.66 -0.39,0.61 -0.46,0.56 -0.53,0.50 -0.59,0.44 -0.63,0.36 -0.67,0.28 -0.70,0.20 -0.72,0.11 -0.73,0.02 -0.73,-0.06 -0.71,-0.14 -0.69,-0.23 -0.66,-0.31 -0.62,-0.39 -0.56,-0.46 -0.50,-0.53 -0.43,-0.58 -0.36,-0.64 -0.28,-0.67 -0.20,-0.70 -0.20,-0.70 L -0.20,-0.70 Z"></path></g><g transform="translate(346.66668701171875 198.21875) rotate(0 14.666656494140625 3.333343505859375)" stroke="none"><path fill="#220033" d="M -0.76,0 Q -0.76,0 -1.00,-1.15 -1.24,-2.3 -1.27,-3.17 -1.31,-4.04 -1.33,-5.02 -1.34,-5.99 -0.71,-7.44 -0.08,-8.88 0.76,-10.21 1.62,-11.55 2.39,-12.52 3.16,-13.50 4.08,-14.51 5.01,-15.52 6.49,-16.44 7.98,-17.36 9.41,-17.94 10.84,-18.52 12.32,-18.79 13.79,-19.06 15.04,-19.16 16.30,-19.26 17.69,-18.67 19.08,-18.07 19.80,-17.61 20.53,-17.14 20.99,-16.55 21.46,-15.97 21.71,-14.54 21.95,-13.11 21.62,-11.09 21.28,-9.08 21.15,-7.96 21.01,-6.85 20.35,-4.86 19.68,-2.88 19.23,-1.37 18.78,0.14 18.19,1.79 17.60,3.45 16.97,5.28 16.35,7.10 15.68,8.70 15.01,10.29 14.11,11.81 13.22,13.33 12.46,14.53 11.71,15.72 11.00,16.82 10.28,17.92 9.06,18.93 7.84,19.94 7.22,20.48 6.60,21.01 5.86,21.50 5.12,21.98 4.51,22.31 3.89,22.64 3.71,22.69 3.53,22.73 3.35,22.73 3.16,22.73 2.98,22.69 2.80,22.65 2.64,22.56 2.48,22.48 2.34,22.36 2.20,22.23 2.09,22.08 1.99,21.93 1.92,21.76 1.86,21.59 1.83,21.40 1.81,21.22 1.83,21.04 1.85,20.85 1.92,20.68 1.98,20.51 2.09,20.36 2.19,20.20 2.33,20.08 2.47,19.96 2.63,19.87 2.79,19.79 3.70,19.20 4.61,18.61 5.76,18.36 6.92,18.11 8.60,18.02 10.27,17.93 11.65,18.09 13.03,18.25 14.32,18.75 15.61,19.25 16.60,19.90 17.59,20.55 18.42,20.92 19.25,21.30 20.04,21.68 20.83,22.06 21.99,22.36 23.16,22.67 24.01,22.80 24.86,22.93 26.68,23.45 28.51,23.97 28.61,23.99 28.72,24.01 28.81,24.06 28.90,24.12 28.97,24.20 29.04,24.28 29.08,24.38 29.12,24.48 29.12,24.58 29.13,24.69 29.10,24.79 29.08,24.89 29.02,24.98 28.96,25.07 28.87,25.13 28.79,25.20 28.69,25.23 28.59,25.27 28.48,25.27 28.38,25.27 28.27,25.24 28.17,25.20 28.09,25.14 28.00,25.08 27.94,24.99 27.88,24.90 27.85,24.80 27.83,24.70 27.83,24.59 27.84,24.49 27.87,24.39 27.91,24.29 27.98,24.21 28.05,24.12 28.14,24.07 28.23,24.01 28.33,23.99 28.44,23.97 28.54,23.98 28.65,23.99 28.75,24.03 28.84,24.08 28.92,24.15 29.00,24.22 29.05,24.31 29.10,24.41 29.12,24.51 29.13,24.62 29.12,24.72 29.10,24.83 29.05,24.92 29.00,25.02 28.93,25.09 28.85,25.16 28.75,25.21 28.66,25.25 28.55,25.27 28.45,25.28 28.45,25.28 28.45,25.28 26.41,25.62 24.38,25.95 23.36,25.79 22.35,25.62 20.93,25.22 19.51,24.82 18.74,24.44 17.97,24.07 16.93,23.57 15.89,23.08 15.17,22.58 14.45,22.07 13.54,21.67 12.62,21.27 11.52,21.12 10.42,20.97 8.96,21.04 7.50,21.11 6.69,21.25 5.89,21.38 4.89,22.01 3.89,22.64 3.71,22.69 3.53,22.73 3.35,22.73 3.16,22.73 2.98,22.69 2.80,22.65 2.64,22.56 2.48,22.48 2.34,22.36 2.20,22.23 2.09,22.08 1.99,21.93 1.92,21.76 1.86,21.59 1.83,21.40 1.81,21.22 1.83,21.04 1.85,20.85 1.92,20.68 1.98,20.51 2.09,20.36 2.19,20.20 2.33,20.08 2.47,19.96 2.63,19.87 2.79,19.79 2.54,20.05 2.28,20.32 2.88,19.87 3.48,19.42 4.05,19.05 4.63,18.69 5.29,18.13 5.96,17.56 6.87,16.89 7.78,16.23 8.46,15.17 9.15,14.11 9.89,12.95 10.63,11.78 11.43,10.45 12.23,9.12 12.87,7.62 13.50,6.13 14.14,4.28 14.77,2.43 15.34,0.86 15.91,-0.71 16.38,-2.28 16.86,-3.86 17.46,-5.54 18.06,-7.22 18.21,-8.42 18.36,-9.61 18.70,-11.23 19.03,-12.84 18.96,-13.80 18.90,-14.76 18.34,-15.13 17.78,-15.50 17.05,-15.97 16.31,-16.44 15.29,-16.35 14.26,-16.26 13.06,-16.08 11.87,-15.90 10.63,-15.43 9.40,-14.95 8.22,-14.28 7.03,-13.62 6.18,-12.69 5.33,-11.77 4.64,-10.91 3.95,-10.04 3.16,-8.85 2.38,-7.66 1.86,-6.76 1.34,-5.87 1.33,-4.95 1.31,-4.04 1.27,-3.17 1.24,-2.3 1.00,-1.15 0.76,0 0.75,0.09 0.74,0.18 0.71,0.27 0.67,0.35 0.62,0.43 0.57,0.50 0.50,0.57 0.43,0.63 0.35,0.67 0.27,0.71 0.18,0.73 0.09,0.76 -0.00,0.76 -0.09,0.76 -0.18,0.73 -0.27,0.71 -0.35,0.67 -0.43,0.63 -0.50,0.57 -0.57,0.50 -0.62,0.43 -0.67,0.35 -0.71,0.27 -0.74,0.18 -0.75,0.09 -0.76,-0.00 -0.76,-0.00 L -0.76,0 Z"></path></g><g transform="translate(478.66668701171875 155.55209350585938) rotate(0 12.666656494140625 12.333328247070312)" stroke="none"><path fill="#220033" d="M -0.83,-0.13 Q -0.83,-0.13 -0.85,-1.35 -0.88,-2.58 -0.12,-3.71 0.63,-4.84 1.58,-5.70 2.52,-6.56 3.81,-7.19 5.11,-7.82 6.52,-8.09 7.92,-8.37 9.39,-8.29 10.85,-8.21 12.14,-8.17 13.44,-8.13 14.94,-7.71 16.44,-7.28 17.68,-6.85 18.91,-6.43 19.68,-4.97 20.45,-3.51 19.70,-2.13 18.94,-0.75 17.54,0.42 16.13,1.60 14.36,2.68 12.58,3.75 11.23,4.41 9.88,5.07 8.96,5.52 8.04,5.98 7.83,6.18 7.62,6.39 7.45,6.45 7.28,6.51 7.10,6.52 6.92,6.54 6.74,6.51 6.56,6.49 6.40,6.42 6.23,6.35 6.08,6.24 5.94,6.13 5.82,6.00 5.71,5.86 5.63,5.69 5.55,5.53 5.51,5.36 5.47,5.18 5.48,5.00 5.48,4.82 5.53,4.64 5.58,4.47 5.67,4.31 5.76,4.16 5.88,4.02 6.00,3.89 6.16,3.79 6.31,3.70 7.13,3.73 7.96,3.76 8.84,3.98 9.71,4.20 11.12,4.70 12.53,5.20 14.07,5.79 15.62,6.38 17.94,7.85 20.26,9.31 22.02,10.72 23.78,12.13 25.18,13.77 26.58,15.41 27.43,17.02 28.27,18.63 28.27,20.38 28.26,22.13 27.37,23.79 26.48,25.45 25.07,26.94 23.66,28.43 21.19,29.73 18.72,31.02 16.69,31.74 14.65,32.47 11.83,32.42 9.00,32.37 6.71,31.51 4.42,30.66 2.47,29.49 0.52,28.32 -1.18,25.57 -2.89,22.82 -2.94,22.72 -2.98,22.63 -3.00,22.52 -3.01,22.41 -2.99,22.31 -2.96,22.21 -2.91,22.12 -2.86,22.02 -2.77,21.95 -2.69,21.89 -2.60,21.85 -2.50,21.81 -2.39,21.80 -2.28,21.79 -2.18,21.82 -2.08,21.85 -1.99,21.91 -1.90,21.97 -1.84,22.05 -1.77,22.14 -1.74,22.24 -1.70,22.34 -1.70,22.44 -1.70,22.55 -1.74,22.65 -1.77,22.75 -1.83,22.84 -1.90,22.92 -1.99,22.98 -2.07,23.04 -2.18,23.07 -2.28,23.10 -2.38,23.09 -2.49,23.09 -2.59,23.05 -2.69,23.01 -2.77,22.94 -2.85,22.87 -2.91,22.78 -2.96,22.69 -2.98,22.59 -3.01,22.49 -3.00,22.38 -2.99,22.27 -2.94,22.18 -2.90,22.08 -2.83,22.00 -2.75,21.93 -2.66,21.88 -2.57,21.82 -2.46,21.81 -2.36,21.79 -2.25,21.81 -2.15,21.82 -2.05,21.87 -1.96,21.92 -1.88,22.00 -1.81,22.07 -1.81,22.07 -1.81,22.07 0.19,23.85 2.20,25.62 3.90,26.67 5.60,27.72 7.39,28.48 9.18,29.24 11.44,29.38 13.70,29.52 15.52,28.89 17.33,28.25 19.41,27.26 21.50,26.26 22.68,25.07 23.86,23.88 24.56,22.85 25.26,21.81 25.39,20.82 25.52,19.83 24.88,18.60 24.24,17.36 23.06,15.93 21.87,14.50 20.24,13.18 18.61,11.87 16.57,10.54 14.52,9.20 13.01,8.62 11.51,8.04 10.24,7.58 8.97,7.12 8.30,6.75 7.62,6.39 7.45,6.45 7.28,6.51 7.10,6.52 6.92,6.54 6.74,6.51 6.56,6.49 6.40,6.42 6.23,6.35 6.09,6.24 5.94,6.13 5.82,6.00 5.71,5.86 5.63,5.69 5.55,5.53 5.51,5.36 5.47,5.18 5.48,5.00 5.48,4.82 5.53,4.64 5.58,4.47 5.67,4.31 5.76,4.16 5.88,4.02 6.00,3.89 6.16,3.79 6.31,3.70 6.51,3.51 6.71,3.33 7.65,2.87 8.60,2.41 9.84,1.83 11.08,1.24 12.69,0.29 14.31,-0.65 15.46,-1.54 16.61,-2.42 17.16,-3.19 17.71,-3.97 16.67,-4.27 15.62,-4.56 14.47,-4.94 13.32,-5.31 11.98,-5.36 10.64,-5.41 9.51,-5.53 8.38,-5.64 7.30,-5.48 6.21,-5.33 5.24,-4.93 4.27,-4.53 3.51,-3.88 2.75,-3.24 2.20,-2.63 1.64,-2.01 1.24,-0.94 0.83,0.13 0.80,0.23 0.77,0.33 0.72,0.42 0.67,0.51 0.60,0.58 0.53,0.65 0.44,0.71 0.35,0.76 0.26,0.79 0.16,0.83 0.06,0.83 -0.03,0.84 -0.13,0.82 -0.23,0.81 -0.33,0.77 -0.42,0.73 -0.50,0.66 -0.58,0.60 -0.65,0.52 -0.71,0.44 -0.76,0.35 -0.80,0.26 -0.82,0.16 -0.84,0.06 -0.83,-0.03 -0.83,-0.13 -0.83,-0.13 L -0.83,-0.13 Z"></path></g><g transform="translate(231.3333740234375 171.55209350585938) rotate(0 4.33331298828125 15)" stroke="none"><path fill="#220033" d="M -0.82,0 Q -0.82,0 -1.01,-0.38 -1.21,-0.76 -1.19,-0.91 -1.17,-1.05 -1.12,-1.19 -1.07,-1.32 -0.98,-1.44 -0.90,-1.56 -0.79,-1.66 -0.68,-1.76 -0.55,-1.83 -0.42,-1.89 -0.28,-1.93 -0.14,-1.96 0.00,-1.96 0.14,-1.96 0.28,-1.93 0.42,-1.89 0.55,-1.83 0.68,-1.76 0.79,-1.66 0.90,-1.56 0.98,-1.44 1.07,-1.32 1.12,-1.19 1.17,-1.05 1.19,-0.91 1.21,-0.76 0.76,-0.28 0.32,0.19 0.14,1.16 -0.03,2.12 -1.21,4.25 -2.38,6.37 -3.42,8.53 -4.46,10.70 -5.68,13.17 -6.90,15.65 -8.00,17.85 -9.09,20.05 -9.71,21.86 -10.33,23.67 -10.80,25.04 -11.27,26.42 -11.66,27.56 -12.04,28.71 -10.36,28.68 -8.68,28.65 -6.38,28.62 -4.07,28.59 -1.55,28.58 0.95,28.56 3.55,28.56 6.15,28.55 8.65,28.74 11.16,28.93 13.38,29.21 15.60,29.48 17.26,29.59 18.92,29.70 20.58,30.22 22.24,30.74 22.35,30.74 22.46,30.73 22.56,30.77 22.66,30.80 22.75,30.86 22.83,30.92 22.89,31.01 22.96,31.09 22.99,31.20 23.02,31.30 23.01,31.40 23.01,31.51 22.97,31.61 22.94,31.71 22.87,31.79 22.80,31.87 22.71,31.93 22.63,31.99 22.52,32.01 22.42,32.04 22.31,32.03 22.21,32.02 22.11,31.98 22.01,31.94 21.93,31.87 21.85,31.79 21.80,31.70 21.75,31.61 21.73,31.51 21.71,31.40 21.72,31.30 21.74,31.19 21.79,31.10 21.83,31.00 21.91,30.93 21.98,30.85 22.08,30.80 22.18,30.76 22.28,30.74 22.39,30.73 22.49,30.75 22.59,30.77 22.69,30.82 22.78,30.87 22.85,30.95 22.92,31.03 22.96,31.13 23.00,31.23 23.01,31.33 23.02,31.44 23.00,31.54 22.97,31.65 22.91,31.73 22.85,31.82 22.77,31.89 22.69,31.96 22.59,31.99 22.49,32.03 22.49,32.03 22.49,32.03 20.60,32.32 18.72,32.61 16.98,32.49 15.25,32.37 13.09,32.10 10.93,31.83 8.54,31.64 6.16,31.45 3.56,31.46 0.96,31.46 -1.53,31.48 -4.03,31.49 -6.30,31.52 -8.57,31.54 -10.66,31.54 -12.75,31.54 -13.57,30.95 -14.39,30.35 -14.59,29.10 -14.79,27.85 -14.39,26.67 -14.00,25.49 -13.52,24.11 -13.05,22.72 -12.36,20.75 -11.67,18.77 -10.57,16.57 -9.48,14.37 -8.26,11.91 -7.04,9.45 -5.95,7.20 -4.85,4.96 -3.72,3.03 -2.59,1.10 -1.90,0.16 -1.21,-0.76 -1.19,-0.91 -1.17,-1.05 -1.12,-1.19 -1.07,-1.32 -0.98,-1.44 -0.90,-1.56 -0.79,-1.66 -0.68,-1.76 -0.55,-1.83 -0.42,-1.89 -0.28,-1.93 -0.14,-1.96 -0.00,-1.96 0.14,-1.96 0.28,-1.93 0.42,-1.89 0.55,-1.83 0.68,-1.76 0.79,-1.66 0.90,-1.56 0.98,-1.44 1.07,-1.32 1.12,-1.19 1.17,-1.05 1.19,-0.91 1.21,-0.76 1.01,-0.38 0.82,0 0.81,0.09 0.80,0.19 0.76,0.29 0.73,0.38 0.67,0.46 0.61,0.54 0.54,0.61 0.46,0.68 0.38,0.72 0.29,0.77 0.19,0.79 0.09,0.82 -0.00,0.82 -0.09,0.82 -0.19,0.79 -0.29,0.77 -0.38,0.72 -0.46,0.68 -0.54,0.61 -0.61,0.54 -0.67,0.46 -0.73,0.38 -0.76,0.29 -0.80,0.19 -0.81,0.09 -0.82,-0.00 -0.82,-0.00 L -0.82,0 Z"></path></g><g transform="translate(236.66668701171875 186.21875) rotate(0 -0.666656494140625 16.333343505859375)" stroke="none"><path fill="#220033" d="M 0.80,0.11 Q 0.80,0.11 0.83,1.48 0.86,2.86 0.82,4.33 0.78,5.81 0.57,7.66 0.36,9.51 0.28,11.75 0.21,13.99 0.17,16.67 0.14,19.36 0.32,21.98 0.50,24.60 0.58,26.33 0.67,28.06 0.59,29.90 0.50,31.73 0.50,31.84 0.50,31.94 0.47,32.05 0.44,32.15 0.37,32.23 0.31,32.32 0.22,32.38 0.13,32.44 0.03,32.47 -0.06,32.49 -0.17,32.49 -0.27,32.48 -0.37,32.45 -0.47,32.41 -0.55,32.34 -0.63,32.27 -0.69,32.18 -0.74,32.09 -0.77,31.99 -0.79,31.88 -0.78,31.78 -0.77,31.67 -0.73,31.57 -0.68,31.48 -0.61,31.40 -0.54,31.32 -0.44,31.27 -0.35,31.22 -0.24,31.20 -0.14,31.19 -0.03,31.20 0.06,31.22 0.15,31.27 0.25,31.32 0.32,31.39 0.40,31.47 0.44,31.57 0.49,31.66 0.50,31.77 0.51,31.87 0.49,31.98 0.47,32.08 0.41,32.17 0.36,32.26 0.28,32.33 0.20,32.40 0.10,32.44 0.00,32.48 -0.10,32.49 -0.20,32.50 -0.30,32.47 -0.41,32.44 -0.50,32.38 -0.58,32.32 -0.65,32.24 -0.71,32.15 -0.75,32.05 -0.78,31.95 -0.78,31.95 -0.78,31.95 -1.50,30.07 -2.22,28.19 -2.28,26.49 -2.35,24.79 -2.52,22.05 -2.68,19.31 -2.64,16.59 -2.59,13.87 -2.47,11.52 -2.36,9.16 -2.12,7.41 -1.87,5.66 -1.75,4.08 -1.63,2.50 -1.22,1.19 -0.80,-0.11 -0.78,-0.21 -0.75,-0.30 -0.70,-0.39 -0.66,-0.47 -0.59,-0.54 -0.52,-0.62 -0.44,-0.67 -0.36,-0.73 -0.27,-0.76 -0.17,-0.79 -0.08,-0.80 0.01,-0.81 0.11,-0.80 0.21,-0.78 0.30,-0.75 0.39,-0.71 0.47,-0.65 0.55,-0.59 0.61,-0.52 0.68,-0.44 0.72,-0.36 0.76,-0.27 0.79,-0.17 0.81,-0.08 0.81,0.01 0.80,0.11 0.80,0.11 L 0.80,0.11 Z"></path></g><g transform="translate(461.3333740234375 237.55209350585938) rotate(0 12.33331298828125 15.333328247070312)" stroke="none"><path fill="#220033" d="M 0.74,0.24 Q 0.74,0.24 0.71,0.87 0.67,1.49 0.66,2.03 0.65,2.56 0.43,3.48 0.21,4.41 0.16,5.43 0.11,6.44 0.08,7.28 0.05,8.12 0.25,8.90 0.45,9.69 0.43,9.85 0.40,10.02 0.34,10.18 0.27,10.33 0.17,10.47 0.07,10.60 -0.05,10.71 -0.18,10.82 -0.33,10.89 -0.48,10.97 -0.64,11.00 -0.81,11.04 -0.98,11.03 -1.15,11.03 -1.31,10.98 -1.47,10.93 -1.62,10.85 -1.76,10.77 -1.89,10.65 -2.01,10.54 -2.10,10.40 -2.19,10.25 -2.25,10.10 -2.30,9.94 -2.32,9.77 -2.33,9.60 -1.87,8.85 -1.41,8.09 -0.78,7.67 -0.15,7.24 0.73,6.86 1.62,6.48 2.79,6.12 3.95,5.77 5.24,5.43 6.52,5.09 8.28,5.32 10.04,5.55 11.56,6.06 13.08,6.58 15.15,7.80 17.22,9.03 18.84,10.11 20.46,11.20 21.78,12.27 23.09,13.34 24.12,14.67 25.16,15.99 25.84,17.46 26.52,18.93 26.45,20.59 26.37,22.25 25.49,24.22 24.60,26.19 22.74,27.94 20.88,29.68 19.17,30.46 17.47,31.24 15.78,31.39 14.08,31.53 12.00,30.74 9.93,29.95 8.54,29.22 7.16,28.49 5.18,26.22 3.20,23.96 3.13,23.88 3.06,23.80 3.02,23.70 2.98,23.60 2.97,23.49 2.96,23.39 2.99,23.28 3.02,23.18 3.07,23.09 3.13,23.00 3.22,22.94 3.30,22.87 3.40,22.84 3.50,22.80 3.61,22.80 3.71,22.80 3.81,22.83 3.91,22.87 4.00,22.93 4.09,22.99 4.15,23.08 4.21,23.17 4.24,23.27 4.27,23.37 4.26,23.48 4.26,23.58 4.22,23.68 4.18,23.78 4.11,23.86 4.05,23.94 3.96,24.00 3.87,24.06 3.76,24.08 3.66,24.10 3.55,24.09 3.45,24.08 3.35,24.04 3.25,24.00 3.18,23.93 3.10,23.85 3.05,23.76 3.00,23.67 2.98,23.56 2.96,23.46 2.97,23.35 2.99,23.25 3.04,23.15 3.09,23.06 3.16,22.98 3.24,22.91 3.34,22.86 3.43,22.82 3.54,22.81 3.64,22.79 3.75,22.81 3.85,22.84 3.94,22.89 4.03,22.94 4.03,22.94 4.03,22.94 6.38,24.25 8.72,25.56 9.97,26.22 11.22,26.88 12.63,27.56 14.04,28.23 15.14,28.22 16.25,28.20 17.51,27.72 18.78,27.23 20.31,25.99 21.83,24.75 22.59,23.31 23.35,21.87 23.55,20.91 23.76,19.95 23.27,18.86 22.79,17.77 22.00,16.69 21.21,15.60 20.02,14.61 18.83,13.63 17.27,12.57 15.72,11.52 13.92,10.41 12.12,9.31 10.84,8.85 9.57,8.40 8.36,8.14 7.16,7.88 5.97,8.21 4.78,8.53 3.75,8.83 2.71,9.14 1.58,9.41 0.45,9.69 0.43,9.85 0.40,10.02 0.34,10.18 0.27,10.33 0.17,10.47 0.07,10.60 -0.05,10.71 -0.18,10.82 -0.33,10.89 -0.48,10.97 -0.64,11.00 -0.81,11.04 -0.98,11.03 -1.15,11.03 -1.31,10.98 -1.47,10.93 -1.62,10.85 -1.76,10.77 -1.89,10.65 -2.01,10.54 -2.10,10.40 -2.19,10.25 -2.25,10.10 -2.30,9.94 -2.32,9.77 -2.33,9.60 -2.46,9.47 -2.60,9.33 -2.60,8.66 -2.60,7.99 -2.54,7.11 -2.49,6.22 -2.35,4.99 -2.21,3.76 -1.97,3.00 -1.74,2.24 -1.59,1.52 -1.44,0.80 -1.09,0.27 -0.74,-0.24 -0.70,-0.33 -0.66,-0.41 -0.60,-0.49 -0.54,-0.56 -0.46,-0.62 -0.39,-0.68 -0.30,-0.71 -0.21,-0.75 -0.12,-0.76 -0.03,-0.78 0.06,-0.77 0.15,-0.76 0.24,-0.73 0.33,-0.70 0.41,-0.65 0.49,-0.60 0.56,-0.54 0.62,-0.47 0.67,-0.39 0.72,-0.30 0.74,-0.21 0.77,-0.12 0.77,-0.03 0.78,0.06 0.76,0.15 0.74,0.24 0.74,0.24 L 0.74,0.24 Z"></path></g><g transform="translate(458.66668701171875 237.55209350585938) rotate(0 17 -1.6666717529296875)" stroke="none"><path fill="#220033" d="M -0.20,-0.71 Q -0.20,-0.71 1.05,-1.37 2.32,-2.03 4.08,-2.42 5.84,-2.81 7.74,-3.16 9.63,-3.52 12.63,-3.68 15.63,-3.85 18.37,-4.10 21.11,-4.36 23.85,-4.47 26.60,-4.58 28.34,-4.63 30.07,-4.68 31.68,-4.33 33.28,-3.97 33.39,-3.96 33.49,-3.94 33.59,-3.89 33.68,-3.85 33.76,-3.77 33.83,-3.69 33.88,-3.60 33.92,-3.50 33.94,-3.40 33.95,-3.29 33.93,-3.19 33.91,-3.08 33.85,-2.99 33.80,-2.90 33.72,-2.83 33.64,-2.76 33.54,-2.72 33.45,-2.68 33.34,-2.67 33.23,-2.66 33.13,-2.69 33.03,-2.72 32.94,-2.77 32.85,-2.83 32.78,-2.92 32.72,-3.00 32.68,-3.10 32.65,-3.20 32.65,-3.30 32.64,-3.41 32.68,-3.51 32.71,-3.61 32.77,-3.70 32.83,-3.78 32.92,-3.85 33.01,-3.91 33.11,-3.94 33.21,-3.97 33.32,-3.96 33.42,-3.96 33.52,-3.92 33.62,-3.88 33.70,-3.82 33.79,-3.75 33.84,-3.66 33.90,-3.57 33.92,-3.47 33.95,-3.36 33.94,-3.26 33.93,-3.15 33.89,-3.05 33.84,-2.96 33.77,-2.88 33.70,-2.80 33.61,-2.75 33.51,-2.70 33.41,-2.68 33.30,-2.66 33.30,-2.66 33.30,-2.66 31.73,-2.25 30.15,-1.84 28.43,-1.80 26.71,-1.76 24.04,-1.65 21.36,-1.55 18.56,-1.30 15.77,-1.05 12.95,-0.92 10.13,-0.79 8.26,-0.46 6.39,-0.13 4.72,0.18 3.04,0.50 1.62,0.60 0.20,0.71 0.11,0.72 0.02,0.73 -0.06,0.73 -0.15,0.72 -0.23,0.69 -0.31,0.66 -0.39,0.61 -0.46,0.57 -0.53,0.50 -0.59,0.44 -0.63,0.36 -0.68,0.28 -0.70,0.20 -0.73,0.11 -0.73,0.02 -0.73,-0.06 -0.71,-0.14 -0.70,-0.23 -0.66,-0.31 -0.62,-0.39 -0.56,-0.46 -0.51,-0.53 -0.43,-0.58 -0.36,-0.64 -0.28,-0.67 -0.20,-0.71 -0.20,-0.71 L -0.20,-0.71 Z"></path></g><g transform="translate(266 260.21875) rotate(0 -7 15.333343505859375)" stroke="none"><path fill="#220033" d="M -0.49,0.74 Q -0.49,0.74 -1.15,0.50 -1.82,0.25 -2.41,0.13 -3.00,0.01 -3.64,0.00 -4.28,-0.00 -5.55,0.36 -6.82,0.73 -8.39,1.80 -9.95,2.86 -11.30,4.41 -12.65,5.95 -14.00,7.75 -15.34,9.55 -16.26,11.20 -17.17,12.85 -17.51,14.19 -17.84,15.52 -17.97,17.53 -18.11,19.54 -17.44,21.51 -16.77,23.47 -15.82,24.78 -14.86,26.09 -13.79,26.97 -12.73,27.84 -11.45,28.34 -10.18,28.84 -8.69,29.27 -7.21,29.69 -5.53,29.86 -3.85,30.02 -2.26,29.91 -0.67,29.80 0.09,29.58 0.87,29.37 1.78,29.10 2.69,28.82 3.29,28.11 3.89,27.39 3.76,26.60 3.62,25.81 3.27,24.77 2.93,23.73 2.38,22.90 1.82,22.06 0.32,21.66 -1.17,21.26 -3.29,21.02 -5.40,20.78 -6.85,21.21 -8.29,21.64 -9.40,22.32 -10.51,23.00 -11.46,23.93 -12.42,24.87 -13.21,26.85 -14.00,28.84 -14.02,28.94 -14.03,29.05 -14.09,29.14 -14.14,29.23 -14.22,29.31 -14.29,29.38 -14.39,29.42 -14.49,29.46 -14.59,29.47 -14.70,29.48 -14.80,29.46 -14.91,29.43 -15.00,29.38 -15.09,29.32 -15.15,29.24 -15.22,29.16 -15.26,29.06 -15.30,28.96 -15.30,28.85 -15.30,28.75 -15.27,28.64 -15.24,28.54 -15.18,28.46 -15.12,28.37 -15.04,28.31 -14.95,28.24 -14.85,28.21 -14.75,28.18 -14.64,28.18 -14.54,28.18 -14.44,28.22 -14.34,28.25 -14.25,28.32 -14.17,28.38 -14.11,28.47 -14.05,28.56 -14.03,28.67 -14.00,28.77 -14.01,28.87 -14.01,28.98 -14.06,29.08 -14.10,29.18 -14.17,29.26 -14.24,29.34 -14.33,29.39 -14.42,29.44 -14.52,29.46 -14.63,29.48 -14.73,29.47 -14.84,29.46 -14.94,29.41 -15.03,29.37 -15.11,29.29 -15.18,29.22 -15.23,29.12 -15.28,29.03 -15.29,28.92 -15.31,28.82 -15.31,28.82 -15.31,28.82 -15.10,25.69 -14.88,22.56 -13.56,21.31 -12.25,20.06 -10.72,19.20 -9.18,18.34 -7.13,17.86 -5.07,17.38 -2.55,17.71 -0.02,18.03 2.16,18.97 4.35,19.91 5.27,21.31 6.20,22.71 6.62,24.24 7.04,25.77 6.91,27.40 6.77,29.03 6.16,29.87 5.54,30.71 4.66,31.37 3.77,32.03 2.74,32.34 1.71,32.66 0.63,32.92 -0.45,33.18 -2.32,33.29 -4.20,33.39 -6.17,33.16 -8.14,32.94 -9.82,32.44 -11.51,31.94 -13.18,31.18 -14.86,30.42 -16.23,29.22 -17.60,28.02 -18.76,26.25 -19.93,24.49 -20.64,21.92 -21.36,19.36 -21.13,17.02 -20.91,14.68 -20.41,13.00 -19.91,11.33 -18.86,9.50 -17.81,7.66 -16.33,5.78 -14.85,3.90 -13.16,2.20 -11.47,0.49 -9.49,-0.66 -7.51,-1.82 -5.86,-2.19 -4.21,-2.57 -2.89,-2.41 -1.58,-2.26 -1.03,-2.02 -0.47,-1.78 0.00,-1.26 0.49,-0.74 0.58,-0.67 0.66,-0.60 0.72,-0.51 0.78,-0.43 0.82,-0.32 0.86,-0.22 0.88,-0.12 0.89,-0.01 0.88,0.09 0.87,0.20 0.83,0.30 0.80,0.40 0.74,0.49 0.68,0.58 0.60,0.65 0.52,0.73 0.42,0.78 0.33,0.83 0.22,0.86 0.12,0.89 0.01,0.89 -0.09,0.89 -0.19,0.86 -0.30,0.84 -0.40,0.79 -0.49,0.74 -0.49,0.74 L -0.49,0.74 Z"></path></g></svg>