<svg version="1.1" xmlns="http://www.w3.org/2000/svg" viewBox="0 0 640 380" width="640" height="380">
  <!-- svg-source:excalidraw -->
  
  <defs>
    <style>
      @font-face {
        font-family: "Virgil";
        src: url("https://excalidraw.com/Virgil.woff2");
      }
      @font-face {
        font-family: "Cascadia";
        src: url("https://excalidraw.com/Cascadia.woff2");
      }
    </style>
  </defs>
  <rect x="0" y="0" width="640" height="380" fill="#fff0"></rect><g stroke-linecap="round" transform="translate(10 10) rotate(0 0.5 0.5)"><path d="M-0.06 -0.03 C0.4 -0.08, 0.7 0.04, 0.91 0.03 M0.05 -0.04 C0.42 -0.05, 0.75 0.03, 0.99 0.01 M1.08 -0.06 C1.09 0.27, 1.05 0.48, 1.09 0.92 M0.97 0.01 C0.95 0.33, 0.98 0.72, 1 0.99 M1.03 1.06 C0.65 1.06, 0.49 0.96, -0.03 0.97 M1 1.02 C0.74 0.96, 0.52 1.04, -0.04 0.98 M-0.04 1.01 C0 0.63, -0.06 0.15, 0.05 -0.03 M-0.04 0.95 C-0.04 0.73, -0.03 0.59, -0.05 -0.02" stroke="transparent" stroke-width="0.5" fill="none"></path></g><g stroke-linecap="round" transform="translate(110 70) rotate(0 260 150)"><path d="M-0.08 0.07 C184.16 -0.81, 369.18 -0.42, 519.75 0.76 M-0.35 0.24 C117.56 -0.71, 235.01 -0.65, 519.68 -0.02 M519.14 -0.44 C519.07 65.59, 517.26 132.94, 520.93 300.23 M519.76 -0.24 C522 64.87, 521.43 129.02, 519.64 299.4 M520.18 300.01 C354.89 301.11, 190.3 301.44, -0.23 299.34 M519.85 299.97 C333.75 301.71, 146.55 301.92, 0.36 299.73 M1.24 300.97 C0.63 215.72, -0.45 129.7, -0.71 1.17 M0.06 300.37 C-0.08 193.33, -0.71 87.07, 0.11 0.47" stroke="#220033" stroke-width="0.5" fill="none"></path></g><g stroke-linecap="round" transform="translate(170 110) rotate(0 130 110)"><path d="M188.5 11.15 C202.05 14.89, 214.97 25.72, 225.23 35.07 C235.49 44.41, 244.3 55.74, 250.06 67.23 C255.83 78.72, 259.07 91.48, 259.83 104.01 C260.6 116.53, 258.86 130.39, 254.65 142.37 C250.44 154.36, 243.68 165.82, 234.57 175.9 C225.46 185.97, 212.44 195.8, 200 202.83 C187.55 209.86, 174.26 215.36, 159.9 218.08 C145.53 220.79, 128.5 220.84, 113.81 219.1 C99.12 217.36, 85.05 213.28, 71.76 207.62 C58.46 201.96, 44.15 194.37, 34.06 185.15 C23.98 175.94, 16.93 163.84, 11.25 152.33 C5.57 140.82, 0.99 128.36, 0 116.09 C-0.99 103.82, 0.84 90.6, 5.31 78.71 C9.78 66.81, 17.8 54.85, 26.82 44.72 C35.84 34.59, 47.22 24.99, 59.43 17.92 C71.63 10.86, 85.51 5.1, 100.04 2.34 C114.57 -0.42, 130.25 -0.8, 146.61 1.36 C162.98 3.53, 188.49 11.64, 198.25 15.32 C208.02 19, 206.3 21.79, 205.22 23.45 M107.76 1.45 C121.16 -2.46, 136.48 -0.76, 151.11 1.31 C165.74 3.37, 182.6 7.33, 195.54 13.83 C208.47 20.32, 219.37 30.39, 228.72 40.27 C238.06 50.14, 246.36 61.61, 251.6 73.06 C256.83 84.5, 259.74 96.59, 260.1 108.93 C260.46 121.27, 258.93 134.99, 253.74 147.11 C248.55 159.23, 238.54 171.88, 228.98 181.65 C219.41 191.42, 209.11 199.53, 196.35 205.72 C183.59 211.91, 167.06 216.62, 152.41 218.81 C137.77 221.01, 123 220.98, 108.47 218.89 C93.94 216.8, 78.41 212.52, 65.23 206.3 C52.05 200.07, 38.71 191.12, 29.38 181.54 C20.04 171.96, 13.87 160.66, 9.21 148.81 C4.55 136.96, 1.62 123.06, 1.4 110.44 C1.18 97.83, 3.28 85, 7.89 73.11 C12.5 61.22, 19.86 48.7, 29.05 39.08 C38.23 29.47, 49.8 21.56, 63 15.41 C76.2 9.26, 100.96 4.04, 108.23 2.18 C115.51 0.33, 106.6 2.59, 106.65 4.28" stroke="#220033" stroke-width="0.5" fill="none"></path></g><g stroke-linecap="round" transform="translate(310 110) rotate(0 130 110)"><path d="M93.65 3.98 C106.8 -1.13, 124.91 -0.9, 139.89 0.03 C154.88 0.96, 170.25 4.26, 183.58 9.54 C196.91 14.83, 209.34 23.15, 219.88 31.73 C230.41 40.31, 240.08 49.83, 246.79 61.03 C253.51 72.24, 258.54 86.46, 260.18 98.96 C261.82 111.46, 260.31 123.88, 256.64 136.01 C252.98 148.14, 246.52 161.27, 238.21 171.73 C229.91 182.18, 218.76 191.56, 206.8 198.73 C194.84 205.9, 180.69 211.12, 166.44 214.75 C152.19 218.38, 136.1 221.06, 121.31 220.51 C106.51 219.96, 91.27 216.65, 77.67 211.45 C64.07 206.26, 50.42 198.33, 39.7 189.36 C28.98 180.39, 19.92 169.11, 13.35 157.65 C6.79 146.19, 1.85 132.81, 0.31 120.61 C-1.23 108.4, 0.42 96.5, 4.11 84.42 C7.8 72.34, 14.18 58.77, 22.45 48.14 C30.72 37.51, 40.33 28.39, 53.74 20.65 C67.16 12.92, 93.08 4.57, 102.94 1.73 C112.8 -1.1, 112.3 1.88, 112.91 3.64 M78.1 10.7 C90.02 4.34, 105.3 2.61, 119.83 1.36 C134.36 0.1, 150.84 -0.22, 165.28 3.19 C179.71 6.59, 194.26 14.22, 206.46 21.78 C218.66 29.34, 230.16 38.39, 238.47 48.52 C246.78 58.65, 252.62 70.65, 256.31 82.56 C260 94.47, 261.98 107.4, 260.61 119.98 C259.24 132.55, 254.88 146.27, 248.12 158.01 C241.36 169.75, 230.71 181.47, 220.04 190.42 C209.37 199.36, 197.7 207.04, 184.08 211.69 C170.45 216.33, 153.34 217.62, 138.31 218.3 C123.27 218.98, 108.16 219.06, 93.88 215.76 C79.6 212.46, 64.33 205.87, 52.64 198.49 C40.95 191.12, 31.8 181.94, 23.73 171.53 C15.66 161.11, 7.85 148.17, 4.22 136.01 C0.59 123.85, 0.4 110.81, 1.93 98.55 C3.46 86.3, 7.38 73.74, 13.41 62.49 C19.44 51.24, 27.37 39.71, 38.11 31.06 C48.85 22.41, 71.08 14.08, 77.85 10.61 C84.62 7.15, 78.01 8.85, 78.72 10.27" stroke="#220033" stroke-width="0.5" fill="none"></path></g></svg>