<svg version="1.1" xmlns="http://www.w3.org/2000/svg" viewBox="0 0 562.6666870117188 258.7083435058594" width="562.6666870117188" height="258.7083435058594">
  <!-- svg-source:excalidraw -->
  
  <defs>
    <style>
      @font-face {
        font-family: "Virgil";
        src: url("https://excalidraw.com/Virgil.woff2");
      }
      @font-face {
        font-family: "Cascadia";
        src: url("https://excalidraw.com/Cascadia.woff2");
      }
    </style>
  </defs>
  <rect x="0" y="0" width="562.6666870117188" height="258.7083435058594" fill="#fff0"></rect><g stroke-linecap="round" transform="translate(10 10) rotate(0 0.5 0.5)"><path d="M-0.06 -0.03 C0.4 -0.08, 0.7 0.04, 0.91 0.03 M0.05 -0.04 C0.42 -0.05, 0.75 0.03, 0.99 0.01 M1.08 -0.06 C1.09 0.27, 1.05 0.48, 1.09 0.92 M0.97 0.01 C0.95 0.33, 0.98 0.72, 1 0.99 M1.03 1.06 C0.65 1.06, 0.49 0.96, -0.03 0.97 M1 1.02 C0.74 0.96, 0.52 1.04, -0.04 0.98 M-0.04 1.01 C0 0.63, -0.06 0.15, 0.05 -0.03 M-0.04 0.95 C-0.04 0.73, -0.03 0.59, -0.05 -0.02" stroke="transparent" stroke-width="0.5" fill="none"></path></g><g transform="translate(92.66668701171875 48.041656494140625) rotate(0 9.33331298828125 78.33334350585938)" stroke="none"><path fill="#000" d="M 1.29,-0.16 Q 1.29,-0.16 1.59,1.35 1.89,2.87 2.35,5.20 2.81,7.52 3.78,13.54 4.74,19.56 5.92,28.84 7.10,38.12 8.00,46.86 8.89,55.61 9.67,64.12 10.44,72.62 11.36,80.62 12.28,88.62 13.09,98.19 13.89,107.75 14.80,116.58 15.71,125.41 16.48,131.64 17.24,137.88 18.09,142.20 18.95,146.52 19.28,150.64 19.61,154.76 19.61,154.86 19.62,154.97 19.59,155.07 19.56,155.17 19.50,155.26 19.44,155.35 19.35,155.41 19.27,155.47 19.16,155.51 19.06,155.54 18.96,155.54 18.85,155.54 18.75,155.50 18.65,155.46 18.57,155.40 18.48,155.33 18.43,155.24 18.37,155.16 18.34,155.05 18.31,154.95 18.32,154.84 18.33,154.74 18.37,154.64 18.41,154.54 18.48,154.46 18.55,154.38 18.64,154.33 18.73,154.28 18.84,154.25 18.94,154.23 19.05,154.25 19.15,154.26 19.25,154.31 19.34,154.35 19.42,154.43 19.50,154.50 19.54,154.60 19.59,154.69 19.61,154.79 19.62,154.90 19.61,155.00 19.59,155.11 19.54,155.20 19.48,155.30 19.41,155.37 19.33,155.44 19.23,155.48 19.13,155.53 19.03,155.53 18.92,155.54 18.82,155.52 18.71,155.50 18.62,155.44 18.53,155.38 18.47,155.30 18.40,155.22 18.36,155.12 18.32,155.02 18.32,155.02 18.32,155.02 17.02,151.10 15.71,147.18 14.77,142.74 13.82,138.30 13.05,132.03 12.28,125.76 11.39,116.89 10.50,108.02 9.78,98.51 9.06,88.99 8.18,80.94 7.30,72.90 6.56,64.41 5.82,55.92 4.95,47.21 4.07,38.51 2.90,29.27 1.73,20.04 0.77,14.08 -0.18,8.11 -0.65,5.68 -1.13,3.25 -1.21,1.70 -1.29,0.16 -1.29,0.00 -1.29,-0.15 -1.25,-0.30 -1.21,-0.45 -1.14,-0.59 -1.07,-0.73 -0.96,-0.85 -0.86,-0.97 -0.73,-1.05 -0.60,-1.14 -0.46,-1.20 -0.31,-1.26 -0.16,-1.28 -0.00,-1.30 0.15,-1.28 0.30,-1.26 0.45,-1.20 0.60,-1.15 0.72,-1.06 0.85,-0.97 0.96,-0.85 1.06,-0.74 1.14,-0.60 1.21,-0.46 1.25,-0.31 1.29,-0.16 1.29,-0.16 L 1.29,-0.16 Z"></path></g><g transform="translate(90.66668701171875 33.375) rotate(0 229.33334350585938 -6)" stroke="none"><path fill="#000" d="M -0.28,-1.12 Q -0.28,-1.12 1.22,-1.62 2.72,-2.11 4.76,-2.50 6.80,-2.88 9.26,-3.06 11.72,-3.23 15.57,-3.68 19.41,-4.14 23.57,-4.53 27.73,-4.91 33.93,-5.28 40.12,-5.64 46.39,-5.98 52.65,-6.33 59.17,-6.48 65.69,-6.63 74.39,-6.89 83.09,-7.16 93.68,-7.47 104.28,-7.78 113.40,-7.91 122.51,-8.05 133.48,-8.11 144.45,-8.17 153.71,-8.19 162.97,-8.22 174.00,-8.23 185.03,-8.24 194.31,-8.25 203.60,-8.26 212.15,-8.26 220.69,-8.26 228.91,-8.46 237.12,-8.66 247.72,-8.74 258.33,-8.83 269.53,-9.06 280.73,-9.29 289.52,-9.38 298.32,-9.48 305.91,-9.33 313.51,-9.18 322.08,-9.12 330.65,-9.05 339.28,-9.03 347.91,-9.01 354.64,-9.00 361.38,-8.99 367.11,-8.98 372.85,-8.98 381.19,-9.36 389.53,-9.75 395.77,-10.10 402.00,-10.46 407.14,-10.80 412.28,-11.15 417.15,-11.49 422.01,-11.83 427.35,-12.16 432.68,-12.50 437.82,-12.84 442.96,-13.17 446.50,-13.32 450.05,-13.46 453.58,-13.04 457.10,-12.61 457.21,-12.60 457.31,-12.58 457.41,-12.54 457.50,-12.49 457.58,-12.41 457.65,-12.34 457.70,-12.24 457.75,-12.15 457.76,-12.04 457.77,-11.94 457.75,-11.83 457.73,-11.73 457.68,-11.64 457.63,-11.54 457.55,-11.47 457.47,-11.40 457.37,-11.36 457.27,-11.32 457.17,-11.31 457.06,-11.30 456.96,-11.33 456.86,-11.35 456.77,-11.41 456.68,-11.47 456.61,-11.55 456.55,-11.64 456.51,-11.74 456.47,-11.84 456.47,-11.94 456.47,-12.05 456.50,-12.15 456.53,-12.25 456.59,-12.34 456.66,-12.42 456.74,-12.48 456.83,-12.55 456.93,-12.58 457.03,-12.61 457.14,-12.60 457.24,-12.60 457.34,-12.56 457.44,-12.53 457.53,-12.46 457.61,-12.39 457.67,-12.30 457.72,-12.21 457.75,-12.11 457.77,-12.01 457.76,-11.90 457.75,-11.80 457.71,-11.70 457.67,-11.60 457.60,-11.52 457.53,-11.44 457.44,-11.39 457.34,-11.34 457.24,-11.32 457.13,-11.30 457.13,-11.30 457.13,-11.30 453.66,-10.71 450.18,-10.11 446.68,-9.97 443.17,-9.83 438.03,-9.50 432.89,-9.17 427.57,-8.83 422.24,-8.50 417.37,-8.17 412.50,-7.83 407.34,-7.49 402.19,-7.15 395.94,-6.80 389.68,-6.45 381.26,-6.07 372.85,-5.69 367.11,-5.70 361.37,-5.70 354.63,-5.72 347.90,-5.73 339.26,-5.76 330.63,-5.79 322.03,-5.86 313.44,-5.92 305.90,-6.07 298.35,-6.22 289.57,-6.13 280.79,-6.03 269.57,-5.81 258.35,-5.58 247.77,-5.51 237.20,-5.43 228.95,-5.24 220.69,-5.06 212.15,-5.06 203.60,-5.06 194.32,-5.05 185.03,-5.05 174.00,-5.04 162.98,-5.04 153.72,-5.01 144.47,-4.99 133.51,-4.95 122.56,-4.90 113.47,-4.78 104.37,-4.66 93.77,-4.37 83.18,-4.09 74.47,-3.84 65.76,-3.59 59.29,-3.45 52.82,-3.31 46.56,-2.98 40.29,-2.64 34.15,-2.29 28.01,-1.95 23.88,-1.57 19.75,-1.20 15.83,-0.76 11.90,-0.32 9.60,-0.19 7.30,-0.06 5.35,0.25 3.40,0.58 1.84,0.85 0.28,1.12 0.14,1.14 0.00,1.16 -0.13,1.14 -0.27,1.12 -0.40,1.07 -0.53,1.03 -0.65,0.95 -0.76,0.87 -0.86,0.76 -0.95,0.66 -1.01,0.53 -1.08,0.41 -1.11,0.27 -1.15,0.14 -1.15,0.00 -1.15,-0.13 -1.12,-0.27 -1.08,-0.40 -1.02,-0.53 -0.95,-0.65 -0.86,-0.76 -0.77,-0.86 -0.65,-0.94 -0.54,-1.02 -0.41,-1.07 -0.28,-1.12 -0.28,-1.12 L -0.28,-1.12 Z"></path></g><g transform="translate(117.33334350585938 223.37503051757812) rotate(0 207.6666717529297 -6.333343505859375)" stroke="none"><path fill="#000" d="M -0.26,-0.91 Q -0.26,-0.91 1.02,-1.48 2.32,-2.04 5.28,-2.42 8.25,-2.80 11.56,-3.33 14.86,-3.86 19.00,-4.28 23.13,-4.71 27.77,-5.09 32.40,-5.46 39.34,-6.02 46.29,-6.58 54.43,-7.03 62.57,-7.47 69.88,-7.66 77.19,-7.84 84.11,-8.11 91.03,-8.38 97.82,-8.51 104.62,-8.63 113.43,-8.88 122.25,-9.13 132.30,-9.63 142.36,-10.13 150.67,-10.53 158.98,-10.94 166.53,-11.30 174.09,-11.66 183.23,-12.20 192.37,-12.74 202.03,-13.16 211.68,-13.58 219.24,-13.77 226.80,-13.95 233.47,-14.02 240.14,-14.10 247.78,-13.95 255.43,-13.79 263.45,-13.73 271.47,-13.66 277.97,-13.45 284.47,-13.23 290.09,-13.14 295.70,-13.05 302.49,-13.01 309.28,-12.97 316.39,-12.96 323.49,-12.95 329.00,-12.94 334.52,-12.94 339.35,-12.94 344.18,-12.94 348.73,-12.95 353.27,-12.96 358.69,-12.77 364.10,-12.58 370.75,-12.70 377.40,-12.82 382.14,-13.06 386.87,-13.30 391.80,-13.40 396.72,-13.51 400.34,-13.55 403.96,-13.60 406.85,-13.61 409.73,-13.61 412.84,-13.13 415.96,-12.65 416.06,-12.63 416.17,-12.61 416.26,-12.56 416.35,-12.51 416.43,-12.44 416.50,-12.36 416.54,-12.26 416.59,-12.17 416.60,-12.06 416.61,-11.96 416.59,-11.85 416.57,-11.75 416.51,-11.66 416.46,-11.57 416.38,-11.50 416.30,-11.43 416.20,-11.39 416.10,-11.35 416.00,-11.34 415.89,-11.34 415.79,-11.37 415.68,-11.39 415.60,-11.45 415.51,-11.51 415.44,-11.60 415.38,-11.68 415.34,-11.78 415.31,-11.88 415.31,-11.99 415.31,-12.09 415.34,-12.19 415.38,-12.30 415.44,-12.38 415.50,-12.47 415.59,-12.53 415.68,-12.59 415.78,-12.61 415.88,-12.64 415.99,-12.64 416.10,-12.63 416.20,-12.59 416.29,-12.55 416.38,-12.49 416.46,-12.42 416.51,-12.33 416.57,-12.24 416.59,-12.13 416.61,-12.03 416.60,-11.92 416.59,-11.82 416.55,-11.72 416.50,-11.62 416.43,-11.55 416.36,-11.47 416.26,-11.42 416.17,-11.37 416.06,-11.35 415.96,-11.33 415.96,-11.33 415.96,-11.33 412.86,-10.83 409.75,-10.32 406.88,-10.29 404.00,-10.27 400.40,-10.22 396.79,-10.18 391.91,-10.09 387.04,-9.99 382.25,-9.75 377.46,-9.52 370.72,-9.41 363.98,-9.31 358.63,-9.51 353.27,-9.70 348.73,-9.71 344.18,-9.72 339.35,-9.73 334.51,-9.74 329.00,-9.75 323.49,-9.76 316.38,-9.78 309.27,-9.80 302.46,-9.84 295.65,-9.89 290.01,-9.99 284.36,-10.08 277.90,-10.30 271.44,-10.53 263.40,-10.60 255.36,-10.67 247.77,-10.83 240.17,-11.00 233.52,-10.92 226.88,-10.85 219.34,-10.67 211.81,-10.50 202.18,-10.08 192.56,-9.66 183.39,-9.13 174.23,-8.59 166.68,-8.23 159.12,-7.88 150.82,-7.48 142.51,-7.09 132.42,-6.62 122.33,-6.15 113.50,-5.92 104.67,-5.69 97.90,-5.59 91.14,-5.48 84.20,-5.22 77.26,-4.95 69.99,-4.78 62.72,-4.61 54.61,-4.21 46.50,-3.81 39.56,-3.29 32.61,-2.77 28.01,-2.41 23.41,-2.04 19.35,-1.63 15.29,-1.22 11.93,-0.68 8.58,-0.14 5.81,0.18 3.04,0.51 1.65,0.71 0.26,0.91 0.14,0.93 0.03,0.95 -0.07,0.94 -0.19,0.93 -0.30,0.89 -0.41,0.85 -0.50,0.79 -0.60,0.73 -0.68,0.65 -0.76,0.56 -0.82,0.47 -0.87,0.37 -0.90,0.25 -0.94,0.14 -0.94,0.03 -0.94,-0.08 -0.92,-0.19 -0.90,-0.30 -0.85,-0.40 -0.80,-0.51 -0.73,-0.60 -0.65,-0.68 -0.56,-0.75 -0.47,-0.82 -0.36,-0.87 -0.26,-0.91 -0.26,-0.91 L -0.26,-0.91 Z"></path></g><g transform="translate(551.3333740234375 28.708343505859375) rotate(0 -14.66668701171875 99.66665649414062)" stroke="none"><path fill="#000" d="M 0.89,-0.35 Q 0.89,-0.35 1.41,0.55 1.93,1.46 2.15,3.57 2.38,5.68 2.47,7.88 2.56,10.08 2.42,13.17 2.28,16.26 1.85,20.84 1.42,25.42 0.86,31.56 0.30,37.71 -0.11,43.38 -0.53,49.05 -0.88,54.52 -1.24,60.00 -1.38,66.70 -1.51,73.41 -1.76,80.88 -2.01,88.35 -2.12,94.38 -2.23,100.42 -2.28,107.39 -2.32,114.36 -2.53,120.03 -2.74,125.70 -2.83,133.07 -2.92,140.43 -2.96,144.72 -3.00,149.00 -3.02,155.23 -3.03,161.46 -3.04,166.21 -3.04,170.97 -3.04,174.71 -3.05,178.46 -3.43,184.32 -3.81,190.18 -3.97,192.84 -4.14,195.50 -4.41,196.94 -4.69,198.38 -5.09,199.18 -5.49,199.99 -6.29,200.53 -7.09,201.06 -7.94,201.01 -8.79,200.95 -9.47,200.30 -10.15,199.65 -10.63,199.14 -11.10,198.64 -11.59,198.31 -12.07,197.99 -12.98,197.17 -13.88,196.34 -14.69,195.36 -15.49,194.38 -16.77,193.57 -18.05,192.76 -19.30,192.21 -20.56,191.66 -22.01,191.21 -23.45,190.76 -26.43,189.82 -29.40,188.88 -29.50,188.85 -29.60,188.81 -29.68,188.75 -29.77,188.68 -29.82,188.59 -29.88,188.50 -29.91,188.40 -29.94,188.30 -29.93,188.19 -29.92,188.09 -29.88,187.99 -29.84,187.89 -29.77,187.81 -29.71,187.73 -29.61,187.68 -29.52,187.62 -29.42,187.60 -29.31,187.58 -29.21,187.59 -29.10,187.60 -29.01,187.65 -28.91,187.69 -28.83,187.77 -28.76,187.84 -28.71,187.94 -28.66,188.03 -28.64,188.14 -28.63,188.24 -28.65,188.35 -28.66,188.45 -28.72,188.54 -28.77,188.64 -28.84,188.71 -28.92,188.78 -29.02,188.83 -29.12,188.87 -29.22,188.88 -29.33,188.89 -29.43,188.87 -29.53,188.84 -29.62,188.79 -29.71,188.73 -29.78,188.65 -29.85,188.57 -29.89,188.47 -29.93,188.37 -29.93,188.26 -29.94,188.16 -29.91,188.05 -29.88,187.95 -29.82,187.87 -29.76,187.78 -29.67,187.71 -29.59,187.65 -29.49,187.62 -29.38,187.59 -29.28,187.59 -29.17,187.59 -29.17,187.59 -29.17,187.59 -25.90,187.73 -22.63,187.88 -20.97,188.32 -19.32,188.77 -17.80,189.41 -16.29,190.05 -14.64,191.16 -12.99,192.26 -12.31,193.08 -11.64,193.89 -10.89,194.58 -10.13,195.27 -9.40,195.81 -8.67,196.35 -8.27,197.03 -7.86,197.71 -7.62,196.50 -7.37,195.29 -7.21,192.63 -7.04,189.97 -6.66,184.21 -6.27,178.46 -6.26,174.71 -6.26,170.96 -6.25,166.20 -6.24,161.45 -6.23,155.21 -6.21,148.97 -6.17,144.68 -6.13,140.39 -6.04,132.99 -5.95,125.58 -5.74,119.96 -5.53,114.34 -5.48,107.35 -5.43,100.36 -5.32,94.30 -5.21,88.24 -4.94,80.79 -4.67,73.33 -4.49,66.56 -4.30,59.79 -3.90,54.30 -3.50,48.82 -3.05,43.13 -2.60,37.44 -2.01,31.28 -1.42,25.13 -0.94,20.62 -0.47,16.11 -0.28,13.14 -0.10,10.17 -0.15,8.03 -0.20,5.90 -0.30,4.13 -0.39,2.36 -0.64,1.36 -0.89,0.35 -0.92,0.24 -0.95,0.13 -0.95,0.01 -0.96,-0.09 -0.93,-0.21 -0.91,-0.32 -0.85,-0.43 -0.80,-0.53 -0.72,-0.62 -0.65,-0.71 -0.55,-0.78 -0.46,-0.84 -0.35,-0.89 -0.24,-0.93 -0.13,-0.95 -0.01,-0.96 0.09,-0.95 0.21,-0.94 0.32,-0.90 0.43,-0.86 0.53,-0.79 0.62,-0.73 0.70,-0.64 0.78,-0.56 0.84,-0.46 0.89,-0.35 0.89,-0.35 L 0.89,-0.35 Z"></path></g><g transform="translate(270 60.04167175292969) rotate(0 -21.666641235351562 52)" stroke="none"><path fill="#000" d="M -0.65,0.65 Q -0.65,0.65 -1.53,0.03 -2.41,-0.59 -3.50,-0.96 -4.59,-1.34 -6.37,-1.70 -8.16,-2.06 -11.39,-2.37 -14.62,-2.68 -18.08,-2.81 -21.54,-2.94 -26.21,-2.59 -30.87,-2.24 -35.34,-1.71 -39.81,-1.18 -44.01,-0.58 -48.20,0.02 -53.75,1.41 -59.29,2.80 -64.35,4.16 -69.41,5.52 -74.70,7.98 -79.98,10.43 -84.19,12.45 -88.40,14.46 -92.07,16.45 -95.74,18.44 -98.53,20.74 -101.32,23.05 -104.20,26.27 -107.08,29.50 -109.83,33.15 -112.58,36.81 -114.29,39.83 -115.99,42.85 -116.87,45.56 -117.74,48.27 -118.11,50.88 -118.47,53.49 -118.06,56.94 -117.65,60.40 -116.37,64.29 -115.08,68.18 -113.60,71.13 -112.13,74.08 -110.55,76.88 -108.96,79.67 -106.44,82.89 -103.91,86.10 -100.43,88.91 -96.95,91.73 -93.73,94.10 -90.51,96.47 -86.92,98.38 -83.33,100.29 -78.42,102.03 -73.52,103.78 -68.94,105.10 -64.37,106.42 -58.24,107.74 -52.11,109.06 -46.86,109.81 -41.61,110.56 -37.15,110.68 -32.68,110.80 -26.96,110.65 -21.23,110.50 -14.82,109.86 -8.40,109.22 -3.05,108.19 2.30,107.16 7.22,105.77 12.14,104.39 17.81,102.09 23.49,99.80 28.96,97.29 34.44,94.78 39.07,92.56 43.69,90.34 48.06,87.53 52.43,84.72 55.78,82.02 59.13,79.32 62.44,76.10 65.74,72.88 67.83,69.89 69.92,66.90 71.32,63.09 72.72,59.28 73.52,55.78 74.31,52.28 74.45,48.03 74.59,43.79 74.28,40.30 73.97,36.81 73.28,33.88 72.59,30.94 71.40,28.29 70.21,25.63 67.54,22.95 64.87,20.26 61.24,17.16 57.60,14.06 54.35,11.60 51.10,9.14 47.82,6.96 44.55,4.79 39.99,2.56 35.43,0.34 30.07,-1.75 24.71,-3.84 18.37,-4.89 12.03,-5.94 3.15,-5.09 -5.71,-4.24 -10.69,-3.53 -15.67,-2.81 -17.87,-2.98 -20.08,-3.15 -20.18,-3.16 -20.29,-3.16 -20.39,-3.19 -20.49,-3.23 -20.58,-3.29 -20.66,-3.36 -20.72,-3.45 -20.78,-3.54 -20.80,-3.64 -20.83,-3.74 -20.82,-3.85 -20.82,-3.95 -20.78,-4.05 -20.73,-4.15 -20.66,-4.23 -20.59,-4.31 -20.50,-4.36 -20.41,-4.42 -20.31,-4.44 -20.20,-4.46 -20.10,-4.45 -19.99,-4.43 -19.90,-4.39 -19.80,-4.34 -19.72,-4.27 -19.65,-4.19 -19.60,-4.10 -19.55,-4.00 -19.54,-3.90 -19.52,-3.79 -19.54,-3.69 -19.56,-3.59 -19.61,-3.49 -19.66,-3.40 -19.74,-3.33 -19.82,-3.26 -19.91,-3.21 -20.01,-3.17 -20.11,-3.16 -20.22,-3.15 -20.32,-3.17 -20.43,-3.20 -20.52,-3.25 -20.61,-3.31 -20.68,-3.39 -20.74,-3.47 -20.78,-3.57 -20.82,-3.67 -20.82,-3.78 -20.83,-3.88 -20.80,-3.99 -20.77,-4.09 -20.71,-4.17 -20.65,-4.26 -20.56,-4.32 -20.48,-4.39 -20.38,-4.42 -20.27,-4.45 -20.27,-4.45 -20.27,-4.45 -18.22,-5.27 -16.16,-6.08 -11.10,-6.88 -6.04,-7.68 3.27,-8.58 12.59,-9.48 19.30,-8.35 26.01,-7.22 31.52,-5.07 37.03,-2.93 41.80,-0.59 46.58,1.74 49.94,3.98 53.31,6.22 56.65,8.75 59.98,11.28 63.74,14.50 67.50,17.72 70.50,20.90 73.51,24.08 74.83,27.09 76.16,30.10 76.89,33.30 77.62,36.49 77.93,40.20 78.25,43.92 78.06,48.50 77.88,53.08 77.01,56.82 76.14,60.56 74.52,64.77 72.90,68.97 70.58,72.22 68.27,75.46 64.82,78.80 61.38,82.13 57.87,84.93 54.36,87.73 49.80,90.64 45.23,93.55 40.57,95.77 35.91,97.99 30.35,100.52 24.80,103.05 18.94,105.39 13.08,107.74 8.02,109.15 2.95,110.56 -2.55,111.60 -8.07,112.64 -14.61,113.26 -21.15,113.89 -26.97,114.01 -32.78,114.14 -37.43,114.00 -42.08,113.85 -47.45,113.08 -52.82,112.31 -59.05,110.96 -65.29,109.61 -69.96,108.25 -74.63,106.89 -79.76,105.04 -84.88,103.18 -88.66,101.13 -92.43,99.09 -95.72,96.66 -99.00,94.23 -102.72,91.17 -106.43,88.10 -109.10,84.68 -111.77,81.27 -113.40,78.40 -115.02,75.52 -116.59,72.35 -118.15,69.18 -119.51,64.98 -120.87,60.77 -121.27,56.91 -121.67,53.05 -121.23,50.16 -120.80,47.28 -119.79,44.28 -118.79,41.28 -116.97,38.08 -115.15,34.88 -112.31,31.12 -109.48,27.36 -106.42,23.96 -103.37,20.55 -100.33,18.08 -97.28,15.61 -93.54,13.58 -89.79,11.56 -85.56,9.54 -81.33,7.51 -75.79,4.97 -70.25,2.43 -65.16,1.06 -60.07,-0.29 -54.36,-1.71 -48.66,-3.14 -44.42,-3.74 -40.18,-4.34 -35.63,-4.85 -31.08,-5.36 -26.24,-5.64 -21.41,-5.93 -17.85,-5.74 -14.30,-5.56 -10.94,-5.13 -7.58,-4.71 -5.60,-4.25 -3.61,-3.79 -2.13,-3.13 -0.65,-2.47 0.00,-1.56 0.65,-0.65 0.72,-0.57 0.79,-0.48 0.84,-0.37 0.88,-0.27 0.91,-0.16 0.93,-0.05 0.92,0.05 0.91,0.16 0.88,0.27 0.84,0.38 0.79,0.47 0.73,0.57 0.65,0.65 0.57,0.73 0.47,0.79 0.38,0.84 0.27,0.88 0.16,0.91 0.05,0.92 -0.05,0.93 -0.16,0.91 -0.27,0.88 -0.37,0.84 -0.48,0.79 -0.57,0.72 -0.65,0.65 -0.65,0.65 L -0.65,0.65 Z"></path></g><g transform="translate(437.3333740234375 50.04167175292969) rotate(0 -46.333343505859375 57.666656494140625)" stroke="none"><path fill="#000" d="M -0.62,0.87 Q -0.62,0.87 -2.07,0.06 -3.51,-0.74 -4.96,-1.47 -6.40,-2.20 -8.31,-2.88 -10.21,-3.56 -12.37,-4.24 -14.52,-4.92 -18.17,-5.18 -21.82,-5.44 -27.01,-5.37 -32.20,-5.30 -36.87,-4.88 -41.55,-4.47 -46.21,-3.89 -50.88,-3.32 -55.51,-2.49 -60.15,-1.66 -66.08,0.01 -72.01,1.69 -78.37,3.74 -84.73,5.80 -89.91,7.63 -95.10,9.46 -100.83,12.68 -106.56,15.89 -110.75,18.42 -114.94,20.95 -119.33,24.45 -123.72,27.96 -126.37,30.23 -129.01,32.50 -132.17,36.08 -135.34,39.66 -137.63,42.70 -139.92,45.73 -141.42,48.65 -142.91,51.57 -143.89,55.57 -144.88,59.56 -145.31,62.04 -145.75,64.52 -145.54,68.49 -145.34,72.46 -144.50,76.78 -143.67,81.11 -142.03,84.53 -140.39,87.96 -138.21,90.90 -136.03,93.83 -133.26,96.36 -130.49,98.89 -126.12,101.65 -121.75,104.42 -117.41,106.75 -113.06,109.08 -107.25,111.38 -101.44,113.68 -96.32,115.23 -91.19,116.78 -84.50,117.80 -77.80,118.83 -71.69,119.46 -65.58,120.09 -58.81,120.35 -52.03,120.62 -46.10,120.54 -40.18,120.46 -33.51,119.66 -26.84,118.85 -19.85,117.17 -12.87,115.49 -7.47,113.46 -2.07,111.42 2.69,109.23 7.46,107.03 12.00,104.93 16.55,102.84 21.83,99.50 27.11,96.17 32.40,92.28 37.70,88.38 41.25,85.23 44.80,82.08 46.98,79.13 49.16,76.18 50.39,72.78 51.63,69.38 51.95,65.39 52.28,61.40 52.24,57.78 52.21,54.17 51.46,51.08 50.71,48.00 48.19,44.19 45.68,40.38 41.65,36.70 37.61,33.03 33.26,30.14 28.91,27.25 23.11,24.51 17.30,21.78 11.96,19.65 6.63,17.52 0.19,15.45 -6.24,13.39 -12.00,11.87 -17.76,10.35 -20.12,9.28 -22.49,8.21 -22.59,8.17 -22.68,8.13 -22.76,8.06 -22.84,7.98 -22.89,7.89 -22.95,7.80 -22.97,7.70 -22.99,7.59 -22.97,7.49 -22.96,7.38 -22.91,7.29 -22.86,7.19 -22.79,7.12 -22.71,7.04 -22.62,6.99 -22.52,6.95 -22.42,6.93 -22.31,6.92 -22.21,6.94 -22.10,6.96 -22.01,7.01 -21.92,7.06 -21.85,7.14 -21.78,7.22 -21.74,7.32 -21.69,7.42 -21.68,7.52 -21.68,7.63 -21.70,7.73 -21.73,7.83 -21.78,7.92 -21.84,8.01 -21.92,8.08 -22.01,8.15 -22.11,8.18 -22.21,8.22 -22.31,8.22 -22.42,8.22 -22.52,8.19 -22.62,8.16 -22.71,8.10 -22.80,8.04 -22.86,7.95 -22.92,7.87 -22.95,7.76 -22.98,7.66 -22.98,7.56 -22.98,7.45 -22.94,7.35 -22.90,7.25 -22.84,7.17 -22.77,7.08 -22.68,7.03 -22.59,6.97 -22.49,6.94 -22.38,6.92 -22.28,6.93 -22.17,6.94 -22.17,6.94 -22.17,6.94 -19.58,7.10 -16.99,7.26 -11.08,8.65 -5.18,10.04 1.39,12.09 7.97,14.15 13.42,16.31 18.86,18.48 24.90,21.34 30.93,24.21 35.51,27.27 40.08,30.33 44.42,34.35 48.75,38.36 51.50,42.73 54.25,47.09 55.06,50.61 55.86,54.12 55.88,57.93 55.90,61.73 55.45,66.17 55.00,70.62 53.51,74.44 52.02,78.27 49.59,81.49 47.16,84.71 43.47,87.97 39.79,91.22 34.38,95.18 28.97,99.15 23.49,102.58 18.01,106.01 13.46,108.09 8.91,110.18 4.02,112.41 -0.86,114.65 -6.47,116.72 -12.08,118.80 -19.26,120.48 -26.45,122.17 -33.29,122.96 -40.13,123.76 -46.14,123.83 -52.16,123.90 -59.04,123.63 -65.92,123.35 -72.11,122.70 -78.30,122.06 -85.22,120.98 -92.13,119.90 -97.39,118.30 -102.64,116.71 -108.62,114.32 -114.59,111.93 -119.04,109.54 -123.49,107.15 -128.08,104.21 -132.67,101.27 -135.65,98.51 -138.63,95.75 -140.97,92.55 -143.30,89.35 -145.07,85.54 -146.83,81.74 -147.70,77.18 -148.56,72.61 -148.74,68.29 -148.93,63.97 -148.47,61.38 -148.01,58.78 -146.89,54.44 -145.78,50.11 -144.14,46.95 -142.49,43.80 -140.11,40.66 -137.74,37.53 -134.41,33.80 -131.09,30.07 -128.40,27.77 -125.71,25.47 -121.15,21.84 -116.60,18.20 -112.36,15.65 -108.12,13.09 -102.14,9.77 -96.17,6.44 -90.94,4.61 -85.71,2.77 -79.29,0.71 -72.87,-1.34 -66.77,-3.03 -60.68,-4.73 -55.96,-5.53 -51.24,-6.32 -46.52,-6.87 -41.80,-7.41 -37.02,-7.81 -32.24,-8.22 -26.92,-8.29 -21.59,-8.35 -17.63,-8.03 -13.66,-7.70 -11.44,-7.00 -9.22,-6.30 -7.15,-5.54 -5.07,-4.79 -3.45,-3.94 -1.84,-3.09 -0.61,-1.98 0.62,-0.87 0.72,-0.78 0.81,-0.70 0.88,-0.59 0.96,-0.48 1.00,-0.36 1.04,-0.24 1.06,-0.11 1.07,0.01 1.05,0.14 1.04,0.27 0.99,0.39 0.94,0.51 0.86,0.62 0.79,0.72 0.69,0.81 0.59,0.89 0.48,0.95 0.36,1.01 0.23,1.04 0.11,1.07 -0.01,1.06 -0.14,1.06 -0.27,1.03 -0.39,1.00 -0.51,0.93 -0.62,0.87 -0.62,0.87 L -0.62,0.87 Z"></path></g><g transform="translate(125.33334350585938 62.04167175292969) rotate(0 6 7.666664123535156)" stroke="none"><path fill="#000" d="M 1.03,0.12 Q 1.03,0.12 1.04,1.68 1.05,3.24 0.61,5.49 0.17,7.75 -0.18,10.36 -0.53,12.97 -0.68,15.19 -0.82,17.41 -0.70,18.43 -0.57,19.45 -0.50,20.15 -0.44,20.86 -0.40,20.96 -0.37,21.06 -0.38,21.26 -0.39,21.46 -0.44,21.65 -0.50,21.84 -0.60,22.01 -0.70,22.19 -0.84,22.33 -0.98,22.48 -1.15,22.58 -1.32,22.69 -1.51,22.75 -1.70,22.81 -1.90,22.83 -2.10,22.84 -2.30,22.81 -2.50,22.78 -2.68,22.70 -2.87,22.62 -3.03,22.50 -3.19,22.37 -3.31,22.22 -3.44,22.06 -3.52,21.88 -3.61,21.70 -3.65,21.50 -3.69,21.31 -3.49,19.46 -3.30,17.62 -2.83,14.39 -2.35,11.16 -1.77,7.67 -1.18,4.18 -0.54,1.68 0.10,-0.82 0.63,-2.72 1.16,-4.62 1.87,-5.09 2.58,-5.56 2.65,-5.74 2.73,-5.93 2.84,-6.09 2.96,-6.26 3.11,-6.39 3.26,-6.52 3.44,-6.61 3.61,-6.70 3.81,-6.75 4.00,-6.80 4.20,-6.79 4.40,-6.79 4.60,-6.74 4.79,-6.69 4.97,-6.60 5.14,-6.50 5.29,-6.37 5.44,-6.24 5.55,-6.07 5.66,-5.91 5.73,-5.72 5.80,-5.53 5.83,-5.33 5.85,-5.13 5.82,-4.93 5.80,-4.74 6.58,-4.12 7.36,-3.51 8.41,-0.87 9.46,1.75 10.24,3.53 11.02,5.32 12.12,7.81 13.22,10.30 13.61,13.85 14.00,17.40 13.98,17.51 13.96,17.61 13.91,17.70 13.86,17.80 13.78,17.87 13.70,17.94 13.60,17.98 13.50,18.02 13.40,18.03 13.29,18.04 13.19,18.02 13.09,17.99 13.00,17.93 12.91,17.88 12.84,17.80 12.77,17.71 12.73,17.61 12.70,17.51 12.69,17.41 12.69,17.30 12.72,17.20 12.75,17.10 12.81,17.01 12.88,16.92 12.96,16.86 13.05,16.80 13.15,16.77 13.25,16.74 13.36,16.74 13.46,16.74 13.56,16.78 13.66,16.81 13.75,16.88 13.83,16.95 13.89,17.03 13.94,17.12 13.97,17.23 14.00,17.33 13.99,17.44 13.98,17.54 13.94,17.64 13.90,17.74 13.83,17.82 13.76,17.90 13.66,17.95 13.57,18.00 13.47,18.02 13.36,18.04 13.26,18.03 13.15,18.02 13.06,17.97 12.96,17.92 12.89,17.85 12.81,17.77 12.76,17.68 12.71,17.58 12.70,17.48 12.69,17.37 12.69,17.37 12.69,17.37 11.43,14.51 10.18,11.64 9.07,9.14 7.97,6.64 7.17,4.80 6.36,2.95 5.50,0.66 4.63,-1.63 3.61,-3.59 2.58,-5.56 2.65,-5.74 2.73,-5.93 2.84,-6.09 2.96,-6.26 3.11,-6.39 3.26,-6.52 3.44,-6.61 3.61,-6.70 3.81,-6.75 4.00,-6.80 4.20,-6.79 4.40,-6.79 4.60,-6.74 4.79,-6.69 4.97,-6.60 5.14,-6.50 5.29,-6.37 5.44,-6.24 5.55,-6.07 5.66,-5.91 5.73,-5.72 5.80,-5.53 5.83,-5.33 5.85,-5.13 5.82,-4.93 5.80,-4.74 4.97,-4.06 4.14,-3.38 3.75,-1.68 3.36,0.02 2.74,2.38 2.13,4.74 1.55,8.19 0.97,11.65 0.50,14.83 0.04,18.02 -0.16,19.54 -0.37,21.06 -0.38,21.26 -0.39,21.46 -0.44,21.65 -0.50,21.84 -0.60,22.01 -0.70,22.19 -0.84,22.33 -0.98,22.48 -1.15,22.58 -1.32,22.69 -1.51,22.75 -1.70,22.81 -1.90,22.83 -2.10,22.84 -2.30,22.81 -2.50,22.78 -2.68,22.70 -2.87,22.62 -3.03,22.50 -3.19,22.37 -3.31,22.22 -3.44,22.06 -3.52,21.88 -3.61,21.70 -3.65,21.50 -3.69,21.31 -3.70,21.21 -3.71,21.11 -3.74,20.45 -3.78,19.78 -3.90,18.48 -4.01,17.18 -3.83,14.85 -3.64,12.51 -3.22,9.81 -2.80,7.12 -2.31,5.00 -1.82,2.88 -1.42,1.37 -1.03,-0.12 -1.00,-0.25 -0.97,-0.37 -0.91,-0.48 -0.85,-0.59 -0.77,-0.69 -0.69,-0.78 -0.58,-0.85 -0.48,-0.92 -0.36,-0.97 -0.24,-1.01 -0.12,-1.03 0.00,-1.04 0.12,-1.03 0.25,-1.01 0.37,-0.96 0.48,-0.92 0.59,-0.85 0.69,-0.78 0.77,-0.68 0.86,-0.59 0.92,-0.47 0.97,-0.36 1.00,-0.24 1.03,-0.12 1.03,0.00 1.03,0.12 1.03,0.12 L 1.03,0.12 Z"></path></g><g transform="translate(117.33334350585938 76.70832824707031) rotate(0 12.333328247070312 -3.6666641235351562)" stroke="none"><path fill="#000" d="M -0.41,-0.90 Q -0.41,-0.90 1.55,-2.18 3.51,-3.45 6.18,-4.47 8.85,-5.49 13.34,-6.49 17.83,-7.49 19.80,-7.42 21.77,-7.35 21.88,-7.35 21.98,-7.36 22.08,-7.33 22.19,-7.30 22.27,-7.24 22.36,-7.18 22.43,-7.10 22.49,-7.02 22.53,-6.92 22.56,-6.82 22.56,-6.71 22.56,-6.60 22.53,-6.50 22.50,-6.40 22.43,-6.32 22.37,-6.23 22.28,-6.17 22.19,-6.11 22.09,-6.08 21.99,-6.05 21.88,-6.06 21.78,-6.06 21.68,-6.10 21.58,-6.14 21.50,-6.21 21.42,-6.28 21.36,-6.37 21.31,-6.46 21.28,-6.56 21.26,-6.67 21.27,-6.77 21.28,-6.88 21.32,-6.97 21.37,-7.07 21.44,-7.15 21.51,-7.23 21.61,-7.28 21.70,-7.33 21.81,-7.34 21.91,-7.36 22.02,-7.34 22.12,-7.33 22.21,-7.28 22.31,-7.23 22.38,-7.15 22.46,-7.08 22.50,-6.98 22.55,-6.88 22.56,-6.78 22.57,-6.67 22.55,-6.57 22.53,-6.47 22.47,-6.37 22.42,-6.28 22.34,-6.21 22.26,-6.14 22.16,-6.10 22.06,-6.06 22.06,-6.06 22.06,-6.06 20.31,-5.15 18.57,-4.23 14.31,-3.25 10.06,-2.26 7.48,-1.32 4.91,-0.37 2.66,0.26 0.41,0.90 0.29,0.94 0.18,0.98 0.06,0.98 -0.05,0.99 -0.17,0.97 -0.29,0.95 -0.40,0.90 -0.51,0.85 -0.60,0.78 -0.70,0.70 -0.77,0.61 -0.85,0.51 -0.90,0.41 -0.95,0.30 -0.97,0.18 -0.99,0.06 -0.98,-0.05 -0.98,-0.17 -0.94,-0.29 -0.91,-0.40 -0.84,-0.50 -0.78,-0.61 -0.70,-0.69 -0.61,-0.78 -0.51,-0.84 -0.41,-0.90 -0.41,-0.90 L -0.41,-0.90 Z"></path></g><g transform="translate(476.66668701171875 50.04167175292969) rotate(0 11 3.3333282470703125)" stroke="none"><path fill="#000" d="M 0.87,0.43 Q 0.87,0.43 0.92,0.92 0.96,1.40 1.11,2.79 1.26,4.18 1.34,5.87 1.43,7.55 1.47,8.83 1.52,10.10 1.55,11.02 1.59,11.93 1.57,12.13 1.55,12.32 1.48,12.50 1.42,12.69 1.31,12.85 1.21,13.01 1.06,13.14 0.92,13.27 0.75,13.37 0.58,13.46 0.39,13.51 0.21,13.56 0.01,13.57 -0.17,13.57 -0.36,13.53 -0.55,13.49 -0.72,13.40 -0.90,13.32 -1.04,13.19 -1.19,13.06 -1.31,12.91 -1.42,12.75 -1.49,12.57 -1.57,12.39 -1.59,12.20 -1.62,12.01 -1.64,11.21 -1.67,10.40 -1.43,9.63 -1.18,8.85 -1.15,7.72 -1.12,6.58 -1.09,4.89 -1.06,3.19 -0.84,1.59 -0.63,-0.00 -0.35,-1.81 -0.06,-3.61 0.27,-4.70 0.61,-5.78 1.00,-6.53 1.40,-7.27 2.28,-8.12 3.16,-8.97 3.86,-9.62 4.56,-10.28 5.72,-10.72 6.88,-11.17 8.39,-11.33 9.89,-11.48 11.56,-11.33 13.23,-11.19 14.57,-10.91 15.90,-10.63 17.07,-9.66 18.23,-8.69 18.32,-7.09 18.40,-5.49 17.28,-3.67 16.16,-1.86 13.86,0.07 11.56,2.01 9.37,3.23 7.19,4.46 6.01,5.28 4.83,6.11 4.48,6.49 4.14,6.86 3.96,6.96 3.77,7.05 3.57,7.10 3.37,7.15 3.17,7.15 2.96,7.15 2.76,7.10 2.56,7.05 2.38,6.95 2.20,6.86 2.04,6.72 1.89,6.58 1.77,6.41 1.65,6.24 1.58,6.05 1.51,5.86 1.48,5.65 1.46,5.45 1.48,5.24 1.51,5.04 1.58,4.85 1.66,4.65 1.77,4.48 1.89,4.31 2.05,4.18 2.20,4.04 3.46,3.86 4.72,3.68 6.35,3.86 7.98,4.04 10.08,4.11 12.18,4.18 14.14,4.41 16.10,4.64 18.05,5.36 20.01,6.08 21.43,7.06 22.85,8.05 23.18,9.39 23.51,10.73 22.87,12.13 22.23,13.52 20.22,14.97 18.21,16.41 16.06,17.03 13.91,17.65 10.83,17.89 7.75,18.13 3.96,16.87 0.16,15.61 0.06,15.58 -0.03,15.54 -0.11,15.47 -0.19,15.41 -0.25,15.32 -0.31,15.23 -0.34,15.13 -0.36,15.02 -0.35,14.92 -0.34,14.81 -0.30,14.71 -0.26,14.61 -0.19,14.54 -0.12,14.46 -0.03,14.40 0.05,14.35 0.16,14.33 0.26,14.31 0.37,14.32 0.47,14.34 0.57,14.39 0.66,14.43 0.74,14.51 0.81,14.58 0.86,14.68 0.91,14.77 0.92,14.88 0.94,14.98 0.92,15.09 0.90,15.19 0.85,15.28 0.80,15.38 0.72,15.45 0.64,15.52 0.54,15.56 0.44,15.60 0.34,15.61 0.23,15.62 0.13,15.60 0.03,15.57 -0.05,15.51 -0.14,15.46 -0.21,15.37 -0.28,15.29 -0.31,15.19 -0.35,15.09 -0.35,14.99 -0.36,14.88 -0.33,14.78 -0.30,14.68 -0.23,14.59 -0.17,14.50 -0.09,14.44 -0.00,14.38 0.09,14.35 0.19,14.32 0.30,14.32 0.40,14.32 0.40,14.32 0.40,14.32 3.96,14.45 7.52,14.57 10.27,14.39 13.02,14.21 14.67,13.84 16.32,13.46 17.83,12.58 19.34,11.69 19.90,10.83 20.46,9.97 19.62,9.61 18.79,9.26 17.23,8.64 15.67,8.02 13.87,7.80 12.06,7.59 9.82,7.51 7.59,7.42 5.86,7.14 4.14,6.86 3.96,6.96 3.77,7.05 3.57,7.10 3.37,7.15 3.17,7.15 2.96,7.15 2.76,7.10 2.56,7.05 2.38,6.95 2.20,6.86 2.04,6.72 1.89,6.58 1.77,6.41 1.65,6.24 1.58,6.05 1.51,5.86 1.48,5.65 1.46,5.45 1.48,5.24 1.51,5.04 1.58,4.85 1.66,4.65 1.77,4.48 1.89,4.31 2.05,4.18 2.20,4.04 2.54,3.68 2.89,3.32 4.23,2.42 5.57,1.51 7.51,0.47 9.44,-0.57 11.44,-2.17 13.43,-3.76 14.30,-4.86 15.16,-5.95 15.15,-6.69 15.14,-7.43 14.03,-7.66 12.92,-7.89 11.55,-8.03 10.18,-8.16 9.03,-8.08 7.88,-7.99 7.31,-7.89 6.74,-7.78 6.06,-7.13 5.39,-6.47 4.59,-5.60 3.80,-4.73 3.52,-3.91 3.24,-3.09 2.96,-1.32 2.68,0.44 2.49,1.85 2.29,3.26 2.25,5.02 2.21,6.79 1.93,8.64 1.65,10.50 1.62,11.22 1.59,11.93 1.57,12.13 1.55,12.32 1.48,12.50 1.42,12.69 1.31,12.85 1.21,13.01 1.06,13.14 0.92,13.27 0.75,13.37 0.58,13.46 0.39,13.51 0.21,13.56 0.01,13.57 -0.17,13.57 -0.36,13.53 -0.55,13.49 -0.72,13.40 -0.90,13.32 -1.04,13.19 -1.19,13.06 -1.31,12.91 -1.42,12.75 -1.49,12.57 -1.57,12.39 -1.59,12.20 -1.62,12.01 -1.61,11.09 -1.60,10.17 -1.61,8.92 -1.62,7.68 -1.68,6.15 -1.73,4.62 -1.88,3.35 -2.04,2.08 -1.88,1.10 -1.73,0.12 -1.30,-0.15 -0.87,-0.43 -0.80,-0.53 -0.74,-0.63 -0.65,-0.71 -0.56,-0.79 -0.46,-0.84 -0.36,-0.90 -0.25,-0.93 -0.13,-0.96 -0.01,-0.96 0.09,-0.97 0.21,-0.94 0.32,-0.91 0.43,-0.86 0.53,-0.81 0.62,-0.73 0.71,-0.66 0.78,-0.56 0.85,-0.47 0.89,-0.36 0.94,-0.25 0.95,-0.13 0.97,-0.01 0.96,0.09 0.95,0.21 0.91,0.32 0.87,0.43 0.87,0.43 L 0.87,0.43 Z"></path></g><g transform="translate(327.3333740234375 74.04167175292969) rotate(0 -15.333343505859375 14.999992370605469)" stroke="none"><path fill="#000" d="M 0.62,0.62 Q 0.62,0.62 0.03,1.56 -0.55,2.51 -1.64,3.60 -2.73,4.69 -4.38,6.15 -6.02,7.60 -8.57,10.45 -11.11,13.30 -14.34,16.66 -17.57,20.02 -20.13,22.25 -22.69,24.48 -24.29,26.14 -25.89,27.79 -27.70,29.11 -29.51,30.43 -29.60,30.49 -29.68,30.55 -29.79,30.59 -29.89,30.62 -29.99,30.62 -30.10,30.61 -30.20,30.58 -30.30,30.54 -30.38,30.48 -30.47,30.41 -30.52,30.32 -30.58,30.23 -30.61,30.13 -30.64,30.03 -30.63,29.92 -30.62,29.82 -30.58,29.72 -30.54,29.62 -30.47,29.54 -30.40,29.46 -30.31,29.41 -30.21,29.35 -30.11,29.33 -30.01,29.31 -29.90,29.32 -29.80,29.34 -29.70,29.38 -29.60,29.43 -29.53,29.51 -29.45,29.58 -29.40,29.67 -29.36,29.77 -29.34,29.87 -29.33,29.98 -29.34,30.08 -29.36,30.19 -29.41,30.28 -29.47,30.37 -29.54,30.45 -29.62,30.52 -29.72,30.56 -29.82,30.60 -29.92,30.61 -30.03,30.62 -30.13,30.60 -30.24,30.57 -30.33,30.52 -30.42,30.46 -30.48,30.38 -30.55,30.30 -30.59,30.20 -30.63,30.10 -30.63,29.99 -30.63,29.89 -30.60,29.78 -30.57,29.68 -30.51,29.60 -30.45,29.51 -30.45,29.51 -30.45,29.51 -29.18,27.68 -27.90,25.85 -26.21,24.11 -24.52,22.38 -22.05,20.23 -19.58,18.09 -16.38,14.76 -13.18,11.44 -10.52,8.48 -7.86,5.52 -6.28,4.12 -4.69,2.73 -3.60,1.64 -2.51,0.55 -1.56,-0.03 -0.62,-0.62 -0.54,-0.69 -0.45,-0.75 -0.36,-0.80 -0.26,-0.84 -0.15,-0.86 -0.05,-0.88 0.05,-0.87 0.15,-0.86 0.26,-0.83 0.36,-0.80 0.45,-0.75 0.54,-0.69 0.62,-0.62 0.69,-0.54 0.75,-0.45 0.80,-0.36 0.83,-0.26 0.86,-0.15 0.87,-0.05 0.88,0.05 0.86,0.15 0.84,0.26 0.80,0.36 0.75,0.45 0.69,0.54 0.62,0.62 0.62,0.62 L 0.62,0.62 Z"></path></g><g transform="translate(331.3333740234375 80.04167175292969) rotate(0 -19.333343505859375 21.666664123535156)" stroke="none"><path fill="#000" d="M 0.62,0.49 Q 0.62,0.49 0.00,1.57 -0.60,2.65 -1.69,4.02 -2.78,5.39 -5.16,8.28 -7.54,11.18 -11.06,15.10 -14.57,19.03 -17.58,22.60 -20.59,26.17 -23.44,29.06 -26.28,31.96 -28.80,34.70 -31.32,37.44 -32.98,39.20 -34.64,40.95 -36.13,42.07 -37.63,43.20 -37.71,43.26 -37.80,43.32 -37.90,43.36 -38.00,43.39 -38.10,43.39 -38.21,43.39 -38.31,43.36 -38.41,43.32 -38.50,43.26 -38.58,43.19 -38.64,43.10 -38.70,43.01 -38.73,42.91 -38.75,42.81 -38.75,42.70 -38.74,42.60 -38.70,42.50 -38.66,42.40 -38.59,42.32 -38.52,42.24 -38.43,42.18 -38.34,42.13 -38.23,42.11 -38.13,42.09 -38.03,42.10 -37.92,42.11 -37.82,42.16 -37.73,42.20 -37.65,42.27 -37.57,42.35 -37.53,42.44 -37.48,42.54 -37.46,42.64 -37.44,42.75 -37.46,42.85 -37.48,42.96 -37.53,43.05 -37.58,43.14 -37.66,43.22 -37.73,43.29 -37.83,43.33 -37.93,43.38 -38.03,43.39 -38.14,43.40 -38.24,43.37 -38.35,43.35 -38.44,43.30 -38.53,43.24 -38.60,43.16 -38.66,43.08 -38.70,42.98 -38.74,42.88 -38.75,42.77 -38.75,42.67 -38.72,42.56 -38.69,42.46 -38.63,42.38 -38.57,42.29 -38.57,42.29 -38.57,42.29 -37.52,40.75 -36.46,39.22 -34.81,37.49 -33.16,35.75 -30.60,32.99 -28.04,30.23 -25.25,27.41 -22.46,24.58 -19.43,20.99 -16.39,17.40 -12.90,13.52 -9.41,9.63 -7.03,6.76 -4.65,3.89 -3.55,2.53 -2.45,1.17 -1.54,0.33 -0.62,-0.49 -0.55,-0.56 -0.48,-0.63 -0.40,-0.68 -0.32,-0.73 -0.22,-0.76 -0.13,-0.78 -0.03,-0.79 0.05,-0.79 0.15,-0.77 0.24,-0.76 0.33,-0.72 0.42,-0.68 0.49,-0.62 0.57,-0.55 0.63,-0.48 0.68,-0.40 0.72,-0.31 0.76,-0.23 0.78,-0.13 0.79,-0.04 0.79,0.05 0.78,0.15 0.75,0.24 0.72,0.33 0.67,0.41 0.62,0.49 0.62,0.49 L 0.62,0.49 Z"></path></g><g transform="translate(336 89.375) rotate(0 -18.666656494140625 23)" stroke="none"><path fill="#000" d="M 0.66,0.56 Q 0.66,0.56 -0.33,2.03 -1.33,3.51 -2.55,5.19 -3.77,6.87 -5.26,8.94 -6.75,11.01 -9.71,14.61 -12.66,18.21 -16.20,22.60 -19.74,26.99 -22.39,30.38 -25.04,33.78 -27.33,36.40 -29.63,39.03 -31.59,40.95 -33.54,42.86 -34.91,44.24 -36.27,45.63 -36.35,45.71 -36.42,45.78 -36.52,45.83 -36.61,45.88 -36.72,45.90 -36.82,45.91 -36.93,45.89 -37.03,45.87 -37.12,45.82 -37.22,45.77 -37.29,45.70 -37.36,45.62 -37.41,45.52 -37.45,45.42 -37.46,45.32 -37.47,45.21 -37.44,45.11 -37.42,45.00 -37.37,44.91 -37.31,44.82 -37.23,44.76 -37.15,44.69 -37.05,44.65 -36.95,44.61 -36.84,44.61 -36.73,44.60 -36.63,44.63 -36.53,44.66 -36.44,44.72 -36.36,44.78 -36.29,44.87 -36.23,44.95 -36.20,45.06 -36.16,45.16 -36.17,45.26 -36.17,45.37 -36.20,45.47 -36.24,45.57 -36.30,45.65 -36.37,45.74 -36.46,45.80 -36.55,45.85 -36.65,45.88 -36.75,45.91 -36.86,45.90 -36.96,45.89 -37.06,45.85 -37.16,45.81 -37.24,45.74 -37.32,45.67 -37.37,45.58 -37.43,45.49 -37.45,45.39 -37.47,45.28 -37.46,45.18 -37.44,45.07 -37.40,44.98 -37.35,44.88 -37.35,44.88 -37.35,44.88 -36.39,42.91 -35.42,40.94 -33.52,39.11 -31.62,37.28 -29.36,34.73 -27.10,32.17 -24.43,28.76 -21.76,25.36 -18.21,20.97 -14.65,16.57 -11.74,13.04 -8.83,9.51 -7.34,7.44 -5.84,5.36 -4.55,3.61 -3.26,1.85 -1.96,0.64 -0.66,-0.56 -0.58,-0.63 -0.50,-0.70 -0.41,-0.75 -0.32,-0.81 -0.22,-0.83 -0.11,-0.86 -0.01,-0.86 0.09,-0.86 0.19,-0.84 0.29,-0.82 0.38,-0.77 0.48,-0.72 0.56,-0.65 0.64,-0.58 0.70,-0.50 0.76,-0.41 0.80,-0.32 0.84,-0.22 0.85,-0.11 0.87,-0.01 0.86,0.09 0.84,0.19 0.81,0.29 0.77,0.39 0.72,0.48 0.66,0.56 0.66,0.56 L 0.66,0.56 Z"></path></g><g transform="translate(337.3333740234375 100.70832824707031) rotate(0 -14 19)" stroke="none"><path fill="#000" d="M 0.65,0.48 Q 0.65,0.48 -0.32,2.14 -1.31,3.80 -3.11,6.37 -4.92,8.94 -6.65,11.38 -8.38,13.81 -10.48,16.41 -12.59,19.01 -15.40,22.23 -18.21,25.46 -20.32,28.15 -22.43,30.84 -23.73,32.39 -25.03,33.94 -26.12,35.80 -27.22,37.66 -27.26,37.75 -27.31,37.85 -27.38,37.93 -27.45,38.00 -27.55,38.05 -27.64,38.10 -27.75,38.12 -27.85,38.13 -27.96,38.12 -28.06,38.10 -28.16,38.05 -28.25,38.00 -28.32,37.92 -28.39,37.84 -28.44,37.75 -28.48,37.65 -28.49,37.54 -28.50,37.44 -28.48,37.33 -28.46,37.23 -28.40,37.14 -28.35,37.05 -28.26,36.98 -28.18,36.91 -28.08,36.87 -27.98,36.84 -27.88,36.83 -27.77,36.83 -27.67,36.85 -27.57,36.88 -27.48,36.94 -27.39,37.00 -27.33,37.09 -27.27,37.17 -27.23,37.28 -27.20,37.38 -27.20,37.48 -27.20,37.59 -27.24,37.69 -27.27,37.79 -27.33,37.87 -27.40,37.96 -27.49,38.02 -27.58,38.08 -27.68,38.10 -27.78,38.13 -27.89,38.12 -27.99,38.12 -28.09,38.08 -28.19,38.04 -28.27,37.97 -28.35,37.90 -28.41,37.81 -28.46,37.72 -28.48,37.61 -28.50,37.51 -28.49,37.40 -28.48,37.30 -28.48,37.30 -28.48,37.30 -27.80,34.74 -27.13,32.19 -25.83,30.67 -24.54,29.16 -22.36,26.45 -20.17,23.74 -17.38,20.56 -14.59,17.39 -12.53,14.85 -10.48,12.32 -8.74,9.89 -7.00,7.46 -5.14,4.89 -3.28,2.32 -1.97,0.91 -0.65,-0.48 -0.58,-0.55 -0.51,-0.62 -0.43,-0.68 -0.34,-0.73 -0.25,-0.76 -0.16,-0.79 -0.06,-0.80 0.03,-0.81 0.12,-0.79 0.22,-0.78 0.31,-0.74 0.40,-0.70 0.48,-0.64 0.56,-0.58 0.62,-0.51 0.68,-0.43 0.72,-0.34 0.77,-0.25 0.79,-0.16 0.80,-0.06 0.80,0.03 0.80,0.12 0.77,0.22 0.74,0.31 0.69,0.40 0.65,0.48 0.65,0.48 L 0.65,0.48 Z"></path></g><g transform="translate(340.66668701171875 110.04167175292969) rotate(0 -13.666656494140625 17)" stroke="none"><path fill="#000" d="M 0.65,0.55 Q 0.65,0.55 -0.36,2.01 -1.37,3.47 -2.59,5.01 -3.82,6.54 -5.66,8.93 -7.51,11.31 -9.81,14.43 -12.11,17.55 -14.27,20.07 -16.44,22.59 -18.12,24.43 -19.81,26.27 -21.24,28.14 -22.68,30.02 -24.59,31.96 -26.50,33.90 -26.57,33.98 -26.64,34.06 -26.73,34.11 -26.82,34.17 -26.92,34.19 -27.03,34.21 -27.13,34.20 -27.24,34.19 -27.33,34.14 -27.43,34.09 -27.51,34.02 -27.58,33.95 -27.63,33.85 -27.68,33.76 -27.70,33.65 -27.71,33.55 -27.70,33.44 -27.68,33.34 -27.63,33.25 -27.58,33.15 -27.50,33.08 -27.42,33.01 -27.33,32.96 -27.23,32.92 -27.12,32.91 -27.02,32.90 -26.91,32.92 -26.81,32.95 -26.72,33.00 -26.63,33.06 -26.56,33.14 -26.49,33.22 -26.45,33.32 -26.42,33.42 -26.41,33.52 -26.41,33.63 -26.44,33.73 -26.46,33.83 -26.52,33.92 -26.59,34.01 -26.67,34.07 -26.76,34.14 -26.86,34.17 -26.96,34.20 -27.06,34.20 -27.17,34.20 -27.27,34.17 -27.37,34.13 -27.45,34.07 -27.54,34.00 -27.60,33.91 -27.66,33.82 -27.68,33.72 -27.71,33.62 -27.70,33.51 -27.70,33.41 -27.66,33.31 -27.62,33.21 -27.62,33.21 -27.62,33.21 -26.28,30.75 -24.94,28.28 -23.42,26.31 -21.89,24.35 -20.23,22.55 -18.56,20.75 -16.44,18.32 -14.32,15.89 -11.96,12.77 -9.61,9.66 -7.70,7.29 -5.79,4.93 -4.51,3.40 -3.22,1.88 -1.93,0.66 -0.65,-0.55 -0.57,-0.62 -0.49,-0.69 -0.40,-0.74 -0.31,-0.79 -0.21,-0.82 -0.11,-0.85 -0.01,-0.85 0.08,-0.85 0.19,-0.83 0.29,-0.80 0.38,-0.76 0.47,-0.71 0.55,-0.64 0.63,-0.58 0.69,-0.49 0.75,-0.41 0.79,-0.31 0.83,-0.21 0.84,-0.11 0.85,-0.01 0.84,0.08 0.83,0.19 0.80,0.28 0.76,0.38 0.70,0.47 0.65,0.55 0.65,0.55 L 0.65,0.55 Z"></path></g><g transform="translate(342 118.70832824707031) rotate(0 -12.666656494140625 13)" stroke="none"><path fill="#000" d="M 0.53,0.53 Q 0.53,0.53 -0.28,1.62 -1.11,2.72 -2.25,3.92 -3.40,5.12 -5.17,7.33 -6.94,9.54 -9.26,12.07 -11.58,14.59 -13.73,16.65 -15.88,18.70 -17.54,20.33 -19.20,21.95 -21.57,23.75 -23.94,25.55 -24.03,25.61 -24.11,25.67 -24.21,25.70 -24.32,25.73 -24.42,25.73 -24.53,25.72 -24.63,25.69 -24.73,25.65 -24.81,25.58 -24.89,25.52 -24.95,25.43 -25.00,25.34 -25.03,25.23 -25.05,25.13 -25.05,25.02 -25.04,24.92 -24.99,24.82 -24.95,24.72 -24.88,24.64 -24.81,24.57 -24.71,24.51 -24.62,24.46 -24.52,24.44 -24.41,24.42 -24.31,24.44 -24.20,24.45 -24.11,24.50 -24.01,24.55 -23.94,24.63 -23.86,24.70 -23.82,24.80 -23.77,24.89 -23.76,25.00 -23.74,25.10 -23.76,25.21 -23.79,25.31 -23.84,25.40 -23.89,25.50 -23.97,25.57 -24.05,25.64 -24.15,25.68 -24.25,25.72 -24.35,25.73 -24.46,25.73 -24.56,25.71 -24.66,25.68 -24.75,25.62 -24.84,25.57 -24.91,25.48 -24.97,25.40 -25.01,25.30 -25.05,25.20 -25.05,25.09 -25.05,24.99 -25.02,24.89 -24.99,24.78 -24.92,24.70 -24.86,24.61 -24.86,24.61 -24.86,24.61 -23.02,22.26 -21.18,19.91 -19.49,18.29 -17.80,16.67 -15.68,14.70 -13.56,12.74 -11.26,10.31 -8.95,7.88 -7.03,5.64 -5.12,3.40 -3.92,2.25 -2.72,1.11 -1.62,0.28 -0.53,-0.53 -0.46,-0.59 -0.39,-0.64 -0.30,-0.68 -0.22,-0.72 -0.13,-0.73 -0.04,-0.75 0.04,-0.74 0.13,-0.74 0.22,-0.71 0.31,-0.68 0.38,-0.64 0.46,-0.59 0.53,-0.53 0.59,-0.46 0.64,-0.38 0.68,-0.31 0.71,-0.22 0.74,-0.13 0.74,-0.04 0.75,0.04 0.73,0.13 0.72,0.22 0.68,0.30 0.64,0.39 0.59,0.46 0.53,0.53 0.53,0.53 L 0.53,0.53 Z"></path></g><g transform="translate(295.3333740234375 107.375) rotate(0 8.666656494140625 16.666664123535156)" stroke="none"><path fill="#000" d="M 0.75,-0.30 Q 0.75,-0.30 1.69,1.54 2.62,3.39 3.92,6.49 5.23,9.59 7.11,13.36 8.99,17.14 10.37,19.90 11.75,22.67 12.72,24.39 13.68,26.12 14.66,27.58 15.63,29.05 16.59,30.81 17.55,32.57 17.60,32.66 17.66,32.75 17.68,32.85 17.70,32.96 17.69,33.06 17.68,33.17 17.63,33.27 17.58,33.36 17.51,33.44 17.44,33.51 17.34,33.56 17.25,33.61 17.14,33.63 17.04,33.64 16.93,33.62 16.83,33.60 16.73,33.55 16.64,33.50 16.57,33.42 16.50,33.35 16.45,33.25 16.41,33.15 16.40,33.05 16.39,32.94 16.41,32.84 16.44,32.73 16.49,32.64 16.55,32.55 16.63,32.49 16.71,32.42 16.81,32.38 16.91,32.34 17.02,32.34 17.12,32.33 17.23,32.36 17.33,32.39 17.42,32.45 17.50,32.51 17.57,32.60 17.63,32.69 17.66,32.79 17.69,32.89 17.69,32.99 17.69,33.10 17.66,33.20 17.62,33.30 17.56,33.38 17.49,33.47 17.40,33.53 17.31,33.58 17.21,33.61 17.11,33.64 17.00,33.63 16.89,33.62 16.80,33.58 16.70,33.54 16.62,33.47 16.54,33.40 16.54,33.40 16.54,33.40 14.99,31.94 13.44,30.47 12.44,28.92 11.44,27.36 10.47,25.57 9.50,23.79 8.13,21.02 6.75,18.24 4.86,14.38 2.96,10.53 1.70,7.39 0.44,4.26 -0.15,2.28 -0.75,0.30 -0.78,0.20 -0.80,0.11 -0.81,0.01 -0.81,-0.08 -0.79,-0.17 -0.76,-0.27 -0.72,-0.36 -0.67,-0.45 -0.61,-0.52 -0.55,-0.60 -0.47,-0.65 -0.39,-0.71 -0.30,-0.75 -0.20,-0.78 -0.11,-0.80 -0.01,-0.81 0.08,-0.80 0.18,-0.79 0.27,-0.76 0.36,-0.72 0.44,-0.67 0.53,-0.62 0.59,-0.54 0.66,-0.47 0.71,-0.38 0.75,-0.30 0.75,-0.30 L 0.75,-0.30 Z"></path></g><g transform="translate(302.66668701171875 91.375) rotate(0 9 21.666664123535156)" stroke="none"><path fill="#000" d="M 0.69,-0.43 Q 0.69,-0.43 1.84,0.98 2.98,2.39 4.23,5.23 5.48,8.06 6.76,10.95 8.03,13.84 9.54,17.78 11.06,21.72 12.28,24.92 13.49,28.11 14.77,31.18 16.05,34.24 16.80,36.13 17.54,38.03 18.31,40.33 19.08,42.63 19.11,42.74 19.13,42.84 19.12,42.95 19.11,43.05 19.07,43.15 19.03,43.25 18.96,43.33 18.89,43.40 18.79,43.46 18.70,43.51 18.60,43.53 18.49,43.55 18.39,43.53 18.28,43.52 18.19,43.47 18.09,43.42 18.02,43.35 17.94,43.27 17.89,43.18 17.85,43.08 17.83,42.98 17.82,42.87 17.84,42.77 17.86,42.66 17.91,42.57 17.97,42.48 18.04,42.41 18.12,42.34 18.22,42.30 18.32,42.25 18.43,42.25 18.53,42.24 18.63,42.26 18.74,42.29 18.83,42.35 18.92,42.40 18.98,42.49 19.05,42.57 19.08,42.67 19.12,42.77 19.12,42.88 19.13,42.98 19.09,43.08 19.06,43.19 19.00,43.27 18.94,43.36 18.85,43.42 18.77,43.48 18.66,43.51 18.56,43.54 18.46,43.54 18.35,43.54 18.25,43.50 18.15,43.46 18.07,43.39 17.99,43.33 17.93,43.24 17.87,43.15 17.87,43.15 17.87,43.15 16.41,41.10 14.94,39.05 14.21,37.18 13.48,35.30 12.20,32.20 10.92,29.09 9.71,25.89 8.51,22.70 7.03,18.81 5.55,14.92 4.29,12.01 3.04,9.10 1.94,6.42 0.84,3.73 0.07,2.08 -0.69,0.43 -0.73,0.34 -0.77,0.25 -0.79,0.15 -0.81,0.06 -0.81,-0.03 -0.80,-0.13 -0.77,-0.23 -0.75,-0.32 -0.70,-0.40 -0.65,-0.49 -0.58,-0.56 -0.51,-0.63 -0.43,-0.68 -0.34,-0.74 -0.25,-0.77 -0.15,-0.80 -0.06,-0.80 0.03,-0.81 0.13,-0.80 0.23,-0.78 0.32,-0.74 0.41,-0.70 0.49,-0.64 0.56,-0.58 0.63,-0.51 0.69,-0.43 0.69,-0.43 L 0.69,-0.43 Z"></path></g><g transform="translate(311.3333740234375 80.70832824707031) rotate(0 8.666656494140625 23)" stroke="none"><path fill="#000" d="M 0.82,-0.51 Q 0.82,-0.51 1.90,0.94 2.97,2.40 3.83,4.49 4.70,6.57 6.19,9.88 7.68,13.18 8.91,16.56 10.14,19.94 11.44,24.07 12.74,28.19 14.05,31.82 15.36,35.45 15.93,37.43 16.51,39.41 17.11,42.28 17.71,45.15 17.73,45.25 17.75,45.35 17.74,45.46 17.72,45.57 17.68,45.66 17.63,45.76 17.56,45.83 17.48,45.91 17.39,45.96 17.29,46.01 17.19,46.02 17.08,46.04 16.98,46.02 16.88,46.00 16.78,45.95 16.69,45.90 16.62,45.82 16.54,45.74 16.50,45.64 16.46,45.55 16.45,45.44 16.44,45.34 16.46,45.23 16.49,45.13 16.54,45.04 16.60,44.95 16.68,44.88 16.76,44.81 16.86,44.78 16.96,44.74 17.07,44.73 17.17,44.73 17.28,44.76 17.38,44.79 17.46,44.85 17.55,44.91 17.61,45.00 17.68,45.08 17.71,45.18 17.74,45.28 17.74,45.39 17.74,45.50 17.70,45.60 17.67,45.70 17.60,45.78 17.54,45.86 17.45,45.92 17.36,45.98 17.26,46.01 17.16,46.03 17.05,46.03 16.94,46.02 16.85,45.98 16.75,45.94 16.67,45.87 16.59,45.80 16.53,45.71 16.48,45.61 16.48,45.61 16.48,45.62 15.16,42.90 13.84,40.18 13.30,38.28 12.75,36.39 11.44,32.70 10.13,29.01 8.87,24.93 7.61,20.86 6.43,17.56 5.25,14.27 3.77,10.90 2.29,7.53 1.57,5.62 0.85,3.72 0.01,2.12 -0.82,0.51 -0.87,0.40 -0.92,0.30 -0.94,0.18 -0.96,0.07 -0.96,-0.04 -0.95,-0.16 -0.92,-0.27 -0.89,-0.38 -0.83,-0.48 -0.77,-0.58 -0.69,-0.67 -0.60,-0.75 -0.51,-0.81 -0.41,-0.87 -0.30,-0.91 -0.18,-0.95 -0.07,-0.96 0.04,-0.96 0.15,-0.95 0.27,-0.93 0.38,-0.88 0.48,-0.83 0.58,-0.76 0.67,-0.69 0.74,-0.60 0.82,-0.51 0.82,-0.51 L 0.82,-0.51 Z"></path></g><g transform="translate(318.66668701171875 78.70832824707031) rotate(0 8.333343505859375 17.666671752929688)" stroke="none"><path fill="#000" d="M 0.48,-0.48 Q 0.48,-0.48 1.13,0.01 1.78,0.51 3.03,1.66 4.29,2.81 5.45,4.32 6.62,5.83 7.93,8.23 9.24,10.63 10.36,12.99 11.48,15.35 12.73,18.28 13.98,21.21 14.90,23.62 15.82,26.02 16.24,28.10 16.66,30.17 16.87,32.23 17.08,34.28 17.08,34.39 17.09,34.49 17.07,34.60 17.04,34.70 16.99,34.79 16.93,34.88 16.85,34.94 16.76,35.01 16.66,35.05 16.56,35.08 16.46,35.09 16.35,35.09 16.25,35.06 16.15,35.03 16.06,34.97 15.98,34.91 15.91,34.82 15.85,34.73 15.82,34.63 15.79,34.53 15.79,34.42 15.79,34.32 15.83,34.22 15.87,34.12 15.93,34.04 16.00,33.95 16.09,33.90 16.18,33.84 16.28,33.81 16.38,33.79 16.49,33.79 16.60,33.80 16.69,33.84 16.79,33.89 16.87,33.96 16.95,34.03 17.00,34.12 17.05,34.21 17.07,34.32 17.09,34.42 17.08,34.53 17.07,34.63 17.02,34.73 16.97,34.82 16.90,34.90 16.82,34.97 16.73,35.02 16.63,35.07 16.53,35.08 16.42,35.10 16.32,35.08 16.21,35.06 16.12,35.01 16.03,34.95 15.96,34.87 15.89,34.80 15.84,34.70 15.80,34.60 15.80,34.60 15.80,34.60 15.00,32.63 14.19,30.65 13.84,28.78 13.48,26.91 12.59,24.54 11.70,22.17 10.48,19.28 9.27,16.39 8.19,14.07 7.11,11.75 5.97,9.45 4.82,7.15 3.82,5.72 2.81,4.29 1.66,3.03 0.51,1.78 0.01,1.13 -0.48,0.48 -0.53,0.41 -0.58,0.35 -0.61,0.27 -0.64,0.20 -0.66,0.12 -0.67,0.04 -0.67,-0.04 -0.66,-0.12 -0.64,-0.20 -0.61,-0.27 -0.57,-0.34 -0.53,-0.41 -0.47,-0.47 -0.41,-0.53 -0.34,-0.57 -0.27,-0.61 -0.20,-0.64 -0.12,-0.66 -0.04,-0.67 0.04,-0.67 0.12,-0.66 0.20,-0.64 0.27,-0.61 0.35,-0.58 0.41,-0.53 0.48,-0.48 0.48,-0.48 L 0.48,-0.48 Z"></path></g><g transform="translate(329.3333740234375 80.04167175292969) rotate(0 7 11.666664123535156)" stroke="none"><path fill="#000" d="M 0.75,-0.41 Q 0.75,-0.41 1.85,1.22 2.94,2.87 4.72,5.88 6.50,8.88 7.63,10.73 8.75,12.58 10.36,14.87 11.98,17.15 13.00,19.59 14.01,22.02 14.05,22.12 14.08,22.22 14.09,22.33 14.09,22.43 14.06,22.54 14.03,22.64 13.97,22.72 13.90,22.81 13.82,22.87 13.73,22.93 13.63,22.97 13.53,23.00 13.42,22.99 13.32,22.99 13.22,22.95 13.12,22.92 13.03,22.85 12.95,22.78 12.89,22.70 12.84,22.61 12.81,22.50 12.79,22.40 12.79,22.29 12.80,22.19 12.84,22.09 12.89,21.99 12.96,21.91 13.03,21.83 13.12,21.78 13.21,21.73 13.32,21.71 13.42,21.69 13.53,21.70 13.63,21.72 13.73,21.77 13.82,21.81 13.90,21.89 13.97,21.96 14.02,22.06 14.07,22.15 14.08,22.26 14.10,22.36 14.08,22.47 14.06,22.57 14.00,22.67 13.95,22.76 13.87,22.83 13.79,22.90 13.70,22.94 13.60,22.98 13.49,22.99 13.39,23.00 13.28,22.97 13.18,22.95 13.09,22.89 13.00,22.83 12.93,22.75 12.87,22.67 12.87,22.67 12.87,22.67 11.36,20.65 9.86,18.63 8.22,16.26 6.58,13.90 5.45,12.02 4.32,10.14 2.60,7.08 0.88,4.02 0.06,2.22 -0.75,0.41 -0.79,0.32 -0.83,0.22 -0.84,0.12 -0.86,0.02 -0.85,-0.08 -0.84,-0.18 -0.80,-0.28 -0.77,-0.38 -0.71,-0.47 -0.66,-0.55 -0.58,-0.62 -0.50,-0.69 -0.41,-0.75 -0.32,-0.80 -0.22,-0.82 -0.12,-0.85 -0.02,-0.85 0.08,-0.86 0.18,-0.83 0.28,-0.81 0.38,-0.76 0.47,-0.72 0.55,-0.65 0.63,-0.58 0.69,-0.50 0.75,-0.41 0.75,-0.41 L 0.75,-0.41 Z"></path></g><g transform="translate(293.3333740234375 228.70834350585938) rotate(0 4.33331298828125 6)" stroke="none"><path fill="#000" d="M -0.76,0.50 Q -0.76,0.50 -1.38,0.09 -2.00,-0.32 -2.08,-0.48 -2.16,-0.64 -2.20,-0.81 -2.24,-0.99 -2.24,-1.17 -2.24,-1.35 -2.19,-1.52 -2.14,-1.69 -2.06,-1.85 -1.97,-2.01 -1.85,-2.14 -1.73,-2.27 -1.58,-2.37 -1.43,-2.47 -1.26,-2.53 -1.09,-2.59 -0.92,-2.61 -0.74,-2.63 -0.56,-2.61 -0.38,-2.58 -0.22,-2.52 -0.05,-2.45 0.09,-2.35 0.23,-2.24 0.35,-2.11 0.47,-1.97 0.30,-1.10 0.13,-0.22 0.42,0.98 0.71,2.19 0.58,4.51 0.45,6.83 0.00,9.21 -0.44,11.59 -0.81,13.70 -1.18,15.81 -1.32,17.07 -1.47,18.32 -1.51,18.48 -1.55,18.63 -1.59,18.83 -1.64,19.03 -1.74,19.21 -1.84,19.39 -1.97,19.54 -2.11,19.70 -2.28,19.81 -2.45,19.93 -2.64,20.00 -2.83,20.07 -3.03,20.09 -3.23,20.12 -3.44,20.09 -3.64,20.07 -3.83,19.99 -4.02,19.92 -4.19,19.80 -4.36,19.69 -4.49,19.53 -4.63,19.38 -4.72,19.20 -4.81,19.02 -4.86,18.82 -4.91,18.62 -4.91,18.41 -4.91,18.21 -4.95,17.26 -4.99,16.30 -4.81,14.21 -4.63,12.12 -4.35,10.09 -4.08,8.05 -3.98,5.93 -3.87,3.81 -3.42,1.60 -2.97,-0.60 -2.59,-2.10 -2.21,-3.60 -2.06,-4.53 -1.91,-5.46 -1.58,-6.30 -1.24,-7.14 -0.76,-7.65 -0.27,-8.16 -0.12,-8.50 0.02,-8.83 0.19,-8.94 0.36,-9.06 0.55,-9.13 0.75,-9.20 0.95,-9.22 1.15,-9.25 1.36,-9.22 1.56,-9.19 1.75,-9.12 1.94,-9.05 2.11,-8.93 2.28,-8.81 2.41,-8.65 2.55,-8.50 2.64,-8.32 2.73,-8.14 2.78,-7.94 2.83,-7.74 2.83,-7.53 2.83,-7.33 2.77,-7.13 2.72,-6.93 2.63,-6.75 2.53,-6.57 2.39,-6.42 2.26,-6.26 3.00,-6.58 3.74,-6.90 4.45,-5.70 5.15,-4.50 6.03,-2.84 6.90,-1.18 7.68,0.72 8.46,2.64 9.52,4.92 10.59,7.19 11.46,9.38 12.33,11.57 12.13,14.77 11.94,17.98 11.93,18.09 11.92,18.19 11.88,18.29 11.83,18.39 11.76,18.46 11.69,18.54 11.60,18.59 11.50,18.64 11.40,18.66 11.29,18.68 11.19,18.67 11.08,18.65 10.99,18.60 10.89,18.55 10.82,18.48 10.75,18.40 10.70,18.31 10.65,18.21 10.64,18.11 10.63,18.00 10.65,17.90 10.67,17.79 10.72,17.70 10.78,17.61 10.86,17.54 10.94,17.47 11.03,17.43 11.13,17.39 11.24,17.38 11.34,17.37 11.45,17.40 11.55,17.42 11.64,17.48 11.73,17.54 11.79,17.62 11.86,17.71 11.89,17.81 11.93,17.91 11.93,18.02 11.93,18.12 11.90,18.22 11.87,18.32 11.81,18.41 11.74,18.49 11.66,18.56 11.57,18.62 11.47,18.65 11.36,18.68 11.26,18.67 11.15,18.67 11.05,18.63 10.95,18.59 10.87,18.53 10.79,18.46 10.73,18.37 10.68,18.28 10.65,18.17 10.63,18.07 10.63,18.07 10.63,18.07 9.90,15.43 9.17,12.78 8.35,10.70 7.53,8.62 6.43,6.26 5.33,3.91 4.62,2.14 3.91,0.37 3.08,-1.21 2.24,-2.80 1.65,-3.84 1.06,-4.87 0.54,-6.85 0.02,-8.83 0.19,-8.94 0.36,-9.06 0.55,-9.13 0.75,-9.20 0.95,-9.22 1.15,-9.25 1.36,-9.22 1.56,-9.19 1.75,-9.12 1.94,-9.05 2.11,-8.93 2.28,-8.81 2.41,-8.66 2.55,-8.50 2.64,-8.32 2.73,-8.14 2.78,-7.94 2.83,-7.74 2.83,-7.53 2.83,-7.33 2.77,-7.13 2.72,-6.93 2.63,-6.75 2.53,-6.57 2.39,-6.42 2.26,-6.26 1.85,-5.58 1.44,-4.90 1.27,-3.82 1.10,-2.75 0.73,-1.33 0.36,0.09 -0.04,2.04 -0.46,3.99 -0.58,6.25 -0.70,8.51 -0.96,10.47 -1.23,12.43 -1.40,14.32 -1.58,16.21 -1.56,17.42 -1.55,18.63 -1.59,18.83 -1.64,19.03 -1.74,19.21 -1.84,19.39 -1.97,19.54 -2.11,19.70 -2.28,19.81 -2.45,19.93 -2.64,20.00 -2.83,20.07 -3.03,20.09 -3.23,20.12 -3.44,20.09 -3.64,20.07 -3.83,19.99 -4.02,19.92 -4.19,19.80 -4.36,19.69 -4.49,19.53 -4.63,19.38 -4.72,19.20 -4.81,19.02 -4.86,18.82 -4.91,18.62 -4.91,18.41 -4.91,18.21 -4.81,18.04 -4.71,17.88 -4.53,16.56 -4.35,15.24 -3.96,13.12 -3.57,10.99 -3.14,8.81 -2.71,6.63 -2.56,4.53 -2.41,2.43 -2.36,0.45 -2.31,-1.51 -2.15,-0.91 -2.00,-0.32 -2.08,-0.48 -2.16,-0.64 -2.20,-0.81 -2.24,-0.99 -2.24,-1.17 -2.24,-1.35 -2.19,-1.52 -2.14,-1.69 -2.06,-1.85 -1.97,-2.01 -1.85,-2.14 -1.73,-2.27 -1.58,-2.37 -1.43,-2.47 -1.26,-2.53 -1.09,-2.59 -0.92,-2.61 -0.74,-2.63 -0.56,-2.61 -0.38,-2.58 -0.22,-2.52 -0.05,-2.45 0.09,-2.35 0.23,-2.24 0.35,-2.11 0.47,-1.97 0.61,-1.24 0.76,-0.50 0.81,-0.41 0.86,-0.31 0.88,-0.20 0.91,-0.09 0.91,0.01 0.90,0.12 0.88,0.23 0.85,0.33 0.79,0.43 0.74,0.53 0.67,0.61 0.59,0.69 0.50,0.75 0.41,0.81 0.30,0.85 0.20,0.89 0.09,0.90 -0.01,0.91 -0.12,0.90 -0.23,0.88 -0.33,0.84 -0.43,0.80 -0.52,0.74 -0.61,0.67 -0.69,0.59 -0.76,0.50 -0.76,0.50 L -0.76,0.50 Z"></path></g><g transform="translate(289.3333740234375 241.375) rotate(0 9.33331298828125 -1.3333282470703125)" stroke="none"><path fill="#000" d="M -0.36,-1.09 Q -0.36,-1.09 0.14,-1.47 0.66,-1.84 2.14,-2.19 3.62,-2.54 5.46,-2.68 7.31,-2.82 9.15,-3.07 10.99,-3.31 14.11,-3.22 17.22,-3.13 17.33,-3.12 17.44,-3.12 17.54,-3.09 17.64,-3.05 17.72,-2.98 17.80,-2.92 17.86,-2.83 17.92,-2.74 17.94,-2.63 17.97,-2.53 17.96,-2.42 17.95,-2.32 17.91,-2.22 17.87,-2.12 17.80,-2.04 17.73,-1.97 17.63,-1.91 17.54,-1.86 17.44,-1.84 17.33,-1.82 17.23,-1.83 17.12,-1.85 17.03,-1.90 16.93,-1.94 16.86,-2.02 16.78,-2.09 16.73,-2.19 16.69,-2.28 16.67,-2.39 16.66,-2.49 16.68,-2.60 16.70,-2.70 16.75,-2.80 16.80,-2.89 16.88,-2.96 16.96,-3.03 17.06,-3.07 17.16,-3.11 17.26,-3.12 17.37,-3.13 17.47,-3.11 17.57,-3.08 17.66,-3.02 17.75,-2.97 17.82,-2.88 17.89,-2.80 17.92,-2.70 17.96,-2.60 17.96,-2.49 17.96,-2.39 17.93,-2.29 17.90,-2.19 17.84,-2.10 17.78,-2.01 17.69,-1.95 17.61,-1.89 17.50,-1.86 17.40,-1.83 17.40,-1.83 17.40,-1.83 14.41,-0.90 11.41,0.02 9.47,0.26 7.53,0.50 5.89,0.59 4.25,0.68 2.94,0.88 1.63,1.07 1.00,1.08 0.36,1.09 0.22,1.12 0.09,1.15 -0.04,1.14 -0.18,1.14 -0.32,1.10 -0.45,1.06 -0.57,0.99 -0.69,0.92 -0.79,0.82 -0.89,0.73 -0.97,0.61 -1.04,0.49 -1.09,0.36 -1.13,0.23 -1.14,0.09 -1.15,-0.04 -1.13,-0.18 -1.11,-0.32 -1.05,-0.45 -1.00,-0.57 -0.91,-0.69 -0.83,-0.80 -0.72,-0.89 -0.61,-0.97 -0.49,-1.03 -0.36,-1.09 -0.36,-1.09 L -0.36,-1.09 Z"></path></g><g transform="translate(314.66668701171875 242.70834350585938) rotate(0 6 -6.6666717529296875)" stroke="none"><path fill="#000" d="M -0.68,0.27 Q -0.68,0.27 -1.38,-0.58 -2.08,-1.44 -2.10,-2.68 -2.12,-3.92 -2.10,-4.93 -2.08,-5.94 -1.44,-7.40 -0.80,-8.86 -0.39,-10.07 0.01,-11.27 0.81,-12.27 1.62,-13.27 2.81,-13.58 4.00,-13.89 5.23,-13.53 6.46,-13.17 7.75,-12.40 9.05,-11.62 10.20,-10.69 11.35,-9.76 12.25,-8.91 13.16,-8.07 13.51,-7.03 13.86,-5.99 13.27,-3.91 12.68,-1.83 12.66,-1.73 12.64,-1.63 12.58,-1.53 12.53,-1.44 12.44,-1.38 12.36,-1.31 12.26,-1.27 12.17,-1.23 12.06,-1.22 11.95,-1.22 11.85,-1.25 11.75,-1.28 11.66,-1.34 11.57,-1.40 11.51,-1.48 11.45,-1.57 11.41,-1.67 11.38,-1.77 11.38,-1.88 11.38,-1.98 11.41,-2.08 11.45,-2.18 11.51,-2.27 11.58,-2.35 11.67,-2.41 11.76,-2.47 11.86,-2.50 11.96,-2.53 12.07,-2.52 12.17,-2.51 12.27,-2.47 12.37,-2.43 12.45,-2.36 12.53,-2.29 12.58,-2.20 12.64,-2.11 12.66,-2.01 12.68,-1.90 12.67,-1.80 12.66,-1.69 12.61,-1.60 12.57,-1.50 12.50,-1.42 12.42,-1.35 12.33,-1.30 12.23,-1.25 12.13,-1.23 12.02,-1.22 11.92,-1.23 11.81,-1.25 11.72,-1.30 11.63,-1.35 11.55,-1.43 11.48,-1.51 11.44,-1.60 11.39,-1.70 11.38,-1.81 11.37,-1.91 11.37,-1.91 11.37,-1.91 11.20,-4.04 11.03,-6.16 10.26,-6.83 9.49,-7.50 8.50,-8.33 7.52,-9.15 6.49,-9.81 5.47,-10.47 4.41,-10.84 3.36,-11.22 3.02,-10.76 2.69,-10.29 2.22,-8.95 1.75,-7.61 1.23,-6.70 0.72,-5.79 0.71,-4.81 0.70,-3.83 0.62,-3.11 0.54,-2.39 0.61,-1.33 0.68,-0.27 0.70,-0.18 0.72,-0.10 0.72,-0.01 0.73,0.07 0.71,0.16 0.69,0.24 0.65,0.32 0.61,0.40 0.55,0.47 0.49,0.54 0.42,0.59 0.35,0.64 0.27,0.67 0.18,0.70 0.10,0.72 0.01,0.73 -0.07,0.72 -0.16,0.71 -0.24,0.68 -0.32,0.65 -0.40,0.60 -0.47,0.55 -0.53,0.49 -0.59,0.42 -0.63,0.35 -0.68,0.27 -0.68,0.27 L -0.68,0.27 Z"></path></g><g transform="translate(337.3333740234375 230.04165649414062) rotate(0 8.33331298828125 2.66668701171875)" stroke="none"><path fill="#000" d="M 0.85,0.09 Q 0.85,0.09 0.97,1.85 1.10,3.60 1.21,4.77 1.33,5.93 1.38,7.10 1.44,8.26 1.64,9.20 1.85,10.13 1.68,11.34 1.52,12.55 1.65,12.10 1.79,11.66 1.79,11.85 1.80,12.04 1.75,12.22 1.71,12.41 1.63,12.58 1.54,12.75 1.42,12.90 1.29,13.04 1.14,13.15 0.98,13.26 0.81,13.33 0.63,13.41 0.44,13.43 0.25,13.46 0.06,13.44 -0.12,13.42 -0.30,13.36 -0.48,13.29 -0.64,13.19 -0.80,13.08 -0.93,12.94 -1.05,12.80 -1.15,12.63 -1.24,12.46 -1.29,12.28 -1.34,12.10 -1.90,10.23 -2.46,8.37 -2.42,6.43 -2.37,4.50 -1.95,2.12 -1.52,-0.26 -0.93,-2.11 -0.33,-3.96 0.98,-5.70 2.31,-7.44 3.32,-8.37 4.32,-9.30 5.74,-9.82 7.17,-10.33 8.38,-10.44 9.58,-10.54 10.52,-9.43 11.45,-8.31 11.09,-7.15 10.73,-5.99 10.14,-4.96 9.54,-3.93 8.86,-3.06 8.19,-2.19 8.55,-1.68 8.92,-1.17 9.54,-0.91 10.17,-0.65 11.52,0.10 12.87,0.86 14.40,1.76 15.93,2.66 16.98,3.83 18.03,5.01 18.36,6.62 18.68,8.24 17.89,9.97 17.11,11.70 15.02,13.12 12.94,14.55 10.98,15.13 9.02,15.72 7.29,15.77 5.56,15.83 4.02,15.63 2.48,15.44 0.82,14.17 -0.83,12.90 -0.92,12.84 -1.02,12.79 -1.08,12.71 -1.15,12.63 -1.19,12.53 -1.23,12.43 -1.24,12.32 -1.24,12.22 -1.22,12.11 -1.19,12.01 -1.13,11.92 -1.07,11.84 -0.99,11.77 -0.90,11.71 -0.80,11.67 -0.70,11.64 -0.59,11.64 -0.49,11.64 -0.39,11.67 -0.29,11.70 -0.20,11.77 -0.12,11.83 -0.06,11.92 -0.00,12.01 0.02,12.11 0.05,12.21 0.05,12.32 0.04,12.43 0.00,12.52 -0.03,12.62 -0.10,12.70 -0.17,12.79 -0.26,12.84 -0.35,12.90 -0.45,12.92 -0.55,12.94 -0.66,12.93 -0.77,12.92 -0.86,12.87 -0.96,12.83 -1.04,12.76 -1.11,12.68 -1.16,12.59 -1.21,12.50 -1.23,12.39 -1.25,12.29 -1.23,12.18 -1.21,12.08 -1.17,11.98 -1.12,11.89 -1.04,11.82 -0.96,11.74 -0.87,11.70 -0.77,11.65 -0.66,11.64 -0.56,11.63 -0.45,11.65 -0.35,11.68 -0.35,11.68 -0.35,11.68 1.32,11.73 3.00,11.77 4.27,11.96 5.54,12.14 6.82,12.17 8.10,12.21 9.61,11.85 11.13,11.49 12.70,10.69 14.28,9.89 14.89,9.09 15.50,8.29 15.50,7.56 15.50,6.84 14.89,6.11 14.27,5.38 12.79,4.51 11.30,3.64 10.07,2.94 8.83,2.24 7.88,1.78 6.93,1.31 6.24,0.69 5.56,0.06 5.23,-0.88 4.91,-1.83 5.28,-2.98 5.64,-4.14 6.21,-4.85 6.78,-5.56 7.30,-6.45 7.83,-7.34 8.50,-7.50 9.17,-7.67 8.63,-7.48 8.10,-7.28 7.24,-7.09 6.37,-6.90 5.59,-6.17 4.81,-5.44 3.75,-4.18 2.68,-2.91 2.16,-1.30 1.64,0.31 1.24,2.47 0.85,4.62 0.77,6.16 0.68,7.70 0.93,8.91 1.17,10.11 1.48,10.88 1.79,11.66 1.79,11.85 1.80,12.04 1.75,12.22 1.71,12.41 1.63,12.58 1.54,12.75 1.42,12.90 1.29,13.04 1.14,13.15 0.98,13.26 0.81,13.33 0.63,13.41 0.44,13.43 0.25,13.46 0.06,13.44 -0.12,13.42 -0.30,13.36 -0.48,13.29 -0.64,13.19 -0.80,13.08 -0.92,12.94 -1.05,12.80 -1.15,12.63 -1.24,12.47 -1.29,12.28 -1.34,12.10 -1.24,11.42 -1.14,10.74 -1.36,9.56 -1.58,8.39 -1.62,7.29 -1.66,6.19 -1.76,4.74 -1.86,3.29 -1.35,1.59 -0.85,-0.09 -0.82,-0.19 -0.80,-0.29 -0.75,-0.38 -0.71,-0.47 -0.64,-0.55 -0.57,-0.63 -0.49,-0.69 -0.40,-0.75 -0.30,-0.79 -0.21,-0.83 -0.11,-0.84 -0.00,-0.85 0.09,-0.84 0.19,-0.83 0.29,-0.79 0.39,-0.76 0.47,-0.70 0.56,-0.64 0.63,-0.57 0.70,-0.49 0.74,-0.40 0.79,-0.31 0.82,-0.21 0.85,-0.11 0.85,-0.00 0.85,0.09 0.85,0.09 L 0.85,0.09 Z"></path></g></svg>