<svg version="1.1" xmlns="http://www.w3.org/2000/svg" viewBox="0 0 10020 557.5499877929688" width="10020" height="557.5499877929688">
  <!-- svg-source:excalidraw -->
  
  <defs>
    <style>
      @font-face {
        font-family: "Virgil";
        src: url("https://excalidraw.com/Virgil.woff2");
      }
      @font-face {
        font-family: "Cascadia";
        src: url("https://excalidraw.com/Cascadia.woff2");
      }
    </style>
  </defs>
  <rect x="0" y="0" width="10020" height="557.5499877929688" fill="#fff0"></rect><g stroke-linecap="round" transform="translate(10 10) rotate(0 5000 0.5)"><path d="M-0.52 -0.26 C3022.65 -30.2, 6044.59 -29.2, 9999.32 0.22 M0.38 -0.31 C3948.03 -0.44, 7895.41 0.2, 9999.95 0.08 M10000.08 -0.06 C10000.09 0.27, 10000.05 0.48, 10000.09 0.92 M9999.97 0.01 C9999.95 0.33, 9999.98 0.72, 10000 0.99 M10000.22 1.51 C7095.77 35.76, 4193.15 34.95, -0.25 0.75 M10000.01 1.13 C7827.97 2.74, 5656.23 3.35, -0.33 0.84 M-0.04 1.01 C0 0.63, -0.06 0.15, 0.05 -0.03 M-0.04 0.95 C-0.04 0.73, -0.03 0.59, -0.05 -0.02" stroke="transparent" stroke-width="1" fill="none"></path></g><g transform="translate(548.4000244140625 536.3500061035156) rotate(0 -8.4000244140625 4.79998779296875)" stroke="none"><path fill="#000" d="M -0.21,2.36 Q -0.21,2.36 -2.73,1.99 -5.25,1.63 -9.07,1.20 -12.89,0.76 -14.74,0.61 -16.58,0.46 -17.81,0.68 -19.04,0.90 -19.03,2.25 -19.01,3.59 -17.88,4.19 -16.75,4.80 -15.54,5.50 -14.32,6.20 -12.09,6.76 -9.86,7.32 -7.96,7.45 -6.05,7.58 -4.74,7.54 -3.43,7.51 -2.35,6.64 -1.26,5.77 -1.40,5.22 -1.53,4.67 -1.39,4.32 -1.24,3.97 -1.01,3.66 -0.78,3.36 -0.49,3.12 -0.20,2.88 0.13,2.72 0.48,2.55 0.85,2.47 1.22,2.40 1.60,2.41 1.98,2.43 2.34,2.53 2.71,2.64 3.04,2.83 3.36,3.01 3.64,3.28 3.91,3.54 4.12,3.86 4.32,4.18 4.44,4.54 4.56,4.90 4.59,5.28 4.62,5.65 4.56,6.03 4.50,6.40 4.17,5.28 3.84,4.15 4.47,5.07 5.10,5.99 6.09,7.46 7.09,8.92 7.33,9.38 7.57,9.84 7.65,10.35 7.74,10.86 7.65,11.37 7.57,11.88 7.32,12.34 7.08,12.80 6.70,13.15 6.33,13.51 5.86,13.72 5.39,13.94 4.87,13.99 4.36,14.05 3.85,13.94 3.34,13.82 2.90,13.56 2.46,13.29 2.12,12.89 1.79,12.50 1.60,12.01 1.41,11.53 1.38,11.02 1.36,10.50 1.49,10.00 1.63,9.50 1.93,9.07 2.22,8.65 2.63,8.33 3.04,8.02 3.54,7.86 4.03,7.69 4.54,7.69 5.06,7.70 5.55,7.86 6.04,8.03 6.45,8.34 6.87,8.66 7.15,9.09 7.44,9.52 7.58,10.02 7.72,10.51 7.69,11.03 7.66,11.55 7.47,12.03 7.27,12.51 6.94,12.90 6.60,13.30 6.16,13.56 5.71,13.83 5.21,13.94 4.70,14.05 4.19,13.99 3.67,13.93 3.20,13.72 2.73,13.50 2.36,13.14 1.98,12.78 1.98,12.78 1.98,12.78 0.95,11.22 -0.07,9.65 -0.40,8.32 -0.74,6.98 -1.14,5.82 -1.53,4.67 -1.39,4.32 -1.24,3.97 -1.01,3.66 -0.78,3.36 -0.49,3.12 -0.20,2.88 0.13,2.72 0.48,2.55 0.85,2.47 1.22,2.40 1.60,2.41 1.98,2.43 2.34,2.53 2.71,2.64 3.04,2.82 3.36,3.01 3.64,3.28 3.91,3.54 4.12,3.86 4.32,4.18 4.44,4.54 4.56,4.90 4.59,5.27 4.62,5.65 4.56,6.03 4.50,6.40 4.41,6.89 4.31,7.39 3.75,8.61 3.20,9.83 2.12,10.80 1.05,11.77 -0.23,12.46 -1.52,13.15 -3.30,13.15 -5.07,13.15 -6.79,12.98 -8.52,12.81 -9.94,12.60 -11.35,12.40 -12.52,12.04 -13.69,11.69 -15.25,11.25 -16.81,10.81 -18.27,10.05 -19.72,9.28 -21.03,8.29 -22.33,7.30 -23.20,5.64 -24.07,3.98 -23.83,2.31 -23.60,0.64 -23.09,-0.42 -22.58,-1.50 -21.58,-2.30 -20.58,-3.11 -19.50,-3.32 -18.41,-3.54 -17.36,-3.39 -16.31,-3.25 -14.44,-3.12 -12.56,-2.99 -8.71,-2.77 -4.86,-2.55 -2.32,-2.45 0.21,-2.36 0.49,-2.30 0.77,-2.24 1.03,-2.12 1.29,-1.99 1.51,-1.81 1.73,-1.62 1.90,-1.39 2.07,-1.16 2.18,-0.90 2.29,-0.63 2.33,-0.35 2.37,-0.07 2.35,0.21 2.32,0.49 2.23,0.77 2.13,1.04 1.98,1.28 1.82,1.52 1.61,1.71 1.40,1.91 1.15,2.05 0.90,2.19 0.63,2.27 0.35,2.35 0.07,2.35 -0.21,2.36 -0.21,2.36 L -0.21,2.36 Z"></path></g><g transform="translate(557.2000122070312 521.9499816894531) rotate(0 2.79998779296875 12.800003051757812)" stroke="none"><path fill="#000" d="M 2.27,-1.13 Q 2.27,-1.13 2.94,0.25 3.61,1.64 4.18,3.00 4.74,4.36 5.22,5.93 5.69,7.50 6.11,8.80 6.54,10.09 7.23,12.13 7.93,14.17 8.13,15.94 8.33,17.70 8.41,18.86 8.49,20.02 8.03,23.44 7.58,26.86 7.27,27.24 6.95,27.62 6.54,27.88 6.12,28.14 5.64,28.26 5.17,28.37 4.68,28.33 4.19,28.29 3.74,28.09 3.29,27.89 2.92,27.56 2.56,27.23 2.32,26.80 2.08,26.37 1.99,25.89 1.90,25.41 1.97,24.92 2.04,24.43 2.26,23.99 2.48,23.55 2.83,23.21 3.18,22.86 3.62,22.65 4.07,22.43 4.55,22.37 5.04,22.31 5.52,22.40 6.01,22.50 6.43,22.74 6.86,22.99 7.19,23.36 7.51,23.72 7.70,24.18 7.89,24.63 7.93,25.12 7.97,25.61 7.85,26.09 7.72,26.56 7.46,26.98 7.19,27.39 6.80,27.69 6.42,28.00 5.95,28.17 5.49,28.33 5.00,28.34 4.51,28.35 4.04,28.20 3.57,28.06 3.17,27.77 2.78,27.48 2.49,27.08 2.21,26.68 2.07,26.20 1.92,25.73 1.94,25.24 1.96,24.75 2.13,24.29 2.30,23.83 2.30,23.83 2.30,23.83 2.44,22.81 2.58,21.78 2.66,20.45 2.73,19.12 2.76,17.67 2.78,16.22 2.70,15.03 2.61,13.84 2.21,12.73 1.80,11.62 1.38,10.29 0.96,8.96 0.53,7.61 0.10,6.26 -0.37,5.07 -0.85,3.87 -1.56,2.50 -2.27,1.13 -2.38,0.84 -2.48,0.56 -2.51,0.25 -2.54,-0.05 -2.50,-0.35 -2.46,-0.65 -2.34,-0.94 -2.23,-1.22 -2.05,-1.47 -1.87,-1.72 -1.63,-1.92 -1.40,-2.12 -1.13,-2.26 -0.85,-2.39 -0.55,-2.46 -0.25,-2.53 0.04,-2.52 0.35,-2.52 0.65,-2.44 0.95,-2.36 1.21,-2.21 1.48,-2.06 1.71,-1.85 1.93,-1.65 2.10,-1.39 2.27,-1.13 2.27,-1.13 L 2.27,-1.13 Z"></path></g></svg>