<svg version="1.1" xmlns="http://www.w3.org/2000/svg" viewBox="0 0 620 340" width="620" height="340">
  <!-- svg-source:excalidraw -->
  
  <defs>
    <style>
      @font-face {
        font-family: "Virgil";
        src: url("https://excalidraw.com/Virgil.woff2");
      }
      @font-face {
        font-family: "Cascadia";
        src: url("https://excalidraw.com/Cascadia.woff2");
      }
    </style>
  </defs>
  <rect x="0" y="0" width="620" height="340" fill="#fff0"></rect><g stroke-linecap="round" transform="translate(10 10) rotate(0 0.5 0.5)"><path d="M-0.06 -0.03 C0.4 -0.08, 0.7 0.04, 0.91 0.03 M0.05 -0.04 C0.42 -0.05, 0.75 0.03, 0.99 0.01 M1.08 -0.06 C1.09 0.27, 1.05 0.48, 1.09 0.92 M0.97 0.01 C0.95 0.33, 0.98 0.72, 1 0.99 M1.03 1.06 C0.65 1.06, 0.49 0.96, -0.03 0.97 M1 1.02 C0.74 0.96, 0.52 1.04, -0.04 0.98 M-0.04 1.01 C0 0.63, -0.06 0.15, 0.05 -0.03 M-0.04 0.95 C-0.04 0.73, -0.03 0.59, -0.05 -0.02" stroke="transparent" stroke-width="0.5" fill="none"></path></g><g stroke-linecap="round" transform="translate(90 30) rotate(0 260 150)"><path d="M-0.61 0.11 C165.92 0.28, 332.76 0.3, 519.42 0.2 M-0.3 -0.28 C155.27 0.16, 311.16 0.81, 520.3 0.18 M521.46 1.04 C520.11 68.59, 518.48 139.94, 521.02 300.19 M520.5 -0.54 C518.18 89.3, 518.01 178.06, 519.44 300.21 M520.54 300.4 C371.06 301.7, 223.21 302.2, -0.52 299.48 M520.24 299.73 C330.68 300.53, 142.38 300.66, -0.21 300.05 M-0.05 300.1 C1.96 208.03, 1.51 115.53, 0.88 -0.67 M-0.13 300.01 C-0.9 202.12, -1.19 105.83, 0.68 -0.62" stroke="#220033" stroke-width="0.5" fill="none"></path></g><g transform="translate(183.33334350585938 54.5) rotate(0 4 8.333343505859375)" stroke="none"><path fill="#220033" d="M -0.91,0.60 Q -0.91,0.60 -1.44,0.13 -1.97,-0.34 -2.47,-0.69 -2.96,-1.04 -3.06,-1.19 -3.16,-1.35 -3.22,-1.53 -3.28,-1.70 -3.29,-1.88 -3.30,-2.07 -3.27,-2.25 -3.24,-2.43 -3.17,-2.60 -3.10,-2.77 -2.99,-2.92 -2.88,-3.07 -2.73,-3.19 -2.59,-3.30 -2.42,-3.38 -2.26,-3.46 -2.07,-3.50 -1.89,-3.53 -1.71,-3.53 -1.52,-3.52 -1.35,-3.47 -1.17,-3.41 -1.01,-3.32 -0.85,-3.23 -0.72,-3.10 -0.58,-2.97 -0.27,-1.22 0.04,0.53 0.11,1.71 0.17,2.90 -0.15,6.20 -0.48,9.50 -1.02,12.08 -1.56,14.66 -1.98,16.33 -2.40,18.00 -2.97,19.72 -3.54,21.43 -3.98,22.56 -4.42,23.69 -4.60,24.35 -4.78,25.00 -4.88,25.19 -4.98,25.37 -5.12,25.52 -5.26,25.68 -5.43,25.80 -5.61,25.91 -5.80,25.98 -6.00,26.05 -6.21,26.08 -6.42,26.10 -6.62,26.07 -6.83,26.04 -7.03,25.97 -7.22,25.89 -7.39,25.77 -7.56,25.65 -7.70,25.49 -7.83,25.33 -7.93,25.14 -8.02,24.95 -8.07,24.75 -8.12,24.55 -8.12,24.34 -8.11,24.13 -8.06,23.93 -8.01,23.72 -7.66,23.00 -7.32,22.28 -6.85,20.90 -6.38,19.52 -6.01,17.68 -5.64,15.84 -4.69,12.82 -3.73,9.79 -2.96,7.04 -2.18,4.29 -1.68,1.83 -1.17,-0.63 -0.54,-2.73 0.07,-4.83 0.32,-5.85 0.56,-6.86 1.21,-7.88 1.86,-8.91 2.94,-9.21 4.01,-9.52 4.70,-9.24 5.39,-8.96 6.45,-7.54 7.50,-6.13 8.35,-3.88 9.20,-1.63 9.92,0.82 10.64,3.28 11.51,6.01 12.38,8.74 13.13,10.83 13.87,12.93 14.39,14.41 14.90,15.90 13.81,17.95 12.71,20.01 12.61,19.97 12.51,19.93 12.43,19.87 12.35,19.80 12.29,19.71 12.23,19.62 12.21,19.52 12.18,19.41 12.19,19.31 12.20,19.20 12.24,19.10 12.29,19.01 12.36,18.93 12.43,18.85 12.52,18.80 12.62,18.75 12.72,18.73 12.82,18.71 12.93,18.72 13.03,18.74 13.13,18.78 13.22,18.83 13.30,18.91 13.37,18.98 13.42,19.08 13.47,19.17 13.48,19.28 13.49,19.39 13.47,19.49 13.45,19.59 13.40,19.69 13.35,19.78 13.27,19.85 13.19,19.92 13.09,19.96 12.99,20.00 12.89,20.01 12.78,20.02 12.68,19.99 12.57,19.96 12.49,19.91 12.40,19.85 12.33,19.77 12.26,19.68 12.23,19.58 12.19,19.48 12.19,19.38 12.19,19.27 12.22,19.17 12.25,19.07 12.31,18.98 12.38,18.90 12.46,18.83 12.55,18.77 12.65,18.74 12.75,18.71 12.86,18.72 12.97,18.72 12.97,18.72 12.97,18.72 12.27,17.89 11.57,17.05 11.06,15.58 10.55,14.11 9.79,11.95 9.03,9.80 8.15,7.03 7.27,4.26 6.59,1.92 5.91,-0.42 5.26,-2.28 4.62,-4.13 4.31,-5.07 4.00,-6.01 3.73,-4.91 3.46,-3.82 2.87,-1.86 2.29,0.09 1.75,2.67 1.21,5.25 0.42,8.06 -0.36,10.87 -1.27,13.71 -2.19,16.55 -2.62,18.60 -3.05,20.65 -3.55,22.10 -4.05,23.54 -4.41,24.27 -4.78,25.00 -4.88,25.19 -4.98,25.37 -5.12,25.52 -5.26,25.68 -5.43,25.80 -5.61,25.91 -5.80,25.98 -6.00,26.05 -6.21,26.08 -6.42,26.10 -6.62,26.07 -6.83,26.04 -7.03,25.97 -7.22,25.89 -7.39,25.77 -7.56,25.65 -7.70,25.49 -7.83,25.33 -7.93,25.14 -8.02,24.95 -8.07,24.75 -8.12,24.55 -8.12,24.34 -8.11,24.13 -8.06,23.93 -8.01,23.72 -7.82,23.07 -7.63,22.42 -7.21,21.38 -6.79,20.33 -6.23,18.74 -5.68,17.16 -5.26,15.55 -4.85,13.95 -4.31,11.53 -3.78,9.12 -3.39,6.08 -3.00,3.04 -3.04,1.93 -3.08,0.82 -3.02,-0.10 -2.96,-1.04 -3.06,-1.19 -3.16,-1.35 -3.22,-1.52 -3.28,-1.70 -3.29,-1.88 -3.30,-2.07 -3.27,-2.25 -3.24,-2.43 -3.17,-2.60 -3.10,-2.77 -2.99,-2.92 -2.88,-3.07 -2.73,-3.19 -2.59,-3.30 -2.42,-3.38 -2.26,-3.46 -2.07,-3.50 -1.89,-3.53 -1.71,-3.53 -1.52,-3.52 -1.35,-3.47 -1.17,-3.41 -1.01,-3.32 -0.85,-3.23 -0.72,-3.10 -0.58,-2.97 -0.69,-3.08 -0.80,-3.19 -0.17,-2.57 0.44,-1.95 0.67,-1.28 0.91,-0.60 0.97,-0.48 1.03,-0.37 1.05,-0.24 1.08,-0.11 1.08,0.01 1.08,0.14 1.05,0.27 1.01,0.40 0.95,0.52 0.89,0.63 0.80,0.73 0.71,0.83 0.60,0.90 0.49,0.97 0.36,1.02 0.24,1.06 0.11,1.08 -0.01,1.09 -0.14,1.07 -0.27,1.05 -0.40,1.01 -0.52,0.96 -0.63,0.88 -0.73,0.80 -0.82,0.70 -0.91,0.60 -0.91,0.60 L -0.91,0.60 Z"></path></g><g transform="translate(178.66668701171875 67.16665649414062) rotate(0 10.33331298828125 -2.3333282470703125)" stroke="none"><path fill="#220033" d="M -0.30,-0.92 Q -0.30,-0.92 0.73,-1.61 1.78,-2.30 4.40,-3.09 7.03,-3.87 9.73,-4.40 12.44,-4.93 16.06,-4.99 19.67,-5.05 19.78,-5.05 19.89,-5.05 19.99,-5.02 20.09,-4.99 20.17,-4.92 20.26,-4.86 20.32,-4.77 20.38,-4.68 20.41,-4.58 20.43,-4.48 20.43,-4.37 20.42,-4.27 20.38,-4.17 20.34,-4.07 20.28,-3.99 20.21,-3.91 20.12,-3.85 20.02,-3.80 19.92,-3.77 19.82,-3.75 19.71,-3.76 19.61,-3.77 19.51,-3.82 19.41,-3.86 19.34,-3.94 19.26,-4.01 19.21,-4.10 19.16,-4.20 19.14,-4.30 19.12,-4.41 19.14,-4.51 19.16,-4.62 19.21,-4.71 19.26,-4.80 19.34,-4.88 19.41,-4.95 19.51,-4.99 19.61,-5.04 19.71,-5.05 19.82,-5.06 19.92,-5.04 20.02,-5.02 20.11,-4.96 20.21,-4.91 20.27,-4.83 20.34,-4.75 20.38,-4.65 20.42,-4.55 20.43,-4.44 20.43,-4.34 20.41,-4.23 20.38,-4.13 20.32,-4.04 20.26,-3.96 20.17,-3.89 20.09,-3.83 19.99,-3.79 19.89,-3.76 19.89,-3.76 19.89,-3.76 16.49,-2.66 13.09,-1.57 10.52,-1.09 7.95,-0.60 5.38,0.08 2.81,0.77 1.56,0.84 0.30,0.92 0.19,0.94 0.07,0.96 -0.03,0.96 -0.15,0.95 -0.26,0.92 -0.38,0.89 -0.48,0.83 -0.58,0.77 -0.66,0.69 -0.75,0.61 -0.81,0.51 -0.87,0.41 -0.91,0.30 -0.95,0.19 -0.96,0.07 -0.97,-0.03 -0.95,-0.15 -0.93,-0.27 -0.88,-0.37 -0.84,-0.48 -0.77,-0.58 -0.70,-0.67 -0.61,-0.74 -0.51,-0.82 -0.41,-0.87 -0.30,-0.92 -0.30,-0.92 L -0.30,-0.92 Z"></path></g><g transform="translate(508.66668701171875 49.833343505859375) rotate(0 -8.33331298828125 10)" stroke="none"><path fill="#220033" d="M -0.77,0.58 Q -0.77,0.58 -1.56,-0.02 -2.34,-0.63 -2.75,-1.07 -3.15,-1.51 -3.85,-1.71 -4.55,-1.90 -5.35,-2.02 -6.15,-2.14 -7.32,-2.01 -8.49,-1.88 -9.47,-1.82 -10.46,-1.77 -11.76,-1.21 -13.07,-0.65 -13.72,-0.12 -14.37,0.40 -14.94,1.26 -15.50,2.13 -16.15,3.24 -16.79,4.35 -16.97,6.67 -17.16,8.98 -17.28,10.64 -17.40,12.29 -17.26,13.21 -17.13,14.13 -16.56,15.32 -15.99,16.50 -15.21,17.76 -14.42,19.02 -13.49,19.78 -12.56,20.53 -10.85,20.96 -9.13,21.40 -7.28,21.62 -5.42,21.85 -4.05,21.58 -2.69,21.31 -0.53,21.43 1.61,21.55 1.72,21.54 1.82,21.54 1.93,21.57 2.03,21.59 2.12,21.66 2.20,21.72 2.27,21.80 2.33,21.89 2.36,21.99 2.40,22.09 2.40,22.19 2.39,22.30 2.36,22.40 2.33,22.50 2.26,22.58 2.20,22.67 2.11,22.73 2.02,22.79 1.92,22.81 1.81,22.84 1.71,22.84 1.60,22.83 1.50,22.79 1.40,22.75 1.32,22.68 1.24,22.61 1.19,22.52 1.14,22.43 1.11,22.32 1.09,22.22 1.10,22.11 1.12,22.01 1.16,21.91 1.21,21.82 1.28,21.74 1.35,21.66 1.45,21.61 1.54,21.56 1.65,21.55 1.75,21.53 1.86,21.55 1.96,21.57 2.06,21.62 2.15,21.67 2.22,21.75 2.29,21.82 2.34,21.92 2.38,22.02 2.39,22.12 2.40,22.23 2.38,22.33 2.36,22.44 2.30,22.53 2.24,22.62 2.16,22.69 2.08,22.75 1.98,22.79 1.88,22.83 1.88,22.83 1.88,22.83 -0.10,23.83 -2.09,24.83 -3.96,25.11 -5.83,25.38 -7.99,25.10 -10.14,24.81 -12.45,24.04 -14.75,23.27 -16.07,22.09 -17.39,20.91 -18.30,19.42 -19.21,17.94 -19.90,16.27 -20.60,14.61 -20.74,13.32 -20.89,12.04 -20.75,10.32 -20.62,8.59 -20.21,5.66 -19.80,2.74 -19.04,1.43 -18.28,0.13 -17.35,-1.07 -16.43,-2.28 -15.36,-3.03 -14.30,-3.77 -12.49,-4.40 -10.67,-5.03 -9.72,-5.08 -8.77,-5.13 -7.19,-5.23 -5.61,-5.33 -4.45,-5.10 -3.29,-4.87 -2.09,-4.24 -0.88,-3.61 -0.41,-3.02 0.04,-2.43 0.41,-1.50 0.77,-0.58 0.83,-0.48 0.89,-0.38 0.92,-0.26 0.96,-0.15 0.96,-0.03 0.97,0.07 0.94,0.19 0.92,0.30 0.87,0.41 0.82,0.52 0.74,0.61 0.67,0.70 0.58,0.77 0.48,0.84 0.37,0.88 0.27,0.93 0.15,0.95 0.03,0.97 -0.07,0.96 -0.19,0.95 -0.30,0.91 -0.41,0.87 -0.51,0.81 -0.61,0.75 -0.69,0.66 -0.77,0.58 -0.77,0.58 L -0.77,0.58 Z"></path></g><g transform="translate(554.6666870117188 281.1666564941406) rotate(0 13.33331298828125 8)" stroke="none"><path fill="#220033" d="M -0.60,0.80 Q -0.60,0.80 -1.54,0.24 -2.48,-0.31 -2.81,-1.50 -3.15,-2.69 -2.82,-3.77 -2.49,-4.85 -1.54,-6.28 -0.59,-7.70 0.69,-8.78 1.98,-9.86 3.55,-10.72 5.11,-11.57 6.59,-12.14 8.07,-12.70 9.59,-12.97 11.10,-13.23 12.95,-12.91 14.79,-12.59 16.36,-11.34 17.92,-10.08 18.63,-8.64 19.33,-7.20 18.82,-5.17 18.30,-3.15 17.21,-1.51 16.11,0.12 14.79,1.28 13.47,2.44 12.36,3.31 11.25,4.18 10.81,4.33 10.37,4.49 10.19,4.59 10.01,4.69 9.81,4.75 9.61,4.81 9.40,4.82 9.20,4.82 8.99,4.78 8.79,4.74 8.60,4.65 8.41,4.56 8.25,4.43 8.09,4.29 7.97,4.13 7.84,3.96 7.76,3.77 7.68,3.58 7.65,3.37 7.62,3.17 7.64,2.96 7.65,2.75 7.72,2.56 7.79,2.36 7.90,2.19 8.01,2.01 8.16,1.87 8.31,1.72 8.96,1.46 9.61,1.20 11.26,1.30 12.91,1.40 15.94,2.26 18.96,3.12 22.17,5.52 25.38,7.93 26.92,9.38 28.45,10.82 29.09,12.50 29.72,14.18 29.73,15.45 29.74,16.71 28.68,18.83 27.62,20.95 25.72,22.86 23.81,24.78 21.54,26.04 19.26,27.31 17.06,28.04 14.86,28.78 12.70,28.72 10.54,28.65 8.48,27.76 6.42,26.87 4.51,25.24 2.60,23.60 1.18,21.86 -0.22,20.12 -0.32,17.59 -0.41,15.06 -0.42,14.95 -0.42,14.85 -0.40,14.75 -0.37,14.64 -0.32,14.55 -0.26,14.46 -0.18,14.40 -0.09,14.33 0.00,14.29 0.10,14.26 0.20,14.25 0.31,14.25 0.41,14.28 0.51,14.31 0.60,14.38 0.68,14.44 0.75,14.52 0.81,14.61 0.84,14.71 0.87,14.81 0.87,14.92 0.87,15.03 0.83,15.13 0.79,15.23 0.73,15.31 0.66,15.39 0.57,15.45 0.48,15.51 0.38,15.53 0.27,15.56 0.17,15.55 0.06,15.54 -0.03,15.50 -0.12,15.46 -0.20,15.38 -0.28,15.31 -0.33,15.22 -0.39,15.13 -0.41,15.02 -0.43,14.92 -0.41,14.81 -0.40,14.71 -0.35,14.61 -0.30,14.52 -0.23,14.44 -0.15,14.37 -0.06,14.32 0.03,14.27 0.13,14.26 0.24,14.25 0.34,14.27 0.45,14.29 0.54,14.34 0.63,14.39 0.70,14.47 0.77,14.55 0.82,14.65 0.86,14.74 0.86,14.74 0.86,14.74 1.79,16.33 2.72,17.91 3.90,19.36 5.07,20.81 6.55,22.16 8.03,23.52 9.44,24.24 10.84,24.97 12.33,25.11 13.81,25.26 15.69,24.67 17.56,24.08 19.46,23.13 21.35,22.19 22.96,20.70 24.56,19.21 25.42,17.84 26.28,16.47 26.32,15.82 26.36,15.18 26.15,14.18 25.94,13.18 24.60,11.94 23.25,10.69 20.58,8.56 17.91,6.43 15.23,5.64 12.54,4.85 11.45,4.67 10.37,4.49 10.19,4.59 10.01,4.69 9.81,4.75 9.61,4.81 9.40,4.82 9.20,4.82 8.99,4.78 8.79,4.74 8.60,4.65 8.41,4.56 8.25,4.43 8.09,4.30 7.97,4.13 7.84,3.96 7.76,3.77 7.68,3.58 7.65,3.37 7.62,3.17 7.64,2.96 7.65,2.75 7.72,2.56 7.79,2.36 7.90,2.19 8.01,2.01 8.16,1.87 8.31,1.72 8.79,1.57 9.27,1.42 10.32,0.68 11.38,-0.05 12.44,-0.88 13.50,-1.72 14.40,-2.96 15.30,-4.21 15.87,-5.36 16.45,-6.51 16.11,-7.14 15.77,-7.77 14.88,-8.68 14.00,-9.58 12.77,-9.85 11.55,-10.11 10.36,-9.93 9.17,-9.74 7.88,-9.27 6.60,-8.79 5.27,-8.10 3.94,-7.40 2.93,-6.63 1.92,-5.87 1.05,-4.76 0.19,-3.64 -0.19,-2.81 -0.58,-1.98 0.01,-1.39 0.60,-0.80 0.69,-0.72 0.78,-0.64 0.84,-0.53 0.91,-0.43 0.95,-0.31 0.99,-0.20 1.00,-0.08 1.01,0.03 0.99,0.16 0.97,0.28 0.92,0.39 0.87,0.50 0.80,0.60 0.73,0.70 0.63,0.77 0.54,0.85 0.43,0.90 0.32,0.95 0.20,0.98 0.08,1.00 -0.03,1.00 -0.16,0.99 -0.27,0.96 -0.39,0.93 -0.50,0.87 -0.60,0.80 -0.60,0.80 L -0.60,0.80 Z"></path></g><g transform="translate(360 150.5) rotate(0 -12.6666259765625 15)" stroke="none"><path fill="#220033" d="M -0.62,0.62 Q -0.62,0.62 -1.68,-0.23 -2.74,-1.09 -3.69,-1.81 -4.64,-2.53 -5.93,-3.17 -7.22,-3.80 -8.72,-4.45 -10.22,-5.11 -11.62,-5.16 -13.02,-5.20 -15.29,-4.86 -17.57,-4.52 -19.21,-3.84 -20.85,-3.15 -22.24,-2.35 -23.63,-1.55 -24.05,-0.48 -24.46,0.59 -24.51,1.40 -24.56,2.21 -23.92,2.93 -23.28,3.64 -22.29,4.56 -21.30,5.47 -19.38,6.79 -17.47,8.12 -15.64,9.49 -13.81,10.86 -11.14,12.76 -8.47,14.67 -6.29,16.69 -4.12,18.72 -2.61,20.36 -1.11,22.00 -0.19,23.60 0.72,25.20 0.96,26.86 1.19,28.53 0.64,30.21 0.08,31.89 -1.24,33.29 -2.57,34.69 -4.38,35.69 -6.19,36.70 -8.04,37.32 -9.88,37.94 -12.16,37.41 -14.43,36.88 -15.94,35.47 -17.45,34.06 -18.14,31.29 -18.83,28.53 -18.48,25.71 -18.12,22.88 -17.16,20.11 -16.20,17.33 -14.58,14.71 -12.96,12.10 -10.86,9.96 -8.75,7.82 -6.95,6.01 -5.14,4.19 -3.84,2.70 -2.54,1.21 -1.89,0.00 -1.25,-1.20 -0.64,-1.45 -0.03,-1.70 -0.00,-1.59 0.01,-1.49 0.01,-1.39 0.00,-1.28 -0.03,-1.18 -0.07,-1.08 -0.14,-1.00 -0.21,-0.92 -0.31,-0.87 -0.40,-0.82 -0.50,-0.80 -0.61,-0.78 -0.71,-0.79 -0.82,-0.80 -0.91,-0.85 -1.01,-0.89 -1.08,-0.97 -1.16,-1.04 -1.21,-1.14 -1.26,-1.23 -1.27,-1.34 -1.29,-1.44 -1.27,-1.55 -1.25,-1.65 -1.20,-1.74 -1.15,-1.84 -1.07,-1.91 -0.99,-1.98 -0.89,-2.02 -0.80,-2.07 -0.69,-2.08 -0.58,-2.09 -0.48,-2.06 -0.38,-2.04 -0.29,-1.98 -0.20,-1.92 -0.13,-1.84 -0.06,-1.76 -0.02,-1.66 0.00,-1.56 0.01,-1.46 0.01,-1.35 -0.01,-1.25 -0.04,-1.15 -0.10,-1.06 -0.16,-0.97 -0.25,-0.91 -0.33,-0.85 -0.43,-0.81 -0.54,-0.78 -0.64,-0.78 -0.75,-0.79 -0.85,-0.82 -0.95,-0.86 -1.03,-0.92 -1.12,-0.99 -1.17,-1.08 -1.23,-1.17 -1.23,-1.17 -1.23,-1.17 0.03,-2.22 1.30,-3.28 1.48,-1.60 1.66,0.07 0.78,1.69 -0.09,3.32 -1.47,4.90 -2.86,6.48 -4.66,8.28 -6.47,10.09 -8.36,11.96 -10.25,13.82 -11.71,16.12 -13.18,18.41 -14.06,20.88 -14.94,23.35 -15.31,25.65 -15.68,27.95 -15.38,30.02 -15.08,32.10 -14.24,33.05 -13.41,34.01 -11.97,34.53 -10.54,35.06 -9.06,34.55 -7.59,34.05 -6.10,33.31 -4.61,32.56 -3.59,31.66 -2.58,30.76 -2.11,29.74 -1.65,28.71 -1.72,27.61 -1.80,26.52 -2.51,25.22 -3.22,23.92 -4.65,22.36 -6.07,20.80 -8.10,18.89 -10.12,16.98 -12.82,15.05 -15.51,13.11 -17.30,11.77 -19.08,10.42 -21.14,8.95 -23.21,7.49 -24.38,6.35 -25.54,5.22 -26.36,3.81 -27.19,2.40 -27.06,0.93 -26.94,-0.53 -26.06,-2.12 -25.18,-3.71 -23.51,-4.67 -21.85,-5.63 -19.90,-6.39 -17.96,-7.14 -15.41,-7.48 -12.87,-7.82 -11.04,-7.67 -9.21,-7.51 -7.62,-6.79 -6.04,-6.06 -4.57,-5.26 -3.11,-4.45 -2.10,-3.60 -1.09,-2.74 -0.23,-1.68 0.62,-0.62 0.68,-0.54 0.75,-0.45 0.79,-0.35 0.84,-0.26 0.86,-0.15 0.88,-0.05 0.87,0.05 0.86,0.15 0.83,0.26 0.80,0.36 0.74,0.45 0.69,0.54 0.61,0.61 0.54,0.69 0.45,0.74 0.36,0.80 0.26,0.83 0.15,0.86 0.05,0.87 -0.05,0.88 -0.15,0.86 -0.26,0.84 -0.35,0.79 -0.45,0.75 -0.54,0.68 -0.62,0.62 -0.62,0.62 L -0.62,0.62 Z"></path></g><g transform="translate(454.66668701171875 153.83334350585938) rotate(0 -0.33331298828125 12.999984741210938)" stroke="none"><path fill="#220033" d="M -0.82,0.33 Q -0.82,0.33 -1.43,-0.53 -2.04,-1.40 -2.09,-1.56 -2.13,-1.72 -2.13,-1.89 -2.13,-2.05 -2.10,-2.22 -2.06,-2.38 -1.99,-2.53 -1.91,-2.68 -1.80,-2.80 -1.70,-2.93 -1.56,-3.03 -1.43,-3.12 -1.27,-3.18 -1.12,-3.25 -0.95,-3.27 -0.79,-3.29 -0.62,-3.27 -0.46,-3.26 -0.30,-3.20 -0.14,-3.15 -0.00,-3.05 0.13,-2.96 0.24,-2.84 0.35,-2.72 0.43,-2.57 0.51,-2.42 0.75,-0.40 0.99,1.61 1.20,4.74 1.41,7.86 1.69,10.72 1.96,13.57 2.09,16.18 2.21,18.79 2.26,21.24 2.32,23.70 1.82,26.13 1.32,28.55 1.30,28.66 1.29,28.76 1.24,28.86 1.19,28.95 1.12,29.03 1.04,29.10 0.95,29.15 0.85,29.20 0.75,29.21 0.64,29.23 0.54,29.21 0.43,29.19 0.34,29.13 0.25,29.08 0.18,29.00 0.11,28.92 0.06,28.83 0.02,28.73 0.01,28.62 0.00,28.52 0.03,28.41 0.06,28.31 0.11,28.22 0.17,28.13 0.25,28.06 0.34,28.00 0.44,27.96 0.54,27.93 0.64,27.92 0.75,27.92 0.85,27.95 0.95,27.98 1.04,28.04 1.12,28.11 1.19,28.19 1.25,28.28 1.28,28.38 1.31,28.48 1.31,28.59 1.30,28.69 1.27,28.79 1.23,28.89 1.16,28.98 1.10,29.06 1.01,29.12 0.92,29.17 0.81,29.20 0.71,29.22 0.61,29.22 0.50,29.21 0.40,29.17 0.30,29.12 0.23,29.05 0.15,28.98 0.09,28.89 0.04,28.80 0.02,28.69 0.00,28.59 0.00,28.59 0.00,28.59 -0.56,26.18 -1.13,23.77 -1.18,21.36 -1.22,18.95 -1.33,16.42 -1.44,13.90 -1.72,10.99 -1.99,8.08 -2.18,4.86 -2.36,1.64 -2.20,0.11 -2.04,-1.40 -2.09,-1.56 -2.13,-1.72 -2.13,-1.89 -2.13,-2.05 -2.10,-2.22 -2.06,-2.38 -1.99,-2.53 -1.91,-2.68 -1.80,-2.80 -1.70,-2.93 -1.56,-3.03 -1.43,-3.12 -1.27,-3.18 -1.12,-3.25 -0.95,-3.27 -0.79,-3.29 -0.62,-3.27 -0.46,-3.26 -0.30,-3.20 -0.14,-3.15 -0.00,-3.05 0.13,-2.96 0.24,-2.84 0.35,-2.72 0.43,-2.57 0.51,-2.42 0.67,-1.38 0.82,-0.33 0.85,-0.22 0.88,-0.12 0.88,-0.01 0.88,0.09 0.86,0.19 0.84,0.30 0.79,0.39 0.74,0.49 0.67,0.57 0.60,0.65 0.51,0.72 0.42,0.78 0.32,0.82 0.22,0.86 0.12,0.87 0.01,0.89 -0.09,0.88 -0.19,0.87 -0.29,0.83 -0.40,0.79 -0.49,0.73 -0.58,0.67 -0.65,0.59 -0.72,0.52 -0.77,0.42 -0.82,0.33 -0.82,0.33 L -0.82,0.33 Z"></path></g><g transform="translate(479.3333740234375 151.83334350585938) rotate(0 -4.000030517578125 11)" stroke="none"><path fill="#220033" d="M -0.61,0.40 Q -0.61,0.40 -1.05,-0.12 -1.49,-0.66 -1.88,-1.29 -2.26,-1.93 -2.71,-2.23 -3.16,-2.52 -3.77,-2.56 -4.39,-2.60 -5.11,-2.46 -5.83,-2.32 -6.72,-2.08 -7.60,-1.84 -9.00,-1.00 -10.40,-0.17 -11.74,0.91 -13.07,2.00 -14.18,3.19 -15.28,4.38 -16.07,5.76 -16.87,7.14 -17.37,8.62 -17.88,10.10 -18.30,11.65 -18.71,13.20 -18.31,14.96 -17.91,16.73 -17.40,18.03 -16.90,19.34 -15.66,20.49 -14.42,21.64 -13.04,22.29 -11.66,22.95 -10.15,23.43 -8.63,23.90 -7.10,24.10 -5.58,24.29 -4.05,24.18 -2.53,24.08 -0.92,23.85 0.67,23.62 2.81,22.96 4.94,22.31 6.31,21.51 7.69,20.72 8.54,19.73 9.39,18.75 9.88,17.16 10.37,15.57 10.41,14.04 10.45,12.50 10.11,11.00 9.78,9.49 8.95,8.23 8.13,6.96 6.71,5.72 5.30,4.47 3.21,3.19 1.13,1.91 -1.10,0.58 -3.34,-0.74 -5.59,-1.04 -7.83,-1.34 -9.74,-1.41 -11.65,-1.49 -11.76,-1.49 -11.87,-1.49 -11.97,-1.52 -12.07,-1.56 -12.15,-1.62 -12.24,-1.69 -12.29,-1.78 -12.35,-1.86 -12.38,-1.97 -12.41,-2.07 -12.40,-2.18 -12.39,-2.28 -12.35,-2.38 -12.31,-2.48 -12.24,-2.56 -12.17,-2.64 -12.08,-2.69 -11.99,-2.75 -11.89,-2.77 -11.78,-2.79 -11.68,-2.78 -11.57,-2.77 -11.48,-2.72 -11.38,-2.67 -11.30,-2.60 -11.23,-2.53 -11.18,-2.43 -11.13,-2.34 -11.11,-2.23 -11.10,-2.13 -11.12,-2.02 -11.13,-1.92 -11.18,-1.82 -11.24,-1.73 -11.31,-1.66 -11.39,-1.59 -11.49,-1.54 -11.58,-1.50 -11.69,-1.49 -11.80,-1.48 -11.90,-1.50 -12.00,-1.53 -12.09,-1.58 -12.18,-1.64 -12.25,-1.72 -12.32,-1.80 -12.36,-1.90 -12.40,-2.00 -12.40,-2.11 -12.41,-2.21 -12.38,-2.31 -12.35,-2.42 -12.29,-2.50 -12.23,-2.59 -12.14,-2.65 -12.06,-2.72 -11.95,-2.75 -11.85,-2.78 -11.85,-2.78 -11.85,-2.78 -9.65,-3.49 -7.44,-4.20 -4.69,-3.73 -1.94,-3.27 0.36,-1.91 2.66,-0.55 4.95,0.88 7.24,2.32 8.90,3.87 10.57,5.42 11.58,7.14 12.58,8.85 12.95,10.73 13.32,12.61 13.20,14.54 13.09,16.47 12.32,18.53 11.54,20.59 10.33,21.87 9.12,23.15 7.44,24.08 5.76,25.01 3.42,25.70 1.07,26.39 -0.64,26.63 -2.36,26.87 -4.15,26.96 -5.94,27.05 -7.71,26.79 -9.47,26.54 -11.18,25.98 -12.90,25.41 -14.61,24.51 -16.32,23.61 -17.85,22.00 -19.39,20.39 -19.98,18.82 -20.57,17.24 -20.95,14.93 -21.33,12.62 -20.88,10.91 -20.43,9.19 -19.80,7.48 -19.17,5.78 -18.19,4.18 -17.21,2.58 -15.95,1.27 -14.69,-0.02 -13.16,-1.20 -11.64,-2.38 -9.92,-3.29 -8.20,-4.19 -7.16,-4.42 -6.11,-4.66 -5.01,-4.74 -3.90,-4.82 -2.91,-4.47 -1.92,-4.11 -1.30,-3.49 -0.68,-2.87 -0.36,-2.25 -0.03,-1.63 0.29,-1.02 0.61,-0.40 0.65,-0.32 0.69,-0.25 0.71,-0.16 0.73,-0.07 0.73,0.01 0.73,0.10 0.70,0.18 0.68,0.27 0.64,0.35 0.60,0.42 0.54,0.49 0.48,0.56 0.40,0.60 0.33,0.65 0.24,0.68 0.16,0.71 0.07,0.72 -0.01,0.73 -0.10,0.72 -0.18,0.71 -0.27,0.68 -0.35,0.64 -0.42,0.59 -0.49,0.54 -0.55,0.47 -0.61,0.40 -0.61,0.40 L -0.61,0.40 Z"></path></g><g transform="translate(216.66668701171875 144.5) rotate(0 3.333343505859375 15)" stroke="none"><path fill="#220033" d="M -0.85,0 Q -0.85,0 -1.01,-0.96 -1.18,-1.93 -1.00,-2.60 -0.82,-3.28 -0.98,-3.66 -1.13,-4.03 -1.06,-4.18 -0.99,-4.33 -0.89,-4.46 -0.79,-4.59 -0.66,-4.69 -0.53,-4.79 -0.38,-4.86 -0.23,-4.92 -0.07,-4.95 0.09,-4.98 0.25,-4.97 0.41,-4.96 0.57,-4.91 0.73,-4.86 0.87,-4.77 1.01,-4.69 1.12,-4.57 1.24,-4.45 1.32,-4.31 1.41,-4.17 1.45,-4.01 1.50,-3.85 1.51,-3.69 1.52,-3.53 1.49,-3.36 1.46,-3.20 1.55,-1.97 1.63,-0.74 1.61,0.80 1.58,2.35 0.79,5.32 0.00,8.30 -0.90,11.05 -1.81,13.81 -2.98,16.57 -4.15,19.32 -5.39,22.20 -6.63,25.08 -7.56,26.93 -8.48,28.77 -9.03,30.05 -9.57,31.33 -7.38,31.18 -5.18,31.03 -3.44,31.00 -1.69,30.98 -0.63,30.97 0.42,30.96 1.83,30.96 3.24,30.95 4.80,30.95 6.36,30.95 7.98,30.95 9.60,30.95 10.94,30.76 12.29,30.58 13.62,30.31 14.95,30.04 16.61,30.37 18.27,30.71 18.38,30.71 18.48,30.72 18.58,30.76 18.68,30.80 18.76,30.87 18.84,30.94 18.89,31.03 18.95,31.13 18.97,31.23 18.99,31.33 18.98,31.44 18.96,31.54 18.92,31.64 18.87,31.74 18.80,31.81 18.72,31.89 18.63,31.94 18.53,31.98 18.43,32.00 18.32,32.02 18.22,32.00 18.11,31.98 18.02,31.93 17.93,31.88 17.86,31.80 17.78,31.72 17.74,31.62 17.70,31.53 17.69,31.42 17.68,31.31 17.70,31.21 17.73,31.11 17.78,31.02 17.84,30.93 17.92,30.86 18.00,30.79 18.10,30.75 18.20,30.72 18.31,30.71 18.41,30.71 18.52,30.74 18.62,30.77 18.70,30.83 18.79,30.89 18.85,30.97 18.92,31.06 18.95,31.16 18.98,31.26 18.98,31.37 18.98,31.48 18.94,31.58 18.91,31.68 18.84,31.76 18.78,31.84 18.69,31.90 18.60,31.96 18.50,31.99 18.39,32.01 18.39,32.01 18.39,32.01 17.00,32.72 15.61,33.42 14.17,33.70 12.74,33.98 11.17,34.18 9.60,34.38 7.98,34.38 6.36,34.38 4.81,34.38 3.25,34.38 1.84,34.38 0.44,34.38 -0.61,34.38 -1.66,34.39 -3.09,34.38 -4.52,34.38 -7.28,34.83 -10.04,35.29 -11.07,34.74 -12.10,34.20 -12.52,33.16 -12.94,32.13 -12.82,31.08 -12.70,30.04 -12.08,28.64 -11.46,27.25 -10.55,25.50 -9.64,23.76 -8.37,20.91 -7.10,18.05 -5.96,15.43 -4.82,12.80 -3.91,10.12 -3.00,7.44 -2.21,4.83 -1.42,2.22 -1.33,0.56 -1.25,-1.09 -1.03,-1.83 -0.82,-2.56 -0.97,-3.30 -1.13,-4.03 -1.06,-4.18 -0.99,-4.33 -0.89,-4.46 -0.79,-4.59 -0.66,-4.69 -0.53,-4.79 -0.38,-4.86 -0.23,-4.92 -0.07,-4.95 0.09,-4.98 0.25,-4.97 0.41,-4.96 0.57,-4.91 0.73,-4.86 0.87,-4.77 1.01,-4.69 1.12,-4.57 1.24,-4.45 1.32,-4.31 1.41,-4.17 1.45,-4.01 1.50,-3.85 1.51,-3.69 1.52,-3.53 1.49,-3.36 1.46,-3.20 1.52,-3.07 1.59,-2.94 1.38,-2.42 1.18,-1.89 1.01,-0.94 0.85,0 0.83,0.10 0.82,0.20 0.78,0.29 0.75,0.39 0.69,0.47 0.63,0.56 0.55,0.63 0.48,0.69 0.39,0.74 0.30,0.79 0.20,0.81 0.10,0.84 -0.00,0.84 -0.10,0.84 -0.20,0.81 -0.30,0.79 -0.39,0.74 -0.48,0.69 -0.55,0.63 -0.63,0.56 -0.69,0.47 -0.75,0.39 -0.78,0.29 -0.82,0.20 -0.83,0.10 -0.85,-0.00 -0.85,-0.00 L -0.85,0 Z"></path></g><g transform="translate(222.66668701171875 141.16665649414062) rotate(0 -0.666656494140625 33.66667175292969)" stroke="none"><path fill="#220033" d="M 0.87,0.17 Q 0.87,0.17 0.90,1.17 0.93,2.17 0.92,4.39 0.90,6.61 1.09,9.06 1.27,11.51 1.35,15.87 1.44,20.24 1.28,24.61 1.13,28.98 1.07,32.92 1.02,36.85 0.82,40.48 0.61,44.11 0.53,47.15 0.45,50.19 0.61,52.36 0.77,54.54 0.84,56.88 0.92,59.21 1.13,60.67 1.35,62.13 0.70,64.70 0.05,67.27 0.00,67.36 -0.04,67.45 -0.12,67.53 -0.20,67.60 -0.30,67.64 -0.40,67.68 -0.51,67.68 -0.61,67.69 -0.71,67.67 -0.82,67.64 -0.91,67.58 -1.00,67.52 -1.06,67.44 -1.13,67.36 -1.16,67.26 -1.20,67.16 -1.20,67.05 -1.20,66.94 -1.17,66.84 -1.14,66.74 -1.07,66.65 -1.01,66.57 -0.92,66.51 -0.84,66.45 -0.74,66.42 -0.63,66.39 -0.53,66.39 -0.42,66.39 -0.32,66.43 -0.22,66.47 -0.14,66.54 -0.06,66.60 -0.00,66.69 0.04,66.79 0.07,66.89 0.09,66.99 0.08,67.10 0.07,67.20 0.03,67.30 -0.00,67.40 -0.07,67.48 -0.15,67.55 -0.24,67.61 -0.33,67.66 -0.44,67.68 -0.54,67.69 -0.65,67.68 -0.75,67.66 -0.85,67.62 -0.94,67.57 -1.01,67.49 -1.09,67.42 -1.14,67.32 -1.18,67.22 -1.19,67.12 -1.21,67.01 -1.19,66.91 -1.17,66.81 -1.17,66.81 -1.17,66.81 -1.58,64.70 -2.00,62.60 -2.22,60.95 -2.44,59.31 -2.49,57.04 -2.55,54.77 -2.69,52.43 -2.84,50.09 -2.73,47.00 -2.63,43.91 -2.39,40.35 -2.15,36.80 -2.06,32.83 -1.98,28.87 -1.81,24.58 -1.64,20.28 -1.68,15.99 -1.73,11.70 -1.86,9.10 -2.00,6.51 -1.84,4.08 -1.69,1.65 -1.28,0.74 -0.87,-0.17 -0.84,-0.27 -0.80,-0.37 -0.75,-0.47 -0.69,-0.56 -0.61,-0.63 -0.53,-0.71 -0.44,-0.76 -0.35,-0.82 -0.25,-0.85 -0.14,-0.88 -0.03,-0.88 0.06,-0.89 0.17,-0.86 0.27,-0.84 0.37,-0.80 0.47,-0.75 0.55,-0.68 0.64,-0.62 0.70,-0.53 0.77,-0.44 0.81,-0.35 0.85,-0.25 0.87,-0.14 0.89,-0.03 0.88,0.06 0.87,0.17 0.87,0.17 L 0.87,0.17 Z"></path></g><g transform="translate(512.6666870117188 103.5) rotate(0 0.00004999999998744897 0.00005000000000165983)" stroke="none"><path fill="#220033" d="M 0.78,-0.78 Q 0.78,-0.78 0.88,-0.63 0.99,-0.49 1.04,-0.32 1.10,-0.14 1.09,0.02 1.09,0.20 1.02,0.37 0.96,0.54 0.85,0.68 0.74,0.82 0.59,0.92 0.43,1.02 0.26,1.06 0.09,1.10 -0.08,1.09 -0.26,1.07 -0.43,1.00 -0.59,0.93 -0.73,0.81 -0.86,0.69 -0.95,0.53 -1.04,0.38 -1.07,0.20 -1.10,0.02 -1.08,-0.14 -1.06,-0.32 -0.98,-0.48 -0.90,-0.64 -0.77,-0.77 -0.64,-0.90 -0.48,-0.98 -0.32,-1.06 -0.14,-1.08 0.03,-1.10 0.20,-1.07 0.38,-1.04 0.53,-0.95 0.69,-0.86 0.81,-0.73 0.93,-0.59 1.00,-0.43 1.07,-0.26 1.09,-0.08 1.10,0.09 1.06,0.26 1.01,0.43 0.92,0.59 0.82,0.74 0.68,0.85 0.54,0.96 0.37,1.02 0.20,1.09 0.02,1.09 -0.15,1.10 -0.32,1.04 -0.49,0.99 -0.63,0.88 -0.78,0.78 -0.78,0.78 -0.78,0.78 -0.86,0.67 -0.95,0.57 -1.00,0.45 -1.06,0.33 -1.08,0.19 -1.10,0.06 -1.10,-0.06 -1.09,-0.20 -1.05,-0.32 -1.01,-0.45 -0.94,-0.57 -0.87,-0.68 -0.77,-0.77 -0.68,-0.87 -0.57,-0.94 -0.45,-1.01 -0.32,-1.05 -0.20,-1.09 -0.06,-1.10 0.06,-1.10 0.19,-1.08 0.33,-1.06 0.45,-1.00 0.57,-0.95 0.67,-0.86 0.78,-0.78 0.78,-0.78 L 0.78,-0.78 Z"></path></g><g transform="translate(490.66668701171875 98.83332824707031) rotate(0 -56.333343505859375 83.00000762939453)" stroke="none"><path fill="#220033" d="M -0.22,0.91 Q -0.22,0.91 -3.34,0.32 -6.45,-0.25 -8.65,-0.55 -10.84,-0.84 -12.79,-1.15 -14.73,-1.47 -16.62,-1.58 -18.52,-1.70 -20.73,-1.93 -22.94,-2.17 -24.97,-2.26 -27.00,-2.35 -29.01,-2.40 -31.02,-2.44 -32.84,-2.45 -34.65,-2.47 -37.20,-2.67 -39.75,-2.87 -42.18,-3.14 -44.61,-3.42 -46.55,-3.52 -48.49,-3.63 -50.84,-3.68 -53.18,-3.72 -55.14,-3.74 -57.10,-3.76 -59.28,-3.77 -61.45,-3.78 -63.45,-3.59 -65.45,-3.41 -67.45,-3.14 -69.45,-2.87 -71.86,-2.56 -74.26,-2.26 -77.36,-1.75 -80.46,-1.24 -83.08,-0.64 -85.71,-0.05 -88.01,0.39 -90.32,0.84 -93.56,1.60 -96.81,2.36 -99.68,3.25 -102.55,4.14 -105.15,4.90 -107.74,5.67 -110.13,6.56 -112.52,7.44 -114.72,8.21 -116.92,8.99 -119.00,9.70 -121.09,10.41 -123.82,11.64 -126.55,12.88 -129.85,14.37 -133.15,15.86 -135.69,17.06 -138.23,18.27 -139.62,19.12 -141.02,19.98 -144.66,22.63 -148.30,25.27 -153.99,31.12 -159.68,36.96 -162.88,40.60 -166.08,44.24 -168.73,48.21 -171.39,52.18 -173.05,56.08 -174.72,59.98 -176.00,63.93 -177.29,67.87 -178.20,71.63 -179.12,75.39 -179.71,77.60 -180.31,79.81 -180.53,83.09 -180.75,86.38 -180.86,88.58 -180.96,90.78 -181.01,93.24 -181.05,95.69 -180.88,98.21 -180.71,100.73 -180.26,103.29 -179.81,105.84 -179.42,108.11 -179.04,110.38 -178.33,112.37 -177.62,114.36 -176.75,116.35 -175.88,118.34 -174.39,120.85 -172.91,123.36 -171.35,125.34 -169.80,127.32 -168.19,129.11 -166.59,130.90 -164.42,132.76 -162.26,134.62 -160.20,136.17 -158.14,137.72 -155.96,139.13 -153.77,140.53 -151.50,141.90 -149.23,143.26 -147.30,144.42 -145.36,145.58 -143.26,146.61 -141.15,147.64 -138.39,148.63 -135.63,149.61 -133.23,150.63 -130.83,151.65 -128.04,153.04 -125.26,154.44 -122.78,155.59 -120.31,156.73 -117.97,157.58 -115.63,158.43 -113.41,159.39 -111.19,160.35 -109.15,161.12 -107.11,161.88 -104.93,162.58 -102.75,163.28 -99.72,164.14 -96.69,165.01 -94.29,165.56 -91.88,166.11 -89.65,166.74 -87.42,167.37 -84.49,167.79 -81.56,168.22 -78.93,168.60 -76.30,168.99 -74.09,169.14 -71.89,169.29 -69.69,169.16 -67.50,169.04 -65.03,168.79 -62.55,168.55 -59.97,168.25 -57.38,167.96 -54.01,167.45 -50.63,166.94 -47.70,166.35 -44.76,165.75 -41.47,164.75 -38.18,163.75 -35.24,162.75 -32.30,161.75 -29.47,160.93 -26.64,160.10 -24.11,159.37 -21.57,158.64 -19.30,158.13 -17.02,157.61 -14.76,157.02 -12.51,156.43 -9.23,155.60 -5.95,154.77 -2.51,153.66 0.93,152.55 4.67,151.13 8.41,149.71 10.75,148.73 13.10,147.75 17.07,145.46 21.04,143.17 25.76,139.74 30.47,136.31 34.79,132.93 39.10,129.55 42.43,126.61 45.77,123.66 48.31,121.10 50.84,118.53 52.65,116.34 54.46,114.14 56.37,111.50 58.27,108.87 59.61,106.47 60.96,104.08 61.70,102.34 62.44,100.61 63.15,98.89 63.86,97.17 64.51,94.47 65.15,91.76 65.82,88.66 66.49,85.55 66.96,82.37 67.43,79.18 67.62,76.53 67.82,73.88 67.71,71.49 67.60,69.10 67.19,66.42 66.77,63.73 66.23,61.69 65.68,59.64 65.07,57.83 64.47,56.02 63.84,54.52 63.22,53.02 62.56,51.39 61.90,49.77 61.08,48.20 60.26,46.63 59.31,44.54 58.35,42.46 57.43,40.91 56.50,39.37 55.51,37.71 54.53,36.06 53.71,34.56 52.89,33.06 52.02,31.73 51.14,30.40 50.20,29.07 49.26,27.73 48.14,26.46 47.02,25.19 45.83,24.12 44.64,23.05 43.23,22.05 41.81,21.06 40.61,20.23 39.41,19.40 38.38,18.35 37.34,17.30 36.39,16.34 35.44,15.38 34.08,14.01 32.72,12.65 31.49,11.78 30.26,10.91 29.22,10.37 28.18,9.83 27.07,9.17 25.97,8.50 24.89,8.10 23.82,7.70 22.39,6.85 20.97,6.01 19.83,5.28 18.69,4.56 17.74,4.12 16.79,3.68 15.52,3.33 14.25,2.97 13.02,2.83 11.79,2.68 10.55,2.40 9.31,2.12 7.80,2.03 6.30,1.94 4.92,1.68 3.55,1.43 2.15,1.32 0.76,1.22 -0.60,1.14 -1.97,1.06 -2.04,0.15 -2.10,-0.76 -2.00,-0.74 -1.89,-0.71 -1.80,-0.66 -1.71,-0.61 -1.64,-0.53 -1.57,-0.44 -1.53,-0.35 -1.49,-0.25 -1.49,-0.14 -1.48,-0.04 -1.51,0.06 -1.54,0.16 -1.60,0.25 -1.66,0.34 -1.74,0.40 -1.83,0.47 -1.93,0.50 -2.03,0.53 -2.13,0.53 -2.24,0.53 -2.34,0.50 -2.44,0.47 -2.53,0.40 -2.61,0.34 -2.67,0.25 -2.73,0.16 -2.76,0.06 -2.79,-0.03 -2.78,-0.14 -2.78,-0.24 -2.74,-0.34 -2.70,-0.44 -2.63,-0.52 -2.56,-0.60 -2.47,-0.66 -2.38,-0.71 -2.28,-0.74 -2.17,-0.76 -2.07,-0.75 -1.96,-0.74 -1.86,-0.69 -1.77,-0.65 -1.69,-0.58 -1.61,-0.50 -1.56,-0.41 -1.51,-0.32 -1.50,-0.21 -1.48,-0.11 -1.49,-0.00 -1.51,0.09 -1.56,0.19 -1.61,0.28 -1.69,0.36 -1.76,0.43 -1.86,0.47 -1.96,0.52 -2.06,0.53 -2.17,0.54 -2.17,0.54 -2.17,0.54 -2.02,-0.86 -1.87,-2.27 -0.43,-2.26 1.00,-2.25 2.60,-2.15 4.20,-2.05 5.37,-1.83 6.54,-1.60 8.32,-1.47 10.10,-1.34 11.16,-1.09 12.23,-0.85 13.73,-0.65 15.23,-0.45 16.77,-0.00 18.31,0.44 19.46,0.98 20.61,1.53 21.71,2.23 22.82,2.93 23.96,3.63 25.11,4.33 26.47,4.86 27.83,5.38 28.85,5.99 29.87,6.60 31.13,7.27 32.38,7.94 33.84,9.00 35.30,10.06 36.67,11.44 38.04,12.81 39.01,13.79 39.97,14.77 40.73,15.58 41.50,16.39 42.71,17.23 43.93,18.07 45.51,19.20 47.10,20.33 48.44,21.55 49.78,22.77 51.02,24.19 52.25,25.60 53.24,26.99 54.22,28.37 55.18,29.82 56.14,31.28 56.93,32.71 57.72,34.15 58.71,35.80 59.70,37.46 60.72,39.18 61.74,40.90 62.67,42.90 63.59,44.90 64.48,46.63 65.37,48.35 66.03,49.97 66.69,51.58 67.36,53.21 68.03,54.83 68.67,56.76 69.31,58.68 69.90,60.92 70.49,63.16 70.92,66.05 71.36,68.94 71.47,71.55 71.57,74.16 71.36,76.94 71.15,79.73 70.66,83.04 70.17,86.35 69.49,89.49 68.80,92.64 68.07,95.62 67.34,98.60 66.61,100.35 65.89,102.10 65.06,104.01 64.22,105.92 62.77,108.49 61.31,111.06 59.33,113.79 57.35,116.52 55.42,118.85 53.50,121.17 50.87,123.81 48.24,126.46 44.82,129.47 41.39,132.48 37.03,135.90 32.66,139.32 27.78,142.86 22.90,146.40 18.71,148.79 14.53,151.17 12.13,152.18 9.72,153.18 5.89,154.63 2.05,156.08 -1.49,157.21 -5.05,158.34 -8.31,159.16 -11.58,159.99 -13.90,160.59 -16.21,161.19 -18.39,161.68 -20.56,162.17 -23.09,162.89 -25.62,163.62 -28.37,164.42 -31.13,165.22 -34.12,166.24 -37.12,167.26 -40.58,168.30 -44.04,169.34 -47.07,169.95 -50.09,170.56 -53.53,171.06 -56.97,171.57 -59.59,171.87 -62.20,172.16 -64.76,172.40 -67.31,172.65 -69.73,172.76 -72.14,172.88 -74.48,172.71 -76.81,172.53 -79.45,172.14 -82.09,171.75 -85.23,171.26 -88.38,170.78 -90.53,170.16 -92.68,169.54 -95.17,168.96 -97.66,168.38 -100.74,167.49 -103.82,166.59 -106.08,165.85 -108.34,165.11 -110.45,164.31 -112.56,163.50 -114.68,162.57 -116.80,161.63 -119.27,160.72 -121.74,159.81 -124.27,158.63 -126.79,157.45 -129.46,156.06 -132.13,154.68 -134.43,153.67 -136.74,152.67 -139.65,151.59 -142.57,150.52 -144.79,149.42 -147.01,148.31 -148.94,147.15 -150.87,145.98 -153.18,144.59 -155.49,143.20 -157.77,141.72 -160.05,140.24 -162.19,138.62 -164.32,137.00 -166.62,135.00 -168.92,133.00 -170.60,131.12 -172.28,129.25 -173.94,127.10 -175.60,124.95 -177.17,122.27 -178.74,119.59 -179.65,117.49 -180.56,115.38 -181.33,113.14 -182.10,110.90 -182.48,108.64 -182.86,106.37 -183.33,103.66 -183.79,100.94 -183.97,98.29 -184.14,95.64 -184.09,93.14 -184.05,90.64 -183.94,88.39 -183.83,86.15 -183.55,82.59 -183.27,79.02 -182.68,76.84 -182.09,74.66 -181.13,70.80 -180.17,66.93 -178.83,62.86 -177.50,58.79 -175.71,54.64 -173.91,50.50 -171.14,46.36 -168.37,42.23 -165.12,38.53 -161.87,34.83 -155.99,28.81 -150.11,22.79 -146.37,20.07 -142.63,17.35 -141.09,16.42 -139.55,15.48 -136.99,14.26 -134.42,13.05 -131.12,11.55 -127.82,10.06 -124.95,8.77 -122.09,7.49 -120.01,6.78 -117.94,6.07 -115.76,5.31 -113.59,4.55 -111.10,3.64 -108.61,2.72 -106.04,1.96 -103.46,1.19 -100.48,0.28 -97.51,-0.63 -94.21,-1.40 -90.91,-2.17 -88.65,-2.61 -86.39,-3.05 -83.67,-3.66 -80.96,-4.27 -77.80,-4.79 -74.65,-5.31 -72.25,-5.61 -69.86,-5.92 -67.80,-6.20 -65.73,-6.47 -63.58,-6.66 -61.44,-6.85 -59.25,-6.84 -57.07,-6.83 -55.09,-6.81 -53.12,-6.79 -50.71,-6.73 -48.31,-6.68 -46.29,-6.55 -44.27,-6.42 -41.89,-6.14 -39.51,-5.86 -37.07,-5.66 -34.62,-5.46 -32.79,-5.44 -30.96,-5.42 -28.90,-5.37 -26.85,-5.32 -24.73,-5.20 -22.61,-5.08 -20.46,-4.81 -18.32,-4.55 -16.29,-4.38 -14.26,-4.21 -12.36,-3.87 -10.46,-3.52 -8.13,-3.16 -5.81,-2.81 -2.79,-1.86 0.22,-0.91 0.33,-0.87 0.44,-0.83 0.53,-0.76 0.62,-0.70 0.70,-0.61 0.77,-0.53 0.82,-0.43 0.88,-0.33 0.90,-0.22 0.93,-0.11 0.93,0.00 0.93,0.11 0.90,0.22 0.88,0.33 0.82,0.43 0.77,0.53 0.69,0.62 0.62,0.70 0.52,0.77 0.43,0.83 0.32,0.87 0.22,0.91 0.10,0.92 -0.00,0.94 -0.11,0.92 -0.22,0.91 -0.22,0.91 L -0.22,0.91 Z"></path></g><g transform="translate(312.66668701171875 95.33332824707031) rotate(0 -46.333343505859375 83.00000762939453)" stroke="none"><path fill="#220033" d="M 14.24,0.91 Q 14.24,0.91 10.89,0.33 7.54,-0.25 5.16,-0.54 2.77,-0.84 0.68,-1.15 -1.40,-1.47 -3.46,-1.58 -5.52,-1.70 -7.90,-1.93 -10.28,-2.17 -12.47,-2.26 -14.67,-2.35 -16.84,-2.40 -19.02,-2.44 -20.97,-2.45 -22.93,-2.47 -25.68,-2.67 -28.42,-2.87 -31.04,-3.14 -33.66,-3.42 -35.76,-3.52 -37.86,-3.63 -40.39,-3.68 -42.93,-3.72 -45.05,-3.74 -47.16,-3.76 -49.51,-3.77 -51.85,-3.78 -54.03,-3.59 -56.20,-3.41 -58.36,-3.14 -60.52,-2.87 -63.11,-2.56 -65.70,-2.25 -69.05,-1.74 -72.40,-1.23 -75.24,-0.64 -78.08,-0.04 -80.57,0.40 -83.06,0.85 -86.56,1.61 -90.07,2.37 -93.17,3.26 -96.28,4.14 -99.07,4.91 -101.87,5.68 -104.46,6.57 -107.05,7.46 -109.42,8.23 -111.79,9.00 -114.04,9.71 -116.29,10.42 -119.25,11.66 -122.20,12.89 -125.76,14.38 -129.32,15.88 -132.06,17.08 -134.80,18.28 -136.32,19.15 -137.83,20.01 -141.76,22.66 -145.70,25.30 -151.84,31.15 -157.99,37.00 -161.44,40.64 -164.90,44.28 -167.76,48.25 -170.63,52.22 -172.42,56.12 -174.22,60.02 -175.60,63.96 -176.99,67.90 -177.98,71.66 -178.97,75.42 -179.61,77.63 -180.25,79.84 -180.49,83.11 -180.72,86.39 -180.84,88.59 -180.95,90.79 -181.00,93.24 -181.04,95.70 -180.86,98.21 -180.67,100.73 -180.19,103.27 -179.71,105.82 -179.29,108.09 -178.87,110.36 -178.11,112.34 -177.35,114.32 -176.41,116.31 -175.47,118.30 -173.87,120.81 -172.27,123.32 -170.59,125.29 -168.92,127.27 -167.18,129.06 -165.45,130.86 -163.11,132.72 -160.77,134.58 -158.55,136.13 -156.32,137.69 -153.96,139.10 -151.60,140.50 -149.14,141.87 -146.69,143.23 -144.61,144.39 -142.52,145.55 -140.24,146.59 -137.96,147.62 -134.98,148.61 -131.99,149.60 -129.40,150.62 -126.81,151.63 -123.82,153.02 -120.82,154.42 -118.15,155.56 -115.47,156.71 -112.94,157.56 -110.41,158.41 -108.02,159.37 -105.63,160.34 -103.42,161.10 -101.22,161.87 -98.86,162.57 -96.50,163.27 -93.23,164.13 -89.96,165.00 -87.36,165.55 -84.76,166.10 -82.35,166.73 -79.95,167.36 -76.77,167.79 -73.59,168.22 -70.75,168.60 -67.91,168.98 -65.53,169.14 -63.14,169.29 -60.75,169.16 -58.37,169.04 -55.69,168.79 -53.02,168.55 -50.22,168.25 -47.43,167.96 -43.79,167.45 -40.14,166.94 -36.97,166.34 -33.79,165.75 -30.23,164.75 -26.67,163.74 -23.49,162.74 -20.32,161.74 -17.26,160.92 -14.21,160.09 -11.48,159.36 -8.75,158.64 -6.30,158.12 -3.85,157.61 -1.41,157.01 1.02,156.42 4.56,155.59 8.09,154.76 11.82,153.65 15.54,152.54 19.58,151.12 23.63,149.70 26.16,148.72 28.70,147.73 33.00,145.44 37.29,143.14 42.39,139.71 47.49,136.27 52.14,132.89 56.80,129.51 60.40,126.56 64.00,123.62 66.74,121.05 69.48,118.48 71.44,116.29 73.39,114.09 75.45,111.45 77.50,108.81 78.95,106.42 80.40,104.02 81.20,102.29 82.00,100.56 82.77,98.84 83.54,97.13 84.23,94.43 84.92,91.73 85.64,88.62 86.37,85.52 86.87,82.34 87.37,79.16 87.58,76.52 87.79,73.87 87.68,71.49 87.56,69.11 87.11,66.43 86.67,63.76 86.08,61.72 85.49,59.68 84.84,57.87 84.19,56.06 83.51,54.57 82.84,53.07 82.13,51.44 81.42,49.81 80.53,48.25 79.65,46.68 78.62,44.59 77.59,42.51 76.59,40.97 75.59,39.42 74.53,37.77 73.46,36.11 72.58,34.61 71.70,33.11 70.75,31.78 69.81,30.45 68.79,29.12 67.77,27.79 66.57,26.51 65.36,25.24 64.07,24.17 62.78,23.09 61.25,22.09 59.72,21.09 58.42,20.26 57.12,19.43 56.02,18.39 54.91,17.35 53.89,16.39 52.86,15.43 51.39,14.06 49.92,12.69 48.59,11.82 47.25,10.94 46.12,10.40 44.98,9.86 43.80,9.19 42.61,8.53 41.43,8.12 40.26,7.71 38.73,6.87 37.21,6.04 35.99,5.31 34.76,4.59 33.72,4.15 32.69,3.70 31.30,3.34 29.91,2.98 28.56,2.83 27.22,2.69 25.89,2.41 24.56,2.13 22.92,2.03 21.27,1.94 19.81,1.68 18.34,1.43 16.82,1.32 15.30,1.22 13.81,1.14 12.33,1.06 10.65,1.15 8.98,1.25 8.80,1.22 8.62,1.19 8.45,1.12 8.28,1.05 8.14,0.95 7.99,0.84 7.87,0.70 7.76,0.56 7.68,0.40 7.60,0.23 7.56,0.06 7.52,-0.11 7.52,-0.29 7.53,-0.48 7.58,-0.65 7.63,-0.83 7.72,-0.98 7.80,-1.14 7.93,-1.28 8.05,-1.41 8.21,-1.51 8.36,-1.61 8.53,-1.67 8.70,-1.73 8.88,-1.74 9.06,-1.76 10.62,-1.26 12.18,-0.76 12.28,-0.74 12.38,-0.72 12.48,-0.66 12.57,-0.61 12.64,-0.53 12.71,-0.45 12.75,-0.35 12.79,-0.25 12.79,-0.14 12.80,-0.04 12.77,0.06 12.74,0.16 12.68,0.25 12.62,0.33 12.54,0.40 12.46,0.46 12.36,0.50 12.26,0.53 12.15,0.53 12.04,0.53 11.94,0.50 11.84,0.47 11.76,0.40 11.67,0.34 11.61,0.25 11.55,0.17 11.52,0.06 11.49,-0.03 11.50,-0.13 11.50,-0.24 11.54,-0.34 11.58,-0.44 11.65,-0.52 11.72,-0.60 11.81,-0.66 11.90,-0.71 12.00,-0.74 12.10,-0.76 12.21,-0.75 12.32,-0.74 12.41,-0.69 12.51,-0.65 12.59,-0.58 12.67,-0.50 12.72,-0.41 12.77,-0.32 12.78,-0.21 12.80,-0.11 12.79,-0.00 12.77,0.09 12.72,0.19 12.67,0.28 12.59,0.35 12.52,0.43 12.42,0.47 12.32,0.52 12.22,0.53 12.11,0.54 12.11,0.54 12.11,0.54 10.55,0.89 8.98,1.25 8.80,1.22 8.62,1.19 8.45,1.12 8.28,1.05 8.14,0.95 7.99,0.84 7.87,0.70 7.76,0.56 7.68,0.40 7.60,0.23 7.56,0.06 7.52,-0.11 7.52,-0.29 7.53,-0.48 7.58,-0.65 7.63,-0.83 7.72,-0.98 7.80,-1.14 7.93,-1.28 8.05,-1.41 8.21,-1.51 8.36,-1.61 8.53,-1.67 8.70,-1.73 8.88,-1.74 9.06,-1.76 10.74,-2.01 12.42,-2.27 13.97,-2.26 15.52,-2.25 17.23,-2.15 18.95,-2.06 20.22,-1.83 21.50,-1.60 23.40,-1.48 25.30,-1.35 26.46,-1.10 27.63,-0.85 29.22,-0.65 30.82,-0.46 32.46,-0.02 34.11,0.42 35.34,0.96 36.57,1.50 37.77,2.20 38.96,2.90 40.21,3.61 41.46,4.31 42.91,4.83 44.37,5.35 45.47,5.97 46.58,6.58 47.92,7.24 49.27,7.90 50.84,8.96 52.41,10.02 53.88,11.39 55.36,12.77 56.40,13.74 57.44,14.72 58.27,15.54 59.10,16.36 60.42,17.20 61.73,18.04 63.43,19.16 65.13,20.28 66.58,21.50 68.02,22.72 69.36,24.14 70.69,25.55 71.75,26.93 72.82,28.32 73.85,29.77 74.89,31.22 75.74,32.66 76.59,34.10 77.66,35.75 78.73,37.40 79.83,39.13 80.93,40.85 81.93,42.85 82.92,44.85 83.88,46.58 84.85,48.31 85.56,49.92 86.27,51.53 86.99,53.16 87.72,54.79 88.41,56.72 89.11,58.65 89.74,60.89 90.37,63.14 90.85,66.04 91.32,68.93 91.43,71.55 91.55,74.17 91.32,76.96 91.09,79.75 90.56,83.06 90.03,86.38 89.29,89.53 88.56,92.67 87.76,95.66 86.97,98.65 86.19,100.40 85.40,102.15 84.50,104.06 83.61,105.97 82.03,108.54 80.46,111.12 78.32,113.85 76.19,116.58 74.11,118.90 72.04,121.22 69.20,123.86 66.36,126.51 62.67,129.52 58.99,132.53 54.28,135.94 49.57,139.36 44.30,142.89 39.04,146.43 34.54,148.81 30.04,151.19 27.45,152.20 24.85,153.20 20.72,154.64 16.59,156.09 12.76,157.22 8.94,158.35 5.41,159.17 1.88,160.00 -0.60,160.60 -3.10,161.20 -5.45,161.69 -7.80,162.18 -10.53,162.90 -13.26,163.63 -16.24,164.43 -19.22,165.23 -22.45,166.25 -25.68,167.27 -29.40,168.31 -33.12,169.35 -36.38,169.95 -39.64,170.56 -43.35,171.07 -47.05,171.57 -49.87,171.87 -52.69,172.16 -55.44,172.40 -58.19,172.65 -60.78,172.76 -63.38,172.88 -65.89,172.71 -68.40,172.53 -71.24,172.14 -74.09,171.75 -77.47,171.27 -80.85,170.79 -83.17,170.17 -85.49,169.55 -88.18,168.97 -90.86,168.39 -94.18,167.50 -97.50,166.60 -99.93,165.87 -102.37,165.13 -104.64,164.32 -106.91,163.52 -109.21,162.58 -111.50,161.65 -114.16,160.74 -116.82,159.83 -119.54,158.65 -122.26,157.47 -125.15,156.08 -128.04,154.70 -130.53,153.69 -133.03,152.68 -136.16,151.61 -139.30,150.54 -141.68,149.44 -144.07,148.34 -146.16,147.18 -148.24,146.01 -150.73,144.62 -153.22,143.23 -155.68,141.75 -158.14,140.28 -160.44,138.66 -162.75,137.04 -165.23,135.04 -167.70,133.04 -169.51,131.17 -171.32,129.29 -173.11,127.14 -174.91,125.00 -176.60,122.31 -178.30,119.63 -179.28,117.52 -180.26,115.42 -181.09,113.17 -181.93,110.93 -182.34,108.66 -182.76,106.39 -183.26,103.67 -183.76,100.95 -183.95,98.29 -184.14,95.64 -184.08,93.13 -184.03,90.63 -183.91,88.39 -183.80,86.14 -183.49,82.57 -183.19,79.00 -182.56,76.81 -181.92,74.63 -180.88,70.77 -179.84,66.90 -178.40,62.82 -176.96,58.75 -175.03,54.60 -173.09,50.46 -170.10,46.32 -167.11,42.19 -163.61,38.49 -160.10,34.79 -153.76,28.77 -147.42,22.76 -143.39,20.04 -139.35,17.33 -137.70,16.39 -136.05,15.46 -133.28,14.25 -130.51,13.03 -126.95,11.54 -123.39,10.04 -120.31,8.76 -117.22,7.47 -114.98,6.77 -112.74,6.06 -110.39,5.30 -108.04,4.54 -105.37,3.63 -102.69,2.71 -99.91,1.95 -97.12,1.18 -93.92,0.27 -90.72,-0.63 -87.16,-1.40 -83.61,-2.17 -81.16,-2.61 -78.71,-3.06 -75.79,-3.67 -72.87,-4.28 -69.47,-4.79 -66.07,-5.31 -63.48,-5.62 -60.90,-5.92 -58.68,-6.20 -56.46,-6.47 -54.15,-6.66 -51.84,-6.85 -49.49,-6.84 -47.13,-6.83 -45.00,-6.81 -42.87,-6.79 -40.28,-6.73 -37.69,-6.68 -35.52,-6.55 -33.34,-6.42 -30.77,-6.14 -28.20,-5.86 -25.55,-5.66 -22.90,-5.46 -20.93,-5.44 -18.95,-5.42 -16.74,-5.37 -14.53,-5.32 -12.25,-5.20 -9.97,-5.08 -7.65,-4.81 -5.33,-4.55 -3.14,-4.38 -0.96,-4.21 1.08,-3.87 3.13,-3.52 5.63,-3.17 8.13,-2.81 11.40,-1.86 14.67,-0.91 14.77,-0.87 14.88,-0.84 14.97,-0.77 15.07,-0.71 15.15,-0.63 15.22,-0.54 15.28,-0.44 15.33,-0.34 15.36,-0.23 15.39,-0.12 15.39,-0.01 15.39,0.10 15.37,0.21 15.34,0.32 15.29,0.42 15.24,0.52 15.16,0.61 15.09,0.69 15.00,0.76 14.90,0.82 14.80,0.87 14.69,0.91 14.58,0.92 14.47,0.94 14.35,0.93 14.24,0.91 14.24,0.91 L 14.24,0.91 Z"></path></g></svg>